<?xml version="1.0" standalone="no"?>
<!DOCTYPE svg PUBLIC "-//W3C//DTD SVG 1.1//EN" "http://www.w3.org/Graphics/SVG/1.1/DTD/svg11.dtd" >
<svg xmlns="http://www.w3.org/2000/svg" xmlns:xlink="http://www.w3.org/1999/xlink" version="1.1">
<metadata>
Created by FontForge 20161116 at Fri Mar 13 14:23:26 2015
 By Jimmy Wärting
Copyright \302\251 2014 by Fontfabric. All rights reserved.
</metadata>
<defs>
<font id="MullerBold" horiz-adv-x="590" >
  <font-face 
    font-family="Muller Bold"
    font-weight="700"
    font-stretch="normal"
    units-per-em="1000"
    panose-1="0 0 0 0 0 0 0 0 0 0"
    ascent="780"
    descent="-220"
    x-height="480"
    cap-height="700"
    bbox="-160 -273 1300 974"
    underline-thickness="50"
    underline-position="-125"
    stemh="120"
    stemv="140"
    unicode-range="U+0020-25CA"
  />
<missing-glyph horiz-adv-x="222" 
 />
    <glyph glyph-name="f_f" unicode="ff" horiz-adv-x="729" 
d="M740 594c-21 11 -53 20 -84 20c-45 0 -85 -16 -85 -76v-58h146v-117h-146v-363h-139v363h-188v-363h-138v363h-83v117h83v29c0 136 95 195 209 195c53 0 103 -10 156 -35c37 45 94 61 151 61c44 0 86 -8 118 -20v-116zM244 480h188v51c0 12 0 24 1 35
c-24 16 -53 24 -90 24c-59 0 -99 -27 -99 -82v-28z" />
    <glyph glyph-name="f_f_i" unicode="ffi" horiz-adv-x="951" 
d="M244 0h-138v363h-83v117h83v29c0 136 95 195 209 195c55 0 107 -11 167 -37c41 43 103 63 176 63c54 0 110 -10 167 -31v-118c-46 21 -94 33 -141 33c-64 0 -113 -26 -113 -90v-44h319v-480h-139v363h-180v-363h-139v363h-188v-363zM244 508v-28h188v45c0 15 1 30 3 43
c-29 15 -58 22 -96 22c-57 0 -95 -27 -95 -82z" />
    <glyph glyph-name="f_f_l" unicode="ffl" horiz-adv-x="961" 
d="M632 724c61 0 106 -11 150 -30l118 20v-714h-139v587c-30 13 -62 20 -94 20c-54 0 -96 -24 -96 -85v-42h129v-117h-129v-363h-139v363h-188v-363h-138v363h-83v117h83v29c0 136 95 195 209 195c55 0 108 -11 167 -37c37 39 90 57 150 57zM432 480v45c0 15 1 30 3 43
c-29 15 -58 22 -96 22c-57 0 -95 -27 -95 -82v-28h188z" />
    <glyph glyph-name=".notdef" horiz-adv-x="222" 
 />
    <glyph glyph-name="Aacute" unicode="&#xc1;" horiz-adv-x="739" 
d="M158 0h-155l286 700h162l285 -700h-155l-51 131h-320zM354 506l-97 -251h226l-98 251c-5 14 -10 28 -15 55c-5 -27 -10 -41 -16 -55zM415 764h-134l90 148h152z" />
    <glyph glyph-name="Abreve" unicode="&#x102;" horiz-adv-x="739" 
d="M158 0h-155l286 700h162l285 -700h-155l-51 131h-320zM354 506l-97 -251h226l-98 251c-5 14 -10 28 -15 55c-5 -27 -10 -41 -16 -55zM526 794c-44 -31 -92 -45 -157 -45s-112 14 -156 45v109c53 -33 102 -43 156 -43s104 10 157 43v-109z" />
    <glyph glyph-name="Acircumflex" unicode="&#xc2;" horiz-adv-x="739" 
d="M158 0h-155l286 700h162l285 -700h-155l-51 131h-320zM354 506l-97 -251h226l-98 251c-5 14 -10 28 -15 55c-5 -27 -10 -41 -16 -55zM308 912h123l124 -155h-132l-53 65l-53 -65h-133z" />
    <glyph glyph-name="Adieresis" unicode="&#xc4;" horiz-adv-x="739" 
d="M158 0h-155l286 700h162l285 -700h-155l-51 131h-320zM354 506l-97 -251h226l-98 251c-5 14 -10 28 -15 55c-5 -27 -10 -41 -16 -55zM550 833c0 -41 -33 -74 -74 -74c-42 0 -75 33 -75 74s33 75 75 75c41 0 74 -34 74 -75zM336 833c0 -41 -33 -74 -74 -74s-75 33 -75 74
s34 75 75 75s74 -34 74 -75z" />
    <glyph glyph-name="Agrave" unicode="&#xc0;" horiz-adv-x="739" 
d="M158 0h-155l286 700h162l285 -700h-155l-51 131h-320zM354 506l-97 -251h226l-98 251c-5 14 -10 28 -15 55c-5 -27 -10 -41 -16 -55zM456 764h-134l-108 148h152z" />
    <glyph glyph-name="Amacron" unicode="&#x100;" horiz-adv-x="739" 
d="M158 0h-155l286 700h162l285 -700h-155l-51 131h-320zM354 506l-97 -251h226l-98 251c-5 14 -10 28 -15 55c-5 -27 -10 -41 -16 -55zM206 877h326v-110h-326v110z" />
    <glyph glyph-name="Aogonek" unicode="&#x104;" horiz-adv-x="739" 
d="M664 -97c-1 -22 14 -33 35 -33c14 0 29 5 41 13v-94c-25 -16 -57 -23 -87 -23c-75 0 -114 45 -113 100c0 43 25 92 75 134h-34l-51 131h-320l-52 -131h-155l286 700h162l285 -700c-50 -33 -73 -71 -72 -97zM354 506l-97 -251h226l-98 251c-5 14 -10 28 -15 55
c-6 -27 -10 -41 -16 -55z" />
    <glyph glyph-name="Aring" unicode="&#xc5;" horiz-adv-x="739" 
d="M158 0h-155l286 700h162l285 -700h-155l-51 131h-320zM354 506l-97 -251h226l-98 251c-5 14 -10 28 -15 55c-5 -27 -10 -41 -16 -55zM493 856c0 -77 -58 -121 -125 -121c-66 0 -125 44 -125 121c0 74 59 118 125 118c67 0 125 -44 125 -118zM327 855c0 -26 18 -43 42 -43
s42 17 42 43c0 25 -18 42 -42 42s-42 -17 -42 -42z" />
    <glyph glyph-name="Atilde" unicode="&#xc3;" horiz-adv-x="739" 
d="M158 0h-155l286 700h162l285 -700h-155l-51 131h-320zM354 506l-97 -251h226l-98 251c-5 14 -10 28 -15 55c-5 -27 -10 -41 -16 -55zM547 885c19 -82 -26 -139 -94 -139c-65 0 -111 42 -142 42c-24 0 -27 -22 -23 -36h-100c-19 82 26 139 93 139c65 0 111 -42 143 -42
c24 0 27 22 23 36h100z" />
    <glyph glyph-name="AE" unicode="&#xc6;" horiz-adv-x="1012" 
d="M644 288v-156h325v-132h-475v135h-266l-88 -135h-156l457 700h522v-132h-319v-149h289v-131h-289zM303 255h190v292z" />
    <glyph glyph-name="B" unicode="B" horiz-adv-x="686" 
d="M75 700h306c149 0 242 -57 242 -177c0 -82 -44 -132 -106 -153c69 -20 134 -71 134 -174c0 -159 -153 -196 -275 -196h-301v700zM501 212c0 74 -59 90 -119 90h-158v-180h150c67 0 127 14 127 90zM474 497c0 55 -40 80 -106 80h-143v-160h151c57 0 98 26 98 80z" />
    <glyph glyph-name="C" unicode="C" horiz-adv-x="654" 
d="M36 342c1 256 189 372 376 372c70 0 140 -15 200 -45v-143c-45 35 -110 55 -175 55c-123 0 -247 -70 -247 -239c-1 -154 125 -222 247 -222c72 0 138 20 180 58v-147c-60 -29 -129 -45 -203 -45c-187 0 -378 112 -378 356z" />
    <glyph glyph-name="Cacute" unicode="&#x106;" horiz-adv-x="654" 
d="M36 342c1 256 189 372 376 372c70 0 140 -15 200 -45v-143c-45 35 -110 55 -175 55c-123 0 -247 -70 -247 -239c-1 -154 125 -222 247 -222c72 0 138 20 180 58v-147c-60 -29 -129 -45 -203 -45c-187 0 -378 112 -378 356zM450 764h-134l90 148h152z" />
    <glyph glyph-name="Ccaron" unicode="&#x10c;" horiz-adv-x="654" 
d="M36 342c1 256 189 372 376 372c70 0 140 -15 200 -45v-143c-45 35 -110 55 -175 55c-123 0 -247 -70 -247 -239c-1 -154 125 -222 247 -222c72 0 138 20 180 58v-147c-60 -29 -129 -45 -203 -45c-187 0 -378 112 -378 356zM597 915l-130 -155h-123l-131 155h133l59 -71
l60 71h132z" />
    <glyph glyph-name="Ccedilla" unicode="&#xc7;" horiz-adv-x="654" 
d="M617 178v-147c-45 -22 -95 -36 -149 -42l-10 -37c64 -6 94 -37 94 -87c1 -71 -74 -99 -144 -99c-37 0 -70 5 -102 19v86c22 -13 52 -20 80 -20c37 0 62 10 62 30c0 26 -46 32 -96 26l19 81c-172 16 -335 129 -335 354c1 256 189 372 376 372c70 0 140 -15 200 -45v-143
c-45 35 -110 55 -175 55c-123 0 -247 -70 -247 -239c-1 -154 125 -222 247 -222c72 0 138 20 180 58z" />
    <glyph glyph-name="Cdotaccent" unicode="&#x10a;" horiz-adv-x="654" 
d="M36 342c1 256 189 372 376 372c70 0 140 -15 200 -45v-143c-45 35 -110 55 -175 55c-123 0 -247 -70 -247 -239c-1 -154 125 -222 247 -222c72 0 138 20 180 58v-147c-60 -29 -129 -45 -203 -45c-187 0 -378 112 -378 356zM322 834c0 53 37 79 81 79s82 -26 82 -79
c0 -55 -38 -79 -82 -79s-81 24 -81 79z" />
    <glyph glyph-name="D" unicode="D" horiz-adv-x="742" 
d="M75 700h262c249 0 367 -147 367 -350s-118 -350 -367 -350h-262v700zM551 350c0 144 -75 218 -214 218h-112v-436h112c139 0 214 74 214 218z" />
    <glyph glyph-name="Eth" unicode="&#xd0;" horiz-adv-x="752" 
d="M86 700h262c249 0 367 -147 367 -350s-118 -350 -367 -350h-262v294h-74v111h74v295zM236 132h112c139 0 214 74 214 218s-75 218 -214 218h-112v-163h155v-111h-155v-162z" />
    <glyph glyph-name="Dcaron" unicode="&#x10e;" horiz-adv-x="742" 
d="M75 700h262c249 0 367 -147 367 -350s-118 -350 -367 -350h-262v700zM551 350c0 144 -75 218 -214 218h-112v-436h112c139 0 214 74 214 218zM536 915l-130 -155h-123l-131 155h133l59 -71l60 71h132z" />
    <glyph glyph-name="Dcroat" unicode="&#x110;" horiz-adv-x="752" 
d="M86 700h262c249 0 367 -147 367 -350s-118 -350 -367 -350h-262v294h-74v111h74v295zM236 132h112c139 0 214 74 214 218s-75 218 -214 218h-112v-163h155v-111h-155v-162z" />
    <glyph glyph-name="E" unicode="E" horiz-adv-x="618" 
d="M75 700h493v-132h-343v-149h313v-131h-313v-156h349v-132h-499v700z" />
    <glyph glyph-name="Eacute" unicode="&#xc9;" horiz-adv-x="618" 
d="M75 700h493v-132h-343v-149h313v-131h-313v-156h349v-132h-499v700zM377 764h-134l90 148h152z" />
    <glyph glyph-name="Ecaron" unicode="&#x11a;" horiz-adv-x="618" 
d="M75 700h493v-132h-343v-149h313v-131h-313v-156h349v-132h-499v700zM524 915l-130 -155h-123l-131 155h133l59 -71l60 71h132z" />
    <glyph glyph-name="Ecircumflex" unicode="&#xca;" horiz-adv-x="618" 
d="M75 700h493v-132h-343v-149h313v-131h-313v-156h349v-132h-499v700zM270 912h123l124 -155h-132l-53 65l-53 -65h-133z" />
    <glyph glyph-name="Edieresis" unicode="&#xcb;" horiz-adv-x="618" 
d="M75 700h493v-132h-343v-149h313v-131h-313v-156h349v-132h-499v700zM512 833c0 -41 -33 -74 -74 -74c-42 0 -75 33 -75 74s33 75 75 75c41 0 74 -34 74 -75zM298 833c0 -41 -33 -74 -74 -74s-75 33 -75 74s34 75 75 75s74 -34 74 -75z" />
    <glyph glyph-name="Edotaccent" unicode="&#x116;" horiz-adv-x="618" 
d="M75 700h493v-132h-343v-149h313v-131h-313v-156h349v-132h-499v700zM249 834c0 53 37 79 81 79s82 -26 82 -79c0 -55 -38 -79 -82 -79s-81 24 -81 79z" />
    <glyph glyph-name="Egrave" unicode="&#xc8;" horiz-adv-x="618" 
d="M75 700h493v-132h-343v-149h313v-131h-313v-156h349v-132h-499v700zM418 764h-134l-108 148h152z" />
    <glyph glyph-name="Emacron" unicode="&#x112;" horiz-adv-x="618" 
d="M75 700h493v-132h-343v-149h313v-131h-313v-156h349v-132h-499v700zM168 877h326v-110h-326v110z" />
    <glyph glyph-name="Eogonek" unicode="&#x118;" horiz-adv-x="618" 
d="M574 132v-132c-50 -33 -77 -72 -76 -98c-1 -22 14 -32 35 -32c14 0 29 4 41 12v-94c-25 -15 -57 -22 -87 -22c-75 -1 -114 45 -113 100c0 44 30 95 81 134h-380v700h493v-132h-343v-149h313v-131h-313v-156h349z" />
    <glyph glyph-name="F" unicode="F" horiz-adv-x="603" 
d="M75 700h494v-135h-344v-163h315v-135h-315v-267h-150v700z" />
    <glyph glyph-name="G" unicode="G" horiz-adv-x="702" 
d="M37 350c0 254 189 364 381 364c75 0 150 -16 215 -45v-143c-53 35 -124 54 -195 54c-125 0 -248 -66 -248 -230c0 -186 137 -233 240 -233c30 0 56 5 77 13v250h143v-347c-70 -30 -150 -47 -228 -47c-196 0 -385 107 -385 364z" />
    <glyph glyph-name="Gbreve" unicode="&#x11e;" horiz-adv-x="702" 
d="M37 350c0 254 189 364 381 364c75 0 150 -16 215 -45v-143c-53 35 -124 54 -195 54c-125 0 -248 -66 -248 -230c0 -186 137 -233 240 -233c30 0 56 5 77 13v250h143v-347c-70 -30 -150 -47 -228 -47c-196 0 -385 107 -385 364zM554 794c-44 -31 -92 -45 -157 -45
s-112 14 -156 45v109c53 -33 102 -43 156 -43s104 10 157 43v-109z" />
    <glyph glyph-name="Gcommaaccent" unicode="&#x122;" horiz-adv-x="702" 
d="M37 350c0 254 189 364 381 364c75 0 150 -16 215 -45v-143c-53 35 -124 54 -195 54c-125 0 -248 -66 -248 -230c0 -186 137 -233 240 -233c30 0 56 5 77 13v250h143v-347c-70 -30 -150 -47 -228 -47c-196 0 -385 107 -385 364zM433 -273h-112l32 210h128z" />
    <glyph glyph-name="Gdotaccent" unicode="&#x120;" horiz-adv-x="702" 
d="M37 350c0 254 189 364 381 364c75 0 150 -16 215 -45v-143c-53 35 -124 54 -195 54c-125 0 -248 -66 -248 -230c0 -186 137 -233 240 -233c30 0 56 5 77 13v250h143v-347c-70 -30 -150 -47 -228 -47c-196 0 -385 107 -385 364zM315 834c0 53 37 79 81 79s82 -26 82 -79
c0 -55 -38 -79 -82 -79s-81 24 -81 79z" />
    <glyph glyph-name="H" unicode="H" horiz-adv-x="764" 
d="M539 700h150v-700h-150v282h-314v-282h-150v700h150v-282h314v282z" />
    <glyph glyph-name="Hbar" unicode="&#x126;" horiz-adv-x="778" 
d="M232 0h-150v497h-68v96h68v107h150v-107h314v107h150v-107h68v-96h-68v-497h-150v289h-314v-289zM232 497v-86h314v86h-314z" />
    <glyph glyph-name="I" unicode="I" horiz-adv-x="300" 
d="M75 700h150v-700h-150v700z" />
    <glyph glyph-name="IJ" unicode="&#x132;" horiz-adv-x="815" 
d="M75 700h150v-700h-150v700zM409 700h336v-489c0 -165 -116 -224 -250 -224c-70 0 -137 16 -181 36v140c39 -24 93 -38 145 -38c75 0 136 24 136 103v337h-186v135z" />
    <glyph glyph-name="Iacute" unicode="&#xcd;" horiz-adv-x="300" 
d="M75 700h150v-700h-150v700zM197 764h-134l90 148h152z" />
    <glyph glyph-name="Icircumflex" unicode="&#xce;" horiz-adv-x="300" 
d="M75 700h150v-700h-150v700zM90 912h123l124 -155h-132l-53 65l-53 -65h-133z" />
    <glyph glyph-name="Idieresis" unicode="&#xcf;" horiz-adv-x="300" 
d="M75 700h150v-700h-150v700zM332 833c0 -41 -33 -74 -74 -74c-42 0 -75 33 -75 74s33 75 75 75c41 0 74 -34 74 -75zM118 833c0 -41 -33 -74 -74 -74s-75 33 -75 74s34 75 75 75s74 -34 74 -75z" />
    <glyph glyph-name="Idotaccent" unicode="&#x130;" horiz-adv-x="300" 
d="M75 700h150v-700h-150v700zM69 834c0 53 37 79 81 79s82 -26 82 -79c0 -55 -38 -79 -82 -79s-81 24 -81 79z" />
    <glyph glyph-name="Igrave" unicode="&#xcc;" horiz-adv-x="300" 
d="M75 700h150v-700h-150v700zM238 764h-134l-108 148h152z" />
    <glyph glyph-name="Imacron" unicode="&#x12a;" horiz-adv-x="300" 
d="M75 700h150v-700h-150v700zM-12 877h326v-110h-326v110z" />
    <glyph glyph-name="Iogonek" unicode="&#x12e;" horiz-adv-x="300" 
d="M165 -98c-1 -22 14 -32 35 -32c14 0 29 4 41 12v-94c-25 -15 -57 -22 -87 -22c-75 -1 -114 45 -113 100c0 44 24 91 66 134h-32v700h150v-700h1c-41 -36 -62 -72 -61 -98z" />
    <glyph glyph-name="J" unicode="J" horiz-adv-x="515" 
d="M109 700h336v-489c0 -165 -116 -224 -250 -224c-70 0 -137 16 -181 36v140c39 -24 93 -38 145 -38c75 0 136 24 136 103v337h-186v135z" />
    <glyph glyph-name="K" unicode="K" horiz-adv-x="691" 
d="M225 0h-150v700h150v-278h113l177 278h167l-227 -341l240 -359h-166l-191 286h-113v-286z" />
    <glyph glyph-name="Kcommaaccent" unicode="&#x136;" horiz-adv-x="691" 
d="M225 0h-150v700h150v-278h113l177 278h167l-227 -341l240 -359h-166l-191 286h-113v-286zM383 -263h-112l32 210h128z" />
    <glyph glyph-name="L" unicode="L" horiz-adv-x="581" 
d="M75 700h150v-565h343v-135h-493v700z" />
    <glyph glyph-name="Lacute" unicode="&#x139;" horiz-adv-x="581" 
d="M75 700h150v-565h343v-135h-493v700zM196 764h-134l90 148h152z" />
    <glyph glyph-name="Lcaron" unicode="&#x13d;" horiz-adv-x="582" 
d="M377 700h119l-32 -202h-103zM75 700h150v-565h343v-135h-493v700z" />
    <glyph glyph-name="Lcommaaccent" unicode="&#x13b;" horiz-adv-x="581" 
d="M75 700h150v-565h343v-135h-493v700zM342 -263h-112l32 210h128z" />
    <glyph glyph-name="Ldot" unicode="&#x13f;" horiz-adv-x="588" 
d="M475 388c0 -53 -37 -77 -79 -77s-79 24 -79 77c0 52 37 76 79 76s79 -24 79 -76zM75 700h150v-565h343v-135h-493v700z" />
    <glyph glyph-name="Lslash" unicode="&#x141;" horiz-adv-x="604" 
d="M591 0h-493v247l-80 -31v122l80 31v331h150v-275l174 68v-122l-174 -68v-168h343v-135z" />
    <glyph glyph-name="M" unicode="M" horiz-adv-x="907" 
d="M693 700h139v-700h-150v431l-185 -281h-87l-185 282v-432h-150v700h139l240 -364z" />
    <glyph glyph-name="N" unicode="N" horiz-adv-x="764" 
d="M225 0h-150v700h141l326 -457c-2 29 -3 64 -3 96v361h150v-700h-141l-326 457c2 -29 3 -64 3 -96v-361z" />
    <glyph glyph-name="Nacute" unicode="&#x143;" horiz-adv-x="764" 
d="M225 0h-150v700h141l326 -457c-2 29 -3 64 -3 96v361h150v-700h-141l-326 457c2 -29 3 -64 3 -96v-361zM428 764h-134l90 148h152z" />
    <glyph glyph-name="Ncaron" unicode="&#x147;" horiz-adv-x="764" 
d="M225 0h-150v700h141l326 -457c-2 29 -3 64 -3 96v361h150v-700h-141l-326 457c2 -29 3 -64 3 -96v-361zM575 915l-130 -155h-123l-131 155h133l59 -71l60 71h132z" />
    <glyph glyph-name="Ncommaaccent" unicode="&#x145;" horiz-adv-x="764" 
d="M225 0h-150v700h141l326 -457c-2 29 -3 64 -3 96v361h150v-700h-141l-326 457c2 -29 3 -64 3 -96v-361zM417 -263h-112l32 210h128z" />
    <glyph glyph-name="Eng" unicode="&#x14a;" horiz-adv-x="764" 
d="M689 -45c0 -122 -70 -186 -172 -186c-24 0 -49 4 -76 11v125c10 -3 22 -5 34 -5c44 0 64 26 64 69v44l-317 444c2 -29 3 -64 3 -96v-361h-150v700h141l326 -457c-2 29 -3 64 -3 96v361h150v-745z" />
    <glyph glyph-name="Ntilde" unicode="&#xd1;" horiz-adv-x="764" 
d="M225 0h-150v700h141l326 -457c-2 29 -3 64 -3 96v361h150v-700h-141l-326 457c2 -29 3 -64 3 -96v-361zM560 885c19 -82 -26 -139 -94 -139c-65 0 -111 42 -142 42c-24 0 -27 -22 -23 -36h-100c-19 82 26 139 93 139c65 0 111 -42 143 -42c24 0 27 22 23 36h100z" />
    <glyph glyph-name="O" unicode="O" horiz-adv-x="816" 
d="M36 350c0 190 124 364 372 364s372 -174 372 -364s-124 -364 -372 -364s-372 174 -372 364zM626 350c0 123 -73 225 -218 225c-146 0 -219 -102 -219 -225s73 -225 219 -225c145 0 218 102 218 225z" />
    <glyph glyph-name="Oacute" unicode="&#xd3;" horiz-adv-x="816" 
d="M36 350c0 190 124 364 372 364s372 -174 372 -364s-124 -364 -372 -364s-372 174 -372 364zM626 350c0 123 -73 225 -218 225c-146 0 -219 -102 -219 -225s73 -225 219 -225c145 0 218 102 218 225zM454 764h-134l90 148h152z" />
    <glyph glyph-name="Ocircumflex" unicode="&#xd4;" horiz-adv-x="816" 
d="M36 350c0 190 124 364 372 364s372 -174 372 -364s-124 -364 -372 -364s-372 174 -372 364zM626 350c0 123 -73 225 -218 225c-146 0 -219 -102 -219 -225s73 -225 219 -225c145 0 218 102 218 225zM347 912h123l124 -155h-132l-53 65l-53 -65h-133z" />
    <glyph glyph-name="Odieresis" unicode="&#xd6;" horiz-adv-x="816" 
d="M36 350c0 190 124 364 372 364s372 -174 372 -364s-124 -364 -372 -364s-372 174 -372 364zM626 350c0 123 -73 225 -218 225c-146 0 -219 -102 -219 -225s73 -225 219 -225c145 0 218 102 218 225zM589 833c0 -41 -33 -74 -74 -74c-42 0 -75 33 -75 74s33 75 75 75
c41 0 74 -34 74 -75zM375 833c0 -41 -33 -74 -74 -74s-75 33 -75 74s34 75 75 75s74 -34 74 -75z" />
    <glyph glyph-name="Ograve" unicode="&#xd2;" horiz-adv-x="816" 
d="M36 350c0 190 124 364 372 364s372 -174 372 -364s-124 -364 -372 -364s-372 174 -372 364zM626 350c0 123 -73 225 -218 225c-146 0 -219 -102 -219 -225s73 -225 219 -225c145 0 218 102 218 225zM495 764h-134l-108 148h152z" />
    <glyph glyph-name="Ohungarumlaut" unicode="&#x150;" horiz-adv-x="816" 
d="M36 350c0 190 124 364 372 364s372 -174 372 -364s-124 -364 -372 -364s-372 174 -372 364zM626 350c0 123 -73 225 -218 225c-146 0 -219 -102 -219 -225s73 -225 219 -225c145 0 218 102 218 225zM552 774h-127l72 153h136zM371 774h-127l72 153h136z" />
    <glyph glyph-name="Omacron" unicode="&#x14c;" horiz-adv-x="816" 
d="M36 350c0 190 124 364 372 364s372 -174 372 -364s-124 -364 -372 -364s-372 174 -372 364zM626 350c0 123 -73 225 -218 225c-146 0 -219 -102 -219 -225s73 -225 219 -225c145 0 218 102 218 225zM245 877h326v-110h-326v110z" />
    <glyph glyph-name="Oslash" unicode="&#xd8;" horiz-adv-x="816" 
d="M739 748l-83 -115c83 -69 124 -173 124 -283c0 -190 -124 -364 -372 -364c-73 0 -135 15 -187 42l-54 -76h-100l87 120c-78 69 -118 171 -118 278c0 190 124 364 372 364c70 0 130 -14 180 -38l52 72h99zM408 575c-146 0 -219 -102 -219 -225c0 -59 18 -115 53 -155
l260 362c-26 12 -58 18 -94 18zM306 146c29 -14 63 -21 102 -21c145 0 218 102 218 225c0 62 -19 120 -57 161z" />
    <glyph glyph-name="Otilde" unicode="&#xd5;" horiz-adv-x="816" 
d="M36 350c0 190 124 364 372 364s372 -174 372 -364s-124 -364 -372 -364s-372 174 -372 364zM626 350c0 123 -73 225 -218 225c-146 0 -219 -102 -219 -225s73 -225 219 -225c145 0 218 102 218 225zM586 885c19 -82 -26 -139 -94 -139c-65 0 -111 42 -142 42
c-24 0 -27 -22 -23 -36h-100c-19 82 26 139 93 139c65 0 111 -42 143 -42c24 0 27 22 23 36h100z" />
    <glyph glyph-name="OE" unicode="&#x152;" horiz-adv-x="1044" 
d="M529 0c-34 -9 -73 -14 -121 -14c-248 0 -372 174 -372 364s124 364 372 364c48 0 87 -5 121 -14h466v-132h-319v-149h289v-131h-289v-156h325v-132h-472zM190 350c0 -137 94 -229 227 -229c40 0 77 8 112 21v417c-35 12 -72 20 -112 20c-133 0 -227 -91 -227 -229z" />
    <glyph glyph-name="P" unicode="P" horiz-adv-x="666" 
d="M75 700h264c169 0 302 -54 302 -235s-133 -235 -302 -235h-114v-230h-150v700zM488 465c0 83 -65 103 -142 103h-121v-206h121c77 0 142 21 142 103z" />
    <glyph glyph-name="Thorn" unicode="&#xde;" horiz-adv-x="665" 
d="M225 585h114c169 0 302 -54 302 -235s-133 -234 -302 -235h-114v-115h-150v700h150v-115zM225 247h121c77 0 142 21 142 103c0 83 -65 103 -142 103h-121v-206z" />
    <glyph glyph-name="Q" unicode="Q" horiz-adv-x="816" 
d="M780 32l-101 -91l-86 86c-51 -26 -113 -41 -185 -41c-248 0 -372 174 -372 364s124 364 372 364s372 -174 372 -364c0 -88 -27 -172 -81 -238zM189 350c0 -123 73 -225 219 -225c28 0 53 5 74 13l-84 84l96 95l96 -95c24 36 36 81 36 128c0 123 -73 227 -218 227
c-146 0 -219 -104 -219 -227z" />
    <glyph glyph-name="R" unicode="R" horiz-adv-x="706" 
d="M225 0h-150v700h288c136 0 278 -51 278 -228c0 -120 -68 -181 -153 -208l209 -264h-173l-189 245h-110v-245zM225 568v-198h145c63 0 118 28 118 99c0 72 -55 99 -118 99h-145z" />
    <glyph glyph-name="Racute" unicode="&#x154;" horiz-adv-x="706" 
d="M225 0h-150v700h288c136 0 278 -51 278 -228c0 -120 -68 -181 -153 -208l209 -264h-173l-189 245h-110v-245zM225 568v-198h145c63 0 118 28 118 99c0 72 -55 99 -118 99h-145zM385 764h-134l90 148h152z" />
    <glyph glyph-name="Rcaron" unicode="&#x158;" horiz-adv-x="706" 
d="M225 0h-150v700h288c136 0 278 -51 278 -228c0 -120 -68 -181 -153 -208l209 -264h-173l-189 245h-110v-245zM225 568v-198h145c63 0 118 28 118 99c0 72 -55 99 -118 99h-145zM532 915l-130 -155h-123l-131 155h133l59 -71l60 71h132z" />
    <glyph glyph-name="Rcommaaccent" unicode="&#x156;" horiz-adv-x="706" 
d="M225 0h-150v700h288c136 0 278 -51 278 -228c0 -120 -68 -181 -153 -208l209 -264h-173l-189 245h-110v-245zM225 568v-198h145c63 0 118 28 118 99c0 72 -55 99 -118 99h-145zM381 -263h-112l32 210h128z" />
    <glyph glyph-name="S" unicode="S" horiz-adv-x="606" 
d="M44 515c0 135 118 199 256 199c83 0 167 -20 227 -54v-140c-59 42 -138 63 -216 62c-76 -1 -114 -22 -114 -65c0 -121 383 -76 383 -325c0 -157 -126 -206 -273 -206c-97 0 -187 23 -259 63v143c80 -53 168 -74 248 -74c81 0 131 17 131 67c0 131 -383 82 -383 330z" />
    <glyph glyph-name="Sacute" unicode="&#x15a;" horiz-adv-x="606" 
d="M44 515c0 135 118 199 256 199c83 0 167 -20 227 -54v-140c-59 42 -138 63 -216 62c-76 -1 -114 -22 -114 -65c0 -121 383 -76 383 -325c0 -157 -126 -206 -273 -206c-97 0 -187 23 -259 63v143c80 -53 168 -74 248 -74c81 0 131 17 131 67c0 131 -383 82 -383 330z
M340 764h-134l90 148h152z" />
    <glyph glyph-name="Scaron" unicode="&#x160;" horiz-adv-x="606" 
d="M44 515c0 135 118 199 256 199c83 0 167 -20 227 -54v-140c-59 42 -138 63 -216 62c-76 -1 -114 -22 -114 -65c0 -121 383 -76 383 -325c0 -157 -126 -206 -273 -206c-97 0 -187 23 -259 63v143c80 -53 168 -74 248 -74c81 0 131 17 131 67c0 131 -383 82 -383 330z
M487 915l-130 -155h-123l-131 155h133l59 -71l60 71h132z" />
    <glyph glyph-name="Scedilla" unicode="&#x15e;" horiz-adv-x="606" 
d="M197 517c0 -121 383 -76 383 -325c0 -138 -97 -193 -220 -203l-10 -37c64 -6 94 -37 94 -87c1 -71 -74 -99 -144 -99c-37 0 -70 5 -102 19v86c22 -13 52 -20 80 -20c37 0 62 10 62 30c0 26 -46 32 -96 26l19 81c-80 5 -153 27 -215 61v143c80 -53 168 -74 248 -74
c81 0 131 17 131 67c0 131 -383 82 -383 330c0 135 118 199 256 199c83 0 167 -20 227 -54v-140c-59 42 -138 63 -216 62c-76 -1 -114 -22 -114 -65z" />
    <glyph glyph-name="Scommaaccent" unicode="&#x218;" horiz-adv-x="606" 
d="M44 515c0 135 118 199 256 199c83 0 167 -20 227 -54v-140c-59 42 -138 63 -216 62c-76 -1 -114 -22 -114 -65c0 -121 383 -76 383 -325c0 -157 -126 -206 -273 -206c-97 0 -187 23 -259 63v143c80 -53 168 -74 248 -74c81 0 131 17 131 67c0 131 -383 82 -383 330z
M330 -263h-112l32 210h128z" />
    <glyph glyph-name="T" unicode="T" horiz-adv-x="605" 
d="M13 700h579v-135h-215v-565h-149v565h-215v135z" />
    <glyph glyph-name="Tbar" unicode="&#x166;" horiz-adv-x="617" 
d="M383 0h-149v282h-119v102h119v181h-215v135h579v-135h-215v-181h118v-102h-118v-282z" />
    <glyph glyph-name="Tcaron" unicode="&#x164;" horiz-adv-x="605" 
d="M13 700h579v-135h-215v-565h-149v565h-215v135zM496 915l-130 -155h-123l-131 155h133l59 -71l60 71h132z" />
    <glyph glyph-name="Tcommaaccent" unicode="&#x162;" horiz-adv-x="605" 
d="M13 700h579v-135h-215v-565h-149v565h-215v135zM325 -263h-112l32 210h128z" />
    <glyph glyph-name="uni021A" unicode="&#x21a;" horiz-adv-x="605" 
d="M13 700h579v-135h-215v-565h-149v565h-215v135zM325 -263h-112l32 210h128z" />
    <glyph glyph-name="U" unicode="U" horiz-adv-x="750" 
d="M533 700h149v-437c0 -207 -152 -277 -307 -277s-307 70 -307 277v437h150v-429c0 -111 64 -150 157 -150c94 0 158 39 158 150v429z" />
    <glyph glyph-name="Uacute" unicode="&#xda;" horiz-adv-x="750" 
d="M533 700h149v-437c0 -207 -152 -277 -307 -277s-307 70 -307 277v437h150v-429c0 -111 64 -150 157 -150c94 0 158 39 158 150v429zM420 764h-134l90 148h152z" />
    <glyph glyph-name="Ucircumflex" unicode="&#xdb;" horiz-adv-x="750" 
d="M533 700h149v-437c0 -207 -152 -277 -307 -277s-307 70 -307 277v437h150v-429c0 -111 64 -150 157 -150c94 0 158 39 158 150v429zM313 912h123l124 -155h-132l-53 65l-53 -65h-133z" />
    <glyph glyph-name="Udieresis" unicode="&#xdc;" horiz-adv-x="750" 
d="M533 700h149v-437c0 -207 -152 -277 -307 -277s-307 70 -307 277v437h150v-429c0 -111 64 -150 157 -150c94 0 158 39 158 150v429zM555 833c0 -41 -33 -74 -74 -74c-42 0 -75 33 -75 74s33 75 75 75c41 0 74 -34 74 -75zM341 833c0 -41 -33 -74 -74 -74s-75 33 -75 74
s34 75 75 75s74 -34 74 -75z" />
    <glyph glyph-name="Ugrave" unicode="&#xd9;" horiz-adv-x="750" 
d="M533 700h149v-437c0 -207 -152 -277 -307 -277s-307 70 -307 277v437h150v-429c0 -111 64 -150 157 -150c94 0 158 39 158 150v429zM461 764h-134l-108 148h152z" />
    <glyph glyph-name="Uhungarumlaut" unicode="&#x170;" horiz-adv-x="750" 
d="M533 700h149v-437c0 -207 -152 -277 -307 -277s-307 70 -307 277v437h150v-429c0 -111 64 -150 157 -150c94 0 158 39 158 150v429zM518 774h-127l72 153h136zM337 774h-127l72 153h136z" />
    <glyph glyph-name="Umacron" unicode="&#x16a;" horiz-adv-x="750" 
d="M533 700h149v-437c0 -207 -152 -277 -307 -277s-307 70 -307 277v437h150v-429c0 -111 64 -150 157 -150c94 0 158 39 158 150v429zM211 877h326v-110h-326v110z" />
    <glyph glyph-name="Uogonek" unicode="&#x172;" horiz-adv-x="750" 
d="M562 -212c-25 -15 -56 -22 -87 -22c-75 -1 -114 45 -113 100c1 39 22 85 56 122c-14 -2 -28 -2 -43 -2c-155 0 -307 70 -307 277v437h150v-429c0 -111 64 -150 157 -150c94 0 158 39 158 150v429h149v-437c0 -102 -36 -171 -92 -214c-86 -65 -104 -121 -104 -147
c0 -22 14 -32 35 -32c14 0 29 4 41 12v-94z" />
    <glyph glyph-name="Uring" unicode="&#x16e;" horiz-adv-x="750" 
d="M533 700h149v-437c0 -207 -152 -277 -307 -277s-307 70 -307 277v437h150v-429c0 -111 64 -150 157 -150c94 0 158 39 158 150v429zM498 856c0 -77 -58 -121 -125 -121c-66 0 -125 44 -125 121c0 74 59 118 125 118c67 0 125 -44 125 -118zM332 855c0 -26 18 -43 42 -43
s42 17 42 43c0 25 -18 42 -42 42s-42 -17 -42 -42z" />
    <glyph glyph-name="V" unicode="V" horiz-adv-x="711" 
d="M432 0h-154l-272 700h162l187 -524l188 524h162z" />
    <glyph glyph-name="W" unicode="W" horiz-adv-x="1056" 
d="M884 700h162l-216 -700h-163l-139 477l-139 -477h-163l-216 700h162l139 -529l151 529h132l151 -529z" />
    <glyph glyph-name="Wacute" unicode="&#x1e82;" horiz-adv-x="1056" 
d="M884 700h162l-216 -700h-163l-139 477l-139 -477h-163l-216 700h162l139 -529l151 529h132l151 -529zM574 764h-134l90 148h152z" />
    <glyph glyph-name="Wcircumflex" unicode="&#x174;" horiz-adv-x="1056" 
d="M884 700h162l-216 -700h-163l-139 477l-139 -477h-163l-216 700h162l139 -529l151 529h132l151 -529zM467 912h123l124 -155h-132l-53 65l-53 -65h-133z" />
    <glyph glyph-name="Wdieresis" unicode="&#x1e84;" horiz-adv-x="1056" 
d="M884 700h162l-216 -700h-163l-139 477l-139 -477h-163l-216 700h162l139 -529l151 529h132l151 -529zM709 833c0 -41 -33 -74 -74 -74c-42 0 -75 33 -75 74s33 75 75 75c41 0 74 -34 74 -75zM495 833c0 -41 -33 -74 -74 -74s-75 33 -75 74s34 75 75 75s74 -34 74 -75z
" />
    <glyph glyph-name="Wgrave" unicode="&#x1e80;" horiz-adv-x="1056" 
d="M884 700h162l-216 -700h-163l-139 477l-139 -477h-163l-216 700h162l139 -529l151 529h132l151 -529zM615 764h-134l-108 148h152z" />
    <glyph glyph-name="X" unicode="X" horiz-adv-x="678" 
d="M169 0h-175l251 363l-236 337h175l155 -230l154 230h176l-236 -337l251 -363h-176l-169 255z" />
    <glyph glyph-name="Y" unicode="Y" horiz-adv-x="702" 
d="M426 0h-149v248l-274 452h169l179 -314l179 314h169l-273 -452v-248z" />
    <glyph glyph-name="Yacute" unicode="&#xdd;" horiz-adv-x="702" 
d="M426 0h-149v248l-274 452h169l179 -314l179 314h169l-273 -452v-248zM396 764h-134l90 148h152z" />
    <glyph glyph-name="Ycircumflex" unicode="&#x176;" horiz-adv-x="702" 
d="M426 0h-149v248l-274 452h169l179 -314l179 314h169l-273 -452v-248zM289 912h123l124 -155h-132l-53 65l-53 -65h-133z" />
    <glyph glyph-name="Ydieresis" unicode="&#x178;" horiz-adv-x="702" 
d="M426 0h-149v248l-274 452h169l179 -314l179 314h169l-273 -452v-248zM531 833c0 -41 -33 -74 -74 -74c-42 0 -75 33 -75 74s33 75 75 75c41 0 74 -34 74 -75zM317 833c0 -41 -33 -74 -74 -74s-75 33 -75 74s34 75 75 75s74 -34 74 -75z" />
    <glyph glyph-name="Ygrave" unicode="&#x1ef2;" horiz-adv-x="702" 
d="M426 0h-149v248l-274 452h169l179 -314l179 314h169l-273 -452v-248zM437 764h-134l-108 148h152z" />
    <glyph glyph-name="Z" unicode="Z" horiz-adv-x="614" 
d="M580 0h-548v108l338 457h-323v135h521v-108l-339 -457h351v-135z" />
    <glyph glyph-name="Zacute" unicode="&#x179;" horiz-adv-x="614" 
d="M580 0h-548v108l338 457h-323v135h521v-108l-339 -457h351v-135zM358 764h-134l90 148h152z" />
    <glyph glyph-name="Zcaron" unicode="&#x17d;" horiz-adv-x="614" 
d="M580 0h-548v108l338 457h-323v135h521v-108l-339 -457h351v-135zM505 915l-130 -155h-123l-131 155h133l59 -71l60 71h132z" />
    <glyph glyph-name="Zdotaccent" unicode="&#x17b;" horiz-adv-x="614" 
d="M580 0h-548v108l338 457h-323v135h521v-108l-339 -457h351v-135zM230 834c0 53 37 79 81 79s82 -26 82 -79c0 -55 -38 -79 -82 -79s-81 24 -81 79z" />
    <glyph glyph-name="a" unicode="a" horiz-adv-x="555" 
d="M488 124c0 -25 16 -32 34 -32c8 0 17 1 26 4v-91c-22 -8 -50 -14 -77 -14c-49 0 -86 18 -106 54c-47 -37 -102 -59 -173 -59c-90 0 -168 52 -168 147c0 122 115 160 211 160c38 0 80 -5 114 -13v17c0 48 -38 81 -113 81c-66 0 -125 -18 -170 -36v120c39 13 112 32 186 32
c144 0 236 -59 236 -217v-153zM267 210c-51 0 -101 -17 -101 -66c0 -36 33 -59 75 -59c39 0 76 11 108 39v75c-21 5 -53 11 -82 11z" />
    <glyph glyph-name="aacute" unicode="&#xe1;" horiz-adv-x="555" 
d="M488 124c0 -25 16 -32 34 -32c8 0 17 1 26 4v-91c-22 -8 -50 -14 -77 -14c-49 0 -86 18 -106 54c-47 -37 -102 -59 -173 -59c-90 0 -168 52 -168 147c0 122 115 160 211 160c38 0 80 -5 114 -13v17c0 48 -38 81 -113 81c-66 0 -125 -18 -170 -36v120c39 13 112 32 186 32
c144 0 236 -59 236 -217v-153zM267 210c-51 0 -101 -17 -101 -66c0 -36 33 -59 75 -59c39 0 76 11 108 39v75c-21 5 -53 11 -82 11zM299 551h-134l90 148h152z" />
    <glyph glyph-name="abreve" unicode="&#x103;" horiz-adv-x="555" 
d="M488 124c0 -25 16 -32 34 -32c8 0 17 1 26 4v-91c-22 -8 -50 -14 -77 -14c-49 0 -86 18 -106 54c-47 -37 -102 -59 -173 -59c-90 0 -168 52 -168 147c0 122 115 160 211 160c38 0 80 -5 114 -13v17c0 48 -38 81 -113 81c-66 0 -125 -18 -170 -36v120c39 13 112 32 186 32
c144 0 236 -59 236 -217v-153zM267 210c-51 0 -101 -17 -101 -66c0 -36 33 -59 75 -59c39 0 76 11 108 39v75c-21 5 -53 11 -82 11zM410 581c-44 -31 -92 -45 -157 -45s-112 14 -156 45v109c53 -33 102 -43 156 -43s104 10 157 43v-109z" />
    <glyph glyph-name="acircumflex" unicode="&#xe2;" horiz-adv-x="555" 
d="M488 124c0 -25 16 -32 34 -32c8 0 17 1 26 4v-91c-22 -8 -50 -14 -77 -14c-49 0 -86 18 -106 54c-47 -37 -102 -59 -173 -59c-90 0 -168 52 -168 147c0 122 115 160 211 160c38 0 80 -5 114 -13v17c0 48 -38 81 -113 81c-66 0 -125 -18 -170 -36v120c39 13 112 32 186 32
c144 0 236 -59 236 -217v-153zM267 210c-51 0 -101 -17 -101 -66c0 -36 33 -59 75 -59c39 0 76 11 108 39v75c-21 5 -53 11 -82 11zM192 699h123l124 -155h-132l-53 65l-53 -65h-133z" />
    <glyph glyph-name="adieresis" unicode="&#xe4;" horiz-adv-x="555" 
d="M488 124c0 -25 16 -32 34 -32c8 0 17 1 26 4v-91c-22 -8 -50 -14 -77 -14c-49 0 -86 18 -106 54c-47 -37 -102 -59 -173 -59c-90 0 -168 52 -168 147c0 122 115 160 211 160c38 0 80 -5 114 -13v17c0 48 -38 81 -113 81c-66 0 -125 -18 -170 -36v120c39 13 112 32 186 32
c144 0 236 -59 236 -217v-153zM267 210c-51 0 -101 -17 -101 -66c0 -36 33 -59 75 -59c39 0 76 11 108 39v75c-21 5 -53 11 -82 11zM434 620c0 -41 -33 -74 -74 -74c-42 0 -75 33 -75 74s33 75 75 75c41 0 74 -34 74 -75zM220 620c0 -41 -33 -74 -74 -74s-75 33 -75 74
s34 75 75 75s74 -34 74 -75z" />
    <glyph glyph-name="agrave" unicode="&#xe0;" horiz-adv-x="555" 
d="M488 124c0 -25 16 -32 34 -32c8 0 17 1 26 4v-91c-22 -8 -50 -14 -77 -14c-49 0 -86 18 -106 54c-47 -37 -102 -59 -173 -59c-90 0 -168 52 -168 147c0 122 115 160 211 160c38 0 80 -5 114 -13v17c0 48 -38 81 -113 81c-66 0 -125 -18 -170 -36v120c39 13 112 32 186 32
c144 0 236 -59 236 -217v-153zM267 210c-51 0 -101 -17 -101 -66c0 -36 33 -59 75 -59c39 0 76 11 108 39v75c-21 5 -53 11 -82 11zM340 551h-134l-108 148h152z" />
    <glyph glyph-name="amacron" unicode="&#x101;" horiz-adv-x="555" 
d="M488 124c0 -25 16 -32 34 -32c8 0 17 1 26 4v-91c-22 -8 -50 -14 -77 -14c-49 0 -86 18 -106 54c-47 -37 -102 -59 -173 -59c-90 0 -168 52 -168 147c0 122 115 160 211 160c38 0 80 -5 114 -13v17c0 48 -38 81 -113 81c-66 0 -125 -18 -170 -36v120c39 13 112 32 186 32
c144 0 236 -59 236 -217v-153zM267 210c-51 0 -101 -17 -101 -66c0 -36 33 -59 75 -59c39 0 76 11 108 39v75c-21 5 -53 11 -82 11zM90 664h326v-110h-326v110z" />
    <glyph glyph-name="aogonek" unicode="&#x105;" horiz-adv-x="556" 
d="M241 85c39 0 76 11 108 39v75c-21 5 -53 11 -82 11c-51 0 -101 -17 -101 -66c0 -36 33 -59 75 -59zM547 -116v-94c-24 -13 -54 -19 -82 -19c-75 -1 -114 45 -113 100c0 42 23 90 69 128c-24 8 -44 24 -56 46c-47 -37 -102 -59 -173 -59c-90 0 -168 52 -168 147
c0 122 115 160 211 160c38 0 80 -5 114 -13v17c0 48 -38 81 -113 81c-66 0 -125 -18 -170 -36v120c39 13 112 32 186 32c144 0 236 -59 236 -217v-153c0 -25 16 -32 34 -32c8 0 17 1 26 4v-91c-50 -33 -73 -72 -72 -98c-1 -22 14 -32 35 -32c12 0 25 3 36 9z" />
    <glyph glyph-name="aring" unicode="&#xe5;" horiz-adv-x="555" 
d="M488 124c0 -25 16 -32 34 -32c8 0 17 1 26 4v-91c-22 -8 -50 -14 -77 -14c-49 0 -86 18 -106 54c-47 -37 -102 -59 -173 -59c-90 0 -168 52 -168 147c0 122 115 160 211 160c38 0 80 -5 114 -13v17c0 48 -38 81 -113 81c-66 0 -125 -18 -170 -36v120c39 13 112 32 186 32
c144 0 236 -59 236 -217v-153zM267 210c-51 0 -101 -17 -101 -66c0 -36 33 -59 75 -59c39 0 76 11 108 39v75c-21 5 -53 11 -82 11zM377 643c0 -77 -58 -121 -125 -121c-66 0 -125 44 -125 121c0 74 59 118 125 118c67 0 125 -44 125 -118zM211 642c0 -26 18 -43 42 -43
s42 17 42 43c0 25 -18 42 -42 42s-42 -17 -42 -42z" />
    <glyph glyph-name="atilde" unicode="&#xe3;" horiz-adv-x="555" 
d="M488 124c0 -25 16 -32 34 -32c8 0 17 1 26 4v-91c-22 -8 -50 -14 -77 -14c-49 0 -86 18 -106 54c-47 -37 -102 -59 -173 -59c-90 0 -168 52 -168 147c0 122 115 160 211 160c38 0 80 -5 114 -13v17c0 48 -38 81 -113 81c-66 0 -125 -18 -170 -36v120c39 13 112 32 186 32
c144 0 236 -59 236 -217v-153zM267 210c-51 0 -101 -17 -101 -66c0 -36 33 -59 75 -59c39 0 76 11 108 39v75c-21 5 -53 11 -82 11zM431 672c19 -82 -26 -139 -94 -139c-65 0 -111 42 -142 42c-24 0 -27 -22 -23 -36h-100c-19 82 26 139 93 139c65 0 111 -42 143 -42
c24 0 27 22 23 36h100z" />
    <glyph glyph-name="ae" unicode="&#xe6;" horiz-adv-x="868" 
d="M431 63c-65 -51 -143 -77 -231 -77c-95 0 -176 52 -176 147c0 126 112 160 222 160c42 0 83 -4 118 -13v16c0 49 -38 81 -126 81c-68 0 -127 -18 -172 -37v122c39 13 112 32 187 32c88 0 149 -23 184 -74c47 51 112 74 172 74c192 0 254 -160 222 -301h-338
c16 -68 90 -97 169 -97c55 0 104 11 144 29v-108c-45 -19 -105 -31 -176 -31c-82 0 -154 27 -199 77zM167 144c0 -40 35 -58 77 -58c49 0 92 11 142 50c-8 21 -12 41 -14 66c-33 5 -63 9 -93 9c-56 0 -112 -16 -112 -67zM605 387c-60 0 -111 -37 -113 -105h214
c5 35 -14 105 -101 105z" />
    <glyph glyph-name="b" unicode="b" horiz-adv-x="622" 
d="M59 700h139v-271c30 34 82 65 158 65c152 0 234 -123 234 -254s-82 -254 -234 -254c-89 0 -144 41 -174 84v-70h-123v700zM448 240c0 75 -47 137 -126 137c-61 0 -106 -38 -125 -80v-114c19 -42 64 -80 125 -80c79 0 126 62 126 137z" />
    <glyph glyph-name="c" unicode="c" horiz-adv-x="490" 
d="M32 233c0 184 138 262 271 262c53 0 105 -12 148 -35v-122c-34 22 -82 36 -128 36c-76 0 -149 -37 -149 -134c0 -92 72 -134 147 -134c51 0 100 14 135 35v-123c-47 -20 -101 -32 -162 -32c-131 0 -262 76 -262 247z" />
    <glyph glyph-name="cacute" unicode="&#x107;" horiz-adv-x="490" 
d="M32 233c0 184 138 262 271 262c53 0 105 -12 148 -35v-122c-34 22 -82 36 -128 36c-76 0 -149 -37 -149 -134c0 -92 72 -134 147 -134c51 0 100 14 135 35v-123c-47 -20 -101 -32 -162 -32c-131 0 -262 76 -262 247zM341 544h-134l90 148h152z" />
    <glyph glyph-name="ccaron" unicode="&#x10d;" horiz-adv-x="490" 
d="M32 233c0 184 138 262 271 262c53 0 105 -12 148 -35v-122c-34 22 -82 36 -128 36c-76 0 -149 -37 -149 -134c0 -92 72 -134 147 -134c51 0 100 14 135 35v-123c-47 -20 -101 -32 -162 -32c-131 0 -262 76 -262 247zM488 695l-130 -155h-123l-131 155h133l59 -71l60 71
h132z" />
    <glyph glyph-name="ccedilla" unicode="&#xe7;" horiz-adv-x="490" 
d="M456 141v-123c-33 -14 -69 -24 -108 -28l-10 -38c64 -6 93 -37 93 -87c1 -71 -74 -99 -144 -99c-36 0 -70 5 -102 19v86c22 -13 52 -20 80 -20c38 0 62 10 62 30c0 26 -46 32 -96 26l20 82c-116 15 -219 92 -219 244c0 184 138 262 271 262c53 0 105 -12 148 -35v-122
c-34 22 -82 36 -128 36c-76 0 -149 -37 -149 -134c0 -92 72 -134 147 -134c51 0 100 14 135 35z" />
    <glyph glyph-name="cdotaccent" unicode="&#x10b;" horiz-adv-x="490" 
d="M32 233c0 184 138 262 271 262c53 0 105 -12 148 -35v-122c-34 22 -82 36 -128 36c-76 0 -149 -37 -149 -134c0 -92 72 -134 147 -134c51 0 100 14 135 35v-123c-47 -20 -101 -32 -162 -32c-131 0 -262 76 -262 247zM213 614c0 53 37 79 81 79s82 -26 82 -79
c0 -55 -38 -79 -82 -79s-81 24 -81 79z" />
    <glyph glyph-name="d" unicode="d" horiz-adv-x="622" 
d="M425 700h138v-700h-122v70c-31 -43 -86 -84 -174 -84c-153 0 -235 123 -235 254s82 254 235 254c76 0 127 -31 158 -65v271zM425 297c-19 42 -64 80 -125 80c-79 0 -126 -62 -126 -137s47 -137 126 -137c61 0 106 38 125 80v114z" />
    <glyph glyph-name="eth" unicode="&#xf0;" horiz-adv-x="585" 
d="M546 277c0 -209 -112 -291 -257 -291c-143 0 -256 81 -256 231c0 137 93 221 209 221c73 0 136 -29 165 -74c0 9 -1 17 -2 26c-13 74 -54 130 -114 166l-80 -80l-64 64l55 54c-31 7 -65 11 -101 11v105c62 0 126 -10 185 -31l75 75l64 -64l-54 -54
c102 -67 175 -182 175 -359zM175 217c0 -55 33 -113 114 -113s109 56 113 108c0 55 -35 116 -116 116c-78 0 -111 -58 -111 -111z" />
    <glyph glyph-name="dcaron" unicode="&#x10f;" horiz-adv-x="621" 
d="M625 700h119l-32 -202h-103zM425 700h138v-700h-122v70c-31 -43 -86 -84 -174 -84c-153 0 -235 123 -235 254s82 254 235 254c76 0 127 -31 158 -65v271zM425 297c-19 42 -64 80 -125 80c-79 0 -126 -62 -126 -137s47 -137 126 -137c61 0 106 38 125 80v114z" />
    <glyph glyph-name="dcroat" unicode="&#x111;" horiz-adv-x="621" 
d="M563 636h62v-86h-62v-550h-122v70c-31 -43 -86 -84 -174 -84c-153 0 -235 123 -235 254s82 254 235 254c76 0 127 -31 158 -65v121h-139v86h139v64h138v-64zM300 103c61 0 106 38 125 80v114c-19 42 -64 80 -125 80c-79 0 -126 -62 -126 -137s47 -137 126 -137z" />
    <glyph glyph-name="e" unicode="e" horiz-adv-x="547" 
d="M32 240c0 181 139 254 247 254c199 0 263 -157 231 -299h-338c16 -70 90 -99 169 -99c55 0 104 11 145 29v-109c-45 -19 -104 -30 -176 -30c-152 0 -278 87 -278 254zM385 285c5 33 -14 103 -101 103c-59 0 -111 -37 -113 -103h214z" />
    <glyph glyph-name="eacute" unicode="&#xe9;" horiz-adv-x="547" 
d="M32 240c0 181 139 254 247 254c199 0 263 -157 231 -299h-338c16 -70 90 -99 169 -99c55 0 104 11 145 29v-109c-45 -19 -104 -30 -176 -30c-152 0 -278 87 -278 254zM385 285c5 33 -14 103 -101 103c-59 0 -111 -37 -113 -103h214zM326 544h-134l90 148h152z" />
    <glyph glyph-name="ecaron" unicode="&#x11b;" horiz-adv-x="547" 
d="M32 240c0 181 139 254 247 254c199 0 263 -157 231 -299h-338c16 -70 90 -99 169 -99c55 0 104 11 145 29v-109c-45 -19 -104 -30 -176 -30c-152 0 -278 87 -278 254zM385 285c5 33 -14 103 -101 103c-59 0 -111 -37 -113 -103h214zM473 695l-130 -155h-123l-131 155h133
l59 -71l60 71h132z" />
    <glyph glyph-name="ecircumflex" unicode="&#xea;" horiz-adv-x="547" 
d="M32 240c0 181 139 254 247 254c199 0 263 -157 231 -299h-338c16 -70 90 -99 169 -99c55 0 104 11 145 29v-109c-45 -19 -104 -30 -176 -30c-152 0 -278 87 -278 254zM385 285c5 33 -14 103 -101 103c-59 0 -111 -37 -113 -103h214zM219 692h123l124 -155h-132l-53 65
l-53 -65h-133z" />
    <glyph glyph-name="edieresis" unicode="&#xeb;" horiz-adv-x="547" 
d="M32 240c0 181 139 254 247 254c199 0 263 -157 231 -299h-338c16 -70 90 -99 169 -99c55 0 104 11 145 29v-109c-45 -19 -104 -30 -176 -30c-152 0 -278 87 -278 254zM385 285c5 33 -14 103 -101 103c-59 0 -111 -37 -113 -103h214zM461 613c0 -41 -33 -74 -74 -74
c-42 0 -75 33 -75 74s33 75 75 75c41 0 74 -34 74 -75zM247 613c0 -41 -33 -74 -74 -74s-75 33 -75 74s34 75 75 75s74 -34 74 -75z" />
    <glyph glyph-name="edotaccent" unicode="&#x117;" horiz-adv-x="547" 
d="M32 240c0 181 139 254 247 254c199 0 263 -157 231 -299h-338c16 -70 90 -99 169 -99c55 0 104 11 145 29v-109c-45 -19 -104 -30 -176 -30c-152 0 -278 87 -278 254zM385 285c5 33 -14 103 -101 103c-59 0 -111 -37 -113 -103h214zM198 614c0 53 37 79 81 79
s82 -26 82 -79c0 -55 -38 -79 -82 -79s-81 24 -81 79z" />
    <glyph glyph-name="egrave" unicode="&#xe8;" horiz-adv-x="547" 
d="M32 240c0 181 139 254 247 254c199 0 263 -157 231 -299h-338c16 -70 90 -99 169 -99c55 0 104 11 145 29v-109c-45 -19 -104 -30 -176 -30c-152 0 -278 87 -278 254zM385 285c5 33 -14 103 -101 103c-59 0 -111 -37 -113 -103h214zM367 544h-134l-108 148h152z" />
    <glyph glyph-name="emacron" unicode="&#x113;" horiz-adv-x="547" 
d="M32 240c0 181 139 254 247 254c199 0 263 -157 231 -299h-338c16 -70 90 -99 169 -99c55 0 104 11 145 29v-109c-45 -19 -104 -30 -176 -30c-152 0 -278 87 -278 254zM385 285c5 33 -14 103 -101 103c-59 0 -111 -37 -113 -103h214zM117 657h326v-110h-326v110z" />
    <glyph glyph-name="eogonek" unicode="&#x119;" horiz-adv-x="547" 
d="M473 -211c-25 -16 -57 -23 -87 -23c-75 0 -114 45 -113 100c0 40 21 84 68 121c-10 -1 -20 -1 -31 -1c-152 0 -278 87 -278 254c0 181 139 254 247 254c199 0 263 -157 231 -299h-338c16 -70 90 -99 169 -99c55 0 104 11 145 29v-109c-67 -49 -89 -87 -89 -113
c0 -22 14 -33 35 -33c14 0 29 5 41 13v-94zM284 388c-59 0 -111 -37 -113 -103h214c5 33 -14 103 -101 103z" />
    <glyph glyph-name="f" unicode="f" horiz-adv-x="403" 
d="M244 0h-138v363h-83v117h83v47c0 145 98 187 189 187c44 0 87 -8 118 -20v-117c-21 12 -52 20 -83 20c-45 0 -86 -16 -86 -76v-41h147v-117h-147v-363z" />
    <glyph glyph-name="g" unicode="g" horiz-adv-x="622" 
d="M32 240c0 131 82 254 235 254c88 0 143 -41 174 -84v70h122v-467c0 -183 -135 -247 -276 -247c-75 0 -145 17 -203 45v122c54 -32 119 -50 185 -50c85 0 156 29 156 124v44c-31 -34 -82 -65 -158 -65c-153 0 -235 123 -235 254zM425 297c-19 42 -64 80 -125 80
c-79 0 -126 -62 -126 -137s47 -137 126 -137c61 0 106 37 125 77v117z" />
    <glyph glyph-name="gbreve" unicode="&#x11f;" horiz-adv-x="622" 
d="M32 240c0 131 82 254 235 254c88 0 143 -41 174 -84v70h122v-467c0 -183 -135 -247 -276 -247c-75 0 -145 17 -203 45v122c54 -32 119 -50 185 -50c85 0 156 29 156 124v44c-31 -34 -82 -65 -158 -65c-153 0 -235 123 -235 254zM425 297c-19 42 -64 80 -125 80
c-79 0 -126 -62 -126 -137s47 -137 126 -137c61 0 106 37 125 77v117zM439 574c-44 -31 -92 -45 -157 -45s-112 14 -156 45v109c53 -33 102 -43 156 -43s104 10 157 43v-109z" />
    <glyph glyph-name="gcommaaccent" unicode="&#x123;" horiz-adv-x="622" 
d="M354 540h-119l47 194h103zM32 240c0 131 82 254 235 254c88 0 143 -41 174 -84v70h122v-467c0 -183 -135 -247 -276 -247c-75 0 -145 17 -203 45v122c54 -32 119 -50 185 -50c85 0 156 29 156 124v44c-31 -34 -82 -65 -158 -65c-153 0 -235 123 -235 254zM425 297
c-19 42 -64 80 -125 80c-79 0 -126 -62 -126 -137s47 -137 126 -137c61 0 106 37 125 77v117z" />
    <glyph glyph-name="gdotaccent" unicode="&#x121;" horiz-adv-x="622" 
d="M32 240c0 131 82 254 235 254c88 0 143 -41 174 -84v70h122v-467c0 -183 -135 -247 -276 -247c-75 0 -145 17 -203 45v122c54 -32 119 -50 185 -50c85 0 156 29 156 124v44c-31 -34 -82 -65 -158 -65c-153 0 -235 123 -235 254zM425 297c-19 42 -64 80 -125 80
c-79 0 -126 -62 -126 -137s47 -137 126 -137c61 0 106 37 125 77v117zM200 614c0 53 37 79 81 79s82 -26 82 -79c0 -55 -38 -79 -82 -79s-81 24 -81 79z" />
    <glyph glyph-name="h" unicode="h" 
d="M59 700h139v-264c35 33 84 58 144 58c126 0 195 -86 195 -197v-297h-139v279c0 65 -39 95 -93 95c-49 0 -87 -32 -107 -61v-313h-139v700z" />
    <glyph glyph-name="hbar" unicode="&#x127;" horiz-adv-x="588" 
d="M196 435c35 34 84 59 144 59c126 0 195 -86 195 -197v-297h-138v279c0 65 -40 95 -93 95c-50 0 -87 -32 -108 -61v-313h-138v546h-53v86h53v68h138v-68h141v-86h-141v-111z" />
    <glyph glyph-name="i" unicode="i" horiz-adv-x="260" 
d="M199 0h-139v480h139v-480zM211 639c0 -55 -38 -79 -82 -79c-43 0 -81 24 -81 79c0 54 38 78 81 78c44 0 82 -24 82 -78z" />
    <glyph glyph-name="dotlessi" unicode="&#x131;" horiz-adv-x="261" 
d="M61 480h139v-480h-139v480z" />
    <glyph glyph-name="iacute" unicode="&#xed;" horiz-adv-x="259" 
d="M60 480h139v-480h-139v480zM176 544h-134l90 148h152z" />
    <glyph glyph-name="icircumflex" unicode="&#xee;" horiz-adv-x="259" 
d="M69 689h123l103 -152h-125l-39 61l-40 -61h-124zM60 480h139v-480h-139v480z" />
    <glyph glyph-name="idieresis" unicode="&#xef;" horiz-adv-x="259" 
d="M293 613c0 -38 -31 -69 -69 -69c-39 0 -70 31 -70 69s31 70 70 70c38 0 69 -32 69 -70zM106 613c0 -38 -32 -69 -70 -69s-69 31 -69 69s31 70 69 70s70 -32 70 -70zM60 480h139v-480h-139v480z" />
    <glyph glyph-name="i.loclTRK" horiz-adv-x="259" 
d="M60 480h139v-480h-139v480zM48 614c0 53 37 79 81 79s82 -26 82 -79c0 -55 -38 -79 -82 -79s-81 24 -81 79z" />
    <glyph glyph-name="igrave" unicode="&#xec;" horiz-adv-x="259" 
d="M199 0h-139v480h139v-480zM211 544h-131l-81 148h148z" />
    <glyph glyph-name="ij" unicode="&#x133;" horiz-adv-x="519" 
d="M199 0h-139v480h139v-480zM211 639c0 -55 -38 -79 -82 -79c-43 0 -81 24 -81 79c0 54 38 78 81 78c44 0 82 -24 82 -78zM459 -68c0 -125 -81 -166 -168 -166c-34 0 -64 5 -86 14v119c15 -7 33 -10 50 -10c36 0 66 18 66 68v523h138v-548zM471 639c0 -55 -38 -79 -81 -79
s-82 24 -82 79c0 54 39 78 82 78s81 -24 81 -78z" />
    <glyph glyph-name="imacron" unicode="&#x12b;" horiz-adv-x="259" 
d="M6 661h246v-97h-246v97zM60 480h139v-480h-139v480z" />
    <glyph glyph-name="iogonek" unicode="&#x12f;" horiz-adv-x="260" 
d="M213 639c0 -55 -38 -79 -81 -79s-82 24 -82 79c0 54 39 78 82 78s81 -24 81 -78zM145 -98c0 -22 14 -32 35 -32c14 0 29 4 41 12v-94c-25 -15 -56 -22 -87 -22c-75 -1 -113 45 -113 100c0 44 26 95 62 134h-22v480h139v-480c-33 -33 -55 -72 -55 -98z" />
    <glyph glyph-name="j" unicode="j" horiz-adv-x="259" 
d="M199 -68c0 -125 -81 -166 -168 -166c-34 0 -64 5 -86 14v119c15 -7 33 -10 50 -10c36 0 66 18 66 68v523h138v-548zM211 639c0 -55 -38 -79 -81 -79s-82 24 -82 79c0 54 39 78 82 78s81 -24 81 -78z" />
    <glyph glyph-name="k" unicode="k" horiz-adv-x="547" 
d="M548 0h-156l-138 190h-56v-190h-139v700h139v-399h58l122 179h156l-165 -237z" />
    <glyph glyph-name="kcommaaccent" unicode="&#x137;" horiz-adv-x="547" 
d="M548 0h-156l-138 190h-56v-190h-139v700h139v-399h58l122 179h156l-165 -237zM309 -263h-112l32 210h128z" />
    <glyph glyph-name="l" unicode="l" horiz-adv-x="261" 
d="M61 730h139v-730h-139v730z" />
    <glyph glyph-name="lacute" unicode="&#x13a;" horiz-adv-x="261" 
d="M61 730h139v-730h-139v730zM184 777h-134l90 148h152z" />
    <glyph glyph-name="lcaron" unicode="&#x13e;" horiz-adv-x="260" 
d="M261 730h119l-32 -202h-103zM61 730h139v-730h-139v730z" />
    <glyph glyph-name="lcommaaccent" unicode="&#x13c;" horiz-adv-x="261" 
d="M61 730h139v-730h-139v730zM152 -263h-112l32 210h128z" />
    <glyph glyph-name="ldot" unicode="&#x140;" horiz-adv-x="397" 
d="M61 730h139v-730h-139v730zM413 350c0 -57 -39 -82 -84 -82s-85 25 -85 82c0 56 40 82 85 82s84 -26 84 -82z" />
    <glyph glyph-name="lslash" unicode="&#x142;" horiz-adv-x="360" 
d="M111 730h139v-288l78 31v-109l-78 -31v-333h-139v278l-78 -31v109l78 32v342z" />
    <glyph glyph-name="m" unicode="m" horiz-adv-x="875" 
d="M198 0h-139v480h123v-56c25 30 80 70 153 70c72 0 119 -30 147 -71c40 39 94 71 160 71c135 0 179 -105 179 -190v-304h-138v295c0 50 -31 79 -75 79c-38 0 -72 -22 -95 -48c1 -7 1 -14 1 -22v-304h-138v295c0 50 -31 79 -75 79c-42 0 -80 -28 -103 -58v-316z" />
    <glyph glyph-name="n" unicode="n" 
d="M182 419c37 43 91 75 160 75c126 0 195 -86 195 -197v-297h-139v279c0 65 -39 95 -93 95c-49 0 -87 -32 -107 -61v-313h-139v480h123v-61z" />
    <glyph glyph-name="nacute" unicode="&#x144;" 
d="M182 419c37 43 91 75 160 75c126 0 195 -86 195 -197v-297h-139v279c0 65 -39 95 -93 95c-49 0 -87 -32 -107 -61v-313h-139v480h123v-61zM336 544h-134l90 148h152z" />
    <glyph glyph-name="ncaron" unicode="&#x148;" 
d="M182 419c37 43 91 75 160 75c126 0 195 -86 195 -197v-297h-139v279c0 65 -39 95 -93 95c-49 0 -87 -32 -107 -61v-313h-139v480h123v-61zM483 695l-130 -155h-123l-131 155h133l59 -71l60 71h132z" />
    <glyph glyph-name="ncommaaccent" unicode="&#x146;" 
d="M182 419c37 43 91 75 160 75c126 0 195 -86 195 -197v-297h-139v279c0 65 -39 95 -93 95c-49 0 -87 -32 -107 -61v-313h-139v480h123v-61zM321 -263h-112l32 210h128z" />
    <glyph glyph-name="eng" unicode="&#x14b;" 
d="M537 -75c0 -124 -88 -159 -162 -159c-31 0 -60 6 -80 14v111c12 -5 25 -7 39 -7c34 0 64 14 64 66v329c0 65 -39 95 -93 95c-49 0 -87 -32 -107 -61v-313h-139v480h123v-61c37 43 91 75 160 75c126 0 195 -86 195 -197v-372z" />
    <glyph glyph-name="ntilde" unicode="&#xf1;" 
d="M182 419c37 43 91 75 160 75c126 0 195 -86 195 -197v-297h-139v279c0 65 -39 95 -93 95c-49 0 -87 -32 -107 -61v-313h-139v480h123v-61zM468 665c19 -82 -26 -139 -94 -139c-65 0 -111 42 -142 42c-24 0 -27 -22 -23 -36h-100c-19 82 26 139 93 139
c65 0 111 -42 143 -42c24 0 27 22 23 36h100z" />
    <glyph glyph-name="o" unicode="o" horiz-adv-x="594" 
d="M32 240c0 168 126 254 265 254c140 0 265 -86 265 -254s-125 -254 -265 -254c-139 0 -265 86 -265 254zM421 240c0 74 -44 130 -124 130c-79 0 -123 -56 -123 -130s44 -130 123 -130c80 0 124 56 124 130z" />
    <glyph glyph-name="oacute" unicode="&#xf3;" horiz-adv-x="594" 
d="M32 240c0 168 126 254 265 254c140 0 265 -86 265 -254s-125 -254 -265 -254c-139 0 -265 86 -265 254zM421 240c0 74 -44 130 -124 130c-79 0 -123 -56 -123 -130s44 -130 123 -130c80 0 124 56 124 130zM344 538h-134l90 148h152z" />
    <glyph glyph-name="ocircumflex" unicode="&#xf4;" horiz-adv-x="594" 
d="M32 240c0 168 126 254 265 254c140 0 265 -86 265 -254s-125 -254 -265 -254c-139 0 -265 86 -265 254zM421 240c0 74 -44 130 -124 130c-79 0 -123 -56 -123 -130s44 -130 123 -130c80 0 124 56 124 130zM237 686h123l124 -155h-132l-53 65l-53 -65h-133z" />
    <glyph glyph-name="odieresis" unicode="&#xf6;" horiz-adv-x="594" 
d="M32 240c0 168 126 254 265 254c140 0 265 -86 265 -254s-125 -254 -265 -254c-139 0 -265 86 -265 254zM421 240c0 74 -44 130 -124 130c-79 0 -123 -56 -123 -130s44 -130 123 -130c80 0 124 56 124 130zM479 607c0 -41 -33 -74 -74 -74c-42 0 -75 33 -75 74
s33 75 75 75c41 0 74 -34 74 -75zM265 607c0 -41 -33 -74 -74 -74s-75 33 -75 74s34 75 75 75s74 -34 74 -75z" />
    <glyph glyph-name="ograve" unicode="&#xf2;" horiz-adv-x="594" 
d="M32 240c0 168 126 254 265 254c140 0 265 -86 265 -254s-125 -254 -265 -254c-139 0 -265 86 -265 254zM421 240c0 74 -44 130 -124 130c-79 0 -123 -56 -123 -130s44 -130 123 -130c80 0 124 56 124 130zM385 538h-134l-108 148h152z" />
    <glyph glyph-name="ohungarumlaut" unicode="&#x151;" horiz-adv-x="594" 
d="M32 240c0 168 126 254 265 254c140 0 265 -86 265 -254s-125 -254 -265 -254c-139 0 -265 86 -265 254zM421 240c0 74 -44 130 -124 130c-79 0 -123 -56 -123 -130s44 -130 123 -130c80 0 124 56 124 130zM442 548h-127l72 153h136zM261 548h-127l72 153h136z" />
    <glyph glyph-name="omacron" unicode="&#x14d;" horiz-adv-x="594" 
d="M32 240c0 168 126 254 265 254c140 0 265 -86 265 -254s-125 -254 -265 -254c-139 0 -265 86 -265 254zM421 240c0 74 -44 130 -124 130c-79 0 -123 -56 -123 -130s44 -130 123 -130c80 0 124 56 124 130zM135 651h326v-110h-326v110z" />
    <glyph glyph-name="oslash" unicode="&#xf8;" horiz-adv-x="594" 
d="M520 543l-61 -96c62 -41 103 -110 103 -207c0 -168 -125 -254 -265 -254c-42 0 -82 8 -118 23l-46 -71h-60l61 96c-61 41 -102 110 -102 206c0 168 126 254 265 254c41 0 81 -7 117 -22l46 71h60zM297 370c-79 0 -123 -56 -123 -130c0 -37 11 -70 32 -93l139 215
c-15 5 -30 8 -48 8zM248 118c15 -5 31 -8 49 -8c80 0 124 56 124 130c0 38 -12 71 -34 94z" />
    <glyph glyph-name="otilde" unicode="&#xf5;" horiz-adv-x="594" 
d="M32 240c0 168 126 254 265 254c140 0 265 -86 265 -254s-125 -254 -265 -254c-139 0 -265 86 -265 254zM421 240c0 74 -44 130 -124 130c-79 0 -123 -56 -123 -130s44 -130 123 -130c80 0 124 56 124 130zM476 659c19 -82 -26 -139 -94 -139c-65 0 -111 42 -142 42
c-24 0 -27 -22 -23 -36h-100c-19 82 26 139 93 139c65 0 111 -42 143 -42c24 0 27 22 23 36h100z" />
    <glyph glyph-name="oe" unicode="&#x153;" horiz-adv-x="935" 
d="M486 84c-42 -66 -115 -98 -201 -98c-130 0 -253 86 -253 254s123 254 252 254c86 0 160 -33 201 -96c48 69 122 96 189 96c193 0 257 -160 224 -301h-338c16 -68 90 -97 170 -97c54 0 103 11 143 29v-108c-44 -19 -104 -31 -175 -31c-88 0 -165 30 -212 98zM174 240
c0 -74 44 -130 123 -130c80 0 124 56 124 130s-44 130 -124 130c-79 0 -123 -56 -123 -130zM672 387c-60 0 -111 -37 -113 -105h214c5 35 -14 105 -101 105z" />
    <glyph glyph-name="p" unicode="p" horiz-adv-x="622" 
d="M182 410c30 43 85 84 174 84c152 0 234 -123 234 -254s-82 -254 -234 -254c-76 0 -127 31 -158 65v-271h-139v700h123v-70zM448 240c0 75 -47 137 -126 137c-61 0 -106 -38 -125 -80v-114c19 -42 64 -80 125 -80c79 0 126 62 126 137z" />
    <glyph glyph-name="thorn" unicode="&#xfe;" horiz-adv-x="622" 
d="M59 700h139v-278c34 39 88 72 161 72c152 0 231 -126 231 -254c0 -134 -85 -254 -231 -254c-75 0 -130 34 -161 68v-274h-139v920zM448 240c0 75 -46 137 -125 137c-61 0 -107 -38 -126 -83v-107c22 -44 68 -80 126 -81c76 -1 125 59 125 134z" />
    <glyph glyph-name="q" unicode="q" horiz-adv-x="622" 
d="M32 240c0 131 82 254 235 254c88 0 143 -41 174 -84v70h122v-700h-138v271c-31 -34 -82 -65 -158 -65c-153 0 -235 123 -235 254zM425 297c-19 42 -64 80 -125 80c-79 0 -126 -62 -126 -137s47 -137 126 -137c61 0 106 38 125 80v114z" />
    <glyph glyph-name="r" unicode="r" horiz-adv-x="391" 
d="M182 408c34 53 104 91 194 82v-135c-76 13 -149 -16 -178 -73v-282h-139v480h123v-72z" />
    <glyph glyph-name="racute" unicode="&#x155;" horiz-adv-x="391" 
d="M182 408c34 53 104 91 194 82v-135c-76 13 -149 -16 -178 -73v-282h-139v480h123v-72zM259 544h-134l90 148h152z" />
    <glyph glyph-name="rcaron" unicode="&#x159;" horiz-adv-x="390" 
d="M181 408c34 53 104 91 194 82v-135c-76 13 -149 -16 -178 -73v-282h-139v480h123v-72zM405 695l-130 -155h-123l-131 155h133l59 -71l60 71h132z" />
    <glyph glyph-name="rcommaaccent" unicode="&#x157;" horiz-adv-x="391" 
d="M182 408c34 53 104 91 194 82v-135c-76 13 -149 -16 -178 -73v-282h-139v480h123v-72zM147 -263h-112l32 210h128z" />
    <glyph glyph-name="s" unicode="s" horiz-adv-x="477" 
d="M38 346c0 111 99 148 200 148c68 0 128 -17 177 -41v-114c-41 28 -111 49 -168 49c-31 0 -67 -9 -67 -38c0 -80 271 -40 271 -216c0 -113 -103 -148 -218 -148c-73 0 -142 16 -191 45v115c52 -34 125 -51 183 -51c51 0 84 9 84 36c0 77 -271 43 -271 215z" />
    <glyph glyph-name="sacute" unicode="&#x15b;" horiz-adv-x="477" 
d="M38 346c0 111 99 148 200 148c68 0 128 -17 177 -41v-114c-41 28 -111 49 -168 49c-31 0 -67 -9 -67 -38c0 -80 271 -40 271 -216c0 -113 -103 -148 -218 -148c-73 0 -142 16 -191 45v115c52 -34 125 -51 183 -51c51 0 84 9 84 36c0 77 -271 43 -271 215zM283 544h-134
l90 148h152z" />
    <glyph glyph-name="scaron" unicode="&#x161;" horiz-adv-x="477" 
d="M38 346c0 111 99 148 200 148c68 0 128 -17 177 -41v-114c-41 28 -111 49 -168 49c-31 0 -67 -9 -67 -38c0 -80 271 -40 271 -216c0 -113 -103 -148 -218 -148c-73 0 -142 16 -191 45v115c52 -34 125 -51 183 -51c51 0 84 9 84 36c0 77 -271 43 -271 215zM430 695
l-130 -155h-123l-131 155h133l59 -71l60 71h132z" />
    <glyph glyph-name="scedilla" unicode="&#x15f;" horiz-adv-x="477" 
d="M180 350c0 -80 271 -40 271 -216c0 -90 -65 -130 -149 -143l-11 -39c64 -6 93 -37 94 -87c0 -71 -74 -99 -144 -99c-37 0 -70 5 -103 19v86c23 -13 52 -20 81 -20c37 0 62 10 62 30c0 26 -47 32 -96 26l19 80c-62 3 -120 19 -162 44v115c52 -34 125 -51 183 -51
c51 0 84 9 84 36c0 77 -271 43 -271 215c0 111 99 148 200 148c68 0 128 -17 177 -41v-114c-41 28 -111 49 -168 49c-31 0 -67 -9 -67 -38z" />
    <glyph glyph-name="scommaaccent" unicode="&#x219;" horiz-adv-x="477" 
d="M38 346c0 111 99 148 200 148c68 0 128 -17 177 -41v-114c-41 28 -111 49 -168 49c-31 0 -67 -9 -67 -38c0 -80 271 -40 271 -216c0 -113 -103 -148 -218 -148c-73 0 -142 16 -191 45v115c52 -34 125 -51 183 -51c51 0 84 9 84 36c0 77 -271 43 -271 215zM268 -263h-112
l32 210h128z" />
    <glyph glyph-name="germandbls" unicode="&#xdf;" 
d="M568 143c0 -110 -100 -157 -198 -157c-41 0 -84 9 -118 24v109c32 -16 64 -23 90 -23c47 0 85 18 85 59c0 65 -142 126 -142 208c0 73 72 97 72 175c0 46 -32 67 -75 67c-51 0 -84 -30 -84 -82v-523h-139v490c0 143 81 223 223 224c149 1 207 -87 207 -153
c0 -86 -78 -130 -78 -178c0 -64 157 -116 157 -240z" />
    <glyph glyph-name="t" unicode="t" horiz-adv-x="418" 
d="M95 620l138 33v-173h152v-117h-152v-188c0 -50 25 -72 77 -72c32 0 59 5 87 16v-112c-37 -13 -81 -21 -129 -21c-93 0 -173 43 -173 162v215h-81v117h81v140z" />
    <glyph glyph-name="tbar" unicode="&#x167;" horiz-adv-x="419" 
d="M234 174c0 -51 25 -72 77 -72c32 0 59 5 87 16v-111c-38 -12 -84 -21 -129 -21c-93 0 -173 43 -173 162v63h-53v83h53v76h-81v110h81v140l138 33v-173h152v-110h-152v-76h123v-83h-123v-37z" />
    <glyph glyph-name="tcaron" unicode="&#x165;" horiz-adv-x="418" 
d="M314 743h119l-32 -198h-103zM95 620l138 33v-173h152v-117h-152v-188c0 -50 25 -72 77 -72c32 0 59 5 87 16v-112c-37 -13 -81 -21 -129 -21c-93 0 -173 43 -173 162v215h-81v117h81v140z" />
    <glyph glyph-name="tcommaaccent" unicode="&#x163;" horiz-adv-x="418" 
d="M95 620l138 33v-173h152v-117h-152v-188c0 -50 25 -72 77 -72c32 0 59 5 87 16v-112c-37 -13 -81 -21 -129 -21c-93 0 -173 43 -173 162v215h-81v117h81v140zM271 -263h-112l32 210h128z" />
    <glyph glyph-name="uni021B" unicode="&#x21b;" horiz-adv-x="418" 
d="M95 620l138 33v-173h152v-117h-152v-188c0 -50 25 -72 77 -72c32 0 59 5 87 16v-112c-37 -13 -81 -21 -129 -21c-93 0 -173 43 -173 162v215h-81v117h81v140zM271 -263h-112l32 210h128z" />
    <glyph glyph-name="u" unicode="u" 
d="M392 480h139v-480h-123v61c-37 -43 -92 -75 -160 -75c-130 0 -195 86 -195 197v297h139v-279c0 -64 35 -95 92 -95c50 0 87 32 108 61v313z" />
    <glyph glyph-name="uacute" unicode="&#xfa;" 
d="M392 480h139v-480h-123v61c-37 -43 -92 -75 -160 -75c-130 0 -195 86 -195 197v297h139v-279c0 -64 35 -95 92 -95c50 0 87 32 108 61v313zM340 544h-134l90 148h152z" />
    <glyph glyph-name="ucircumflex" unicode="&#xfb;" 
d="M392 480h139v-480h-123v61c-37 -43 -92 -75 -160 -75c-130 0 -195 86 -195 197v297h139v-279c0 -64 35 -95 92 -95c50 0 87 32 108 61v313zM233 692h123l124 -155h-132l-53 65l-53 -65h-133z" />
    <glyph glyph-name="udieresis" unicode="&#xfc;" 
d="M392 480h139v-480h-123v61c-37 -43 -92 -75 -160 -75c-130 0 -195 86 -195 197v297h139v-279c0 -64 35 -95 92 -95c50 0 87 32 108 61v313zM475 613c0 -41 -33 -74 -74 -74c-42 0 -75 33 -75 74s33 75 75 75c41 0 74 -34 74 -75zM261 613c0 -41 -33 -74 -74 -74
s-75 33 -75 74s34 75 75 75s74 -34 74 -75z" />
    <glyph glyph-name="ugrave" unicode="&#xf9;" 
d="M392 480h139v-480h-123v61c-37 -43 -92 -75 -160 -75c-130 0 -195 86 -195 197v297h139v-279c0 -64 35 -95 92 -95c50 0 87 32 108 61v313zM381 544h-134l-108 148h152z" />
    <glyph glyph-name="uhungarumlaut" unicode="&#x171;" 
d="M392 480h139v-480h-123v61c-37 -43 -92 -75 -160 -75c-130 0 -195 86 -195 197v297h139v-279c0 -64 35 -95 92 -95c50 0 87 32 108 61v313zM438 554h-127l72 153h136zM257 554h-127l72 153h136z" />
    <glyph glyph-name="umacron" unicode="&#x16b;" 
d="M392 480h139v-480h-123v61c-37 -43 -92 -75 -160 -75c-130 0 -195 86 -195 197v297h139v-279c0 -64 35 -95 92 -95c50 0 87 32 108 61v313zM131 657h326v-110h-326v110z" />
    <glyph glyph-name="uogonek" unicode="&#x173;" 
d="M531 480v-480c-50 -33 -73 -71 -72 -97c-1 -22 14 -33 35 -33c13 0 25 3 37 8v-96c-25 -11 -50 -16 -83 -16c-75 0 -114 45 -113 100c0 47 30 97 73 134v61c-37 -43 -92 -75 -160 -75c-130 0 -195 86 -195 197v297h139v-279c0 -64 35 -95 92 -95c50 0 87 32 108 61v313
h139z" />
    <glyph glyph-name="uring" unicode="&#x16f;" 
d="M392 480h139v-480h-123v61c-37 -43 -92 -75 -160 -75c-130 0 -195 86 -195 197v297h139v-279c0 -64 35 -95 92 -95c50 0 87 32 108 61v313zM418 636c0 -77 -58 -121 -125 -121c-66 0 -125 44 -125 121c0 74 59 118 125 118c67 0 125 -44 125 -118zM252 635
c0 -26 18 -43 42 -43s42 17 42 43c0 25 -18 42 -42 42s-42 -17 -42 -42z" />
    <glyph glyph-name="v" unicode="v" horiz-adv-x="560" 
d="M403 480h148l-198 -480h-146l-198 480h148l123 -333z" />
    <glyph glyph-name="w" unicode="w" horiz-adv-x="817" 
d="M658 480h147l-154 -480h-147l-95 313l-95 -313h-148l-154 480h148l87 -329l96 329h132l95 -329z" />
    <glyph glyph-name="wacute" unicode="&#x1e83;" horiz-adv-x="817" 
d="M658 480h147l-154 -480h-147l-95 313l-95 -313h-148l-154 480h148l87 -329l96 329h132l95 -329zM454 544h-134l90 148h152z" />
    <glyph glyph-name="wcircumflex" unicode="&#x175;" horiz-adv-x="817" 
d="M658 480h147l-154 -480h-147l-95 313l-95 -313h-148l-154 480h148l87 -329l96 329h132l95 -329zM347 692h123l124 -155h-132l-53 65l-53 -65h-133z" />
    <glyph glyph-name="wdieresis" unicode="&#x1e85;" horiz-adv-x="817" 
d="M658 480h147l-154 -480h-147l-95 313l-95 -313h-148l-154 480h148l87 -329l96 329h132l95 -329zM589 613c0 -41 -33 -74 -74 -74c-42 0 -75 33 -75 74s33 75 75 75c41 0 74 -34 74 -75zM375 613c0 -41 -33 -74 -74 -74s-75 33 -75 74s34 75 75 75s74 -34 74 -75z" />
    <glyph glyph-name="wgrave" unicode="&#x1e81;" horiz-adv-x="817" 
d="M658 480h147l-154 -480h-147l-95 313l-95 -313h-148l-154 480h148l87 -329l96 329h132l95 -329zM495 544h-134l-108 148h152z" />
    <glyph glyph-name="x" unicode="x" horiz-adv-x="530" 
d="M362 480h157l-173 -238l183 -242h-157l-106 147l-107 -147h-157l183 242l-174 238h157l98 -144z" />
    <glyph glyph-name="y" unicode="y" horiz-adv-x="563" 
d="M290 156l119 324h144l-213 -538c-54 -134 -129 -175 -207 -175c-25 0 -50 5 -75 11v115c19 -4 38 -7 57 -7c50 0 88 34 114 105l1 2l-227 487h147z" />
    <glyph glyph-name="yacute" unicode="&#xfd;" horiz-adv-x="563" 
d="M290 156l119 324h144l-213 -538c-54 -134 -129 -175 -207 -175c-25 0 -50 5 -75 11v115c19 -4 38 -7 57 -7c50 0 88 34 114 105l1 2l-227 487h147zM319 544h-134l90 148h152z" />
    <glyph glyph-name="ycircumflex" unicode="&#x177;" horiz-adv-x="563" 
d="M290 156l119 324h144l-213 -538c-54 -134 -129 -175 -207 -175c-25 0 -50 5 -75 11v115c19 -4 38 -7 57 -7c50 0 88 34 114 105l1 2l-227 487h147zM212 692h123l124 -155h-132l-53 65l-53 -65h-133z" />
    <glyph glyph-name="ydieresis" unicode="&#xff;" horiz-adv-x="563" 
d="M290 156l119 324h144l-213 -538c-54 -134 -129 -175 -207 -175c-25 0 -50 5 -75 11v115c19 -4 38 -7 57 -7c50 0 88 34 114 105l1 2l-227 487h147zM454 613c0 -41 -33 -74 -74 -74c-42 0 -75 33 -75 74s33 75 75 75c41 0 74 -34 74 -75zM240 613c0 -41 -33 -74 -74 -74
s-75 33 -75 74s34 75 75 75s74 -34 74 -75z" />
    <glyph glyph-name="ygrave" unicode="&#x1ef3;" horiz-adv-x="563" 
d="M290 156l119 324h144l-213 -538c-54 -134 -129 -175 -207 -175c-25 0 -50 5 -75 11v115c19 -4 38 -7 57 -7c50 0 88 34 114 105l1 2l-227 487h147zM360 544h-134l-108 148h152z" />
    <glyph glyph-name="z" unicode="z" horiz-adv-x="482" 
d="M44 480h391v-90l-225 -274h241v-116h-420v90l225 275h-212v115z" />
    <glyph glyph-name="zacute" unicode="&#x17a;" horiz-adv-x="482" 
d="M44 480h391v-90l-225 -274h241v-116h-420v90l225 275h-212v115zM292 544h-134l90 148h152z" />
    <glyph glyph-name="zcaron" unicode="&#x17e;" horiz-adv-x="482" 
d="M44 480h391v-90l-225 -274h241v-116h-420v90l225 275h-212v115zM439 695l-130 -155h-123l-131 155h133l59 -71l60 71h132z" />
    <glyph glyph-name="zdotaccent" unicode="&#x17c;" horiz-adv-x="482" 
d="M44 480h391v-90l-225 -274h241v-116h-420v90l225 275h-212v115zM164 614c0 53 37 79 81 79s82 -26 82 -79c0 -55 -38 -79 -82 -79s-81 24 -81 79z" />
    <glyph glyph-name="a.ss01" horiz-adv-x="622" 
d="M441 70c-31 -43 -86 -84 -174 -84c-153 0 -235 123 -235 254s82 254 235 254c88 0 143 -41 174 -84v70h122v-480h-122v70zM174 240c0 -75 47 -137 126 -137c61 0 106 38 125 80v114c-19 42 -64 80 -125 80c-79 0 -126 -62 -126 -137z" />
    <glyph glyph-name="aacute.ss01" horiz-adv-x="622" 
d="M441 70c-31 -43 -86 -84 -174 -84c-153 0 -235 123 -235 254s82 254 235 254c88 0 143 -41 174 -84v70h122v-480h-122v70zM174 240c0 -75 47 -137 126 -137c61 0 106 38 125 80v114c-19 42 -64 80 -125 80c-79 0 -126 -62 -126 -137zM357 544h-134l90 148h152z" />
    <glyph glyph-name="abreve.ss01" horiz-adv-x="622" 
d="M441 70c-31 -43 -86 -84 -174 -84c-153 0 -235 123 -235 254s82 254 235 254c88 0 143 -41 174 -84v70h122v-480h-122v70zM174 240c0 -75 47 -137 126 -137c61 0 106 38 125 80v114c-19 42 -64 80 -125 80c-79 0 -126 -62 -126 -137zM468 574c-44 -31 -92 -45 -157 -45
s-112 14 -156 45v109c53 -33 102 -43 156 -43s104 10 157 43v-109z" />
    <glyph glyph-name="acircumflex.ss01" horiz-adv-x="622" 
d="M441 70c-31 -43 -86 -84 -174 -84c-153 0 -235 123 -235 254s82 254 235 254c88 0 143 -41 174 -84v70h122v-480h-122v70zM174 240c0 -75 47 -137 126 -137c61 0 106 38 125 80v114c-19 42 -64 80 -125 80c-79 0 -126 -62 -126 -137zM250 692h123l124 -155h-132l-53 65
l-53 -65h-133z" />
    <glyph glyph-name="adieresis.ss01" horiz-adv-x="622" 
d="M441 70c-31 -43 -86 -84 -174 -84c-153 0 -235 123 -235 254s82 254 235 254c88 0 143 -41 174 -84v70h122v-480h-122v70zM174 240c0 -75 47 -137 126 -137c61 0 106 38 125 80v114c-19 42 -64 80 -125 80c-79 0 -126 -62 -126 -137zM492 613c0 -41 -33 -74 -74 -74
c-42 0 -75 33 -75 74s33 75 75 75c41 0 74 -34 74 -75zM278 613c0 -41 -33 -74 -74 -74s-75 33 -75 74s34 75 75 75s74 -34 74 -75z" />
    <glyph glyph-name="agrave.ss01" horiz-adv-x="622" 
d="M441 70c-31 -43 -86 -84 -174 -84c-153 0 -235 123 -235 254s82 254 235 254c88 0 143 -41 174 -84v70h122v-480h-122v70zM174 240c0 -75 47 -137 126 -137c61 0 106 38 125 80v114c-19 42 -64 80 -125 80c-79 0 -126 -62 -126 -137zM398 544h-134l-108 148h152z" />
    <glyph glyph-name="amacron.ss01" horiz-adv-x="622" 
d="M441 70c-31 -43 -86 -84 -174 -84c-153 0 -235 123 -235 254s82 254 235 254c88 0 143 -41 174 -84v70h122v-480h-122v70zM174 240c0 -75 47 -137 126 -137c61 0 106 38 125 80v114c-19 42 -64 80 -125 80c-79 0 -126 -62 -126 -137zM148 657h326v-110h-326v110z" />
    <glyph glyph-name="aogonek.ss01" horiz-adv-x="622" 
d="M563 0c-48 -32 -73 -70 -72 -98c-1 -22 14 -32 35 -32c13 0 25 3 37 9v-96c-25 -12 -51 -17 -83 -17c-75 -1 -114 45 -113 100c0 42 24 91 74 134v70c-31 -43 -86 -84 -174 -84c-153 0 -235 123 -235 254s82 254 235 254c88 0 143 -41 174 -84v70h122v-480zM300 103
c61 0 106 38 125 80v114c-19 42 -64 80 -125 80c-79 0 -126 -62 -126 -137s47 -137 126 -137z" />
    <glyph glyph-name="aring.ss01" horiz-adv-x="622" 
d="M441 70c-31 -43 -86 -84 -174 -84c-153 0 -235 123 -235 254s82 254 235 254c88 0 143 -41 174 -84v70h122v-480h-122v70zM174 240c0 -75 47 -137 126 -137c61 0 106 38 125 80v114c-19 42 -64 80 -125 80c-79 0 -126 -62 -126 -137zM435 636c0 -77 -58 -121 -125 -121
c-66 0 -125 44 -125 121c0 74 59 118 125 118c67 0 125 -44 125 -118zM269 635c0 -26 18 -43 42 -43s42 17 42 43c0 25 -18 42 -42 42s-42 -17 -42 -42z" />
    <glyph glyph-name="atilde.ss01" horiz-adv-x="622" 
d="M441 70c-31 -43 -86 -84 -174 -84c-153 0 -235 123 -235 254s82 254 235 254c88 0 143 -41 174 -84v70h122v-480h-122v70zM174 240c0 -75 47 -137 126 -137c61 0 106 38 125 80v114c-19 42 -64 80 -125 80c-79 0 -126 -62 -126 -137zM489 665c19 -82 -26 -139 -94 -139
c-65 0 -111 42 -142 42c-24 0 -27 -22 -23 -36h-100c-19 82 26 139 93 139c65 0 111 -42 143 -42c24 0 27 22 23 36h100z" />
    <glyph glyph-name="ae.ss01" horiz-adv-x="949" 
d="M441 70c-31 -43 -86 -84 -174 -84c-153 0 -235 123 -235 254s82 254 235 254c88 0 143 -41 174 -84v70h116v-71c32 54 85 85 155 85c177 0 233 -160 200 -304h-337c16 -65 90 -94 168 -94c55 0 102 13 134 29v-108c-39 -20 -82 -31 -141 -31c-69 0 -135 24 -179 87v-73
h-116v70zM174 240c0 -75 47 -137 126 -137c61 0 106 38 125 80v114c-19 42 -64 80 -125 80c-79 0 -126 -62 -126 -137zM687 387c-60 0 -111 -37 -113 -105h214c5 35 -14 105 -101 105z" />
    <glyph glyph-name="y.ss01" 
d="M531 0c-2 -161 -122 -234 -269 -234c-70 0 -140 17 -189 43v120c44 -30 110 -46 170 -46c79 0 149 26 149 124v38c-35 -34 -84 -59 -144 -59c-130 0 -195 86 -195 197v297h139v-279c0 -64 35 -95 92 -95c50 0 87 32 108 61v313h139v-480z" />
    <glyph glyph-name="yacute.ss01" 
d="M531 0c-2 -161 -122 -234 -269 -234c-70 0 -140 17 -189 43v120c44 -30 110 -46 170 -46c79 0 149 26 149 124v38c-35 -34 -84 -59 -144 -59c-130 0 -195 86 -195 197v297h139v-279c0 -64 35 -95 92 -95c50 0 87 32 108 61v313h139v-480zM340 544h-134l90 148h152z" />
    <glyph glyph-name="ycircumflex.ss01" 
d="M531 0c-2 -161 -122 -234 -269 -234c-70 0 -140 17 -189 43v120c44 -30 110 -46 170 -46c79 0 149 26 149 124v38c-35 -34 -84 -59 -144 -59c-130 0 -195 86 -195 197v297h139v-279c0 -64 35 -95 92 -95c50 0 87 32 108 61v313h139v-480zM233 692h123l124 -155h-132
l-53 65l-53 -65h-133z" />
    <glyph glyph-name="ydieresis.ss01" 
d="M531 0c-2 -161 -122 -234 -269 -234c-70 0 -140 17 -189 43v120c44 -30 110 -46 170 -46c79 0 149 26 149 124v38c-35 -34 -84 -59 -144 -59c-130 0 -195 86 -195 197v297h139v-279c0 -64 35 -95 92 -95c50 0 87 32 108 61v313h139v-480zM475 613c0 -41 -33 -74 -74 -74
c-42 0 -75 33 -75 74s33 75 75 75c41 0 74 -34 74 -75zM261 613c0 -41 -33 -74 -74 -74s-75 33 -75 74s34 75 75 75s74 -34 74 -75z" />
    <glyph glyph-name="ygrave.ss01" 
d="M531 0c-2 -161 -122 -234 -269 -234c-70 0 -140 17 -189 43v120c44 -30 110 -46 170 -46c79 0 149 26 149 124v38c-35 -34 -84 -59 -144 -59c-130 0 -195 86 -195 197v297h139v-279c0 -64 35 -95 92 -95c50 0 87 32 108 61v313h139v-480zM381 544h-134l-108 148h152z" />
    <glyph glyph-name="f_b" horiz-adv-x="998" 
d="M574 429c31 34 82 65 158 65c152 0 234 -123 234 -254s-82 -254 -234 -254c-89 0 -144 41 -174 84v-70h-123v577c-30 13 -63 20 -95 20c-53 0 -96 -24 -96 -81v-36h130v-117h-130v-363h-138v363h-83v117h83v38c0 132 90 196 200 196c61 0 106 -11 150 -30l118 20v-275z
M573 183c19 -42 64 -80 125 -80c79 0 126 62 126 137s-47 137 -126 137c-61 0 -106 -38 -125 -80v-114z" />
    <glyph glyph-name="f_f_b" horiz-adv-x="1324" 
d="M900 429c31 34 82 65 158 65c152 0 234 -123 234 -254s-82 -254 -234 -254c-89 0 -144 41 -174 84v-70h-123v587c-30 13 -62 20 -94 20c-54 0 -96 -24 -96 -85v-42h129v-117h-129v-363h-139v363h-188v-363h-138v363h-83v117h83v29c0 136 95 195 209 195
c55 0 108 -11 167 -37c37 39 90 57 150 57c61 0 106 -11 150 -30l118 20v-285zM432 480v45c0 15 1 30 3 43c-29 15 -58 22 -96 22c-57 0 -95 -27 -95 -82v-28h188zM900 183c19 -42 64 -80 125 -80c79 0 126 62 126 137s-47 137 -126 137c-61 0 -106 -38 -125 -80v-114z" />
    <glyph glyph-name="f_f_h" horiz-adv-x="1292" 
d="M900 435c35 34 84 59 144 59c126 0 195 -86 195 -197v-297h-139v279c0 65 -39 95 -93 95c-49 0 -87 -32 -107 -61v-313h-139v587c-30 13 -62 20 -94 20c-54 0 -96 -24 -96 -85v-42h129v-117h-129v-363h-139v363h-188v-363h-138v363h-83v117h83v29c0 136 95 195 209 195
c55 0 108 -11 167 -37c37 39 90 57 150 57c61 0 106 -11 150 -30l118 20v-279zM432 480v45c0 15 1 30 3 43c-29 15 -58 22 -96 22c-57 0 -95 -27 -95 -82v-28h188z" />
    <glyph glyph-name="f_f_j" horiz-adv-x="951" 
d="M890 -75c0 -124 -88 -159 -162 -159c-32 0 -60 6 -80 14v111c11 -4 26 -7 39 -7c34 0 64 14 64 66v413h-180v-363h-139v363h-188v-363h-138v363h-83v117h83v29c0 136 95 195 209 195c55 0 107 -11 167 -37c41 43 103 63 176 63c54 0 110 -10 167 -31v-118
c-46 21 -94 33 -141 33c-64 0 -113 -26 -113 -90v-44h319v-555zM244 508v-28h188v45c0 15 1 30 3 43c-29 15 -58 22 -96 22c-57 0 -95 -27 -95 -82z" />
    <glyph glyph-name="f_f_k" horiz-adv-x="1249" 
d="M1236 480l-167 -239l181 -241h-153l-141 190h-56v-190h-139v587c-30 13 -62 20 -94 20c-54 0 -96 -24 -96 -85v-42h129v-117h-129v-363h-139v363h-188v-363h-138v363h-83v117h83v29c0 136 95 195 209 195c55 0 108 -11 167 -37c37 39 90 57 150 57c61 0 106 -11 150 -30
l118 20v-413h61l122 179h153zM432 480v45c0 15 1 30 3 43c-29 15 -58 22 -96 22c-57 0 -95 -27 -95 -82v-28h188z" />
    <glyph glyph-name="f_h" horiz-adv-x="966" 
d="M574 435c35 34 84 59 144 59c126 0 195 -86 195 -197v-297h-139v279c0 65 -39 95 -93 95c-49 0 -87 -32 -107 -61v-313h-139v577c-30 13 -63 20 -95 20c-53 0 -96 -24 -96 -81v-36h130v-117h-130v-363h-138v363h-83v117h83v38c0 132 90 196 200 196c61 0 106 -11 150 -30
l118 20v-269z" />
    <glyph glyph-name="f_i" horiz-adv-x="611" 
d="M244 480h306v-480h-138v363h-168v-363h-138v363h-83v117h83v32c0 138 96 202 226 202c54 0 109 -11 166 -31v-118c-45 21 -94 32 -141 32c-63 0 -113 -25 -113 -86v-31z" />
    <glyph glyph-name="f_j" horiz-adv-x="611" 
d="M244 480h306v-555c0 -124 -87 -159 -162 -159c-31 0 -59 6 -79 14v111c10 -4 26 -7 39 -7c34 0 64 14 64 66v413h-168v-363h-138v363h-83v117h83v32c0 138 96 202 226 202c54 0 109 -11 166 -31v-118c-45 21 -94 32 -141 32c-63 0 -113 -25 -113 -86v-31z" />
    <glyph glyph-name="f_k" horiz-adv-x="923" 
d="M910 480l-167 -239l181 -241h-153l-141 190h-56v-190h-139v577c-30 13 -63 20 -95 20c-53 0 -96 -24 -96 -81v-36h130v-117h-130v-363h-138v363h-83v117h83v38c0 132 90 196 200 196c61 0 106 -11 150 -30l118 20v-403h61l122 179h153z" />
    <glyph glyph-name="f_l" horiz-adv-x="635" 
d="M306 714c61 0 106 -11 150 -30l118 20v-704h-139v577c-30 13 -63 20 -95 20c-53 0 -96 -24 -96 -81v-36h130v-117h-130v-363h-138v363h-83v117h83v38c0 132 90 196 200 196z" />
    <glyph glyph-name="uni0410" unicode="&#x410;" horiz-adv-x="739" 
d="M158 0h-155l286 700h162l285 -700h-155l-51 131h-320zM354 506l-97 -251h226l-98 251c-5 14 -10 28 -15 55c-5 -27 -10 -41 -16 -55z" />
    <glyph glyph-name="uni0411" unicode="&#x411;" horiz-adv-x="675" 
d="M225 440h154c138 0 268 -47 268 -220c0 -174 -130 -220 -268 -220h-304v700h515v-135h-365v-125zM225 132h155c59 0 114 13 114 88s-55 88 -114 88h-155v-176z" />
    <glyph glyph-name="uni0412" unicode="&#x412;" horiz-adv-x="687" 
d="M75 700h306c149 0 242 -57 242 -177c0 -82 -44 -132 -106 -153c69 -20 134 -71 134 -174c0 -159 -153 -196 -275 -196h-301v700zM501 212c0 74 -59 90 -119 90h-158v-180h150c67 0 127 14 127 90zM474 497c0 55 -40 80 -106 80h-143v-160h151c57 0 98 26 98 80z" />
    <glyph glyph-name="uni0413" unicode="&#x413;" horiz-adv-x="576" 
d="M225 0h-150v700h489v-135h-339v-565z" />
    <glyph glyph-name="uni0414" unicode="&#x414;" horiz-adv-x="809" 
d="M153 -152h-132v284h82c90 161 111 373 111 568h476v-568h89v-284h-132v152h-494v-152zM354 565c-10 -155 -32 -318 -92 -433h278v433h-186z" />
    <glyph glyph-name="uni0415" unicode="&#x415;" horiz-adv-x="617" 
d="M75 700h493v-132h-343v-149h313v-131h-313v-156h349v-132h-499v700z" />
    <glyph glyph-name="uni0401" unicode="&#x401;" horiz-adv-x="617" 
d="M512 833c0 -41 -33 -74 -74 -74c-42 0 -75 33 -75 74s33 75 75 75c41 0 74 -34 74 -75zM298 833c0 -41 -33 -74 -74 -74s-75 33 -75 74s34 75 75 75s74 -34 74 -75zM75 700h493v-132h-343v-149h313v-131h-313v-156h349v-132h-499v700z" />
    <glyph glyph-name="uni0416" unicode="&#x416;" horiz-adv-x="987" 
d="M171 0h-167l209 359l-195 341h167l150 -278h84v278h150v-278h84l150 278h167l-196 -341l210 -359h-167l-165 286h-83v-286h-150v286h-83z" />
    <glyph glyph-name="uni0417" unicode="&#x417;" horiz-adv-x="624" 
d="M587 190c0 -156 -150 -204 -289 -204c-83 0 -166 12 -259 45v144c92 -45 174 -55 248 -54c76 0 149 19 149 91c0 65 -58 82 -126 82h-158l1 132h147c66 0 109 24 109 73c0 56 -50 80 -139 80c-63 1 -134 -13 -219 -54v143c81 34 159 46 232 46c164 0 276 -62 276 -191
c0 -77 -44 -130 -112 -153c73 -20 140 -75 140 -180z" />
    <glyph glyph-name="uni0418" unicode="&#x418;" horiz-adv-x="764" 
d="M689 0h-150v361c0 32 1 67 3 96l-326 -457h-141v700h150v-361c0 -32 -1 -67 -3 -96l326 457h141v-700z" />
    <glyph glyph-name="uni0419" unicode="&#x419;" horiz-adv-x="764" 
d="M539 0h150v700h-141l-326 -457c2 29 3 64 3 96v361h-150v-700h141l326 457c-2 -29 -3 -64 -3 -96v-361zM539 794c-44 -31 -92 -45 -157 -45s-112 14 -156 45v109c53 -33 102 -43 156 -43s104 10 157 43v-109z" />
    <glyph glyph-name="uni041A" unicode="&#x41a;" horiz-adv-x="691" 
d="M225 0h-150v700h150v-278h113l177 278h167l-227 -341l240 -359h-166l-191 286h-113v-286z" />
    <glyph glyph-name="uni041B" unicode="&#x41b;" horiz-adv-x="754" 
d="M199 700h480v-700h-150v565h-192c-24 -298 -56 -573 -250 -574c-24 0 -50 3 -78 13v132c13 -4 28 -6 48 -5c118 8 124 323 142 569z" />
    <glyph glyph-name="uni041C" unicode="&#x41c;" horiz-adv-x="907" 
d="M693 700h139v-700h-150v431l-185 -281h-87l-185 282v-432h-150v700h139l240 -364z" />
    <glyph glyph-name="uni041D" unicode="&#x41d;" horiz-adv-x="764" 
d="M539 700h150v-700h-150v282h-314v-282h-150v700h150v-282h314v282z" />
    <glyph glyph-name="uni041E" unicode="&#x41e;" horiz-adv-x="816" 
d="M36 350c0 190 124 364 372 364s372 -174 372 -364s-124 -364 -372 -364s-372 174 -372 364zM626 350c0 123 -73 225 -218 225c-146 0 -219 -102 -219 -225s73 -225 219 -225c145 0 218 102 218 225z" />
    <glyph glyph-name="uni041F" unicode="&#x41f;" horiz-adv-x="759" 
d="M225 0h-150v700h609v-700h-149v565h-310v-565z" />
    <glyph glyph-name="uni0420" unicode="&#x420;" horiz-adv-x="667" 
d="M75 700h264c169 0 302 -54 302 -235s-133 -235 -302 -235h-114v-230h-150v700zM488 465c0 83 -65 103 -142 103h-121v-206h121c77 0 142 21 142 103z" />
    <glyph glyph-name="uni0421" unicode="&#x421;" horiz-adv-x="654" 
d="M36 342c1 256 189 372 376 372c70 0 140 -15 200 -45v-143c-45 35 -110 55 -175 55c-123 0 -247 -70 -247 -239c-1 -154 125 -222 247 -222c72 0 138 20 180 58v-147c-60 -29 -129 -45 -203 -45c-187 0 -378 112 -378 356z" />
    <glyph glyph-name="uni0422" unicode="&#x422;" horiz-adv-x="605" 
d="M13 700h579v-135h-215v-565h-149v565h-215v135z" />
    <glyph glyph-name="uni0423" unicode="&#x423;" horiz-adv-x="666" 
d="M415 160c-64 -136 -141 -174 -230 -174c-34 0 -71 7 -106 17v127c24 -8 53 -13 81 -13c46 0 83 11 108 63l12 25l-279 495h166l184 -360l153 360h165z" />
    <glyph glyph-name="uni0424" unicode="&#x424;" horiz-adv-x="879" 
d="M513 -39h-144v88c-210 9 -347 117 -347 301s137 292 347 301v88h144v-88c208 -10 344 -118 344 -301s-136 -291 -344 -301v-88zM172 350c0 -89 52 -166 197 -176v352c-145 -10 -197 -87 -197 -176zM513 526v-352c142 11 194 88 194 176s-52 165 -194 176z" />
    <glyph glyph-name="uni0425" unicode="&#x425;" horiz-adv-x="678" 
d="M169 0h-175l251 363l-236 337h175l155 -230l154 230h176l-236 -337l251 -363h-176l-169 255z" />
    <glyph glyph-name="uni0427" unicode="&#x427;" horiz-adv-x="697" 
d="M622 0h-150v251c-62 -20 -122 -30 -177 -30c-155 1 -256 79 -256 241v238h150v-233c0 -76 60 -109 144 -109c44 0 92 9 139 28v314h150v-700z" />
    <glyph glyph-name="uni0426" unicode="&#x426;" horiz-adv-x="804" 
d="M774 -152h-132v152h-567v700h150v-565h310v565h150v-565h89v-287z" />
    <glyph glyph-name="uni0428" unicode="&#x428;" horiz-adv-x="1051" 
d="M976 0h-901v700h150v-565h226v565h150v-565h226v565h149v-700z" />
    <glyph glyph-name="uni0429" unicode="&#x429;" horiz-adv-x="1095" 
d="M1065 -152h-132l1 152h-859v700h150v-565h226v565h150v-565h226v565h149v-565h89v-287z" />
    <glyph glyph-name="uni042F" unicode="&#x42f;" horiz-adv-x="695" 
d="M188 0h-173l195 257c-90 30 -156 95 -156 209c0 168 133 234 281 234h285v-700h-150v238h-105zM208 466c0 -70 52 -103 128 -103h134v205h-134c-76 0 -128 -32 -128 -102z" />
    <glyph glyph-name="uni042C" unicode="&#x42c;" horiz-adv-x="667" 
d="M339 0h-264v700h150v-230h114c169 -1 302 -54 302 -235s-133 -235 -302 -235zM225 338v-206h121c77 0 142 21 142 103s-65 103 -142 103h-121z" />
    <glyph glyph-name="uni042A" unicode="&#x42a;" horiz-adv-x="773" 
d="M446 0h-264v565h-166v135h316v-230h114c169 -1 302 -54 302 -235s-133 -235 -302 -235zM332 338v-206h121c77 0 142 21 142 103s-65 103 -142 103h-121z" />
    <glyph glyph-name="uni042B" unicode="&#x42b;" horiz-adv-x="923" 
d="M339 0h-264v700h150v-230h114c169 -1 302 -54 302 -235s-133 -235 -302 -235zM225 338v-206h121c77 0 142 21 142 103s-65 103 -142 103h-121zM848 0h-150v700h150v-700z" />
    <glyph glyph-name="uni042D" unicode="&#x42d;" horiz-adv-x="658" 
d="M45 669c60 30 131 45 202 45c185 0 374 -113 374 -373c0 -249 -190 -355 -378 -355c-69 0 -138 16 -198 45v148c47 -41 112 -58 176 -58c116 0 228 38 249 165h-316v129h313c-24 124 -129 163 -243 164c-61 0 -132 -17 -179 -53v143z" />
    <glyph glyph-name="uni042E" unicode="&#x42e;" horiz-adv-x="1105" 
d="M1069 350c0 -190 -124 -364 -372 -364c-218 0 -338 139 -361 297h-111v-283h-150v700h150v-282h111c24 158 144 296 361 296c248 0 372 -174 372 -364zM479 350c0 -123 73 -225 219 -225c145 0 218 102 218 225s-73 225 -218 225c-146 0 -219 -102 -219 -225z" />
    <glyph glyph-name="uni0414.loclBGR" horiz-adv-x="829" 
d="M158 -152h-132v284h80l227 568h163l228 -568h79v-284h-132v152h-513v-152zM415 548l-152 -416h303z" />
    <glyph glyph-name="uni041B.loclBGR" horiz-adv-x="707" 
d="M276 700h154l273 -700h-162l-188 524l-187 -524h-162z" />
    <glyph glyph-name="uni0424.loclBGR" horiz-adv-x="910" 
d="M528 -94h-143v94c-220 14 -349 163 -349 350s129 336 349 350v94h143v-94c219 -15 346 -163 346 -350s-127 -335 -346 -350v-94zM186 350c0 -93 45 -211 199 -221v442c-154 -10 -199 -128 -199 -221zM528 570v-440c152 11 196 128 196 220s-44 209 -196 220z" />
    <glyph glyph-name="uni0430" unicode="&#x430;" horiz-adv-x="563" 
d="M488 124c0 -25 16 -32 34 -32c8 0 17 1 26 4v-91c-22 -8 -50 -14 -77 -14c-49 0 -86 18 -106 54c-47 -37 -102 -59 -173 -59c-90 0 -168 52 -168 147c0 122 115 160 211 160c38 0 80 -5 114 -13v17c0 48 -38 81 -113 81c-66 0 -125 -18 -170 -36v120c39 13 112 32 186 32
c144 0 236 -59 236 -217v-153zM267 210c-51 0 -101 -17 -101 -66c0 -36 33 -59 75 -59c39 0 76 11 108 39v75c-21 5 -53 11 -82 11z" />
    <glyph glyph-name="uni0431" unicode="&#x431;" horiz-adv-x="583" 
d="M550 219c0 -153 -110 -233 -255 -233c-141 0 -256 83 -256 290c0 172 61 271 147 325c138 86 255 48 322 113v-127c-65 -53 -146 -27 -239 -76c-55 -30 -81 -89 -88 -136c30 42 83 75 156 75c118 0 213 -84 213 -231zM181 218c0 -54 30 -121 114 -121
c85 0 113 67 113 121s-28 121 -113 121c-84 0 -114 -70 -114 -121z" />
    <glyph glyph-name="uni0432" unicode="&#x432;" horiz-adv-x="549" 
d="M353 0h-294v480h286c114 0 158 -62 158 -127c0 -55 -27 -92 -74 -110c52 -17 85 -55 85 -113c0 -68 -40 -130 -161 -130zM198 199v-104h114c35 0 64 13 64 51c0 41 -30 53 -64 53h-114zM197 385v-102h106c33 0 60 13 60 50c0 40 -29 52 -61 52h-105z" />
    <glyph glyph-name="uni0433" unicode="&#x433;" horiz-adv-x="440" 
d="M198 0h-139v480h366v-117h-227v-363z" />
    <glyph glyph-name="uni0434" unicode="&#x434;" horiz-adv-x="652" 
d="M149 -127h-128v233h67c58 101 73 222 70 374h395v-374h72v-233h-128v127h-348v-127zM286 374c-4 -113 -18 -190 -54 -268h183v268h-129z" />
    <glyph glyph-name="uni0435" unicode="&#x435;" horiz-adv-x="545" 
d="M32 240c0 181 139 254 247 254c199 0 263 -157 231 -299h-338c16 -70 90 -99 169 -99c55 0 104 11 145 29v-109c-45 -19 -104 -30 -176 -30c-152 0 -278 87 -278 254zM385 285c5 33 -14 103 -101 103c-59 0 -111 -37 -113 -103h214z" />
    <glyph glyph-name="uni0451" unicode="&#x451;" horiz-adv-x="545" 
d="M461 613c0 -41 -33 -74 -74 -74c-42 0 -75 33 -75 74s33 75 75 75c41 0 74 -34 74 -75zM247 613c0 -41 -33 -74 -74 -74s-75 33 -75 74s34 75 75 75s74 -34 74 -75zM32 240c0 181 139 254 247 254c199 0 263 -157 231 -299h-338c16 -70 90 -99 169 -99
c55 0 104 11 145 29v-109c-45 -19 -104 -30 -176 -30c-152 0 -278 87 -278 254zM385 285c5 33 -14 103 -101 103c-59 0 -111 -37 -113 -103h214z" />
    <glyph glyph-name="uni0436" unicode="&#x436;" horiz-adv-x="787" 
d="M785 0h-149l-119 179h-54v-179h-139v179h-54l-119 -179h-149l166 241l-152 239h148l115 -191h45v191h139v-191h45l115 191h148l-152 -239z" />
    <glyph glyph-name="uni0437" unicode="&#x437;" horiz-adv-x="487" 
d="M453 133c0 -75 -71 -146 -236 -146c-75 0 -139 16 -183 39v111c36 -20 106 -41 165 -41c65 0 112 13 112 54c0 42 -45 47 -92 47h-89v92h89c48 0 82 12 82 45c0 32 -32 51 -94 51c-56 0 -126 -20 -164 -40v110c45 24 114 40 181 40c166 0 219 -73 219 -143
c0 -57 -36 -93 -81 -105c56 -17 91 -57 91 -114z" />
    <glyph glyph-name="uni0438" unicode="&#x438;" horiz-adv-x="591" 
d="M180 0h-121v480h139v-270l214 270h120v-480h-138v270z" />
    <glyph glyph-name="uni0439" unicode="&#x439;" horiz-adv-x="591" 
d="M449 578c-44 -27 -91 -40 -153 -40s-109 13 -153 40v104c53 -29 102 -38 153 -38s100 9 153 38v-104zM180 0h-121v480h139v-270l214 270h120v-480h-138v270z" />
    <glyph glyph-name="uni043A" unicode="&#x43a;" horiz-adv-x="548" 
d="M198 0h-139v480h139v-179h58l122 179h156l-165 -237l179 -243h-156l-138 190h-56v-190z" />
    <glyph glyph-name="uni043B" unicode="&#x43b;" horiz-adv-x="593" 
d="M272 370c-14 -216 -51 -380 -183 -380c-22 0 -48 4 -76 14v110c10 -4 20 -6 29 -6c76 0 93 157 102 372h390v-480h-139v370h-123z" />
    <glyph glyph-name="uni043C" unicode="&#x43c;" horiz-adv-x="682" 
d="M194 0h-135v480h133l149 -238l150 238h132v-480h-134v283l-113 -179h-69l-113 179v-283z" />
    <glyph glyph-name="uni043D" unicode="&#x43d;" 
d="M198 0h-139v480h139v-182h194v182h139v-480h-139v182h-194v-182z" />
    <glyph glyph-name="uni043E" unicode="&#x43e;" horiz-adv-x="594" 
d="M32 240c0 168 126 254 265 254c140 0 265 -86 265 -254s-125 -254 -265 -254c-139 0 -265 86 -265 254zM421 240c0 74 -44 130 -124 130c-79 0 -123 -56 -123 -130s44 -130 123 -130c80 0 124 56 124 130z" />
    <glyph glyph-name="uni043F" unicode="&#x43f;" 
d="M198 0h-139v480h472v-480h-139v363h-194v-363z" />
    <glyph glyph-name="uni0440" unicode="&#x440;" horiz-adv-x="622" 
d="M182 410c30 43 85 84 174 84c152 0 234 -123 234 -254s-82 -254 -234 -254c-76 0 -127 31 -158 65v-271h-139v700h123v-70zM448 240c0 75 -47 137 -126 137c-61 0 -106 -38 -125 -80v-114c19 -42 64 -80 125 -80c79 0 126 62 126 137z" />
    <glyph glyph-name="uni0441" unicode="&#x441;" horiz-adv-x="493" 
d="M32 233c0 184 138 262 271 262c53 0 105 -12 148 -35v-122c-34 22 -82 36 -128 36c-76 0 -149 -37 -149 -134c0 -92 72 -134 147 -134c51 0 100 14 135 35v-123c-47 -20 -101 -32 -162 -32c-131 0 -262 76 -262 247z" />
    <glyph glyph-name="uni0442" unicode="&#x442;" horiz-adv-x="476" 
d="M307 0h-138v363h-153v117h444v-117h-153v-363z" />
    <glyph glyph-name="uni0443" unicode="&#x443;" horiz-adv-x="563" 
d="M290 156l119 324h144l-213 -538c-54 -134 -129 -175 -207 -175c-25 0 -50 5 -75 11v115c19 -4 38 -7 57 -7c50 0 88 34 114 105l1 2l-227 487h147z" />
    <glyph glyph-name="uni0444" unicode="&#x444;" horiz-adv-x="748" 
d="M440 -220h-132v206c-159 6 -277 101 -277 254s118 248 277 254v206h132v-206c159 -6 277 -101 277 -254s-118 -248 -277 -254v-206zM170 240c0 -72 46 -133 139 -138v276c-93 -5 -139 -66 -139 -138zM441 378v-276c93 5 139 66 139 138s-46 133 -139 138z" />
    <glyph glyph-name="uni0445" unicode="&#x445;" horiz-adv-x="530" 
d="M362 480h157l-173 -238l183 -242h-157l-106 147l-107 -147h-157l183 242l-174 238h157l98 -144z" />
    <glyph glyph-name="uni0447" unicode="&#x447;" horiz-adv-x="540" 
d="M481 0h-138v150c-38 -14 -75 -20 -123 -20c-103 0 -187 55 -187 179v171h139v-158c0 -57 35 -75 86 -75c32 0 59 4 85 15v218h138v-480z" />
    <glyph glyph-name="uni0446" unicode="&#x446;" horiz-adv-x="626" 
d="M598 -127h-128v127h-411v480h139v-363h189v363h139v-366h72v-241z" />
    <glyph glyph-name="uni0448" unicode="&#x448;" horiz-adv-x="814" 
d="M755 0h-696v480h139v-363h140v363h138v-363h141v363h138v-480z" />
    <glyph glyph-name="uni0449" unicode="&#x449;" horiz-adv-x="855" 
d="M827 -127h-128v127h-640v480h139v-363h140v363h138v-363h141v363h138v-366h72v-241z" />
    <glyph glyph-name="uni044F" unicode="&#x44f;" horiz-adv-x="556" 
d="M173 0h-156l126 161c-65 28 -98 86 -98 151c0 90 66 168 192 168h260v-480h-139v143h-78zM186 308c0 -39 29 -61 79 -61h93v123h-93c-50 0 -79 -22 -79 -62z" />
    <glyph glyph-name="uni044C" unicode="&#x44c;" horiz-adv-x="525" 
d="M309 0h-250v480h139v-150h111c126 0 194 -73 194 -165s-68 -165 -194 -165zM197 230v-130h78c55 0 85 24 85 65s-30 65 -85 65h-78z" />
    <glyph glyph-name="uni044A" unicode="&#x44a;" horiz-adv-x="607" 
d="M279 330h112c125 0 194 -73 194 -165s-69 -165 -194 -165h-250v371h-124v109h262v-150zM279 100h78c55 0 85 24 85 65s-30 65 -85 65h-78v-130z" />
    <glyph glyph-name="uni044B" unicode="&#x44b;" horiz-adv-x="779" 
d="M309 0h-250v480h139v-150h111c126 0 194 -73 194 -165s-68 -165 -194 -165zM197 230v-130h78c55 0 85 24 85 65s-30 65 -85 65h-78zM720 0h-139v480h139v-480z" />
    <glyph glyph-name="uni044D" unicode="&#x44d;" horiz-adv-x="506" 
d="M474 231c0 -174 -139 -245 -259 -245c-77 0 -122 13 -178 42v114c41 -27 97 -42 148 -42c77 0 137 24 150 88h-207v104h207c-15 61 -77 88 -152 88c-46 0 -101 -15 -141 -42v114c47 28 100 42 158 42c137 0 274 -77 274 -263z" />
    <glyph glyph-name="uni044E" unicode="&#x44e;" horiz-adv-x="836" 
d="M804 240c0 -168 -126 -254 -265 -254c-117 0 -229 68 -254 199h-87v-185h-139v480h139v-185h87c25 131 137 199 254 199c139 0 265 -86 265 -254zM416 240c0 -74 40 -136 123 -136s124 62 124 136s-41 136 -124 136s-123 -62 -123 -136z" />
    <glyph glyph-name="uni0432.loclBGR" horiz-adv-x="591" 
d="M510 537c0 -51 -17 -101 -81 -141c78 -27 131 -93 131 -184c0 -134 -104 -226 -251 -226c-149 0 -261 81 -262 294v112c0 202 94 322 260 322c117 0 203 -78 203 -177zM375 521c0 38 -26 73 -74 73c-63 0 -113 -48 -115 -186l100 18c66 14 89 56 89 95zM186 274
c0 -120 45 -165 120 -165c72 0 115 46 115 108c0 59 -44 114 -130 99l-105 -18v-24z" />
    <glyph glyph-name="uni0433.loclBGR" horiz-adv-x="488" 
d="M447 31c-49 -29 -118 -45 -191 -45c-125 0 -228 35 -228 150c0 188 280 127 280 210c0 32 -36 41 -72 41c-64 0 -133 -20 -177 -48v114c50 24 111 41 187 41c105 0 204 -37 204 -148c0 -186 -280 -133 -280 -211c0 -31 32 -40 93 -40c60 0 132 16 184 52v-116z" />
    <glyph glyph-name="uni0434.loclBGR" horiz-adv-x="622" 
d="M32 240c0 131 82 254 235 254c88 0 143 -41 174 -84v70h122v-467c0 -183 -135 -247 -276 -247c-75 0 -145 17 -203 45v122c54 -32 119 -50 185 -50c85 0 156 29 156 124v44c-31 -34 -82 -65 -158 -65c-153 0 -235 123 -235 254zM425 297c-19 42 -64 80 -125 80
c-79 0 -126 -62 -126 -137s47 -137 126 -137c61 0 106 37 125 77v117z" />
    <glyph glyph-name="uni0436.loclBGR" horiz-adv-x="787" 
d="M151 0h-149l166 240l-152 240h148l109 -181h51v401h139v-401h51l109 181h148l-152 -240l166 -240h-149l-125 189h-48v-189h-139v189h-48z" />
    <glyph glyph-name="uni0438.loclBGR" 
d="M392 480h139v-480h-123v61c-37 -43 -92 -75 -160 -75c-130 0 -195 86 -195 197v297h139v-279c0 -64 35 -95 92 -95c50 0 87 32 108 61v313z" />
    <glyph glyph-name="uni0439.loclBGR" 
d="M446 578c-44 -27 -91 -40 -153 -40s-109 13 -153 40v104c53 -29 102 -38 153 -38s100 9 153 38v-104zM392 480h139v-480h-123v61c-37 -43 -92 -75 -160 -75c-130 0 -195 86 -195 197v297h139v-279c0 -64 35 -95 92 -95c50 0 87 32 108 61v313z" />
    <glyph glyph-name="uni043A.loclBGR" horiz-adv-x="548" 
d="M548 0h-156l-138 190h-56v-190h-139v700h139v-399h58l122 179h156l-165 -237z" />
    <glyph glyph-name="uni043B.loclBGR" horiz-adv-x="560" 
d="M551 0h-148l-123 333l-123 -333h-148l198 480h146z" />
    <glyph glyph-name="uni043F.loclBGR" 
d="M182 419c37 43 91 75 160 75c126 0 195 -86 195 -197v-297h-139v279c0 65 -39 95 -93 95c-49 0 -87 -32 -107 -61v-313h-139v480h123v-61z" />
    <glyph glyph-name="uni0442.loclBGR" horiz-adv-x="875" 
d="M198 0h-139v480h123v-56c25 30 80 70 153 70c72 0 119 -30 147 -71c40 39 94 71 160 71c135 0 179 -105 179 -190v-304h-138v295c0 50 -31 79 -75 79c-38 0 -72 -22 -95 -48c1 -7 1 -14 1 -22v-304h-138v295c0 50 -31 79 -75 79c-42 0 -80 -28 -103 -58v-316z" />
    <glyph glyph-name="uni0446.loclBGR" horiz-adv-x="629" 
d="M531 125c0 -21 14 -33 32 -33h39v-219h-127v124c-33 4 -61 25 -72 59c-36 -41 -90 -70 -155 -70c-130 0 -195 86 -195 197v297h139v-279c0 -64 35 -95 92 -95c50 0 87 32 108 61v313h139v-355z" />
    <glyph glyph-name="uni0448.loclBGR" horiz-adv-x="875" 
d="M677 480h139v-480h-123v56c-25 -30 -80 -70 -153 -70c-72 0 -119 30 -147 71c-40 -39 -94 -71 -160 -71c-135 0 -179 105 -179 190v304h138v-295c0 -50 31 -79 75 -79c38 0 72 22 95 48c-1 7 -1 14 -1 22v304h138v-295c0 -50 31 -79 75 -79c42 0 80 28 103 58v316z" />
    <glyph glyph-name="uni0449.loclBGR" horiz-adv-x="914" 
d="M816 125c0 -21 14 -33 32 -33h40v-219h-127v124c-32 3 -59 23 -71 54c-27 -29 -81 -65 -150 -65c-73 0 -119 30 -146 72c-40 -39 -94 -72 -161 -72c-135 0 -179 105 -179 190v304h139v-295c0 -50 30 -79 74 -79c38 0 72 22 95 47c-1 8 -1 16 -1 23v304h139v-295
c0 -50 30 -79 74 -79c43 0 81 28 104 58v316h138v-355z" />
    <glyph glyph-name="uni044E.loclBGR" horiz-adv-x="836" 
d="M804 240c0 -168 -126 -254 -265 -254c-117 0 -229 68 -254 199h-87v-185h-139v700h139v-405h87c25 131 137 199 254 199c139 0 265 -86 265 -254zM416 240c0 -74 40 -136 123 -136s124 62 124 136s-41 136 -124 136s-123 -62 -123 -136z" />
    <glyph glyph-name="uni0430.ss01" horiz-adv-x="622" 
d="M441 70c-31 -43 -86 -84 -174 -84c-153 0 -235 123 -235 254s82 254 235 254c88 0 143 -41 174 -84v70h122v-480h-122v70zM174 240c0 -75 47 -137 126 -137c61 0 106 38 125 80v114c-19 42 -64 80 -125 80c-79 0 -126 -62 -126 -137z" />
    <glyph glyph-name="uni0437.ss01" horiz-adv-x="475" 
d="M406 318c0 -52 -17 -102 -81 -142c78 -25 131 -93 131 -183c0 -149 -123 -226 -264 -226c-64 0 -124 12 -178 42v119c47 -31 105 -47 158 -47c78 0 145 34 145 114c0 65 -48 120 -138 100l-61 -14v110l68 16c70 17 85 59 85 95c0 58 -48 80 -105 80
c-50 0 -99 -15 -144 -43v115c53 27 110 40 172 40c108 0 212 -57 212 -176z" />
    <glyph glyph-name="uni0443.ss01" 
d="M531 0c-2 -161 -122 -234 -269 -234c-70 0 -140 17 -189 43v120c44 -30 110 -46 170 -46c79 0 149 26 149 124v38c-35 -34 -84 -59 -144 -59c-130 0 -195 86 -195 197v297h139v-279c0 -64 35 -95 92 -95c50 0 87 32 108 61v313h139v-480z" />
    <glyph glyph-name="zero" unicode="0" horiz-adv-x="706" 
d="M43 340c0 196 93 354 310 354s310 -158 310 -354s-93 -354 -310 -354s-310 158 -310 354zM513 340c0 145 -50 222 -160 222s-160 -77 -160 -222s50 -222 160 -222s160 77 160 222z" />
    <glyph glyph-name="one" unicode="1" horiz-adv-x="461" 
d="M216 680h109v-551h114v-129h-388v129h128v401l-128 -48v135z" />
    <glyph glyph-name="two" unicode="2" horiz-adv-x="596" 
d="M63 622c70 50 151 72 234 72c137 0 248 -62 248 -201c0 -115 -95 -183 -184 -236c-81 -48 -150 -85 -151 -129l340 1v-129h-510v67c0 164 124 228 224 287c71 41 132 68 132 133c0 50 -44 76 -113 76c-68 0 -148 -26 -220 -81v140z" />
    <glyph glyph-name="three" unicode="3" horiz-adv-x="596" 
d="M527 506c0 -70 -39 -124 -103 -146c69 -21 131 -74 131 -174c0 -143 -132 -200 -272 -200c-88 0 -159 14 -236 46v139c77 -43 146 -54 224 -53c77 0 141 25 141 89c0 58 -50 79 -118 79h-112l1 128l94 -1c67 0 108 25 108 72c0 49 -43 78 -125 78
c-61 0 -134 -20 -201 -61v139c61 33 138 53 222 53c141 0 246 -64 246 -188z" />
    <glyph glyph-name="four" unicode="4" horiz-adv-x="655" 
d="M373 680h149v-431h103v-125h-103v-124h-143v124h-357v124zM379 249v248l-201 -248h201z" />
    <glyph glyph-name="five" unicode="5" horiz-adv-x="589" 
d="M89 681h432v-129l-297 1l-9 -133c29 6 60 10 88 10c136 0 249 -61 249 -217c0 -158 -138 -227 -288 -227c-79 0 -159 17 -219 46v139c55 -35 134 -54 202 -54c89 0 155 32 155 98c0 67 -57 100 -166 100c-49 0 -112 -8 -171 -29z" />
    <glyph glyph-name="six" unicode="6" horiz-adv-x="642" 
d="M192 394c60 32 115 46 182 46c122 0 237 -74 237 -220c0 -155 -121 -234 -260 -234c-219 0 -308 134 -308 354c0 249 150 354 323 354c64 0 129 -15 187 -42v-132c-47 31 -109 48 -167 48c-92 0 -176 -39 -194 -174zM192 273c14 -127 69 -165 147 -165
c66 0 122 30 122 105c0 78 -63 102 -133 102c-45 0 -93 -14 -136 -42z" />
    <glyph glyph-name="seven" unicode="7" horiz-adv-x="566" 
d="M25 681h523v-108l-279 -573h-162l269 552h-351v129z" />
    <glyph glyph-name="eight" unicode="8" horiz-adv-x="658" 
d="M66 506c0 91 76 188 262 188c173 0 263 -97 264 -192c1 -66 -31 -116 -86 -157c62 -31 111 -79 111 -161c0 -100 -82 -198 -287 -198c-203 0 -289 99 -289 203c0 68 42 133 106 171c-47 32 -81 77 -81 146zM345 280c-30 11 -66 21 -101 34c-37 -31 -54 -72 -53 -107
c1 -58 47 -103 150 -103c72 0 127 30 127 76c0 58 -56 77 -123 100zM448 491c0 47 -42 85 -126 85c-72 0 -113 -33 -113 -71c0 -60 61 -79 128 -101c20 -5 41 -12 63 -18c32 32 49 72 48 105z" />
    <glyph glyph-name="nine" unicode="9" horiz-adv-x="642" 
d="M31 460c0 155 121 234 260 234c219 0 308 -134 308 -354c0 -249 -150 -354 -323 -354c-63 0 -129 15 -187 42v132c47 -31 109 -48 167 -48c92 0 176 39 194 174c-60 -32 -115 -46 -181 -46c-123 0 -238 74 -238 220zM303 572c-66 0 -122 -30 -122 -105
c0 -78 63 -102 133 -102c45 0 92 14 136 41c-14 128 -69 166 -147 166z" />
    <glyph glyph-name="zero.osf" horiz-adv-x="668" 
d="M631 260c0 -133 -97 -274 -297 -274c-199 0 -296 141 -296 274s97 274 296 274c200 0 297 -141 297 -274zM188 260c0 -75 50 -142 146 -142s147 67 147 142s-51 142 -147 142s-146 -67 -146 -142z" />
    <glyph glyph-name="one.osf" horiz-adv-x="464" 
d="M216 520h109v-391h114v-129h-388v129h128v241l-128 -48v135z" />
    <glyph glyph-name="two.osf" horiz-adv-x="556" 
d="M509 0h-470v64c0 116 105 144 194 184c68 31 122 52 122 98c0 37 -38 57 -91 57s-128 -20 -202 -64v140c70 38 141 55 222 55c116 0 220 -58 220 -176c0 -91 -68 -132 -133 -164c-55 -27 -107 -46 -129 -66l267 1v-129z" />
    <glyph glyph-name="three.osf" horiz-adv-x="554" 
d="M490 346c0 -70 -39 -124 -103 -146c69 -21 131 -74 131 -174c0 -143 -135 -200 -262 -200c-79 0 -140 12 -216 43v136c76 -38 134 -48 204 -47c64 0 131 25 131 89c0 58 -50 79 -105 79h-101v128l85 -1c53 0 94 25 94 72c0 49 -44 78 -113 78c-57 0 -118 -15 -183 -49
v135c59 30 125 45 203 45c130 0 235 -64 235 -188z" />
    <glyph glyph-name="four.osf" horiz-adv-x="613" 
d="M340 520h149v-431h100v-125h-100v-124h-143v124h-327v124zM346 89v236l-176 -236h176z" />
    <glyph glyph-name="five.osf" horiz-adv-x="547" 
d="M83 521h402v-129l-267 1l-9 -133c26 6 53 10 78 10c116 0 229 -61 229 -217c0 -158 -139 -227 -272 -227c-77 0 -145 14 -205 43v135c55 -32 122 -47 189 -47c70 0 138 32 138 98c0 67 -57 100 -146 100c-39 0 -102 -8 -161 -29z" />
    <glyph glyph-name="six.osf" horiz-adv-x="616" 
d="M198 402c50 26 100 38 159 38c112 0 227 -77 227 -223c0 -156 -120 -231 -253 -231c-196 0 -288 134 -288 348c0 255 163 360 316 360c65 0 121 -14 171 -41v-126c-44 27 -95 41 -151 41c-72 0 -158 -37 -181 -166zM195 277c12 -124 62 -169 130 -169
c55 0 109 30 109 105c0 78 -63 102 -116 102c-46 0 -86 -13 -123 -38z" />
    <glyph glyph-name="seven.osf" horiz-adv-x="519" 
d="M20 521h486v-108l-262 -573h-162l253 552h-315v129z" />
    <glyph glyph-name="eight.osf" horiz-adv-x="628" 
d="M66 506c0 91 77 188 247 188c158 0 248 -97 249 -192c1 -66 -31 -116 -86 -157c62 -31 111 -79 111 -161c0 -100 -81 -198 -272 -198c-186 0 -274 98 -274 203c0 68 43 133 106 171c-48 32 -81 77 -81 146zM321 286c-23 8 -50 17 -77 28c-38 -31 -55 -73 -54 -107
c1 -59 45 -100 129 -100c73 0 118 32 118 77c0 57 -35 73 -116 102zM418 491c0 47 -43 85 -107 85c-66 0 -102 -35 -102 -74c0 -44 29 -71 101 -98c17 -6 37 -12 60 -18c33 32 49 72 48 105z" />
    <glyph glyph-name="nine.osf" horiz-adv-x="605" 
d="M26 303c0 156 121 231 253 231c196 0 288 -134 288 -348c0 -255 -163 -360 -316 -360c-65 0 -121 14 -171 41v126c45 -27 95 -41 151 -41c72 0 159 36 181 167c-49 -27 -99 -39 -158 -39c-113 0 -228 77 -228 223zM286 412c-56 0 -110 -30 -110 -105
c0 -78 63 -102 117 -102c45 0 86 13 123 38c-12 124 -63 169 -130 169z" />
    <glyph glyph-name="zero.sinf" horiz-adv-x="432" 
d="M403 104c0 -117 -56 -213 -187 -213s-187 96 -187 213s56 213 187 213s187 -96 187 -213zM126 104c0 -84 28 -127 90 -127s91 43 91 127s-29 127 -91 127s-90 -43 -90 -127z" />
    <glyph glyph-name="one.sinf" horiz-adv-x="306" 
d="M145 308h70v-324h75v-84h-258v84h89v227l-86 -28v87z" />
    <glyph glyph-name="two.sinf" horiz-adv-x="366" 
d="M40 273c43 30 93 44 143 44c84 0 150 -38 150 -123c0 -69 -56 -111 -109 -143c-48 -27 -87 -48 -88 -68l198 1v-84h-307v43c0 98 74 137 134 172c41 24 76 39 76 75c0 28 -24 42 -63 42c-41 0 -89 -16 -134 -50v91z" />
    <glyph glyph-name="three.sinf" horiz-adv-x="366" 
d="M321 204c0 -43 -23 -74 -57 -88c38 -13 74 -45 74 -104c0 -87 -81 -121 -166 -121c-51 0 -93 9 -141 28v90c47 -27 88 -33 133 -32c45 0 82 12 82 48c0 33 -27 43 -66 43h-68l1 83h56c36 0 61 12 61 39c0 28 -24 42 -71 42c-36 0 -81 -12 -121 -38v90c37 20 84 33 134 33
c85 0 149 -38 149 -113z" />
    <glyph glyph-name="four.sinf" horiz-adv-x="403" 
d="M225 308h97v-254h59v-82h-59v-72h-92v72h-212v81zM230 54v135l-110 -135h110z" />
    <glyph glyph-name="five.sinf" horiz-adv-x="362" 
d="M56 309h262v-84h-174l-5 -68c16 3 32 5 48 5c81 0 150 -36 150 -133c0 -96 -85 -138 -176 -138c-47 0 -94 10 -131 28v90c33 -22 80 -32 120 -32c52 0 90 16 90 54s-33 56 -97 56c-29 0 -66 -5 -100 -18z" />
    <glyph glyph-name="six.sinf" horiz-adv-x="395" 
d="M127 142c34 17 65 24 103 24c73 0 144 -45 144 -133c0 -95 -74 -142 -159 -142c-133 0 -186 81 -186 215c0 147 92 211 195 211c39 0 79 -9 115 -26v-85c-30 18 -67 29 -103 29c-49 0 -97 -20 -109 -93zM126 64c8 -73 39 -93 82 -93c37 0 69 15 69 58c0 44 -37 56 -76 56
c-24 0 -51 -7 -75 -21z" />
    <glyph glyph-name="seven.sinf" horiz-adv-x="340" 
d="M167 -100h-104l153 325h-199v84h309v-71z" />
    <glyph glyph-name="eight.sinf" horiz-adv-x="403" 
d="M42 202c0 55 46 115 158 115c103 0 159 -59 160 -117c1 -37 -16 -67 -49 -92c36 -19 64 -48 64 -96c0 -61 -49 -121 -173 -121c-123 0 -175 61 -175 123c0 39 24 77 61 101c-27 19 -46 47 -46 87zM212 65c-18 6 -39 12 -59 20c-22 -19 -30 -42 -29 -59
c0 -33 28 -58 84 -58c39 0 71 15 71 41c0 32 -30 43 -67 56zM268 192c-1 27 -25 48 -71 48c-38 0 -62 -17 -62 -38c0 -33 33 -44 72 -57c11 -3 23 -7 36 -11c18 20 25 42 25 58z" />
    <glyph glyph-name="nine.sinf" horiz-adv-x="395" 
d="M21 175c0 95 74 142 158 142c134 0 187 -81 187 -215c0 -146 -92 -211 -195 -211c-39 0 -79 9 -115 26v86c29 -19 67 -30 103 -30c48 0 97 20 109 93c-34 -17 -65 -23 -103 -23c-73 0 -144 44 -144 132zM186 237c-36 0 -68 -15 -68 -58c0 -44 36 -56 76 -56
c25 0 51 7 75 21c-8 73 -39 93 -83 93z" />
    <glyph glyph-name="zero.sups" horiz-adv-x="432" 
d="M403 581c0 -117 -56 -213 -187 -213s-187 96 -187 213s56 213 187 213s187 -96 187 -213zM126 581c0 -84 28 -127 90 -127s91 43 91 127s-29 127 -91 127s-90 -43 -90 -127z" />
    <glyph glyph-name="one.sups" horiz-adv-x="306" 
d="M145 780h70v-324h75v-84h-258v84h89v227l-86 -28v87z" />
    <glyph glyph-name="two.sups" horiz-adv-x="367" 
d="M41 750c43 30 93 44 143 44c84 0 150 -38 150 -123c0 -69 -56 -111 -109 -143c-48 -27 -87 -48 -88 -68l198 1v-84h-307v43c0 98 74 137 134 172c41 24 76 39 76 75c0 28 -24 42 -63 42c-41 0 -89 -16 -134 -50v91z" />
    <glyph glyph-name="three.sups" horiz-adv-x="366" 
d="M321 681c0 -43 -23 -74 -57 -88c38 -13 74 -45 74 -104c0 -87 -81 -121 -166 -121c-51 0 -93 9 -141 28v90c47 -27 88 -33 133 -32c45 0 82 12 82 48c0 33 -27 43 -66 43h-68l1 83h56c36 0 61 12 61 39c0 28 -24 42 -71 42c-36 0 -81 -12 -121 -38v90c37 20 84 33 134 33
c85 0 149 -38 149 -113z" />
    <glyph glyph-name="four.sups" horiz-adv-x="403" 
d="M225 780h97v-254h59v-82h-59v-72h-92v72h-212v81zM230 526v135l-110 -135h110z" />
    <glyph glyph-name="five.sups" horiz-adv-x="362" 
d="M56 780h262v-84h-174l-5 -68c16 3 32 5 48 5c81 0 150 -36 150 -133c0 -96 -85 -138 -176 -138c-47 0 -94 10 -131 28v90c33 -22 80 -32 120 -32c52 0 90 16 90 54s-33 56 -97 56c-29 0 -66 -5 -100 -18z" />
    <glyph glyph-name="six.sups" horiz-adv-x="395" 
d="M127 619c34 17 65 24 103 24c73 0 144 -45 144 -133c0 -95 -74 -142 -159 -142c-133 0 -186 81 -186 215c0 147 92 211 195 211c39 0 79 -9 115 -26v-85c-30 18 -67 29 -103 29c-49 0 -97 -20 -109 -93zM126 541c8 -73 39 -93 82 -93c37 0 69 15 69 58
c0 44 -37 56 -76 56c-24 0 -51 -7 -75 -21z" />
    <glyph glyph-name="seven.sups" horiz-adv-x="340" 
d="M167 371h-104l153 325h-199v84h309v-71z" />
    <glyph glyph-name="eight.sups" horiz-adv-x="403" 
d="M42 679c0 55 46 115 158 115c103 0 159 -59 160 -117c1 -37 -16 -67 -49 -92c36 -19 64 -48 64 -96c0 -61 -49 -121 -173 -121c-123 0 -175 61 -175 123c0 39 24 77 61 101c-27 19 -46 47 -46 87zM212 542c-18 6 -39 12 -59 20c-22 -19 -30 -42 -29 -59
c0 -33 28 -58 84 -58c39 0 71 15 71 41c0 32 -30 43 -67 56zM268 669c-1 27 -25 48 -71 48c-38 0 -62 -17 -62 -38c0 -33 33 -44 72 -57c11 -3 23 -7 36 -11c18 20 25 42 25 58z" />
    <glyph glyph-name="nine.sups" horiz-adv-x="396" 
d="M22 652c0 95 74 142 158 142c134 0 187 -81 187 -215c0 -146 -92 -211 -195 -211c-39 0 -79 9 -115 26v86c29 -19 67 -30 103 -30c48 0 97 20 109 93c-34 -17 -65 -23 -103 -23c-73 0 -144 44 -144 132zM187 714c-36 0 -68 -15 -68 -58c0 -44 36 -56 76 -56
c25 0 51 7 75 21c-8 73 -39 93 -83 93z" />
    <glyph glyph-name="zero.tf" horiz-adv-x="643" 
d="M616 340c0 -196 -93 -354 -294 -354c-202 0 -295 158 -295 354s93 354 295 354c201 0 294 -158 294 -354zM177 340c0 -145 50 -222 145 -222c94 0 144 77 144 222s-50 222 -144 222c-95 0 -145 -77 -145 -222z" />
    <glyph glyph-name="one.tf" horiz-adv-x="643" 
d="M301 680h110v-551h196v-129h-551v129h208v401l-174 -67v136z" />
    <glyph glyph-name="two.tf" horiz-adv-x="643" 
d="M76 622c79 50 152 72 243 72c141 0 252 -62 252 -201c0 -115 -92 -183 -184 -236c-82 -47 -159 -85 -160 -129l359 1v-129h-529v67c0 164 132 230 233 287c74 41 131 68 131 133c0 50 -44 76 -115 76c-77 0 -149 -26 -230 -81v140z" />
    <glyph glyph-name="three.tf" horiz-adv-x="643" 
d="M560 506c0 -70 -39 -124 -103 -146c69 -21 131 -74 131 -174c0 -143 -132 -200 -282 -200c-94 0 -169 15 -246 47v140c77 -43 149 -56 234 -55c87 1 151 25 151 89c0 58 -50 79 -122 79h-115l1 128l98 -1c70 -1 111 25 111 72c0 49 -43 78 -135 78
c-68 0 -144 -21 -211 -63v139c62 34 142 55 232 55c151 0 256 -64 256 -188z" />
    <glyph glyph-name="four.tf" horiz-adv-x="643" 
d="M368 680h149v-431h100v-125h-100v-124h-143v124h-357v124zM374 249v248l-201 -248h201z" />
    <glyph glyph-name="five.tf" horiz-adv-x="643" 
d="M106 681h452v-129l-317 1l-9 -134c36 7 73 11 105 11c139 0 252 -61 252 -217c0 -158 -138 -227 -298 -227c-89 0 -169 17 -229 46v139c55 -35 134 -54 212 -54c99 0 165 32 165 98c0 67 -57 100 -176 100c-59 0 -122 -8 -181 -29z" />
    <glyph glyph-name="six.tf" horiz-adv-x="643" 
d="M193 394c60 32 115 46 182 46c122 0 237 -74 237 -220c0 -155 -121 -234 -260 -234c-219 0 -308 134 -308 348c0 255 150 360 323 360c64 0 129 -15 187 -42v-132c-47 31 -109 48 -167 48c-92 0 -176 -39 -194 -174zM193 273c14 -127 69 -165 147 -165
c66 0 122 30 122 105c0 78 -63 102 -133 102c-45 0 -93 -14 -136 -42z" />
    <glyph glyph-name="seven.tf" horiz-adv-x="643" 
d="M48 681h553v-108l-289 -573h-162l279 552h-381v129z" />
    <glyph glyph-name="eight.tf" horiz-adv-x="643" 
d="M58 506c0 91 76 188 262 188c173 0 263 -97 264 -192c1 -66 -31 -116 -86 -156c62 -32 111 -80 111 -162c0 -100 -82 -198 -287 -198c-203 0 -289 99 -289 203c0 68 42 133 106 171c-47 32 -81 77 -81 146zM337 280c-31 11 -66 21 -101 34c-37 -31 -54 -73 -53 -107
c1 -58 47 -103 150 -103c72 0 127 30 127 76c0 58 -56 77 -123 100zM440 491c0 47 -42 85 -126 85c-72 0 -113 -33 -113 -71c0 -60 61 -79 128 -101c20 -6 41 -12 63 -18c33 32 49 72 48 105z" />
    <glyph glyph-name="nine.tf" horiz-adv-x="643" 
d="M31 460c0 155 121 234 260 234c219 0 308 -134 308 -354c0 -249 -150 -354 -323 -354c-63 0 -129 15 -187 42v132c47 -31 109 -48 167 -48c92 0 176 39 194 174c-60 -32 -115 -46 -181 -46c-123 0 -238 74 -238 220zM303 572c-66 0 -122 -30 -122 -105
c0 -78 63 -102 133 -102c45 0 92 14 136 41c-14 128 -69 166 -147 166z" />
    <glyph glyph-name="zero.tosf" horiz-adv-x="643" 
d="M618 260c0 -133 -97 -274 -297 -274c-199 0 -296 141 -296 274s97 274 296 274c200 0 297 -141 297 -274zM175 260c0 -75 50 -142 146 -142s147 67 147 142s-51 142 -147 142s-146 -67 -146 -142z" />
    <glyph glyph-name="one.tosf" horiz-adv-x="643" 
d="M299 520h110v-391h196v-129h-551v129h208v241l-174 -67v136z" />
    <glyph glyph-name="two.tosf" horiz-adv-x="643" 
d="M580 0h-525v64c0 119 132 165 231 193c86 25 140 46 140 90c0 39 -49 56 -119 56c-67 0 -155 -27 -229 -78v140c72 45 155 69 242 69c151 0 255 -59 255 -184c0 -85 -60 -128 -140 -159c-56 -22 -124 -39 -171 -63l316 1v-129z" />
    <glyph glyph-name="three.tosf" horiz-adv-x="643" 
d="M559 346c0 -70 -39 -124 -103 -146c69 -21 131 -74 131 -174c0 -143 -132 -200 -281 -200c-96 0 -167 14 -244 46v139c77 -43 146 -54 232 -53s150 25 150 89c0 58 -50 79 -120 79h-114l1 128l96 -1c68 -1 110 25 110 72c0 49 -44 78 -133 78c-70 0 -143 -20 -210 -61
v139c61 33 138 53 230 53c150 0 255 -64 255 -188z" />
    <glyph glyph-name="four.tosf" horiz-adv-x="643" 
d="M368 520h149v-431h103v-125h-103v-124h-143v124h-357v124zM374 89v248l-201 -248h201z" />
    <glyph glyph-name="five.tosf" horiz-adv-x="643" 
d="M108 521h448v-129l-313 1l-9 -134c36 7 72 11 105 11c135 0 248 -61 248 -217c0 -158 -137 -227 -294 -227c-89 0 -169 17 -229 46v139c55 -35 134 -54 212 -54c96 0 161 32 161 98c0 67 -56 100 -172 100c-59 0 -122 -8 -181 -29z" />
    <glyph glyph-name="six.tosf" horiz-adv-x="643" 
d="M193 394c60 32 115 46 182 46c122 0 237 -74 237 -220c0 -155 -121 -234 -260 -234c-219 0 -308 134 -308 354c0 249 150 354 323 354c64 0 129 -15 187 -42v-132c-47 31 -109 48 -167 48c-92 0 -176 -39 -194 -174zM193 273c14 -127 69 -165 147 -165
c66 0 122 30 122 105c0 78 -63 102 -133 102c-45 0 -93 -14 -136 -42z" />
    <glyph glyph-name="seven.tosf" horiz-adv-x="643" 
d="M48 521h553v-108l-289 -573h-162l279 552h-381v129z" />
    <glyph glyph-name="eight.tosf" horiz-adv-x="643" 
d="M58 506c0 91 76 188 262 188c173 0 263 -97 264 -192c1 -66 -31 -116 -86 -156c62 -32 111 -80 111 -162c0 -100 -82 -198 -287 -198c-203 0 -289 99 -289 203c0 68 42 133 106 171c-47 32 -81 77 -81 146zM336 280c-31 11 -66 21 -101 34c-37 -31 -54 -73 -53 -107
c1 -58 47 -103 150 -103c72 0 127 30 127 76c0 58 -56 77 -123 100zM440 491c0 47 -42 85 -126 85c-72 0 -113 -33 -113 -71c0 -60 61 -79 128 -101c20 -6 41 -12 63 -18c33 32 49 72 48 105z" />
    <glyph glyph-name="nine.tosf" horiz-adv-x="643" 
d="M31 300c0 155 121 234 260 234c219 0 308 -134 308 -354c0 -249 -150 -354 -323 -354c-63 0 -129 15 -187 42v132c47 -31 109 -48 167 -48c92 0 176 39 194 174c-60 -32 -115 -46 -181 -46c-123 0 -238 74 -238 220zM303 412c-66 0 -122 -30 -122 -105
c0 -78 63 -102 133 -102c45 0 92 14 136 41c-14 128 -69 166 -147 166z" />
    <glyph glyph-name="fraction" unicode="&#x2044;" horiz-adv-x="182" 
d="M-115 -14h-45l458 728h45z" />
    <glyph glyph-name="onehalf" unicode="&#xbd;" horiz-adv-x="879" 
d="M232 -14h-45l458 728h45zM551 373c43 30 93 44 143 44c84 0 150 -38 150 -123c0 -69 -56 -111 -109 -143c-48 -27 -87 -48 -88 -68l198 1v-84h-307v43c0 98 74 137 134 172c41 24 76 39 76 75c0 28 -24 42 -63 42c-41 0 -89 -16 -134 -50v91zM155 680h70v-324h75v-84
h-258v84h89v227l-86 -28v87z" />
    <glyph glyph-name="onequarter" unicode="&#xbc;" horiz-adv-x="916" 
d="M729 408h97v-254h59v-82h-59v-72h-92v72h-212v81zM734 154v135l-110 -135h110zM236 -14h-45l458 728h45zM159 680h70v-324h75v-84h-258v84h89v227l-86 -28v87z" />
    <glyph glyph-name="threequarters" unicode="&#xbe;" horiz-adv-x="971" 
d="M294 -14h-45l458 728h45zM784 408h97v-254h59v-82h-59v-72h-92v72h-212v81zM789 154v135l-110 -135h110zM332 581c0 -43 -23 -74 -57 -88c38 -13 74 -45 74 -104c0 -87 -81 -121 -166 -121c-51 0 -93 9 -141 28v90c47 -27 88 -33 133 -32c45 0 82 12 82 48
c0 33 -27 43 -66 43h-68l1 83h56c36 0 61 12 61 39c0 28 -24 42 -71 42c-36 0 -81 -12 -121 -38v90c37 20 84 33 134 33c85 0 149 -38 149 -113z" />
    <glyph glyph-name="oneeighth" unicode="&#x215b;" horiz-adv-x="910" 
d="M546 302c0 55 46 115 158 115c103 0 159 -59 160 -117c1 -37 -16 -67 -49 -92c36 -19 64 -48 64 -96c0 -61 -49 -121 -173 -121c-123 0 -175 61 -175 123c0 39 24 77 61 101c-27 19 -46 47 -46 87zM716 165c-18 6 -39 12 -59 20c-22 -19 -30 -42 -29 -59
c0 -33 28 -58 84 -58c39 0 71 15 71 41c0 32 -30 43 -67 56zM772 292c-1 27 -25 48 -71 48c-38 0 -62 -17 -62 -38c0 -33 33 -44 72 -57c11 -3 23 -7 36 -11c18 20 25 42 25 58zM231 -14h-45l458 728h45zM158 680h70v-324h75v-84h-258v84h89v227l-86 -28v87z" />
    <glyph glyph-name="threeeighths" unicode="&#x215c;" horiz-adv-x="921" 
d="M557 302c0 55 46 115 158 115c103 0 159 -59 160 -117c1 -37 -16 -67 -49 -92c36 -19 64 -48 64 -96c0 -61 -49 -121 -173 -121c-123 0 -175 61 -175 123c0 39 24 77 61 101c-27 19 -46 47 -46 87zM727 165c-18 6 -39 12 -59 20c-22 -19 -30 -42 -29 -59
c0 -33 28 -58 84 -58c39 0 71 15 71 41c0 32 -30 43 -67 56zM783 292c-1 27 -25 48 -71 48c-38 0 -62 -17 -62 -38c0 -33 33 -44 72 -57c11 -3 23 -7 36 -11c18 20 25 42 25 58zM252 -14h-45l458 728h45zM332 581c0 -43 -23 -74 -57 -88c38 -13 74 -45 74 -104
c0 -87 -81 -121 -166 -121c-51 0 -93 9 -141 28v90c47 -27 88 -33 133 -32c45 0 82 12 82 48c0 33 -27 43 -66 43h-68l1 83h56c36 0 61 12 61 39c0 28 -24 42 -71 42c-36 0 -81 -12 -121 -38v90c37 20 84 33 134 33c85 0 149 -38 149 -113z" />
    <glyph glyph-name="fiveeighths" unicode="&#x215d;" horiz-adv-x="919" 
d="M555 302c0 55 46 115 158 115c103 0 159 -59 160 -117c1 -37 -16 -67 -49 -92c36 -19 64 -48 64 -96c0 -61 -49 -121 -173 -121c-123 0 -175 61 -175 123c0 39 24 77 61 101c-27 19 -46 47 -46 87zM725 165c-18 6 -39 12 -59 20c-22 -19 -30 -42 -29 -59
c0 -33 28 -58 84 -58c39 0 71 15 71 41c0 32 -30 43 -67 56zM781 292c-1 27 -25 48 -71 48c-38 0 -62 -17 -62 -38c0 -33 33 -44 72 -57c11 -3 23 -7 36 -11c18 20 25 42 25 58zM251 -14h-45l458 728h45zM65 680h262v-84h-174l-5 -68c16 3 32 5 48 5c81 0 150 -36 150 -133
c0 -96 -85 -138 -176 -138c-47 0 -94 10 -131 28v90c33 -22 80 -32 120 -32c52 0 90 16 90 54s-33 56 -97 56c-29 0 -66 -5 -100 -18z" />
    <glyph glyph-name="seveneighths" unicode="&#x215e;" horiz-adv-x="844" 
d="M164 -14h-45l458 728h45zM480 302c0 55 46 115 158 115c103 0 159 -59 160 -117c1 -37 -16 -67 -49 -92c36 -19 64 -48 64 -96c0 -61 -49 -121 -173 -121c-123 0 -175 61 -175 123c0 39 24 77 61 101c-27 19 -46 47 -46 87zM650 165c-18 6 -39 12 -59 20
c-22 -19 -30 -42 -29 -59c0 -33 28 -58 84 -58c39 0 71 15 71 41c0 32 -30 43 -67 56zM706 292c-1 27 -25 48 -71 48c-38 0 -62 -17 -62 -38c0 -33 33 -44 72 -57c11 -3 23 -7 36 -11c18 20 25 42 25 58zM182 271h-104l153 325h-199v84h309v-71z" />
    <glyph glyph-name="zero.dnom" horiz-adv-x="432" 
d="M403 204c0 -117 -56 -213 -187 -213s-187 96 -187 213s56 213 187 213s187 -96 187 -213zM126 204c0 -84 28 -127 90 -127s91 43 91 127s-29 127 -91 127s-90 -43 -90 -127z" />
    <glyph glyph-name="one.dnom" horiz-adv-x="306" 
d="M145 408h70v-324h75v-84h-258v84h89v227l-86 -28v87z" />
    <glyph glyph-name="two.dnom" horiz-adv-x="366" 
d="M40 373c43 30 93 44 143 44c84 0 150 -38 150 -123c0 -69 -56 -111 -109 -143c-48 -27 -87 -48 -88 -68l198 1v-84h-307v43c0 98 74 137 134 172c41 24 76 39 76 75c0 28 -24 42 -63 42c-41 0 -89 -16 -134 -50v91z" />
    <glyph glyph-name="three.dnom" horiz-adv-x="366" 
d="M321 304c0 -43 -23 -74 -57 -88c38 -13 74 -45 74 -104c0 -87 -81 -121 -166 -121c-51 0 -93 9 -141 28v90c47 -27 88 -33 133 -32c45 0 82 12 82 48c0 33 -27 43 -66 43h-68l1 83h56c36 0 61 12 61 39c0 28 -24 42 -71 42c-36 0 -81 -12 -121 -38v90c37 20 84 33 134 33
c85 0 149 -38 149 -113z" />
    <glyph glyph-name="four.dnom" horiz-adv-x="403" 
d="M225 408h97v-254h59v-82h-59v-72h-92v72h-212v81zM230 154v135l-110 -135h110z" />
    <glyph glyph-name="five.dnom" horiz-adv-x="362" 
d="M56 409h262v-84h-174l-5 -68c16 3 32 5 48 5c81 0 150 -36 150 -133c0 -96 -85 -138 -176 -138c-47 0 -94 10 -131 28v90c33 -22 80 -32 120 -32c52 0 90 16 90 54s-33 56 -97 56c-29 0 -66 -5 -100 -18z" />
    <glyph glyph-name="six.dnom" horiz-adv-x="395" 
d="M127 242c34 17 65 24 103 24c73 0 144 -45 144 -133c0 -95 -74 -142 -159 -142c-133 0 -186 81 -186 215c0 147 92 211 195 211c39 0 79 -9 115 -26v-85c-30 18 -67 29 -103 29c-49 0 -97 -20 -109 -93zM126 164c8 -73 39 -93 82 -93c37 0 69 15 69 58
c0 44 -37 56 -76 56c-24 0 -51 -7 -75 -21z" />
    <glyph glyph-name="seven.dnom" horiz-adv-x="340" 
d="M167 0h-104l153 325h-199v84h309v-71z" />
    <glyph glyph-name="eight.dnom" horiz-adv-x="403" 
d="M42 302c0 55 46 115 158 115c103 0 159 -59 160 -117c1 -37 -16 -67 -49 -92c36 -19 64 -48 64 -96c0 -61 -49 -121 -173 -121c-123 0 -175 61 -175 123c0 39 24 77 61 101c-27 19 -46 47 -46 87zM212 165c-18 6 -39 12 -59 20c-22 -19 -30 -42 -29 -59
c0 -33 28 -58 84 -58c39 0 71 15 71 41c0 32 -30 43 -67 56zM268 292c-1 27 -25 48 -71 48c-38 0 -62 -17 -62 -38c0 -33 33 -44 72 -57c11 -3 23 -7 36 -11c18 20 25 42 25 58z" />
    <glyph glyph-name="nine.dnom" horiz-adv-x="395" 
d="M21 275c0 95 74 142 158 142c134 0 187 -81 187 -215c0 -146 -92 -211 -195 -211c-39 0 -79 9 -115 26v86c29 -19 67 -30 103 -30c48 0 97 20 109 93c-34 -17 -65 -23 -103 -23c-73 0 -144 44 -144 132zM186 337c-36 0 -68 -15 -68 -58c0 -44 36 -56 76 -56
c25 0 51 7 75 21c-8 73 -39 93 -83 93z" />
    <glyph glyph-name="zero.numr" horiz-adv-x="432" 
d="M403 481c0 -117 -56 -213 -187 -213s-187 96 -187 213s56 213 187 213s187 -96 187 -213zM126 481c0 -84 28 -127 90 -127s91 43 91 127s-29 127 -91 127s-90 -43 -90 -127z" />
    <glyph glyph-name="one.numr" horiz-adv-x="306" 
d="M145 680h70v-324h75v-84h-258v84h89v227l-86 -28v87z" />
    <glyph glyph-name="two.numr" horiz-adv-x="367" 
d="M41 650c43 30 93 44 143 44c84 0 150 -38 150 -123c0 -69 -56 -111 -109 -143c-48 -27 -87 -48 -88 -68l198 1v-84h-307v43c0 98 74 137 134 172c41 24 76 39 76 75c0 28 -24 42 -63 42c-41 0 -89 -16 -134 -50v91z" />
    <glyph glyph-name="three.numr" horiz-adv-x="366" 
d="M321 581c0 -43 -23 -74 -57 -88c38 -13 74 -45 74 -104c0 -87 -81 -121 -166 -121c-51 0 -93 9 -141 28v90c47 -27 88 -33 133 -32c45 0 82 12 82 48c0 33 -27 43 -66 43h-68l1 83h56c36 0 61 12 61 39c0 28 -24 42 -71 42c-36 0 -81 -12 -121 -38v90c37 20 84 33 134 33
c85 0 149 -38 149 -113z" />
    <glyph glyph-name="four.numr" horiz-adv-x="403" 
d="M225 680h97v-254h59v-82h-59v-72h-92v72h-212v81zM230 426v135l-110 -135h110z" />
    <glyph glyph-name="five.numr" horiz-adv-x="362" 
d="M56 680h262v-84h-174l-5 -68c16 3 32 5 48 5c81 0 150 -36 150 -133c0 -96 -85 -138 -176 -138c-47 0 -94 10 -131 28v90c33 -22 80 -32 120 -32c52 0 90 16 90 54s-33 56 -97 56c-29 0 -66 -5 -100 -18z" />
    <glyph glyph-name="six.numr" horiz-adv-x="395" 
d="M127 519c34 17 65 24 103 24c73 0 144 -45 144 -133c0 -95 -74 -142 -159 -142c-133 0 -186 81 -186 215c0 147 92 211 195 211c39 0 79 -9 115 -26v-85c-30 18 -67 29 -103 29c-49 0 -97 -20 -109 -93zM126 441c8 -73 39 -93 82 -93c37 0 69 15 69 58
c0 44 -37 56 -76 56c-24 0 -51 -7 -75 -21z" />
    <glyph glyph-name="seven.numr" horiz-adv-x="340" 
d="M167 271h-104l153 325h-199v84h309v-71z" />
    <glyph glyph-name="eight.numr" horiz-adv-x="403" 
d="M42 579c0 55 46 115 158 115c103 0 159 -59 160 -117c1 -37 -16 -67 -49 -92c36 -19 64 -48 64 -96c0 -61 -49 -121 -173 -121c-123 0 -175 61 -175 123c0 39 24 77 61 101c-27 19 -46 47 -46 87zM212 442c-18 6 -39 12 -59 20c-22 -19 -30 -42 -29 -59
c0 -33 28 -58 84 -58c39 0 71 15 71 41c0 32 -30 43 -67 56zM268 569c-1 27 -25 48 -71 48c-38 0 -62 -17 -62 -38c0 -33 33 -44 72 -57c11 -3 23 -7 36 -11c18 20 25 42 25 58z" />
    <glyph glyph-name="nine.numr" horiz-adv-x="396" 
d="M22 552c0 95 74 142 158 142c134 0 187 -81 187 -215c0 -146 -92 -211 -195 -211c-39 0 -79 9 -115 26v86c29 -19 67 -30 103 -30c48 0 97 20 109 93c-34 -17 -65 -23 -103 -23c-73 0 -144 44 -144 132zM187 614c-36 0 -68 -15 -68 -58c0 -44 36 -56 76 -56
c25 0 51 7 75 21c-8 73 -39 93 -83 93z" />
    <glyph glyph-name="asterisk" unicode="*" horiz-adv-x="480" 
d="M240 445l-65 -123l-106 74l88 90l-124 25l44 122l114 -57l-16 124h130l-16 -124l114 57l44 -122l-124 -25l88 -90l-106 -74z" />
    <glyph glyph-name="backslash" unicode="\" horiz-adv-x="451" 
d="M428 -59h-99l-306 818h99z" />
    <glyph glyph-name="periodcentered" unicode="&#xb7;" horiz-adv-x="264" 
d="M216 239c0 -57 -39 -82 -84 -82s-85 25 -85 82c0 56 40 82 85 82s84 -26 84 -82z" />
    <glyph glyph-name="bullet" unicode="&#x2022;" horiz-adv-x="384" 
d="M66 350c0 84 59 121 126 121c68 0 126 -37 126 -121s-58 -122 -126 -122c-67 0 -126 38 -126 122z" />
    <glyph glyph-name="colon" unicode=":" horiz-adv-x="281" 
d="M225 373c0 -57 -39 -82 -84 -82s-85 25 -85 82c0 56 40 82 85 82s84 -26 84 -82zM225 69c0 -56 -39 -82 -84 -82s-85 26 -85 82s40 82 85 82s84 -26 84 -82z" />
    <glyph glyph-name="comma" unicode="," horiz-adv-x="262" 
d="M118 -145h-112l63 269h147z" />
    <glyph glyph-name="ellipsis" unicode="&#x2026;" horiz-adv-x="739" 
d="M699 69c0 -56 -39 -82 -84 -82s-85 26 -85 82s40 82 85 82s84 -26 84 -82zM209 69c0 -56 -39 -82 -84 -82s-85 26 -85 82s40 82 85 82s84 -26 84 -82zM454 69c0 -56 -39 -82 -84 -82s-85 26 -85 82s40 82 85 82s84 -26 84 -82z" />
    <glyph glyph-name="exclam" unicode="!" horiz-adv-x="270" 
d="M199 240h-128l-9 460h146zM219 69c0 -57 -39 -82 -84 -82c-44 0 -84 25 -84 82c0 55 40 81 84 81c45 0 84 -26 84 -81z" />
    <glyph glyph-name="exclamdown" unicode="&#xa1;" horiz-adv-x="260" 
d="M203 -219h-146l9 460h128zM214 412c0 -56 -39 -81 -84 -81c-44 0 -84 25 -84 81c0 57 40 82 84 82c45 0 84 -25 84 -82z" />
    <glyph glyph-name="numbersign" unicode="#" horiz-adv-x="687" 
d="M199 0h-132l35 151h-68v102h92l42 175h-84v102h108l36 151h132l-36 -151h129l36 151h132l-36 -151h67v-102h-91l-42 -175h83v-102h-107l-35 -151h-132l35 151h-129zM300 428l-42 -175h129l42 175h-129z" />
    <glyph glyph-name="period" unicode="." horiz-adv-x="249" 
d="M209 69c0 -56 -39 -82 -84 -82s-85 26 -85 82s40 82 85 82s84 -26 84 -82z" />
    <glyph glyph-name="question" unicode="?" horiz-adv-x="499" 
d="M292 230h-132c0 127 158 200 158 277c0 56 -48 75 -114 75c-62 0 -124 -23 -169 -49v132c52 28 119 49 194 49c126 0 239 -48 239 -175c0 -139 -176 -216 -176 -309zM311 69c0 -56 -39 -82 -84 -82s-85 26 -85 82s40 82 85 82s84 -26 84 -82z" />
    <glyph glyph-name="questiondown" unicode="&#xbf;" horiz-adv-x="492" 
d="M460 -184c-53 -28 -120 -49 -194 -49c-126 0 -239 48 -239 175c0 139 176 217 176 309h132c0 -126 -158 -200 -158 -277c0 -56 47 -75 114 -75c61 0 124 23 169 49v-132zM352 412c0 -56 -40 -81 -84 -81c-46 0 -85 25 -85 81c0 57 39 82 85 82c44 0 84 -25 84 -82z" />
    <glyph glyph-name="quotedbl" unicode="&#x22;" horiz-adv-x="402" 
d="M338 481h-98v219h124zM150 481h-98v219h124z" />
    <glyph glyph-name="quotesingle" unicode="'" horiz-adv-x="214" 
d="M150 481h-98v219h124z" />
    <glyph glyph-name="semicolon" unicode=";" horiz-adv-x="291" 
d="M132 -145h-112l63 269h147zM231 401c0 -57 -39 -83 -85 -83c-44 0 -84 26 -84 83c0 56 40 81 84 81c46 0 85 -25 85 -81z" />
    <glyph glyph-name="slash" unicode="/" horiz-adv-x="451" 
d="M122 -59h-99l306 818h99z" />
    <glyph glyph-name="underscore" unicode="_" horiz-adv-x="484" 
d="M484 -173h-484v118h484v-118z" />
    <glyph glyph-name="braceleft" unicode="{" horiz-adv-x="357" 
d="M319 12v-122c-139 -31 -218 29 -218 141v191c0 57 -37 68 -74 67v122c34 -1 74 9 74 67v191c0 112 79 172 218 141v-122c-60 10 -78 -21 -78 -80v-148c0 -72 -44 -108 -85 -110c41 -2 85 -38 85 -110v-148c0 -59 18 -90 78 -80z" />
    <glyph glyph-name="braceright" unicode="}" horiz-adv-x="357" 
d="M256 31c0 -112 -79 -172 -218 -141v122c60 -10 78 21 78 80v148c0 72 44 108 85 110c-41 2 -85 38 -85 110v148c0 59 -18 90 -78 80v122c139 31 218 -29 218 -141v-191c0 -58 40 -68 74 -67v-122c-36 1 -74 -10 -74 -67v-191z" />
    <glyph glyph-name="bracketleft" unicode="[" horiz-adv-x="331" 
d="M302 -110h-241v920h241v-125h-101v-669h101v-126z" />
    <glyph glyph-name="bracketright" unicode="]" horiz-adv-x="331" 
d="M270 -110h-241v126h101v669h-101v125h241v-920z" />
    <glyph glyph-name="parenleft" unicode="(" horiz-adv-x="315" 
d="M186 810h112c-73 -127 -120 -297 -120 -460s47 -333 120 -460h-112c-90 127 -150 298 -150 460s60 333 150 460z" />
    <glyph glyph-name="parenright" unicode=")" horiz-adv-x="315" 
d="M17 810h112c90 -127 150 -298 150 -460s-60 -333 -150 -460h-112c73 127 120 297 120 460s-47 333 -120 460z" />
    <glyph glyph-name="emdash" unicode="&#x2014;" horiz-adv-x="774" 
d="M719 185h-664v117h664v-117z" />
    <glyph glyph-name="endash" unicode="&#x2013;" horiz-adv-x="578" 
d="M523 185h-468v117h468v-117z" />
    <glyph glyph-name="hyphen" unicode="-" horiz-adv-x="482" 
d="M55 302h372v-117h-372v117z" />
    <glyph glyph-name="emdash.case" horiz-adv-x="782" 
d="M723 291h-664v118h664v-118z" />
    <glyph glyph-name="endash.case" horiz-adv-x="586" 
d="M527 291h-468v118h468v-118z" />
    <glyph glyph-name="hyphen.case" horiz-adv-x="490" 
d="M59 409h372v-118h-372v118z" />
    <glyph glyph-name="guillemotleft" unicode="&#xab;" horiz-adv-x="559" 
d="M526 46h-140l-129 181v26l129 181h140l-136 -194zM298 46h-140l-129 181v26l129 181h140l-136 -194z" />
    <glyph glyph-name="guillemotright" unicode="&#xbb;" horiz-adv-x="559" 
d="M401 46h-140l136 194l-136 194h140l129 -181v-26zM173 46h-140l136 194l-136 194h140l129 -181v-26z" />
    <glyph glyph-name="guilsinglleft" unicode="&#x2039;" horiz-adv-x="331" 
d="M298 46h-140l-129 181v26l129 181h140l-136 -194z" />
    <glyph glyph-name="guilsinglright" unicode="&#x203a;" horiz-adv-x="331" 
d="M173 46h-140l136 194l-136 194h140l129 -181v-26z" />
    <glyph glyph-name="quotedblbase" unicode="&#x201e;" horiz-adv-x="454" 
d="M310 -145h-112l63 269h147zM118 -145h-112l63 269h147z" />
    <glyph glyph-name="quotedblleft" unicode="&#x201c;" horiz-adv-x="456" 
d="M367 431h-147l98 269h112zM175 431h-147l98 269h112z" />
    <glyph glyph-name="quotedblright" unicode="&#x201d;" horiz-adv-x="451" 
d="M339 431h-112l63 269h147zM147 431h-112l63 269h147z" />
    <glyph glyph-name="quoteleft" unicode="&#x2018;" horiz-adv-x="264" 
d="M175 431h-147l98 269h112z" />
    <glyph glyph-name="quoteright" unicode="&#x2019;" horiz-adv-x="259" 
d="M147 431h-112l63 269h147z" />
    <glyph glyph-name="quotesinglbase" unicode="&#x201a;" horiz-adv-x="262" 
d="M118 -145h-112l63 269h147z" />
    <glyph glyph-name="guillemotleft.case" horiz-adv-x="595" 
d="M538 156h-140l-129 181v26l129 181h140l-136 -194zM310 156h-140l-129 181v26l129 181h140l-136 -194z" />
    <glyph glyph-name="guillemotright.case" horiz-adv-x="595" 
d="M425 156h-140l136 194l-136 194h140l129 -181v-26zM197 156h-140l136 194l-136 194h140l129 -181v-26z" />
    <glyph glyph-name="guilsinglleft.case" horiz-adv-x="367" 
d="M310 156h-140l-129 181v26l129 181h140l-136 -194z" />
    <glyph glyph-name="guilsinglright.case" horiz-adv-x="367" 
d="M197 156h-140l136 194l-136 194h140l129 -181v-26z" />
    <glyph glyph-name="space" unicode=" " horiz-adv-x="222" 
 />
    <glyph glyph-name="cent" unicode="&#xa2;" horiz-adv-x="507" 
d="M366 109c35 6 67 17 92 32v-123c-28 -12 -59 -21 -92 -26v-112h-96v107c-122 9 -236 86 -236 246c0 168 115 248 236 260v107h96v-110c31 -6 61 -16 87 -30v-122c-24 15 -55 27 -87 32v-261zM270 367c-53 -15 -94 -54 -94 -127c0 -70 41 -111 94 -126v253z" />
    <glyph glyph-name="currency" unicode="&#xa4;" horiz-adv-x="569" 
d="M180 177l-62 -62l-69 69l58 57c-20 30 -31 66 -31 109s11 79 31 109l-58 58l68 69l63 -63c31 16 66 24 104 24c37 0 73 -8 104 -24l63 63l69 -69l-59 -59c19 -29 31 -65 31 -108c0 -42 -11 -79 -31 -108l59 -58l-69 -69l-62 62c-31 -16 -67 -24 -105 -24s-73 8 -104 24z
M195 350c0 -48 30 -88 89 -88c58 0 89 40 89 88s-31 88 -89 88c-59 0 -89 -40 -89 -88z" />
    <glyph glyph-name="dollar" unicode="$" horiz-adv-x="605" 
d="M352 -130h-109v119c-74 7 -145 28 -201 60v143c80 -53 171 -74 251 -74c82 0 127 17 127 67c0 131 -374 62 -374 310c0 118 84 181 197 196v119h109v-120c66 -6 131 -24 177 -50v-140c-59 42 -138 63 -216 62c-76 -1 -114 -22 -114 -65c0 -121 375 -56 375 -305
c0 -139 -98 -194 -222 -204v-118z" />
    <glyph glyph-name="Euro" unicode="&#x20ac;" horiz-adv-x="727" 
d="M674 31c-60 -29 -129 -45 -199 -45c-154 0 -305 77 -352 241h-89v89h74v24v24h-74v89h89c48 162 196 241 350 241c71 0 141 -15 201 -45v-143c-46 35 -111 55 -175 55c-85 0 -167 -35 -207 -108h252v-89h-282c-1 -8 -1 -16 -1 -24s0 -16 1 -24h282v-89h-253
c40 -73 123 -107 207 -107c67 0 133 20 176 58v-147z" />
    <glyph glyph-name="sterling" unicode="&#xa3;" horiz-adv-x="603" 
d="M566 0h-528v122h26c43 0 69 36 69 85v72h-80v112h80v62c0 171 117 241 245 241c54 0 112 -13 161 -37v-122c-38 30 -87 44 -133 44c-71 0 -133 -37 -133 -129v-59h194v-112h-194v-72c0 -43 -12 -69 -34 -85h327v-122z" />
    <glyph glyph-name="yen" unicode="&#xa5;" horiz-adv-x="714" 
d="M525 680h161l-201 -332h108v-96h-162v-52h162v-96h-162v-104h-149v104h-161v96h161v52h-161v96h107l-201 332h161l168 -300z" />
    <glyph glyph-name="cent.tf" horiz-adv-x="643" 
d="M433 109c35 5 68 17 93 32v-123c-28 -12 -59 -21 -93 -27v-111h-96v107c-121 10 -235 87 -235 246c0 167 114 247 235 260v107h96v-110c32 -6 61 -16 88 -30v-122c-24 16 -55 27 -88 33v-262zM337 367c-52 -16 -93 -55 -93 -127c0 -69 41 -110 93 -126v253z" />
    <glyph glyph-name="currency.tf" horiz-adv-x="643" 
d="M218 177l-82 -82l-69 69l78 78c-20 29 -31 65 -31 108s11 79 31 109l-78 78l68 69l83 -83c31 16 67 24 104 24s73 -8 104 -24l82 83l69 -69l-78 -78c19 -30 31 -66 31 -109s-12 -79 -31 -108l78 -78l-69 -69l-82 82c-31 -16 -67 -24 -104 -24s-73 8 -104 24zM233 350
c0 -48 30 -88 89 -88c58 0 89 40 89 88s-31 88 -89 88c-59 0 -89 -40 -89 -88z" />
    <glyph glyph-name="dollar.tf" horiz-adv-x="643" 
d="M369 -130h-96v118c-77 7 -149 28 -208 61v143c80 -53 171 -74 251 -74c82 0 128 15 128 65c0 132 -388 65 -388 314c0 122 96 184 217 195v118h96v-119c63 -7 124 -25 170 -51v-140c-59 42 -138 63 -216 62c-76 -1 -114 -20 -114 -63c0 -121 388 -60 388 -309
c0 -141 -101 -194 -228 -203v-117z" />
    <glyph glyph-name="Euro.tf" horiz-adv-x="643" 
d="M281 227c43 -73 129 -107 214 -107c40 0 79 7 113 21v-135c-43 -13 -90 -20 -136 -20c-155 0 -312 77 -361 241h-89v89h74v24v24h-74v89h90c49 162 203 241 352 241c47 0 95 -7 139 -20v-134c-34 13 -73 21 -112 21c-82 0 -167 -36 -209 -108h230v-89h-262
c-1 -8 -1 -16 -1 -24s0 -16 1 -24h262v-89h-231z" />
    <glyph glyph-name="sterling.tf" horiz-adv-x="643" 
d="M601 0h-555v122h26c43 0 69 36 69 85v72h-76v112h76v62c0 171 111 241 258 241c55 0 112 -13 161 -37v-122c-37 27 -87 44 -139 44c-84 0 -140 -40 -140 -129v-59h194v-112h-194v-72c0 -43 -12 -69 -34 -85h354v-122z" />
    <glyph glyph-name="yen.tf" horiz-adv-x="643" 
d="M467 680h161l-186 -332h116v-96h-162v-52h162v-96h-162v-104h-149v104h-161v96h161v52h-161v96h115l-186 332h161l146 -294z" />
    <glyph glyph-name="approxequal" unicode="&#x2248;" horiz-adv-x="615" 
d="M550 531c12 -104 -45 -160 -127 -160c-74 0 -161 55 -210 53c-21 0 -33 -12 -29 -43h-118c-12 108 49 160 124 160c81 0 156 -53 212 -53c21 0 34 11 30 43h118zM550 338c12 -105 -45 -160 -127 -160c-74 0 -161 55 -210 53c-21 0 -33 -13 -29 -43h-118
c-12 108 49 159 124 159c81 0 156 -52 212 -52c21 0 34 10 30 43h118z" />
    <glyph glyph-name="asciitilde" unicode="~" horiz-adv-x="601" 
d="M546 407c12 -105 -45 -160 -127 -160c-74 0 -161 55 -210 53c-21 0 -33 -13 -29 -43h-118c-12 108 49 159 124 159c81 0 156 -52 212 -52c21 0 34 10 30 43h118z" />
    <glyph glyph-name="divide" unicode="&#xf7;" horiz-adv-x="558" 
d="M519 291h-480v118h480v-118zM364 127c0 -57 -39 -83 -84 -83s-85 26 -85 83c0 56 40 81 85 81s84 -25 84 -81zM364 574c0 -57 -39 -83 -84 -83s-85 26 -85 83c0 56 40 81 85 81s84 -25 84 -81z" />
    <glyph glyph-name="emptyset" unicode="&#x2205;" horiz-adv-x="812" 
d="M747 700l-81 -95c65 -65 105 -156 105 -255c0 -201 -164 -364 -365 -364c-79 0 -153 25 -213 68l-46 -54h-82l82 95c-65 66 -105 156 -105 255c0 201 163 364 364 364c79 0 152 -25 212 -69l47 55h82zM406 644c-163 0 -294 -132 -294 -294c0 -78 30 -149 80 -201l380 443
c-47 33 -104 52 -166 52zM239 108c48 -33 105 -52 167 -52c162 0 294 132 294 294c0 78 -31 149 -81 202z" />
    <glyph glyph-name="equal" unicode="=" horiz-adv-x="578" 
d="M519 391h-460v117h460v-117zM519 192h-460v117h460v-117z" />
    <glyph glyph-name="greater" unicode="&#x3e;" horiz-adv-x="506" 
d="M467 281l-398 -145v125l277 89l-277 89v125l398 -145v-138z" />
    <glyph glyph-name="greaterequal" unicode="&#x2265;" horiz-adv-x="522" 
d="M466 325l-398 -145v125l277 89l-277 89v125l398 -145v-138zM466 0h-398v118h398v-118z" />
    <glyph glyph-name="infinity" unicode="&#x221e;" horiz-adv-x="876" 
d="M438 446c48 60 107 113 196 113c106 0 193 -74 193 -201s-87 -201 -193 -201c-89 0 -148 53 -196 113c-48 -60 -107 -113 -196 -113c-106 0 -193 74 -193 201s87 201 193 201c89 0 148 -53 196 -113zM374 358c-36 49 -70 83 -115 83c-41 0 -78 -26 -78 -83s37 -83 78 -83
c45 0 79 33 115 83zM695 358c0 57 -38 83 -78 83c-46 0 -80 -33 -115 -83c36 -49 70 -83 115 -83c40 0 78 26 78 83z" />
    <glyph glyph-name="integral" unicode="&#x222b;" horiz-adv-x="460" 
d="M161 614c0 140 98 180 187 180c39 0 77 -8 104 -18v-120c-16 6 -43 14 -73 14c-38 0 -79 -14 -79 -74v-650c0 -140 -98 -180 -187 -180c-40 0 -77 8 -104 18v120c16 -6 43 -14 70 -14c41 0 82 13 82 74v650z" />
    <glyph glyph-name="less" unicode="&#x3c;" horiz-adv-x="506" 
d="M437 261v-125l-398 145v138l398 145v-125l-277 -89z" />
    <glyph glyph-name="lessequal" unicode="&#x2264;" horiz-adv-x="520" 
d="M453 299v-125l-398 144v139l398 144v-124l-277 -89zM453 0h-398v118h398v-118z" />
    <glyph glyph-name="logicalnot" unicode="&#xac;" horiz-adv-x="577" 
d="M515 238h-119v124h-349v118h468v-242z" />
    <glyph glyph-name="minus" unicode="&#x2212;" horiz-adv-x="518" 
d="M459 289h-400v118h400v-118z" />
    <glyph glyph-name="multiply" unicode="&#xd7;" horiz-adv-x="504" 
d="M252 273l-125 -125l-78 77l125 126l-125 125l78 77l125 -125l125 125l78 -77l-125 -125l125 -126l-78 -77z" />
    <glyph glyph-name="notequal" unicode="&#x2260;" horiz-adv-x="578" 
d="M195 91h-102l56 101h-90v117h156l46 82h-202v117h267l57 101h103l-57 -101h90v-117h-156l-46 -82h202v-117h-267z" />
    <glyph glyph-name="partialdiff" unicode="&#x2202;" horiz-adv-x="586" 
d="M546 290c0 -199 -102 -304 -263 -304c-146 0 -250 94 -250 234c0 137 93 225 209 225c73 0 138 -32 165 -81c-1 11 -2 20 -4 30c-32 143 -157 199 -302 192v124c236 0 445 -119 445 -420zM175 217c0 -55 30 -120 114 -120c85 0 109 63 113 115c0 55 -32 122 -116 122
c-82 0 -111 -64 -111 -117z" />
    <glyph glyph-name="percent" unicode="%" horiz-adv-x="921" 
d="M308 -60h-100l409 820h100zM391 542c0 -113 -84 -172 -180 -172c-97 0 -182 59 -182 172s85 172 182 172c96 0 180 -59 180 -172zM141 542c0 -36 21 -69 70 -69c47 0 68 33 68 69s-21 69 -68 69c-49 0 -70 -33 -70 -69zM892 158c0 -113 -84 -172 -180 -172
c-97 0 -182 59 -182 172s85 172 182 172c96 0 180 -59 180 -172zM642 158c0 -36 21 -69 70 -69c47 0 68 33 68 69s-21 69 -68 69c-49 0 -70 -33 -70 -69z" />
    <glyph glyph-name="perthousand" unicode="&#x2030;" horiz-adv-x="1329" 
d="M308 -60h-100l409 820h100zM391 542c0 -113 -84 -172 -180 -172c-97 0 -182 59 -182 172s85 172 182 172c96 0 180 -59 180 -172zM141 542c0 -36 21 -69 70 -69c47 0 68 33 68 69s-21 69 -68 69c-49 0 -70 -33 -70 -69zM892 158c0 -113 -84 -172 -180 -172
c-97 0 -182 59 -182 172s85 172 182 172c96 0 180 -59 180 -172zM642 158c0 -36 21 -69 70 -69c47 0 68 33 68 69s-21 69 -68 69c-49 0 -70 -33 -70 -69zM1300 158c0 -110 -84 -172 -180 -172c-97 0 -182 62 -182 172s85 172 182 172c96 0 180 -62 180 -172zM1051 158
c0 -36 21 -69 70 -69c47 0 68 33 68 69s-21 69 -68 69c-49 0 -70 -33 -70 -69z" />
    <glyph glyph-name="plus" unicode="+" horiz-adv-x="540" 
d="M329 409h175v-118h-175v-175h-118v175h-175v118h175v175h118v-175z" />
    <glyph glyph-name="plusminus" unicode="&#xb1;" horiz-adv-x="576" 
d="M347 648v-175h175v-118h-175v-175h-118v175h-175v118h175v175h118zM522 0h-468v118h468v-118z" />
    <glyph glyph-name="product" unicode="&#x220f;" horiz-adv-x="786" 
d="M271 -220h-149v798h-89v122h719v-122h-88v-798h-150v798h-243v-798z" />
    <glyph glyph-name="radical" unicode="&#x221a;" horiz-adv-x="767" 
d="M404 0h-125l-153 345h-105v135h195l126 -310l279 610h157z" />
    <glyph glyph-name="summation" unicode="&#x2211;" horiz-adv-x="581" 
d="M535 0h-498v81l235 269l-235 269v81h495v-135h-270l176 -201v-28l-176 -201h273v-135z" />
    <glyph glyph-name="lozenge" unicode="&#x25ca;" horiz-adv-x="594" 
d="M375 0h-155l-188 350l188 350h155l187 -350zM174 350l123 -225l124 225l-124 225z" />
    <glyph glyph-name="bar" unicode="|" horiz-adv-x="262" 
d="M201 -100h-140v910h140v-910z" />
    <glyph glyph-name="brokenbar" unicode="&#xa6;" horiz-adv-x="274" 
d="M207 438h-140v372h140v-372zM207 -100h-140v372h140v-372z" />
    <glyph glyph-name="at" unicode="@" horiz-adv-x="1048" 
d="M37 240c0 243 174 474 495 474c320 0 475 -241 475 -434c0 -186 -88 -274 -219 -274c-80 0 -142 39 -165 101c-26 -45 -73 -76 -141 -76c-122 0 -189 103 -189 207c0 105 64 208 191 208c67 0 110 -30 136 -67v55h106v-247c0 -47 18 -78 69 -78c67 0 85 78 85 171
c0 146 -114 318 -348 318c-235 0 -368 -171 -368 -358c0 -242 186 -357 407 -357c72 0 146 12 217 35v-115c-73 -26 -147 -36 -221 -36c-281 0 -530 160 -530 473zM609 277c-13 37 -48 69 -98 69c-62 0 -98 -50 -98 -108s36 -108 98 -108c50 0 85 33 98 69v78z" />
    <glyph glyph-name="ampersand" unicode="&#x26;" horiz-adv-x="725" 
d="M594 129l134 -129h-159l-57 53c-59 -41 -136 -67 -227 -67c-148 0 -244 78 -244 187c0 94 68 151 139 191c-40 43 -78 98 -78 159c0 110 98 191 235 191c120 0 211 -71 211 -175c0 -100 -91 -157 -174 -198l128 -124c22 38 34 81 33 125h137c0 -71 -27 -149 -78 -213z
M415 533c0 41 -28 69 -81 69c-62 0 -99 -40 -99 -81c0 -40 27 -71 58 -102c60 28 122 62 122 114zM184 186c0 -52 43 -83 120 -83c45 0 85 12 119 33l-160 149c-43 -24 -79 -54 -79 -99z" />
    <glyph glyph-name="paragraph" unicode="&#xb6;" horiz-adv-x="731" 
d="M402 -220h-143v487c-143 0 -230 81 -230 217c0 135 87 216 230 216h398v-920h-143v785h-112v-785z" />
    <glyph glyph-name="copyright" unicode="&#xa9;" horiz-adv-x="846" 
d="M806 350c0 -242 -193 -364 -383 -364s-383 122 -383 364s193 364 383 364s383 -122 383 -364zM578 180c-44 -23 -81 -34 -142 -34c-96 0 -208 58 -208 196c0 150 111 212 220 212c50 0 93 -11 130 -34v-89c-32 18 -69 30 -110 30c-59 0 -125 -27 -125 -113
c0 -85 64 -109 123 -109c41 0 79 12 112 30v-89zM90 350c0 -211 168 -318 333 -318s333 107 333 318s-168 318 -333 318s-333 -107 -333 -318z" />
    <glyph glyph-name="registered" unicode="&#xae;" horiz-adv-x="839" 
d="M799 350c0 -237 -190 -364 -379 -364c-190 0 -380 127 -380 364s190 364 380 364c189 0 379 -127 379 -364zM90 350c0 -211 161 -316 330 -316c168 0 330 105 330 316s-162 316 -330 316c-169 0 -330 -105 -330 -316zM360 159h-96v391h189c73 0 156 -36 156 -134
c0 -66 -37 -105 -83 -119l106 -138h-109l-96 128h-9h-58v-128zM360 460v-95h81c28 0 66 5 66 47c0 43 -38 48 -66 48h-81z" />
    <glyph glyph-name="section" unicode="&#xa7;" horiz-adv-x="522" 
d="M467 113c0 -113 -103 -148 -218 -148c-69 0 -132 16 -181 45v111c52 -33 118 -49 174 -49c51 0 83 6 83 37c0 33 -55 47 -119 66c-78 24 -159 58 -159 151c0 59 27 99 71 129c-36 24 -61 58 -61 111c0 111 99 148 204 148c65 0 125 -17 174 -41v-110
c-41 24 -111 45 -164 45c-36 0 -72 -9 -72 -38c0 -36 60 -51 127 -70c77 -23 153 -57 153 -147c0 -49 -24 -93 -70 -126c34 -25 58 -60 58 -114zM249 291c17 -5 37 -11 57 -17c26 16 39 39 39 59c0 31 -30 46 -66 60c-18 6 -39 13 -61 20c-30 -15 -43 -39 -43 -61
c0 -32 33 -46 74 -61z" />
    <glyph glyph-name="trademark" unicode="&#x2122;" horiz-adv-x="681" 
d="M381 442h-78v258h71l85 -118l86 118h71v-258h-78v141l-58 -81h-41l-58 81v-141zM192 442h-77v188h-77v70h231v-70h-77v-188z" />
    <glyph glyph-name="degree" unicode="&#xb0;" horiz-adv-x="416" 
d="M384 547c0 -111 -81 -170 -176 -170c-94 0 -177 59 -177 170c0 106 83 167 177 167c95 0 176 -61 176 -167zM134 547c0 -46 30 -75 75 -75s73 29 73 75c0 44 -28 72 -73 72s-75 -28 -75 -72z" />
    <glyph glyph-name="asciicircum" unicode="^" 
d="M181 354h-149l202 346h122l202 -346h-149l-114 208z" />
    <glyph glyph-name="dagger" unicode="&#x2020;" horiz-adv-x="540" 
d="M345 -220h-149v565h-167v135h167v220h149v-220h166v-135h-166v-565z" />
    <glyph glyph-name="daggerdbl" unicode="&#x2021;" horiz-adv-x="592" 
d="M371 -220h-150v246h-171v132h171v190h-171v132h171v220h150v-220h171v-132h-171v-190h171v-132h-171v-246z" />
    <glyph glyph-name="acute" unicode="&#xb4;" horiz-adv-x="240" 
d="M143 764h-134l90 148h152z" />
    <glyph glyph-name="breve" unicode="&#x2d8;" horiz-adv-x="359" 
d="M336 791c-44 -31 -92 -45 -157 -45s-112 14 -156 45v109c53 -33 102 -43 156 -43s104 10 157 43v-109z" />
    <glyph glyph-name="caron" unicode="&#x2c7;" horiz-adv-x="368" 
d="M376 915l-130 -155h-123l-131 155h133l59 -71l60 71h132z" />
    <glyph glyph-name="cedilla" unicode="&#xb8;" horiz-adv-x="222" 
d="M62 0h97l-13 -48c64 -6 94 -37 94 -87c1 -71 -74 -99 -144 -99c-36 0 -70 5 -102 19v86c22 -13 52 -20 80 -20c38 0 62 10 62 30c0 26 -46 32 -96 26z" />
    <glyph glyph-name="circumflex" unicode="&#x2c6;" horiz-adv-x="368" 
d="M122 912h123l124 -155h-132l-53 65l-53 -65h-133z" />
    <glyph glyph-name="dieresis" unicode="&#xa8;" horiz-adv-x="346" 
d="M355 833c0 -41 -33 -74 -74 -74c-42 0 -75 33 -75 74s33 75 75 75c41 0 74 -34 74 -75zM141 833c0 -41 -33 -74 -74 -74s-75 33 -75 74s34 75 75 75s74 -34 74 -75z" />
    <glyph glyph-name="dotaccent" unicode="&#x2d9;" horiz-adv-x="156" 
d="M-2 837c0 53 37 79 81 79s82 -26 82 -79c0 -55 -38 -79 -82 -79s-81 24 -81 79z" />
    <glyph glyph-name="grave" unicode="`" horiz-adv-x="253" 
d="M243 764h-134l-108 148h152z" />
    <glyph glyph-name="hungarumlaut" unicode="&#x2dd;" horiz-adv-x="430" 
d="M344 774h-127l72 153h136zM163 774h-127l72 153h136z" />
    <glyph glyph-name="macron" unicode="&#xaf;" horiz-adv-x="360" 
d="M17 877h326v-110h-326v110z" />
    <glyph glyph-name="ogonek" unicode="&#x2db;" horiz-adv-x="225" 
d="M83 0h119c-50 -33 -73 -72 -72 -98c-1 -22 14 -32 35 -32c14 0 29 4 41 12v-94c-25 -15 -57 -22 -87 -22c-75 -1 -114 45 -113 100c0 44 26 95 77 134z" />
    <glyph glyph-name="ring" unicode="&#x2da;" horiz-adv-x="247" 
d="M248 856c0 -77 -58 -121 -125 -121c-66 0 -125 44 -125 121c0 74 59 118 125 118c67 0 125 -44 125 -118zM82 855c0 -26 18 -43 42 -43s42 17 42 43c0 25 -18 42 -42 42s-42 -17 -42 -42z" />
    <glyph glyph-name="tilde" unicode="&#x2dc;" horiz-adv-x="400" 
d="M380 885c19 -82 -26 -139 -94 -139c-65 0 -111 42 -142 42c-24 0 -27 -22 -23 -36h-100c-19 82 26 139 93 139c65 0 111 -42 143 -42c24 0 27 22 23 36h100z" />
    <glyph glyph-name="uni0326" unicode="&#x326;" horiz-adv-x="160" 
d="M133 -263h-112l32 210h128z" />
    <glyph glyph-name="A" unicode="A" horiz-adv-x="739" 
d="M158 0h-155l286 700h162l285 -700h-155l-51 131h-320zM354 506l-97 -251h226l-98 251c-5 14 -10 28 -15 55c-5 -27 -10 -41 -16 -55z" />
    </font>
</defs>
</svg>
