<?xml version="1.0" standalone="no"?>
<!DOCTYPE svg PUBLIC "-//W3C//DTD SVG 1.1//EN" "http://www.w3.org/Graphics/SVG/1.1/DTD/svg11.dtd" >
<svg xmlns="http://www.w3.org/2000/svg" xmlns:xlink="http://www.w3.org/1999/xlink" version="1.1">
<metadata>
Created by FontForge 20161116 at Fri Mar 13 14:23:30 2015
 By Jimmy Wärting
Copyright \(c\) 2015 by Fontfabric LLC. All rights reserved.
</metadata>
<defs>
<font id="MullerRegular" horiz-adv-x="587" >
  <font-face 
    font-family="Muller Regular"
    font-weight="400"
    font-stretch="normal"
    units-per-em="1000"
    panose-1="0 0 0 0 0 0 0 0 0 0"
    ascent="780"
    descent="-220"
    x-height="480"
    cap-height="700"
    bbox="-161 -241 1251 964"
    underline-thickness="50"
    underline-position="-125"
    stemh="75"
    stemv="80"
    unicode-range="U+0020-25CA"
  />
<missing-glyph horiz-adv-x="249" 
 />
    <glyph glyph-name="f_f" unicode="ff" horiz-adv-x="691" 
d="M711 626c-27 13 -65 22 -101 22c-58 0 -109 -15 -109 -103v-65h180v-74h-180v-406h-80v406h-230v-406h-80v406h-90v74h90v53c0 109 80 169 189 169c59 0 102 -13 152 -41c33 45 86 61 139 61c44 0 87 -9 120 -22v-74zM191 480h230v68c0 18 2 34 4 49
c-36 21 -67 31 -121 31c-65 0 -113 -29 -113 -95v-53z" />
    <glyph glyph-name="f_f_i" unicode="ffi" horiz-adv-x="874" 
d="M191 0h-80v406h-90v74h90v53c0 109 80 169 189 169c61 0 104 -14 157 -43c34 42 88 63 153 63c53 0 97 -12 145 -35v-80c-47 27 -90 41 -141 41c-65 0 -113 -29 -113 -105v-63h297v-480h-80v406h-217v-406h-80v406h-230v-406zM191 533v-53h230v63c0 19 2 37 6 53
c-37 22 -69 32 -123 32c-65 0 -113 -29 -113 -95z" />
    <glyph glyph-name="f_f_l" unicode="ffl" horiz-adv-x="884" 
d="M610 722c48 0 88 -10 131 -29l67 17v-710h-80v626c-37 16 -73 22 -114 22c-65 0 -113 -29 -113 -105v-63h150v-74h-150v-406h-80v406h-230v-406h-80v406h-90v74h90v53c0 109 80 169 189 169c61 0 104 -14 157 -43c34 42 88 63 153 63zM421 480v63c0 19 2 37 6 53
c-37 22 -69 32 -123 32c-65 0 -113 -29 -113 -95v-53h230z" />
    <glyph glyph-name=".notdef" horiz-adv-x="249" 
 />
    <glyph glyph-name="Aacute" unicode="&#xc1;" horiz-adv-x="717" 
d="M98 0h-91l305 700h93l304 -700h-90l-72 169h-377zM347 587l-144 -340h311l-145 340c-4 9 -7 17 -11 27c-4 -10 -7 -18 -11 -27zM378 770h-87l91 147h100z" />
    <glyph glyph-name="Abreve" unicode="&#x102;" horiz-adv-x="717" 
d="M98 0h-91l305 700h93l304 -700h-90l-72 169h-377zM347 587l-144 -340h311l-145 340c-4 9 -7 17 -11 27c-4 -10 -7 -18 -11 -27zM497 810c-45 -32 -92 -42 -140 -42s-95 10 -140 42v78c50 -33 91 -44 140 -44s90 11 140 44v-78z" />
    <glyph glyph-name="Acircumflex" unicode="&#xc2;" horiz-adv-x="717" 
d="M98 0h-91l305 700h93l304 -700h-90l-72 169h-377zM347 587l-144 -340h311l-145 340c-4 9 -7 17 -11 27c-4 -10 -7 -18 -11 -27zM324 917h72l132 -146h-91l-77 86l-77 -86h-91z" />
    <glyph glyph-name="Adieresis" unicode="&#xc4;" horiz-adv-x="717" 
d="M98 0h-91l305 700h93l304 -700h-90l-72 169h-377zM347 587l-144 -340h311l-145 340c-4 9 -7 17 -11 27c-4 -10 -7 -18 -11 -27zM512 837c0 -30 -25 -55 -55 -55s-55 25 -55 55c0 29 25 55 55 55s55 -26 55 -55zM310 837c0 -30 -25 -55 -55 -55s-55 25 -55 55
c0 29 25 55 55 55s55 -26 55 -55z" />
    <glyph glyph-name="Agrave" unicode="&#xc0;" horiz-adv-x="717" 
d="M98 0h-91l305 700h93l304 -700h-90l-72 169h-377zM347 587l-144 -340h311l-145 340c-4 9 -7 17 -11 27c-4 -10 -7 -18 -11 -27zM423 770h-87l-104 147h100z" />
    <glyph glyph-name="Amacron" unicode="&#x100;" horiz-adv-x="717" 
d="M98 0h-91l305 700h93l304 -700h-90l-72 169h-377zM347 587l-144 -340h311l-145 340c-4 9 -7 17 -11 27c-4 -10 -7 -18 -11 -27zM207 857h300v-73h-300v73z" />
    <glyph glyph-name="Aogonek" unicode="&#x104;" horiz-adv-x="717" 
d="M619 -126c-1 -24 14 -41 43 -41c19 0 42 8 59 21v-64c-22 -15 -50 -22 -79 -22c-66 0 -99 39 -99 89c0 43 25 93 76 143l-72 169h-377l-72 -169h-91l305 700h93l304 -700c-56 -38 -91 -90 -90 -126zM347 587l-144 -340h311l-145 340c-4 9 -7 17 -11 27
c-4 -10 -7 -18 -11 -27z" />
    <glyph glyph-name="Aring" unicode="&#xc5;" horiz-adv-x="717" 
d="M98 0h-91l305 700h93l304 -700h-90l-72 169h-377zM347 587l-144 -340h311l-145 340c-4 9 -7 17 -11 27c-4 -10 -7 -18 -11 -27zM471 855c0 -69 -55 -111 -115 -111c-61 0 -116 42 -116 111c0 67 55 109 116 109c60 0 115 -42 115 -109zM301 854c0 -35 26 -55 55 -55
s55 20 55 55c0 34 -26 55 -55 55s-55 -21 -55 -55z" />
    <glyph glyph-name="Atilde" unicode="&#xc3;" horiz-adv-x="717" 
d="M98 0h-91l305 700h93l304 -700h-90l-72 169h-377zM347 587l-144 -340h311l-145 340c-4 9 -7 17 -11 27c-4 -10 -7 -18 -11 -27zM522 869c10 -72 -34 -106 -82 -106c-61 0 -118 42 -148 42c-21 0 -32 -15 -29 -37h-70c-11 72 33 107 80 107c60 0 118 -42 149 -42
c23 0 32 14 30 36h70z" />
    <glyph glyph-name="AE" unicode="&#xc6;" horiz-adv-x="996" 
d="M582 313v-233h364v-80h-448v171h-303l-118 -171h-93l480 700h476v-80h-358v-227h328v-80h-328zM244 247h254v366z" />
    <glyph glyph-name="B" unicode="B" horiz-adv-x="691" 
d="M92 700h287c143 0 238 -59 238 -177c0 -89 -57 -139 -112 -155c58 -16 140 -62 140 -176c0 -159 -156 -192 -258 -192h-295v700zM560 201c0 109 -100 121 -167 121h-217v-242h194c88 0 190 6 190 121zM532 511c0 83 -61 109 -160 109h-196v-218h219c73 0 137 29 137 109z
" />
    <glyph glyph-name="C" unicode="C" horiz-adv-x="653" 
d="M45 345c1 243 186 367 368 367c70 0 138 -16 197 -47v-84c-51 34 -117 51 -183 51c-145 0 -296 -87 -297 -287c-1 -187 155 -277 300 -277c72 0 137 17 185 51v-84c-58 -30 -128 -47 -203 -47c-176 0 -368 124 -367 357z" />
    <glyph glyph-name="Cacute" unicode="&#x106;" horiz-adv-x="653" 
d="M45 345c1 243 186 367 368 367c70 0 138 -16 197 -47v-84c-51 34 -117 51 -183 51c-145 0 -296 -87 -297 -287c-1 -187 155 -277 300 -277c72 0 137 17 185 51v-84c-58 -30 -128 -47 -203 -47c-176 0 -368 124 -367 357zM418 770h-87l91 147h100z" />
    <glyph glyph-name="Ccaron" unicode="&#x10c;" horiz-adv-x="653" 
d="M45 345c1 243 186 367 368 367c70 0 138 -16 197 -47v-84c-51 34 -117 51 -183 51c-145 0 -296 -87 -297 -287c-1 -187 155 -277 300 -277c72 0 137 17 185 51v-84c-58 -30 -128 -47 -203 -47c-176 0 -368 124 -367 357zM568 907l-132 -146h-72l-132 146h91l77 -86l77 86
h91z" />
    <glyph glyph-name="Ccedilla" unicode="&#xc7;" horiz-adv-x="653" 
d="M615 119v-84c-49 -25 -106 -41 -168 -46l-12 -47c64 3 104 -26 105 -78c1 -65 -54 -96 -133 -96c-40 0 -70 7 -98 19v68c23 -13 54 -22 89 -22c49 0 73 13 73 34c0 30 -64 35 -115 25l22 98c-166 15 -334 137 -333 355c1 243 186 367 368 367c70 0 138 -16 197 -47v-84
c-51 34 -117 51 -183 51c-145 0 -296 -87 -297 -287c-1 -187 155 -277 300 -277c72 0 137 17 185 51z" />
    <glyph glyph-name="Cdotaccent" unicode="&#x10a;" horiz-adv-x="653" 
d="M45 345c1 243 186 367 368 367c70 0 138 -16 197 -47v-84c-51 34 -117 51 -183 51c-145 0 -296 -87 -297 -287c-1 -187 155 -277 300 -277c72 0 137 17 185 51v-84c-58 -30 -128 -47 -203 -47c-176 0 -368 124 -367 357zM333 827c0 38 28 58 60 58c33 0 60 -20 60 -58
c0 -39 -27 -59 -60 -59c-32 0 -60 20 -60 59z" />
    <glyph glyph-name="D" unicode="D" horiz-adv-x="738" 
d="M92 700h230c247 0 370 -148 370 -350s-123 -350 -370 -350h-230v700zM607 350c0 168 -96 270 -285 270h-146v-540h146c189 0 285 102 285 270z" />
    <glyph glyph-name="Eth" unicode="&#xd0;" horiz-adv-x="743" 
d="M97 700h230c247 0 370 -148 370 -350s-123 -350 -370 -350h-230v311h-82v76h82v313zM181 80h146c189 0 285 102 285 270s-96 270 -285 270h-146v-233h211v-76h-211v-231z" />
    <glyph glyph-name="Dcaron" unicode="&#x10e;" horiz-adv-x="738" 
d="M92 700h230c247 0 370 -148 370 -350s-123 -350 -370 -350h-230v700zM607 350c0 168 -96 270 -285 270h-146v-540h146c189 0 285 102 285 270zM508 907l-132 -146h-72l-132 146h91l77 -86l77 86h91z" />
    <glyph glyph-name="Dcroat" unicode="&#x110;" horiz-adv-x="743" 
d="M97 700h230c247 0 370 -148 370 -350s-123 -350 -370 -350h-230v311h-82v76h82v313zM181 80h146c189 0 285 102 285 270s-96 270 -285 270h-146v-233h211v-76h-211v-231z" />
    <glyph glyph-name="E" unicode="E" horiz-adv-x="620" 
d="M92 700h472v-80h-388v-227h358v-80h-358v-233h394v-80h-478v700z" />
    <glyph glyph-name="Eacute" unicode="&#xc9;" horiz-adv-x="620" 
d="M92 700h472v-80h-388v-227h358v-80h-358v-233h394v-80h-478v700zM355 770h-87l91 147h100z" />
    <glyph glyph-name="Ecaron" unicode="&#x11a;" horiz-adv-x="620" 
d="M92 700h472v-80h-388v-227h358v-80h-358v-233h394v-80h-478v700zM505 907l-132 -146h-72l-132 146h91l77 -86l77 86h91z" />
    <glyph glyph-name="Ecircumflex" unicode="&#xca;" horiz-adv-x="620" 
d="M92 700h472v-80h-388v-227h358v-80h-358v-233h394v-80h-478v700zM301 917h72l132 -146h-91l-77 86l-77 -86h-91z" />
    <glyph glyph-name="Edieresis" unicode="&#xcb;" horiz-adv-x="620" 
d="M92 700h472v-80h-388v-227h358v-80h-358v-233h394v-80h-478v700zM489 837c0 -30 -25 -55 -55 -55s-55 25 -55 55c0 29 25 55 55 55s55 -26 55 -55zM287 837c0 -30 -25 -55 -55 -55s-55 25 -55 55c0 29 25 55 55 55s55 -26 55 -55z" />
    <glyph glyph-name="Edotaccent" unicode="&#x116;" horiz-adv-x="620" 
d="M92 700h472v-80h-388v-227h358v-80h-358v-233h394v-80h-478v700zM270 827c0 38 28 58 60 58c33 0 60 -20 60 -58c0 -39 -27 -59 -60 -59c-32 0 -60 20 -60 59z" />
    <glyph glyph-name="Egrave" unicode="&#xc8;" horiz-adv-x="620" 
d="M92 700h472v-80h-388v-227h358v-80h-358v-233h394v-80h-478v700zM400 770h-87l-104 147h100z" />
    <glyph glyph-name="Emacron" unicode="&#x112;" horiz-adv-x="620" 
d="M92 700h472v-80h-388v-227h358v-80h-358v-233h394v-80h-478v700zM184 857h300v-73h-300v73z" />
    <glyph glyph-name="Eogonek" unicode="&#x118;" horiz-adv-x="620" 
d="M570 80v-80c-56 -38 -91 -91 -90 -127c-1 -24 14 -40 43 -41c15 1 32 5 47 13v-63c-20 -10 -43 -15 -67 -15c-66 -1 -99 39 -99 89c0 46 28 101 83 144h-395v700h472v-80h-388v-227h358v-80h-358v-233h394z" />
    <glyph glyph-name="F" unicode="F" horiz-adv-x="604" 
d="M92 700h474v-80h-390v-241h361v-80h-361v-299h-84v700z" />
    <glyph glyph-name="G" unicode="G" horiz-adv-x="705" 
d="M46 350c0 241 186 362 372 362c74 0 148 -16 210 -47v-84c-54 34 -125 51 -198 51c-147 0 -299 -82 -299 -282c0 -211 154 -282 301 -282c47 0 94 9 129 26v278h84v-337c-65 -30 -143 -47 -219 -47c-192 0 -380 98 -380 362z" />
    <glyph glyph-name="Gbreve" unicode="&#x11e;" horiz-adv-x="705" 
d="M46 350c0 241 186 362 372 362c74 0 148 -16 210 -47v-84c-54 34 -125 51 -198 51c-147 0 -299 -82 -299 -282c0 -211 154 -282 301 -282c47 0 94 9 129 26v278h84v-337c-65 -30 -143 -47 -219 -47c-192 0 -380 98 -380 362zM542 810c-45 -32 -92 -42 -140 -42
s-95 10 -140 42v78c50 -33 91 -44 140 -44s90 11 140 44v-78z" />
    <glyph glyph-name="Gcommaaccent" unicode="&#x122;" horiz-adv-x="705" 
d="M46 350c0 241 186 362 372 362c74 0 148 -16 210 -47v-84c-54 34 -125 51 -198 51c-147 0 -299 -82 -299 -282c0 -211 154 -282 301 -282c47 0 94 9 129 26v278h84v-337c-65 -30 -143 -47 -219 -47c-192 0 -380 98 -380 362zM424 -241h-70l25 190h80z" />
    <glyph glyph-name="Gdotaccent" unicode="&#x120;" horiz-adv-x="705" 
d="M46 350c0 241 186 362 372 362c74 0 148 -16 210 -47v-84c-54 34 -125 51 -198 51c-147 0 -299 -82 -299 -282c0 -211 154 -282 301 -282c47 0 94 9 129 26v278h84v-337c-65 -30 -143 -47 -219 -47c-192 0 -380 98 -380 362zM338 827c0 38 28 58 60 58
c33 0 60 -20 60 -58c0 -39 -27 -59 -60 -59c-32 0 -60 20 -60 59z" />
    <glyph glyph-name="H" unicode="H" horiz-adv-x="767" 
d="M591 700h84v-700h-84v311h-415v-311h-84v700h84v-309h415v309z" />
    <glyph glyph-name="Hbar" unicode="&#x126;" horiz-adv-x="773" 
d="M179 0h-84v502h-74v70h74v128h84v-128h415v128h84v-128h74v-70h-74v-502h-84v311h-415v-311zM179 502v-111h415v111h-415z" />
    <glyph glyph-name="I" unicode="I" horiz-adv-x="268" 
d="M92 700h84v-700h-84v700z" />
    <glyph glyph-name="IJ" unicode="&#x132;" horiz-adv-x="781" 
d="M92 700h84v-700h-84v700zM405 700h290v-502c0 -147 -102 -208 -230 -208c-70 0 -135 15 -180 43v84c44 -31 103 -47 165 -47c92 0 161 30 161 131v419h-206v80z" />
    <glyph glyph-name="Iacute" unicode="&#xcd;" horiz-adv-x="268" 
d="M92 700h84v-700h-84v700zM156 770h-87l91 147h100z" />
    <glyph glyph-name="Icircumflex" unicode="&#xce;" horiz-adv-x="268" 
d="M92 700h84v-700h-84v700zM102 917h72l132 -146h-91l-77 86l-77 -86h-91z" />
    <glyph glyph-name="Idieresis" unicode="&#xcf;" horiz-adv-x="268" 
d="M92 700h84v-700h-84v700zM290 837c0 -30 -25 -55 -55 -55s-55 25 -55 55c0 29 25 55 55 55s55 -26 55 -55zM88 837c0 -30 -25 -55 -55 -55s-55 25 -55 55c0 29 25 55 55 55s55 -26 55 -55z" />
    <glyph glyph-name="Idotaccent" unicode="&#x130;" horiz-adv-x="268" 
d="M92 700h84v-700h-84v700zM71 827c0 38 28 58 60 58c33 0 60 -20 60 -58c0 -39 -27 -59 -60 -59c-32 0 -60 20 -60 59z" />
    <glyph glyph-name="Igrave" unicode="&#xcc;" horiz-adv-x="268" 
d="M92 700h84v-700h-84v700zM201 770h-87l-104 147h100z" />
    <glyph glyph-name="Imacron" unicode="&#x12a;" horiz-adv-x="268" 
d="M92 700h84v-700h-84v700zM-15 857h300v-73h-300v73z" />
    <glyph glyph-name="Iogonek" unicode="&#x12e;" horiz-adv-x="268" 
d="M100 -127c-1 -24 14 -40 43 -41c19 1 42 8 59 21v-64c-22 -15 -50 -22 -79 -22c-66 -1 -99 39 -99 89c0 46 23 94 68 149v695h84v-700c-59 -59 -77 -97 -76 -127z" />
    <glyph glyph-name="J" unicode="J" horiz-adv-x="513" 
d="M137 700h290v-502c0 -147 -102 -208 -230 -208c-70 0 -135 15 -180 43v84c44 -31 103 -47 165 -47c92 0 161 30 161 131v419h-206v80z" />
    <glyph glyph-name="K" unicode="K" horiz-adv-x="665" 
d="M176 0h-84v700h84v-303h159l211 303h96l-238 -341l259 -359h-96l-229 317h-162v-317z" />
    <glyph glyph-name="Kcommaaccent" unicode="&#x136;" horiz-adv-x="665" 
d="M176 0h-84v700h84v-303h159l211 303h96l-238 -341l259 -359h-96l-229 317h-162v-317zM365 -231h-70l25 190h80z" />
    <glyph glyph-name="L" unicode="L" horiz-adv-x="579" 
d="M92 700h84v-620h388v-80h-472v700z" />
    <glyph glyph-name="Lacute" unicode="&#x139;" horiz-adv-x="579" 
d="M92 700h84v-620h388v-80h-472v700zM161 770h-87l91 147h100z" />
    <glyph glyph-name="Lcaron" unicode="&#x13d;" horiz-adv-x="580" 
d="M372 700h80l-28 -184h-70zM92 700h84v-620h388v-80h-472v700z" />
    <glyph glyph-name="Lcommaaccent" unicode="&#x13b;" horiz-adv-x="579" 
d="M92 700h84v-620h388v-80h-472v700zM337 -231h-70l25 190h80z" />
    <glyph glyph-name="Ldot" unicode="&#x13f;" horiz-adv-x="584" 
d="M416 350c0 -34 -24 -51 -52 -51s-53 17 -53 51s25 51 53 51s52 -17 52 -51zM92 700h84v-620h388v-80h-472v700z" />
    <glyph glyph-name="Lslash" unicode="&#x141;" horiz-adv-x="586" 
d="M570 0h-472v270l-80 -33v70l80 33v360h84v-328l210 88v-70l-210 -88v-222h388v-80z" />
    <glyph glyph-name="M" unicode="M" horiz-adv-x="906" 
d="M742 700h72v-700h-84v541l-251 -376h-52l-251 376v-541h-84v700h72l289 -432z" />
    <glyph glyph-name="N" unicode="N" horiz-adv-x="767" 
d="M176 0h-84v700h78l421 -559v60v499h84v-700h-78l-421 560v-60v-500z" />
    <glyph glyph-name="Nacute" unicode="&#x143;" horiz-adv-x="767" 
d="M176 0h-84v700h78l421 -559v60v499h84v-700h-78l-421 560v-60v-500zM405 770h-87l91 147h100z" />
    <glyph glyph-name="Ncaron" unicode="&#x147;" horiz-adv-x="767" 
d="M176 0h-84v700h78l421 -559v60v499h84v-700h-78l-421 560v-60v-500zM555 907l-132 -146h-72l-132 146h91l77 -86l77 86h91z" />
    <glyph glyph-name="Ncommaaccent" unicode="&#x145;" horiz-adv-x="767" 
d="M176 0h-84v700h78l421 -559v60v499h84v-700h-78l-421 560v-60v-500zM402 -231h-70l25 190h80z" />
    <glyph glyph-name="Eng" unicode="&#x14a;" horiz-adv-x="767" 
d="M675 -81c0 -104 -63 -149 -143 -149c-24 0 -48 4 -72 11v77c15 -5 35 -8 53 -8c47 0 78 20 78 79v79l-415 552v-60v-500h-84v700h78l421 -559v60v499h84v-781z" />
    <glyph glyph-name="Ntilde" unicode="&#xd1;" horiz-adv-x="767" 
d="M176 0h-84v700h78l421 -559v60v499h84v-700h-78l-421 560v-60v-500zM549 869c10 -72 -34 -106 -82 -106c-61 0 -118 42 -148 42c-21 0 -32 -15 -29 -37h-70c-11 72 33 107 80 107c60 0 118 -42 149 -42c23 0 32 14 30 36h70z" />
    <glyph glyph-name="O" unicode="O" horiz-adv-x="822" 
d="M45 350c0 181 121 362 366 362s366 -181 366 -362s-121 -362 -366 -362s-366 181 -366 362zM692 350c0 144 -91 282 -281 282s-281 -138 -281 -282s91 -282 281 -282s281 138 281 282z" />
    <glyph glyph-name="Oacute" unicode="&#xd3;" horiz-adv-x="822" 
d="M45 350c0 181 121 362 366 362s366 -181 366 -362s-121 -362 -366 -362s-366 181 -366 362zM692 350c0 144 -91 282 -281 282s-281 -138 -281 -282s91 -282 281 -282s281 138 281 282zM432 770h-87l91 147h100z" />
    <glyph glyph-name="Ocircumflex" unicode="&#xd4;" horiz-adv-x="822" 
d="M45 350c0 181 121 362 366 362s366 -181 366 -362s-121 -362 -366 -362s-366 181 -366 362zM692 350c0 144 -91 282 -281 282s-281 -138 -281 -282s91 -282 281 -282s281 138 281 282zM378 917h72l132 -146h-91l-77 86l-77 -86h-91z" />
    <glyph glyph-name="Odieresis" unicode="&#xd6;" horiz-adv-x="822" 
d="M45 350c0 181 121 362 366 362s366 -181 366 -362s-121 -362 -366 -362s-366 181 -366 362zM692 350c0 144 -91 282 -281 282s-281 -138 -281 -282s91 -282 281 -282s281 138 281 282zM566 837c0 -30 -25 -55 -55 -55s-55 25 -55 55c0 29 25 55 55 55s55 -26 55 -55z
M364 837c0 -30 -25 -55 -55 -55s-55 25 -55 55c0 29 25 55 55 55s55 -26 55 -55z" />
    <glyph glyph-name="Ograve" unicode="&#xd2;" horiz-adv-x="822" 
d="M45 350c0 181 121 362 366 362s366 -181 366 -362s-121 -362 -366 -362s-366 181 -366 362zM692 350c0 144 -91 282 -281 282s-281 -138 -281 -282s91 -282 281 -282s281 138 281 282zM477 770h-87l-104 147h100z" />
    <glyph glyph-name="Ohungarumlaut" unicode="&#x150;" horiz-adv-x="822" 
d="M45 350c0 181 121 362 366 362s366 -181 366 -362s-121 -362 -366 -362s-366 181 -366 362zM692 350c0 144 -91 282 -281 282s-281 -138 -281 -282s91 -282 281 -282s281 138 281 282zM528 780h-85l69 147h90zM373 780h-85l69 147h90z" />
    <glyph glyph-name="Omacron" unicode="&#x14c;" horiz-adv-x="822" 
d="M45 350c0 181 121 362 366 362s366 -181 366 -362s-121 -362 -366 -362s-366 181 -366 362zM692 350c0 144 -91 282 -281 282s-281 -138 -281 -282s91 -282 281 -282s281 138 281 282zM261 857h300v-73h-300v73z" />
    <glyph glyph-name="Oslash" unicode="&#xd8;" horiz-adv-x="822" 
d="M740 748l-86 -118c82 -70 123 -175 123 -280c0 -181 -121 -362 -366 -362c-75 0 -139 17 -190 46l-60 -82h-80l86 119c-81 69 -122 174 -122 279c0 181 121 362 366 362c75 0 138 -17 190 -45l59 81h80zM411 632c-190 0 -281 -138 -281 -282c0 -80 28 -159 86 -212
l336 462c-38 20 -86 32 -141 32zM269 100c39 -20 86 -32 142 -32c190 0 281 138 281 282c0 80 -28 159 -87 213z" />
    <glyph glyph-name="Otilde" unicode="&#xd5;" horiz-adv-x="822" 
d="M45 350c0 181 121 362 366 362s366 -181 366 -362s-121 -362 -366 -362s-366 181 -366 362zM692 350c0 144 -91 282 -281 282s-281 -138 -281 -282s91 -282 281 -282s281 138 281 282zM576 869c10 -72 -34 -106 -82 -106c-61 0 -118 42 -148 42c-21 0 -32 -15 -29 -37
h-70c-11 72 33 107 80 107c60 0 118 -42 149 -42c23 0 32 14 30 36h70z" />
    <glyph glyph-name="OE" unicode="&#x152;" horiz-adv-x="1031" 
d="M533 0c-32 -8 -67 -12 -122 -12c-245 0 -366 181 -366 362s121 362 366 362c55 0 90 -4 122 -12h442v-80h-358v-227h328v-80h-328v-233h364v-80h-448zM132 350c0 -157 104 -282 284 -282c51 0 85 6 117 15v534c-32 9 -66 15 -117 15c-180 0 -284 -125 -284 -282z" />
    <glyph glyph-name="P" unicode="P" horiz-adv-x="661" 
d="M92 700h239c162 0 297 -51 297 -226s-135 -226 -297 -226h-155v-248h-84v700zM543 474c0 119 -93 146 -208 146h-159v-292h159c114 0 208 28 208 146z" />
    <glyph glyph-name="Thorn" unicode="&#xde;" horiz-adv-x="658" 
d="M176 576h155c162 0 297 -51 297 -226s-135 -226 -297 -226h-155v-124h-84v700h84v-124zM176 204h159c114 0 208 28 208 146c0 119 -93 146 -208 146h-159v-292z" />
    <glyph glyph-name="Q" unicode="Q" horiz-adv-x="822" 
d="M777 -8l-54 -54l-105 105c-55 -34 -124 -55 -207 -55c-245 0 -366 181 -366 362s121 362 366 362s366 -181 366 -362c0 -95 -33 -190 -100 -259zM130 350c0 -144 91 -282 281 -282c58 0 107 13 147 35l-122 122l54 53l128 -128c50 53 74 126 74 200
c0 144 -91 282 -281 282s-281 -138 -281 -282z" />
    <glyph glyph-name="R" unicode="R" horiz-adv-x="695" 
d="M176 0h-84v700h274c126 0 262 -52 262 -212c0 -129 -88 -187 -187 -205l237 -283h-105l-229 276h-168v-276zM176 620v-264h194c84 0 173 28 173 132c0 105 -89 132 -173 132h-194z" />
    <glyph glyph-name="Racute" unicode="&#x154;" horiz-adv-x="695" 
d="M176 0h-84v700h274c126 0 262 -52 262 -212c0 -129 -88 -187 -187 -205l237 -283h-105l-229 276h-168v-276zM176 620v-264h194c84 0 173 28 173 132c0 105 -89 132 -173 132h-194zM356 770h-87l91 147h100z" />
    <glyph glyph-name="Rcaron" unicode="&#x158;" horiz-adv-x="695" 
d="M176 0h-84v700h274c126 0 262 -52 262 -212c0 -129 -88 -187 -187 -205l237 -283h-105l-229 276h-168v-276zM176 620v-264h194c84 0 173 28 173 132c0 105 -89 132 -173 132h-194zM506 907l-132 -146h-72l-132 146h91l77 -86l77 86h91z" />
    <glyph glyph-name="Rcommaaccent" unicode="&#x156;" horiz-adv-x="695" 
d="M176 0h-84v700h274c126 0 262 -52 262 -212c0 -129 -88 -187 -187 -205l237 -283h-105l-229 276h-168v-276zM176 620v-264h194c84 0 173 28 173 132c0 105 -89 132 -173 132h-194zM363 -231h-70l25 190h80z" />
    <glyph glyph-name="S" unicode="S" horiz-adv-x="585" 
d="M50 527c0 125 113 185 240 185c77 0 156 -19 212 -51v-84c-56 36 -134 56 -206 55c-92 0 -161 -27 -161 -102c0 -177 417 -101 417 -352c0 -139 -125 -191 -259 -190c-91 0 -172 22 -240 60v84c74 -45 154 -64 234 -64c97 0 180 25 180 104c0 188 -417 109 -417 355z" />
    <glyph glyph-name="Sacute" unicode="&#x15a;" horiz-adv-x="585" 
d="M50 527c0 125 113 185 240 185c77 0 156 -19 212 -51v-84c-56 36 -134 56 -206 55c-92 0 -161 -27 -161 -102c0 -177 417 -101 417 -352c0 -139 -125 -191 -259 -190c-91 0 -172 22 -240 60v84c74 -45 154 -64 234 -64c97 0 180 25 180 104c0 188 -417 109 -417 355z
M303 770h-87l91 147h100z" />
    <glyph glyph-name="Scaron" unicode="&#x160;" horiz-adv-x="585" 
d="M50 527c0 125 113 185 240 185c77 0 156 -19 212 -51v-84c-56 36 -134 56 -206 55c-92 0 -161 -27 -161 -102c0 -177 417 -101 417 -352c0 -139 -125 -191 -259 -190c-91 0 -172 22 -240 60v84c74 -45 154 -64 234 -64c97 0 180 25 180 104c0 188 -417 109 -417 355z
M453 907l-132 -146h-72l-132 146h91l77 -86l77 86h91z" />
    <glyph glyph-name="Scedilla" unicode="&#x15e;" horiz-adv-x="585" 
d="M135 530c0 -177 417 -101 417 -352c0 -123 -99 -178 -215 -188l-12 -48c64 3 104 -26 105 -78c1 -65 -54 -96 -133 -96c-40 0 -70 7 -98 19v68c23 -13 54 -22 89 -22c49 0 73 13 73 34c0 30 -64 35 -115 25l21 97c-80 3 -152 25 -214 59v84c74 -45 154 -64 234 -64
c97 0 180 25 180 104c0 188 -417 109 -417 355c0 125 113 185 240 185c77 0 156 -19 212 -51v-84c-56 36 -134 56 -206 55c-92 0 -161 -27 -161 -102z" />
    <glyph glyph-name="Scommaaccent" unicode="&#x218;" horiz-adv-x="585" 
d="M50 527c0 125 113 185 240 185c77 0 156 -19 212 -51v-84c-56 36 -134 56 -206 55c-92 0 -161 -27 -161 -102c0 -177 417 -101 417 -352c0 -139 -125 -191 -259 -190c-91 0 -172 22 -240 60v84c74 -45 154 -64 234 -64c97 0 180 25 180 104c0 188 -417 109 -417 355z
M304 -231h-70l25 190h80z" />
    <glyph glyph-name="T" unicode="T" horiz-adv-x="604" 
d="M14 700h576v-80h-246v-620h-84v620h-246v80z" />
    <glyph glyph-name="Tbar" unicode="&#x166;" horiz-adv-x="614" 
d="M349 0h-84v313h-119v70h119v237h-246v80h576v-80h-246v-237h119v-70h-119v-313z" />
    <glyph glyph-name="Tcaron" unicode="&#x164;" horiz-adv-x="604" 
d="M14 700h576v-80h-246v-620h-84v620h-246v80zM476 907l-132 -146h-72l-132 146h91l77 -86l77 86h91z" />
    <glyph glyph-name="Tcommaaccent" unicode="&#x162;" horiz-adv-x="604" 
d="M14 700h576v-80h-246v-620h-84v620h-246v80zM310 -231h-70l25 190h80z" />
    <glyph glyph-name="uni021A" unicode="&#x21a;" horiz-adv-x="604" 
d="M14 700h576v-80h-246v-620h-84v620h-246v80zM310 -231h-70l25 190h80z" />
    <glyph glyph-name="U" unicode="U" horiz-adv-x="753" 
d="M585 700h84v-444c0 -200 -137 -268 -292 -268c-156 0 -293 68 -293 268v444h84v-440c0 -142 88 -192 209 -192c120 0 208 50 208 192v440z" />
    <glyph glyph-name="Uacute" unicode="&#xda;" horiz-adv-x="753" 
d="M585 700h84v-444c0 -200 -137 -268 -292 -268c-156 0 -293 68 -293 268v444h84v-440c0 -142 88 -192 209 -192c120 0 208 50 208 192v440zM394 770h-87l91 147h100z" />
    <glyph glyph-name="Ucircumflex" unicode="&#xdb;" horiz-adv-x="753" 
d="M585 700h84v-444c0 -200 -137 -268 -292 -268c-156 0 -293 68 -293 268v444h84v-440c0 -142 88 -192 209 -192c120 0 208 50 208 192v440zM340 917h72l132 -146h-91l-77 86l-77 -86h-91z" />
    <glyph glyph-name="Udieresis" unicode="&#xdc;" horiz-adv-x="753" 
d="M585 700h84v-444c0 -200 -137 -268 -292 -268c-156 0 -293 68 -293 268v444h84v-440c0 -142 88 -192 209 -192c120 0 208 50 208 192v440zM528 837c0 -30 -25 -55 -55 -55s-55 25 -55 55c0 29 25 55 55 55s55 -26 55 -55zM326 837c0 -30 -25 -55 -55 -55s-55 25 -55 55
c0 29 25 55 55 55s55 -26 55 -55z" />
    <glyph glyph-name="Ugrave" unicode="&#xd9;" horiz-adv-x="753" 
d="M585 700h84v-444c0 -200 -137 -268 -292 -268c-156 0 -293 68 -293 268v444h84v-440c0 -142 88 -192 209 -192c120 0 208 50 208 192v440zM439 770h-87l-104 147h100z" />
    <glyph glyph-name="Uhungarumlaut" unicode="&#x170;" horiz-adv-x="753" 
d="M585 700h84v-444c0 -200 -137 -268 -292 -268c-156 0 -293 68 -293 268v444h84v-440c0 -142 88 -192 209 -192c120 0 208 50 208 192v440zM490 780h-85l69 147h90zM335 780h-85l69 147h90z" />
    <glyph glyph-name="Umacron" unicode="&#x16a;" horiz-adv-x="753" 
d="M585 700h84v-444c0 -200 -137 -268 -292 -268c-156 0 -293 68 -293 268v444h84v-440c0 -142 88 -192 209 -192c120 0 208 50 208 192v440zM223 857h300v-73h-300v73z" />
    <glyph glyph-name="Uogonek" unicode="&#x172;" horiz-adv-x="753" 
d="M547 -211c-22 -15 -50 -22 -79 -22c-66 -1 -99 39 -99 89c0 43 24 94 64 135c-18 -2 -37 -3 -56 -3c-156 0 -293 68 -293 268v444h84v-440c0 -142 88 -192 209 -192c120 0 208 50 208 192v440h84v-444c0 -107 -39 -176 -99 -217c-98 -67 -126 -130 -125 -166
c-1 -24 14 -40 43 -41c19 1 42 8 59 21v-64z" />
    <glyph glyph-name="Uring" unicode="&#x16e;" horiz-adv-x="753" 
d="M585 700h84v-444c0 -200 -137 -268 -292 -268c-156 0 -293 68 -293 268v444h84v-440c0 -142 88 -192 209 -192c120 0 208 50 208 192v440zM487 855c0 -69 -55 -111 -115 -111c-61 0 -116 42 -116 111c0 67 55 109 116 109c60 0 115 -42 115 -109zM317 854
c0 -35 26 -55 55 -55s55 20 55 55c0 34 -26 55 -55 55s-55 -21 -55 -55z" />
    <glyph glyph-name="V" unicode="V" horiz-adv-x="689" 
d="M388 0h-87l-290 700h90l243 -606l244 606h90z" />
    <glyph glyph-name="W" unicode="W" horiz-adv-x="999" 
d="M898 700h92l-220 -700h-94l-177 560l-177 -560h-93l-220 700h92l175 -598l186 598h75l186 -598z" />
    <glyph glyph-name="Wacute" unicode="&#x1e82;" horiz-adv-x="1013" 
d="M905 700h92l-220 -700h-94l-177 560l-177 -560h-93l-220 700h92l175 -598l186 598h75l186 -598zM527 770h-87l91 147h100z" />
    <glyph glyph-name="Wcircumflex" unicode="&#x174;" horiz-adv-x="1013" 
d="M905 700h92l-220 -700h-94l-177 560l-177 -560h-93l-220 700h92l175 -598l186 598h75l186 -598zM473 917h72l132 -146h-91l-77 86l-77 -86h-91z" />
    <glyph glyph-name="Wdieresis" unicode="&#x1e84;" horiz-adv-x="1013" 
d="M905 700h92l-220 -700h-94l-177 560l-177 -560h-93l-220 700h92l175 -598l186 598h75l186 -598zM661 837c0 -30 -25 -55 -55 -55s-55 25 -55 55c0 29 25 55 55 55s55 -26 55 -55zM459 837c0 -30 -25 -55 -55 -55s-55 25 -55 55c0 29 25 55 55 55s55 -26 55 -55z" />
    <glyph glyph-name="Wgrave" unicode="&#x1e80;" horiz-adv-x="1013" 
d="M905 700h92l-220 -700h-94l-177 560l-177 -560h-93l-220 700h92l175 -598l186 598h75l186 -598zM572 770h-87l-104 147h100z" />
    <glyph glyph-name="X" unicode="X" horiz-adv-x="645" 
d="M102 0h-100l271 360l-256 340h100l206 -273l205 273h100l-255 -340l270 -360h-100l-220 293z" />
    <glyph glyph-name="Y" unicode="Y" horiz-adv-x="656" 
d="M370 0h-84v265l-275 435h93l224 -360l224 360h93l-275 -435v-265z" />
    <glyph glyph-name="Yacute" unicode="&#xdd;" horiz-adv-x="656" 
d="M370 0h-84v265l-275 435h93l224 -360l224 360h93l-275 -435v-265zM350 770h-87l91 147h100z" />
    <glyph glyph-name="Ycircumflex" unicode="&#x176;" horiz-adv-x="656" 
d="M370 0h-84v265l-275 435h93l224 -360l224 360h93l-275 -435v-265zM296 917h72l132 -146h-91l-77 86l-77 -86h-91z" />
    <glyph glyph-name="Ydieresis" unicode="&#x178;" horiz-adv-x="656" 
d="M370 0h-84v265l-275 435h93l224 -360l224 360h93l-275 -435v-265zM484 837c0 -30 -25 -55 -55 -55s-55 25 -55 55c0 29 25 55 55 55s55 -26 55 -55zM282 837c0 -30 -25 -55 -55 -55s-55 25 -55 55c0 29 25 55 55 55s55 -26 55 -55z" />
    <glyph glyph-name="Ygrave" unicode="&#x1ef2;" horiz-adv-x="656" 
d="M370 0h-84v265l-275 435h93l224 -360l224 360h93l-275 -435v-265zM395 770h-87l-104 147h100z" />
    <glyph glyph-name="Z" unicode="Z" horiz-adv-x="586" 
d="M554 0h-519v76l402 544h-392v80h493v-76l-403 -544h419v-80z" />
    <glyph glyph-name="Zacute" unicode="&#x179;" horiz-adv-x="586" 
d="M554 0h-519v76l402 544h-392v80h493v-76l-403 -544h419v-80zM322 770h-87l91 147h100z" />
    <glyph glyph-name="Zcaron" unicode="&#x17d;" horiz-adv-x="586" 
d="M554 0h-519v76l402 544h-392v80h493v-76l-403 -544h419v-80zM472 907l-132 -146h-72l-132 146h91l77 -86l77 86h91z" />
    <glyph glyph-name="Zdotaccent" unicode="&#x17b;" horiz-adv-x="586" 
d="M554 0h-519v76l402 544h-392v80h493v-76l-403 -544h419v-80zM237 827c0 38 28 58 60 58c33 0 60 -20 60 -58c0 -39 -27 -59 -60 -59c-32 0 -60 20 -60 59z" />
    <glyph glyph-name="a" unicode="a" horiz-adv-x="544" 
d="M464 100c0 -29 16 -37 37 -37c12 0 25 3 37 7v-65c-19 -7 -40 -11 -60 -11c-39 0 -74 16 -88 58c-48 -40 -109 -64 -187 -64c-85 0 -169 45 -169 146c0 124 114 162 217 162c42 0 93 -6 133 -15v17c0 72 -49 120 -137 120c-74 0 -133 -18 -175 -36v78
c38 13 104 32 183 32c128 0 209 -70 209 -204v-188zM116 138c0 -56 51 -81 104 -81c61 0 122 25 164 70v88c-34 7 -83 14 -122 14c-70 0 -146 -21 -146 -91z" />
    <glyph glyph-name="aacute" unicode="&#xe1;" horiz-adv-x="544" 
d="M464 100c0 -29 16 -37 37 -37c12 0 25 3 37 7v-65c-19 -7 -40 -11 -60 -11c-39 0 -74 16 -88 58c-48 -40 -109 -64 -187 -64c-85 0 -169 45 -169 146c0 124 114 162 217 162c42 0 93 -6 133 -15v17c0 72 -49 120 -137 120c-74 0 -133 -18 -175 -36v78
c38 13 104 32 183 32c128 0 209 -70 209 -204v-188zM116 138c0 -56 51 -81 104 -81c61 0 122 25 164 70v88c-34 7 -83 14 -122 14c-70 0 -146 -21 -146 -91zM266 550h-87l91 147h100z" />
    <glyph glyph-name="abreve" unicode="&#x103;" horiz-adv-x="544" 
d="M464 100c0 -29 16 -37 37 -37c12 0 25 3 37 7v-65c-19 -7 -40 -11 -60 -11c-39 0 -74 16 -88 58c-48 -40 -109 -64 -187 -64c-85 0 -169 45 -169 146c0 124 114 162 217 162c42 0 93 -6 133 -15v17c0 72 -49 120 -137 120c-74 0 -133 -18 -175 -36v78
c38 13 104 32 183 32c128 0 209 -70 209 -204v-188zM116 138c0 -56 51 -81 104 -81c61 0 122 25 164 70v88c-34 7 -83 14 -122 14c-70 0 -146 -21 -146 -91zM385 590c-45 -32 -92 -42 -140 -42s-95 10 -140 42v78c50 -33 91 -44 140 -44s90 11 140 44v-78z" />
    <glyph glyph-name="acircumflex" unicode="&#xe2;" horiz-adv-x="544" 
d="M464 100c0 -29 16 -37 37 -37c12 0 25 3 37 7v-65c-19 -7 -40 -11 -60 -11c-39 0 -74 16 -88 58c-48 -40 -109 -64 -187 -64c-85 0 -169 45 -169 146c0 124 114 162 217 162c42 0 93 -6 133 -15v17c0 72 -49 120 -137 120c-74 0 -133 -18 -175 -36v78
c38 13 104 32 183 32c128 0 209 -70 209 -204v-188zM116 138c0 -56 51 -81 104 -81c61 0 122 25 164 70v88c-34 7 -83 14 -122 14c-70 0 -146 -21 -146 -91zM212 697h72l132 -146h-91l-77 86l-77 -86h-91z" />
    <glyph glyph-name="adieresis" unicode="&#xe4;" horiz-adv-x="544" 
d="M464 100c0 -29 16 -37 37 -37c12 0 25 3 37 7v-65c-19 -7 -40 -11 -60 -11c-39 0 -74 16 -88 58c-48 -40 -109 -64 -187 -64c-85 0 -169 45 -169 146c0 124 114 162 217 162c42 0 93 -6 133 -15v17c0 72 -49 120 -137 120c-74 0 -133 -18 -175 -36v78
c38 13 104 32 183 32c128 0 209 -70 209 -204v-188zM116 138c0 -56 51 -81 104 -81c61 0 122 25 164 70v88c-34 7 -83 14 -122 14c-70 0 -146 -21 -146 -91zM400 617c0 -30 -25 -55 -55 -55s-55 25 -55 55c0 29 25 55 55 55s55 -26 55 -55zM198 617c0 -30 -25 -55 -55 -55
s-55 25 -55 55c0 29 25 55 55 55s55 -26 55 -55z" />
    <glyph glyph-name="agrave" unicode="&#xe0;" horiz-adv-x="544" 
d="M464 100c0 -29 16 -37 37 -37c12 0 25 3 37 7v-65c-19 -7 -40 -11 -60 -11c-39 0 -74 16 -88 58c-48 -40 -109 -64 -187 -64c-85 0 -169 45 -169 146c0 124 114 162 217 162c42 0 93 -6 133 -15v17c0 72 -49 120 -137 120c-74 0 -133 -18 -175 -36v78
c38 13 104 32 183 32c128 0 209 -70 209 -204v-188zM116 138c0 -56 51 -81 104 -81c61 0 122 25 164 70v88c-34 7 -83 14 -122 14c-70 0 -146 -21 -146 -91zM311 550h-87l-104 147h100z" />
    <glyph glyph-name="amacron" unicode="&#x101;" horiz-adv-x="544" 
d="M464 100c0 -29 16 -37 37 -37c12 0 25 3 37 7v-65c-19 -7 -40 -11 -60 -11c-39 0 -74 16 -88 58c-48 -40 -109 -64 -187 -64c-85 0 -169 45 -169 146c0 124 114 162 217 162c42 0 93 -6 133 -15v17c0 72 -49 120 -137 120c-74 0 -133 -18 -175 -36v78
c38 13 104 32 183 32c128 0 209 -70 209 -204v-188zM116 138c0 -56 51 -81 104 -81c61 0 122 25 164 70v88c-34 7 -83 14 -122 14c-70 0 -146 -21 -146 -91zM95 637h300v-73h-300v73z" />
    <glyph glyph-name="aogonek" unicode="&#x105;" horiz-adv-x="544" 
d="M538 70v-65c-56 -38 -91 -91 -90 -127c-1 -24 14 -40 43 -41c14 1 31 5 46 13v-64c-20 -9 -43 -14 -66 -14c-66 -1 -99 39 -99 89c0 44 25 95 74 137c-25 7 -46 24 -56 54c-48 -40 -109 -64 -187 -64c-85 0 -169 45 -169 146c0 124 114 162 217 162c42 0 93 -6 133 -15
v17c0 72 -49 120 -137 120c-74 0 -133 -18 -175 -36v78c38 13 104 32 183 32c128 0 209 -70 209 -204v-188c0 -29 16 -37 37 -37c12 0 25 3 37 7zM220 57c61 0 122 25 164 70v88c-34 7 -83 14 -122 14c-70 0 -146 -21 -146 -91c0 -56 51 -81 104 -81z" />
    <glyph glyph-name="aring" unicode="&#xe5;" horiz-adv-x="544" 
d="M464 100c0 -29 16 -37 37 -37c12 0 25 3 37 7v-65c-19 -7 -40 -11 -60 -11c-39 0 -74 16 -88 58c-48 -40 -109 -64 -187 -64c-85 0 -169 45 -169 146c0 124 114 162 217 162c42 0 93 -6 133 -15v17c0 72 -49 120 -137 120c-74 0 -133 -18 -175 -36v78
c38 13 104 32 183 32c128 0 209 -70 209 -204v-188zM116 138c0 -56 51 -81 104 -81c61 0 122 25 164 70v88c-34 7 -83 14 -122 14c-70 0 -146 -21 -146 -91zM359 635c0 -69 -55 -111 -115 -111c-61 0 -116 42 -116 111c0 67 55 109 116 109c60 0 115 -42 115 -109zM189 634
c0 -35 26 -55 55 -55s55 20 55 55c0 34 -26 55 -55 55s-55 -21 -55 -55z" />
    <glyph glyph-name="atilde" unicode="&#xe3;" horiz-adv-x="544" 
d="M464 100c0 -29 16 -37 37 -37c12 0 25 3 37 7v-65c-19 -7 -40 -11 -60 -11c-39 0 -74 16 -88 58c-48 -40 -109 -64 -187 -64c-85 0 -169 45 -169 146c0 124 114 162 217 162c42 0 93 -6 133 -15v17c0 72 -49 120 -137 120c-74 0 -133 -18 -175 -36v78
c38 13 104 32 183 32c128 0 209 -70 209 -204v-188zM116 138c0 -56 51 -81 104 -81c61 0 122 25 164 70v88c-34 7 -83 14 -122 14c-70 0 -146 -21 -146 -91zM410 649c10 -72 -34 -106 -82 -106c-61 0 -118 42 -148 42c-21 0 -32 -15 -29 -37h-70c-11 72 33 107 80 107
c60 0 118 -42 149 -42c23 0 32 14 30 36h70z" />
    <glyph glyph-name="ae" unicode="&#xe6;" horiz-adv-x="911" 
d="M459 75c-73 -66 -164 -87 -246 -87c-95 0 -179 45 -179 146c0 124 114 162 227 162c52 0 103 -6 143 -15v17c0 77 -49 120 -157 120c-74 0 -133 -18 -175 -36v78c38 13 104 32 183 32c105 0 171 -33 201 -101c44 67 119 101 192 101c185 0 248 -150 218 -292h-382
c10 -96 101 -138 198 -138c55 0 113 16 154 39v-74c-44 -25 -109 -39 -171 -39c-79 0 -156 29 -206 87zM116 138c0 -56 51 -81 114 -81c65 0 138 17 197 69c-12 26 -19 55 -22 89c-38 7 -85 14 -133 14c-80 0 -156 -21 -156 -91zM648 418c-84 0 -158 -49 -164 -148h311
c7 56 -25 148 -147 148z" />
    <glyph glyph-name="b" unicode="b" horiz-adv-x="621" 
d="M74 700h80v-292c35 41 94 84 186 84c137 0 240 -108 240 -252s-103 -252 -240 -252c-92 0 -151 43 -194 92v-80h-72v700zM500 240c0 110 -76 178 -169 178c-86 0 -150 -56 -177 -118v-120c27 -62 91 -118 177 -118c93 0 169 68 169 178z" />
    <glyph glyph-name="c" unicode="c" horiz-adv-x="493" 
d="M41 238c0 175 135 254 260 254c54 0 107 -12 148 -39v-78c-36 28 -87 43 -138 43c-93 0 -190 -52 -190 -178c0 -123 94 -178 188 -178c52 0 105 15 145 39v-80c-45 -22 -96 -33 -156 -33c-126 0 -257 79 -257 250z" />
    <glyph glyph-name="cacute" unicode="&#x107;" horiz-adv-x="493" 
d="M41 238c0 175 135 254 260 254c54 0 107 -12 148 -39v-78c-36 28 -87 43 -138 43c-93 0 -190 -52 -190 -178c0 -123 94 -178 188 -178c52 0 105 15 145 39v-80c-45 -22 -96 -33 -156 -33c-126 0 -257 79 -257 250zM327 550h-87l91 147h100z" />
    <glyph glyph-name="ccaron" unicode="&#x10d;" horiz-adv-x="493" 
d="M41 238c0 175 135 254 260 254c54 0 107 -12 148 -39v-78c-36 28 -87 43 -138 43c-93 0 -190 -52 -190 -178c0 -123 94 -178 188 -178c52 0 105 15 145 39v-80c-45 -22 -96 -33 -156 -33c-126 0 -257 79 -257 250zM477 687l-132 -146h-72l-132 146h91l77 -86l77 86h91z
" />
    <glyph glyph-name="ccedilla" unicode="&#xe7;" horiz-adv-x="493" 
d="M454 101v-80c-38 -18 -80 -29 -128 -32l-12 -47c64 3 104 -26 105 -78c1 -65 -54 -96 -133 -96c-40 0 -70 7 -98 19v68c23 -13 54 -22 89 -22c49 0 73 13 73 34c0 30 -64 35 -115 25l22 99c-112 15 -216 95 -216 247c0 175 135 254 260 254c54 0 107 -12 148 -39v-78
c-36 28 -87 43 -138 43c-93 0 -190 -52 -190 -178c0 -123 94 -178 188 -178c52 0 105 15 145 39z" />
    <glyph glyph-name="cdotaccent" unicode="&#x10b;" horiz-adv-x="493" 
d="M41 238c0 175 135 254 260 254c54 0 107 -12 148 -39v-78c-36 28 -87 43 -138 43c-93 0 -190 -52 -190 -178c0 -123 94 -178 188 -178c52 0 105 15 145 39v-80c-45 -22 -96 -33 -156 -33c-126 0 -257 79 -257 250zM242 607c0 38 28 58 60 58c33 0 60 -20 60 -58
c0 -39 -27 -59 -60 -59c-32 0 -60 20 -60 59z" />
    <glyph glyph-name="d" unicode="d" horiz-adv-x="621" 
d="M467 700h80v-700h-72v80c-43 -49 -102 -92 -194 -92c-137 0 -240 108 -240 252s103 252 240 252c92 0 151 -43 186 -84v292zM467 300c-27 62 -91 118 -177 118c-93 0 -169 -68 -169 -178s76 -178 169 -178c86 0 150 56 177 118v120z" />
    <glyph glyph-name="eth" unicode="&#xf0;" horiz-adv-x="592" 
d="M541 271c0 -188 -105 -283 -251 -283c-141 0 -249 92 -249 233c0 130 105 223 227 223c92 0 171 -43 202 -105c-1 7 -2 14 -4 22c-22 115 -86 188 -170 226l-92 -92l-46 46l70 70c-40 9 -83 13 -127 13v76c56 0 122 -9 185 -31l86 86l46 -46l-69 -69
c106 -60 192 -172 192 -369zM121 221c0 -94 66 -157 169 -157c101 0 152 58 165 141c-2 96 -74 165 -174 165c-95 0 -160 -61 -160 -149z" />
    <glyph glyph-name="dcaron" unicode="&#x10f;" horiz-adv-x="620" 
d="M622 700h80l-28 -184h-70zM467 700h80v-700h-72v80c-43 -49 -102 -92 -194 -92c-137 0 -240 108 -240 252s103 252 240 252c92 0 151 -43 186 -84v292zM467 300c-27 62 -91 118 -177 118c-93 0 -169 -68 -169 -178s76 -178 169 -178c86 0 150 56 177 118v120z" />
    <glyph glyph-name="dcroat" unicode="&#x111;" horiz-adv-x="620" 
d="M547 632h66v-60h-66v-572h-72v80c-43 -49 -102 -92 -194 -92c-137 0 -240 108 -240 252s103 252 240 252c92 0 151 -43 186 -84v164h-172v60h172v68h80v-68zM290 62c86 0 150 56 177 118v120c-27 62 -91 118 -177 118c-93 0 -169 -68 -169 -178s76 -178 169 -178z" />
    <glyph glyph-name="e" unicode="e" horiz-adv-x="548" 
d="M41 240c0 168 125 252 239 252c185 0 253 -151 223 -287h-382c10 -101 101 -143 198 -143c59 0 117 16 158 39v-78c-44 -23 -107 -35 -170 -35c-142 0 -266 81 -266 252zM432 275c7 51 -25 143 -147 143c-82 0 -158 -49 -164 -143h311z" />
    <glyph glyph-name="eacute" unicode="&#xe9;" horiz-adv-x="548" 
d="M41 240c0 168 125 252 239 252c185 0 253 -151 223 -287h-382c10 -101 101 -143 198 -143c59 0 117 16 158 39v-78c-44 -23 -107 -35 -170 -35c-142 0 -266 81 -266 252zM432 275c7 51 -25 143 -147 143c-82 0 -158 -49 -164 -143h311zM302 550h-87l91 147h100z" />
    <glyph glyph-name="ecaron" unicode="&#x11b;" horiz-adv-x="548" 
d="M41 240c0 168 125 252 239 252c185 0 253 -151 223 -287h-382c10 -101 101 -143 198 -143c59 0 117 16 158 39v-78c-44 -23 -107 -35 -170 -35c-142 0 -266 81 -266 252zM432 275c7 51 -25 143 -147 143c-82 0 -158 -49 -164 -143h311zM452 687l-132 -146h-72l-132 146
h91l77 -86l77 86h91z" />
    <glyph glyph-name="ecircumflex" unicode="&#xea;" horiz-adv-x="548" 
d="M41 240c0 168 125 252 239 252c185 0 253 -151 223 -287h-382c10 -101 101 -143 198 -143c59 0 117 16 158 39v-78c-44 -23 -107 -35 -170 -35c-142 0 -266 81 -266 252zM432 275c7 51 -25 143 -147 143c-82 0 -158 -49 -164 -143h311zM248 697h72l132 -146h-91l-77 86
l-77 -86h-91z" />
    <glyph glyph-name="edieresis" unicode="&#xeb;" horiz-adv-x="548" 
d="M41 240c0 168 125 252 239 252c185 0 253 -151 223 -287h-382c10 -101 101 -143 198 -143c59 0 117 16 158 39v-78c-44 -23 -107 -35 -170 -35c-142 0 -266 81 -266 252zM432 275c7 51 -25 143 -147 143c-82 0 -158 -49 -164 -143h311zM436 617c0 -30 -25 -55 -55 -55
s-55 25 -55 55c0 29 25 55 55 55s55 -26 55 -55zM234 617c0 -30 -25 -55 -55 -55s-55 25 -55 55c0 29 25 55 55 55s55 -26 55 -55z" />
    <glyph glyph-name="edotaccent" unicode="&#x117;" horiz-adv-x="548" 
d="M41 240c0 168 125 252 239 252c185 0 253 -151 223 -287h-382c10 -101 101 -143 198 -143c59 0 117 16 158 39v-78c-44 -23 -107 -35 -170 -35c-142 0 -266 81 -266 252zM432 275c7 51 -25 143 -147 143c-82 0 -158 -49 -164 -143h311zM217 607c0 38 28 58 60 58
c33 0 60 -20 60 -58c0 -39 -27 -59 -60 -59c-32 0 -60 20 -60 59z" />
    <glyph glyph-name="egrave" unicode="&#xe8;" horiz-adv-x="548" 
d="M41 240c0 168 125 252 239 252c185 0 253 -151 223 -287h-382c10 -101 101 -143 198 -143c59 0 117 16 158 39v-78c-44 -23 -107 -35 -170 -35c-142 0 -266 81 -266 252zM432 275c7 51 -25 143 -147 143c-82 0 -158 -49 -164 -143h311zM347 550h-87l-104 147h100z" />
    <glyph glyph-name="emacron" unicode="&#x113;" horiz-adv-x="548" 
d="M41 240c0 168 125 252 239 252c185 0 253 -151 223 -287h-382c10 -101 101 -143 198 -143c59 0 117 16 158 39v-78c-44 -23 -107 -35 -170 -35c-142 0 -266 81 -266 252zM432 275c7 51 -25 143 -147 143c-82 0 -158 -49 -164 -143h311zM131 637h300v-73h-300v73z" />
    <glyph glyph-name="eogonek" unicode="&#x119;" horiz-adv-x="548" 
d="M465 -210c-22 -15 -50 -22 -79 -22c-66 -1 -99 39 -99 89c0 44 26 92 77 134c-19 -2 -38 -3 -57 -3c-142 0 -266 81 -266 252c0 168 125 252 239 252c185 0 253 -150 223 -287h-382c10 -101 101 -143 198 -143c59 0 117 16 158 39v-78c-80 -61 -115 -113 -114 -149
c-1 -24 14 -40 43 -41c19 1 42 8 59 21v-64zM285 418c-82 0 -158 -49 -164 -143h311c7 51 -25 143 -147 143z" />
    <glyph glyph-name="f" unicode="f" horiz-adv-x="381" 
d="M191 0h-80v406h-90v74h90v58c0 134 86 174 170 174c44 0 87 -9 120 -22v-74c-27 13 -65 22 -101 22c-58 0 -109 -15 -109 -103v-55h180v-74h-180v-406z" />
    <glyph glyph-name="g" unicode="g" horiz-adv-x="621" 
d="M41 240c0 144 103 252 240 252c92 0 151 -43 194 -92v80h72v-480c0 -165 -129 -232 -262 -232c-71 0 -138 16 -195 45v78c57 -32 119 -49 185 -49c102 0 193 39 192 158v74c-35 -43 -94 -86 -186 -86c-137 0 -240 108 -240 252zM467 300c-27 62 -91 118 -177 118
c-93 0 -169 -68 -169 -178s76 -178 169 -178c86 0 150 52 177 108v130z" />
    <glyph glyph-name="gbreve" unicode="&#x11f;" horiz-adv-x="621" 
d="M41 240c0 144 103 252 240 252c92 0 151 -43 194 -92v80h72v-480c0 -165 -129 -232 -262 -232c-71 0 -138 16 -195 45v78c57 -32 119 -49 185 -49c102 0 193 39 192 158v74c-35 -43 -94 -86 -186 -86c-137 0 -240 108 -240 252zM467 300c-27 62 -91 118 -177 118
c-93 0 -169 -68 -169 -178s76 -178 169 -178c86 0 150 52 177 108v130zM429 590c-45 -32 -92 -42 -140 -42s-95 10 -140 42v78c50 -33 91 -44 140 -44s90 11 140 44v-78z" />
    <glyph glyph-name="gcommaaccent" unicode="&#x123;" horiz-adv-x="621" 
d="M329 546h-80l33 164h70zM41 240c0 144 103 252 240 252c92 0 151 -43 194 -92v80h72v-480c0 -165 -129 -232 -262 -232c-71 0 -138 16 -195 45v78c57 -32 119 -49 185 -49c102 0 193 39 192 158v74c-35 -43 -94 -86 -186 -86c-137 0 -240 108 -240 252zM467 300
c-27 62 -91 118 -177 118c-93 0 -169 -68 -169 -178s76 -178 169 -178c86 0 150 52 177 108v130z" />
    <glyph glyph-name="gdotaccent" unicode="&#x121;" horiz-adv-x="621" 
d="M41 240c0 144 103 252 240 252c92 0 151 -43 194 -92v80h72v-480c0 -165 -129 -232 -262 -232c-71 0 -138 16 -195 45v78c57 -32 119 -49 185 -49c102 0 193 39 192 158v74c-35 -43 -94 -86 -186 -86c-137 0 -240 108 -240 252zM467 300c-27 62 -91 118 -177 118
c-93 0 -169 -68 -169 -178s76 -178 169 -178c86 0 150 52 177 108v130zM225 607c0 38 28 58 60 58c33 0 60 -20 60 -58c0 -39 -27 -59 -60 -59c-32 0 -60 20 -60 59z" />
    <glyph glyph-name="h" unicode="h" 
d="M74 700h80v-281c34 38 94 73 165 73c115 0 200 -79 200 -196v-296h-80v286c0 90 -55 132 -129 132c-71 0 -124 -48 -156 -96v-322h-80v700z" />
    <glyph glyph-name="hbar" unicode="&#x127;" horiz-adv-x="586" 
d="M153 419c34 38 94 73 165 73c115 0 200 -79 200 -196v-296h-80v286c0 90 -55 132 -129 132c-71 0 -124 -48 -156 -96v-322h-80v561h-59v60h59v79h80v-79h178v-60h-178v-142z" />
    <glyph glyph-name="i" unicode="i" horiz-adv-x="232" 
d="M156 0h-80v480h80v-480zM168 633c0 -34 -24 -51 -52 -51s-52 17 -52 51c0 33 24 51 52 51s52 -18 52 -51z" />
    <glyph glyph-name="dotlessi" unicode="&#x131;" horiz-adv-x="232" 
d="M76 480h80v-480h-80v480z" />
    <glyph glyph-name="iacute" unicode="&#xed;" horiz-adv-x="232" 
d="M76 480h80v-480h-80v480zM137 550h-87l91 147h100z" />
    <glyph glyph-name="icircumflex" unicode="&#xee;" horiz-adv-x="232" 
d="M83 687h72l107 -136h-86l-57 76l-57 -76h-86zM76 480h80v-480h-80v480z" />
    <glyph glyph-name="idieresis" unicode="&#xef;" horiz-adv-x="232" 
d="M247 617c0 -27 -23 -50 -50 -50s-50 23 -50 50c0 26 23 50 50 50s50 -24 50 -50zM85 617c0 -27 -23 -50 -50 -50s-50 23 -50 50c0 26 23 50 50 50s50 -24 50 -50zM76 480h80v-480h-80v480z" />
    <glyph glyph-name="i.loclTRK" horiz-adv-x="232" 
d="M76 480h80v-480h-80v480zM52 607c0 38 28 58 60 58c33 0 60 -20 60 -58c0 -39 -27 -59 -60 -59c-32 0 -60 20 -60 59z" />
    <glyph glyph-name="igrave" unicode="&#xec;" horiz-adv-x="232" 
d="M156 0h-80v480h80v-480zM182 550h-77l-84 147h90z" />
    <glyph glyph-name="ij" unicode="&#x133;" horiz-adv-x="464" 
d="M156 0h-80v480h80v-480zM168 633c0 -34 -24 -51 -52 -51s-52 17 -52 51c0 33 24 51 52 51s52 -18 52 -51zM388 -89c0 -113 -73 -143 -138 -143c-29 0 -54 5 -74 13v74c16 -8 34 -11 52 -11c42 0 80 16 80 79v557h80v-569zM400 633c0 -34 -24 -51 -52 -51s-53 17 -53 51
c0 33 25 51 53 51s52 -18 52 -51z" />
    <glyph glyph-name="imacron" unicode="&#x12b;" horiz-adv-x="232" 
d="M6 649h220v-75h-220v75zM76 480h80v-480h-80v480z" />
    <glyph glyph-name="iogonek" unicode="&#x12f;" horiz-adv-x="233" 
d="M170 633c0 -34 -24 -51 -52 -51s-53 17 -53 51c0 33 25 51 53 51s52 -18 52 -51zM88 -127c-1 -24 14 -40 43 -41c19 1 42 8 59 21v-64c-22 -15 -50 -22 -79 -22c-66 -1 -99 39 -99 89c0 46 28 104 65 150v474h80v-480c-35 -38 -70 -91 -69 -127z" />
    <glyph glyph-name="j" unicode="j" horiz-adv-x="232" 
d="M156 -89c0 -113 -73 -143 -138 -143c-29 0 -54 5 -74 13v74c16 -8 34 -11 52 -11c42 0 80 16 80 79v557h80v-569zM168 633c0 -34 -24 -51 -52 -51s-53 17 -53 51c0 33 25 51 53 51s52 -18 52 -51z" />
    <glyph glyph-name="k" unicode="k" horiz-adv-x="521" 
d="M518 0h-94l-176 206h-94v-206h-80v700h80v-420h97l152 200h93l-182 -239z" />
    <glyph glyph-name="kcommaaccent" unicode="&#x137;" horiz-adv-x="521" 
d="M518 0h-94l-176 206h-94v-206h-80v700h80v-420h97l152 200h93l-182 -239zM283 -231h-70l25 190h80z" />
    <glyph glyph-name="l" unicode="l" horiz-adv-x="232" 
d="M76 730h80v-730h-80v730z" />
    <glyph glyph-name="lacute" unicode="&#x13a;" horiz-adv-x="232" 
d="M76 730h80v-730h-80v730zM154 770h-87l91 147h100z" />
    <glyph glyph-name="lcaron" unicode="&#x13e;" horiz-adv-x="232" 
d="M232 730h80l-28 -184h-70zM76 730h80v-730h-80v730z" />
    <glyph glyph-name="lcommaaccent" unicode="&#x13c;" horiz-adv-x="232" 
d="M76 730h80v-730h-80v730zM125 -231h-70l25 190h80z" />
    <glyph glyph-name="ldot" unicode="&#x140;" horiz-adv-x="291" 
d="M76 730h80v-730h-80v730zM314 350c0 -34 -24 -51 -52 -51s-53 17 -53 51s25 51 53 51s52 -17 52 -51z" />
    <glyph glyph-name="lslash" unicode="&#x142;" horiz-adv-x="295" 
d="M108 730h80v-305l84 35v-70l-84 -36v-354h-80v323l-84 -35v70l84 36v336z" />
    <glyph glyph-name="m" unicode="m" horiz-adv-x="890" 
d="M154 0h-80v480h72v-64c26 28 83 76 164 76c72 0 125 -31 154 -81c43 44 102 81 175 81c119 0 183 -84 183 -196v-296h-80v298c0 73 -42 120 -112 120c-65 0 -113 -45 -140 -79c2 -14 3 -28 3 -43v-296h-80v298c0 73 -42 120 -112 120c-71 0 -121 -53 -147 -87v-331z" />
    <glyph glyph-name="n" unicode="n" 
d="M146 409c32 42 96 83 173 83c115 0 200 -79 200 -196v-296h-80v286c0 90 -55 132 -129 132c-71 0 -124 -48 -156 -96v-322h-80v480h72v-71z" />
    <glyph glyph-name="nacute" unicode="&#x144;" 
d="M146 409c32 42 96 83 173 83c115 0 200 -79 200 -196v-296h-80v286c0 90 -55 132 -129 132c-71 0 -124 -48 -156 -96v-322h-80v480h72v-71zM319 550h-87l91 147h100z" />
    <glyph glyph-name="ncaron" unicode="&#x148;" 
d="M146 409c32 42 96 83 173 83c115 0 200 -79 200 -196v-296h-80v286c0 90 -55 132 -129 132c-71 0 -124 -48 -156 -96v-322h-80v480h72v-71zM469 687l-132 -146h-72l-132 146h91l77 -86l77 86h91z" />
    <glyph glyph-name="ncommaaccent" unicode="&#x146;" 
d="M146 409c32 42 96 83 173 83c115 0 200 -79 200 -196v-296h-80v286c0 90 -55 132 -129 132c-71 0 -124 -48 -156 -96v-322h-80v480h72v-71zM308 -231h-70l25 190h80z" />
    <glyph glyph-name="eng" unicode="&#x14b;" 
d="M519 -89c0 -113 -73 -143 -138 -143c-29 0 -54 5 -74 13v74c16 -8 34 -13 52 -13c42 0 80 18 80 81v363c0 90 -55 132 -129 132c-71 0 -124 -48 -156 -96v-322h-80v480h72v-71c32 42 96 83 173 83c115 0 200 -79 200 -196v-385z" />
    <glyph glyph-name="ntilde" unicode="&#xf1;" 
d="M146 409c32 42 96 83 173 83c115 0 200 -79 200 -196v-296h-80v286c0 90 -55 132 -129 132c-71 0 -124 -48 -156 -96v-322h-80v480h72v-71zM463 649c10 -72 -34 -106 -82 -106c-61 0 -118 42 -148 42c-21 0 -32 -15 -29 -37h-70c-11 72 33 107 80 107
c60 0 118 -42 149 -42c23 0 32 14 30 36h70z" />
    <glyph glyph-name="o" unicode="o" horiz-adv-x="594" 
d="M41 240c0 164 126 252 256 252c131 0 256 -88 256 -252s-125 -252 -256 -252c-130 0 -256 88 -256 252zM473 240c0 111 -78 176 -176 176s-176 -65 -176 -176s78 -176 176 -176s176 65 176 176z" />
    <glyph glyph-name="oacute" unicode="&#xf3;" horiz-adv-x="594" 
d="M41 240c0 164 126 252 256 252c131 0 256 -88 256 -252s-125 -252 -256 -252c-130 0 -256 88 -256 252zM473 240c0 111 -78 176 -176 176s-176 -65 -176 -176s78 -176 176 -176s176 65 176 176zM317 550h-87l91 147h100z" />
    <glyph glyph-name="ocircumflex" unicode="&#xf4;" horiz-adv-x="594" 
d="M41 240c0 164 126 252 256 252c131 0 256 -88 256 -252s-125 -252 -256 -252c-130 0 -256 88 -256 252zM473 240c0 111 -78 176 -176 176s-176 -65 -176 -176s78 -176 176 -176s176 65 176 176zM263 697h72l132 -146h-91l-77 86l-77 -86h-91z" />
    <glyph glyph-name="odieresis" unicode="&#xf6;" horiz-adv-x="594" 
d="M41 240c0 164 126 252 256 252c131 0 256 -88 256 -252s-125 -252 -256 -252c-130 0 -256 88 -256 252zM473 240c0 111 -78 176 -176 176s-176 -65 -176 -176s78 -176 176 -176s176 65 176 176zM451 617c0 -30 -25 -55 -55 -55s-55 25 -55 55c0 29 25 55 55 55
s55 -26 55 -55zM249 617c0 -30 -25 -55 -55 -55s-55 25 -55 55c0 29 25 55 55 55s55 -26 55 -55z" />
    <glyph glyph-name="ograve" unicode="&#xf2;" horiz-adv-x="594" 
d="M41 240c0 164 126 252 256 252c131 0 256 -88 256 -252s-125 -252 -256 -252c-130 0 -256 88 -256 252zM473 240c0 111 -78 176 -176 176s-176 -65 -176 -176s78 -176 176 -176s176 65 176 176zM362 550h-87l-104 147h100z" />
    <glyph glyph-name="ohungarumlaut" unicode="&#x151;" horiz-adv-x="594" 
d="M41 240c0 164 126 252 256 252c131 0 256 -88 256 -252s-125 -252 -256 -252c-130 0 -256 88 -256 252zM473 240c0 111 -78 176 -176 176s-176 -65 -176 -176s78 -176 176 -176s176 65 176 176zM413 560h-85l69 147h90zM258 560h-85l69 147h90z" />
    <glyph glyph-name="omacron" unicode="&#x14d;" horiz-adv-x="594" 
d="M41 240c0 164 126 252 256 252c131 0 256 -88 256 -252s-125 -252 -256 -252c-130 0 -256 88 -256 252zM473 240c0 111 -78 176 -176 176s-176 -65 -176 -176s78 -176 176 -176s176 65 176 176zM146 637h300v-73h-300v73z" />
    <glyph glyph-name="oslash" unicode="&#xf8;" horiz-adv-x="594" 
d="M533 543l-71 -106c55 -42 91 -108 91 -197c0 -164 -125 -252 -256 -252c-41 0 -81 9 -117 25l-49 -73h-70l69 104c-53 42 -89 108 -89 196c0 164 126 252 256 252c40 0 80 -8 116 -25l50 76h70zM297 416c-98 0 -176 -65 -176 -176c0 -56 20 -101 53 -131l195 294
c-22 8 -46 13 -72 13zM223 78c22 -9 47 -14 74 -14c98 0 176 65 176 176c0 57 -21 102 -54 132z" />
    <glyph glyph-name="otilde" unicode="&#xf5;" horiz-adv-x="594" 
d="M41 240c0 164 126 252 256 252c131 0 256 -88 256 -252s-125 -252 -256 -252c-130 0 -256 88 -256 252zM473 240c0 111 -78 176 -176 176s-176 -65 -176 -176s78 -176 176 -176s176 65 176 176zM461 649c10 -72 -34 -106 -82 -106c-61 0 -118 42 -148 42
c-21 0 -32 -15 -29 -37h-70c-11 72 33 107 80 107c60 0 118 -42 149 -42c23 0 32 14 30 36h70z" />
    <glyph glyph-name="oe" unicode="&#x153;" horiz-adv-x="979" 
d="M512 103c-45 -76 -127 -115 -215 -115c-130 0 -256 88 -256 252s126 252 256 252c87 0 170 -39 215 -114c43 76 122 114 200 114c185 0 253 -151 223 -292h-382c10 -96 101 -138 198 -138c55 0 113 16 154 39v-74c-44 -25 -109 -39 -171 -39c-90 0 -176 37 -222 115z
M121 240c0 -111 78 -176 176 -176s176 65 176 176s-78 176 -176 176s-176 -65 -176 -176zM717 418c-84 0 -158 -49 -164 -148h311c7 56 -25 148 -147 148z" />
    <glyph glyph-name="p" unicode="p" horiz-adv-x="621" 
d="M146 400c43 49 102 92 194 92c137 0 240 -108 240 -252s-103 -252 -240 -252c-92 0 -151 43 -186 84v-292h-80v700h72v-80zM500 240c0 110 -76 178 -169 178c-86 0 -150 -56 -177 -118v-120c27 -62 91 -118 177 -118c93 0 169 68 169 178z" />
    <glyph glyph-name="thorn" unicode="&#xfe;" horiz-adv-x="621" 
d="M74 700h80v-292c35 41 94 84 186 84c137 0 240 -108 240 -252s-103 -252 -240 -252c-92 0 -151 43 -186 84v-292h-80v920zM500 240c0 110 -76 178 -169 178c-86 0 -150 -56 -177 -118v-120c27 -62 91 -118 177 -118c93 0 169 68 169 178z" />
    <glyph glyph-name="q" unicode="q" horiz-adv-x="621" 
d="M41 240c0 144 103 252 240 252c92 0 151 -43 194 -92v80h72v-700h-80v292c-35 -41 -94 -84 -186 -84c-137 0 -240 108 -240 252zM467 300c-27 62 -91 118 -177 118c-93 0 -169 -68 -169 -178s76 -178 169 -178c86 0 150 56 177 118v120z" />
    <glyph glyph-name="r" unicode="r" horiz-adv-x="366" 
d="M146 395c38 63 123 102 207 95v-80c-94 11 -170 -34 -199 -111v-299h-80v480h72v-85z" />
    <glyph glyph-name="racute" unicode="&#x155;" horiz-adv-x="366" 
d="M146 395c38 63 123 102 207 95v-80c-94 11 -170 -34 -199 -111v-299h-80v480h72v-85zM229 550h-87l91 147h100z" />
    <glyph glyph-name="rcaron" unicode="&#x159;" horiz-adv-x="365" 
d="M145 395c38 63 123 102 207 95v-80c-94 11 -170 -34 -199 -111v-299h-80v480h72v-85zM378 687l-132 -146h-72l-132 146h91l77 -86l77 86h91z" />
    <glyph glyph-name="rcommaaccent" unicode="&#x157;" horiz-adv-x="366" 
d="M146 395c38 63 123 102 207 95v-80c-94 11 -170 -34 -199 -111v-299h-80v480h72v-85zM118 -231h-70l25 190h80z" />
    <glyph glyph-name="s" unicode="s" horiz-adv-x="466" 
d="M46 354c0 99 93 138 183 138c64 0 125 -17 170 -41v-76c-40 26 -107 45 -165 45c-52 0 -107 -17 -107 -64c0 -104 305 -60 305 -233c0 -100 -94 -135 -198 -135c-68 0 -141 18 -186 47v78c49 -33 122 -51 182 -51c68 0 122 11 122 59c0 101 -306 61 -306 233z" />
    <glyph glyph-name="sacute" unicode="&#x15b;" horiz-adv-x="466" 
d="M46 354c0 99 93 138 183 138c64 0 125 -17 170 -41v-76c-40 26 -107 45 -165 45c-52 0 -107 -17 -107 -64c0 -104 305 -60 305 -233c0 -100 -94 -135 -198 -135c-68 0 -141 18 -186 47v78c49 -33 122 -51 182 -51c68 0 122 11 122 59c0 101 -306 61 -306 233zM246 550
h-87l91 147h100z" />
    <glyph glyph-name="scaron" unicode="&#x161;" horiz-adv-x="466" 
d="M46 354c0 99 93 138 183 138c64 0 125 -17 170 -41v-76c-40 26 -107 45 -165 45c-52 0 -107 -17 -107 -64c0 -104 305 -60 305 -233c0 -100 -94 -135 -198 -135c-68 0 -141 18 -186 47v78c49 -33 122 -51 182 -51c68 0 122 11 122 59c0 101 -306 61 -306 233zM396 687
l-132 -146h-72l-132 146h91l77 -86l77 86h91z" />
    <glyph glyph-name="scedilla" unicode="&#x15f;" horiz-adv-x="466" 
d="M127 356c0 -104 305 -60 305 -233c0 -86 -69 -124 -155 -133l-12 -48c64 3 104 -26 105 -78c1 -65 -54 -96 -133 -96c-40 0 -70 7 -98 19v68c23 -13 54 -22 89 -22c49 0 73 13 73 34c0 30 -64 35 -115 25l22 97c-60 4 -121 21 -160 46v78c49 -33 122 -51 182 -51
c68 0 122 11 122 59c0 101 -306 61 -306 233c0 99 93 138 183 138c64 0 125 -17 170 -41v-76c-40 26 -107 45 -165 45c-52 0 -107 -17 -107 -64z" />
    <glyph glyph-name="scommaaccent" unicode="&#x219;" horiz-adv-x="466" 
d="M46 354c0 99 93 138 183 138c64 0 125 -17 170 -41v-76c-40 26 -107 45 -165 45c-52 0 -107 -17 -107 -64c0 -104 305 -60 305 -233c0 -100 -94 -135 -198 -135c-68 0 -141 18 -186 47v78c49 -33 122 -51 182 -51c68 0 122 11 122 59c0 101 -306 61 -306 233zM244 -231
h-70l25 190h80z" />
    <glyph glyph-name="germandbls" unicode="&#xdf;" horiz-adv-x="594" 
d="M560 147c0 -111 -102 -159 -200 -159c-41 0 -88 9 -125 24v70c37 -16 77 -24 110 -24c69 0 135 24 135 95c0 92 -151 148 -151 220c0 69 72 102 72 183c0 49 -40 86 -112 86c-79 0 -135 -46 -135 -131v-511h-80v497c0 137 84 214 215 215c135 1 192 -80 192 -147
c0 -88 -72 -127 -72 -178c0 -66 151 -115 151 -240z" />
    <glyph glyph-name="t" unicode="t" horiz-adv-x="410" 
d="M106 629l79 20v-169h192v-74h-192v-248c0 -73 33 -95 103 -95c38 0 74 9 106 22v-74c-36 -13 -83 -22 -129 -22c-93 0 -159 50 -159 155v262h-90v74h90v149z" />
    <glyph glyph-name="tbar" unicode="&#x167;" horiz-adv-x="411" 
d="M186 158c0 -73 33 -95 103 -95c38 0 74 9 106 22v-74c-36 -13 -83 -22 -129 -22c-93 0 -159 50 -159 155v84h-46v70h46v108h-90v74h90v149l79 20v-169h192v-74h-192v-108h157v-70h-157v-70z" />
    <glyph glyph-name="tcaron" unicode="&#x165;" horiz-adv-x="410" 
d="M277 730h80l-28 -174h-70zM106 629l79 20v-169h192v-74h-192v-248c0 -73 33 -95 103 -95c38 0 74 9 106 22v-74c-36 -13 -83 -22 -129 -22c-93 0 -159 50 -159 155v262h-90v74h90v149z" />
    <glyph glyph-name="tcommaaccent" unicode="&#x163;" horiz-adv-x="410" 
d="M106 629l79 20v-169h192v-74h-192v-248c0 -73 33 -95 103 -95c38 0 74 9 106 22v-74c-36 -13 -83 -22 -129 -22c-93 0 -159 50 -159 155v262h-90v74h90v149zM256 -231h-70l25 190h80z" />
    <glyph glyph-name="uni021B" unicode="&#x21b;" horiz-adv-x="410" 
d="M106 629l79 20v-169h192v-74h-192v-248c0 -73 33 -95 103 -95c38 0 74 9 106 22v-74c-36 -13 -83 -22 -129 -22c-93 0 -159 50 -159 155v262h-90v74h90v149zM256 -231h-70l25 190h80z" />
    <glyph glyph-name="u" unicode="u" 
d="M433 480h80v-480h-72v71c-32 -42 -96 -83 -173 -83c-125 0 -200 79 -200 196v296h80v-286c0 -90 45 -132 129 -132c71 0 124 48 156 96v322z" />
    <glyph glyph-name="uacute" unicode="&#xfa;" 
d="M433 480h80v-480h-72v71c-32 -42 -96 -83 -173 -83c-125 0 -200 79 -200 196v296h80v-286c0 -90 45 -132 129 -132c71 0 124 48 156 96v322zM313 550h-87l91 147h100z" />
    <glyph glyph-name="ucircumflex" unicode="&#xfb;" 
d="M433 480h80v-480h-72v71c-32 -42 -96 -83 -173 -83c-125 0 -200 79 -200 196v296h80v-286c0 -90 45 -132 129 -132c71 0 124 48 156 96v322zM259 697h72l132 -146h-91l-77 86l-77 -86h-91z" />
    <glyph glyph-name="udieresis" unicode="&#xfc;" 
d="M433 480h80v-480h-72v71c-32 -42 -96 -83 -173 -83c-125 0 -200 79 -200 196v296h80v-286c0 -90 45 -132 129 -132c71 0 124 48 156 96v322zM447 617c0 -30 -25 -55 -55 -55s-55 25 -55 55c0 29 25 55 55 55s55 -26 55 -55zM245 617c0 -30 -25 -55 -55 -55s-55 25 -55 55
c0 29 25 55 55 55s55 -26 55 -55z" />
    <glyph glyph-name="ugrave" unicode="&#xf9;" 
d="M433 480h80v-480h-72v71c-32 -42 -96 -83 -173 -83c-125 0 -200 79 -200 196v296h80v-286c0 -90 45 -132 129 -132c71 0 124 48 156 96v322zM358 550h-87l-104 147h100z" />
    <glyph glyph-name="uhungarumlaut" unicode="&#x171;" 
d="M433 480h80v-480h-72v71c-32 -42 -96 -83 -173 -83c-125 0 -200 79 -200 196v296h80v-286c0 -90 45 -132 129 -132c71 0 124 48 156 96v322zM409 560h-85l69 147h90zM254 560h-85l69 147h90z" />
    <glyph glyph-name="umacron" unicode="&#x16b;" 
d="M433 480h80v-480h-72v71c-32 -42 -96 -83 -173 -83c-125 0 -200 79 -200 196v296h80v-286c0 -90 45 -132 129 -132c71 0 124 48 156 96v322zM142 637h300v-73h-300v73z" />
    <glyph glyph-name="uogonek" unicode="&#x173;" 
d="M513 480v-480c-56 -38 -91 -90 -90 -126c-1 -24 14 -41 43 -41c17 0 32 4 47 12v-62c-20 -10 -43 -15 -67 -15c-66 0 -99 39 -99 89c0 46 28 102 94 160v54c-32 -42 -96 -83 -173 -83c-125 0 -200 79 -200 196v296h80v-286c0 -90 45 -132 129 -132c71 0 124 48 156 96
v322h80z" />
    <glyph glyph-name="uring" unicode="&#x16f;" 
d="M433 480h80v-480h-72v71c-32 -42 -96 -83 -173 -83c-125 0 -200 79 -200 196v296h80v-286c0 -90 45 -132 129 -132c71 0 124 48 156 96v322zM406 635c0 -69 -55 -111 -115 -111c-61 0 -116 42 -116 111c0 67 55 109 116 109c60 0 115 -42 115 -109zM236 634
c0 -35 26 -55 55 -55s55 20 55 55c0 34 -26 55 -55 55s-55 -21 -55 -55z" />
    <glyph glyph-name="v" unicode="v" horiz-adv-x="536" 
d="M433 480h89l-212 -480h-84l-212 480h89l165 -390z" />
    <glyph glyph-name="w" unicode="w" horiz-adv-x="798" 
d="M696 480h84l-164 -480h-87l-130 371l-130 -371h-87l-164 480h84l124 -392l137 392h72l137 -392z" />
    <glyph glyph-name="wacute" unicode="&#x1e83;" horiz-adv-x="798" 
d="M696 480h84l-164 -480h-87l-130 371l-130 -371h-87l-164 480h84l124 -392l137 392h72l137 -392zM420 550h-87l91 147h100z" />
    <glyph glyph-name="wcircumflex" unicode="&#x175;" horiz-adv-x="798" 
d="M696 480h84l-164 -480h-87l-130 371l-130 -371h-87l-164 480h84l124 -392l137 392h72l137 -392zM366 697h72l132 -146h-91l-77 86l-77 -86h-91z" />
    <glyph glyph-name="wdieresis" unicode="&#x1e85;" horiz-adv-x="798" 
d="M696 480h84l-164 -480h-87l-130 371l-130 -371h-87l-164 480h84l124 -392l137 392h72l137 -392zM554 617c0 -30 -25 -55 -55 -55s-55 25 -55 55c0 29 25 55 55 55s55 -26 55 -55zM352 617c0 -30 -25 -55 -55 -55s-55 25 -55 55c0 29 25 55 55 55s55 -26 55 -55z" />
    <glyph glyph-name="wgrave" unicode="&#x1e81;" horiz-adv-x="798" 
d="M696 480h84l-164 -480h-87l-130 371l-130 -371h-87l-164 480h84l124 -392l137 392h72l137 -392zM465 550h-87l-104 147h100z" />
    <glyph glyph-name="x" unicode="x" horiz-adv-x="489" 
d="M375 480h92l-176 -233l186 -247h-92l-140 190l-141 -190h-92l187 247l-177 233h92l131 -177z" />
    <glyph glyph-name="y" unicode="y" horiz-adv-x="538" 
d="M276 91l162 389h85l-236 -552c-50 -116 -111 -160 -181 -160c-17 0 -34 2 -52 7v69c14 -4 28 -6 42 -6c54 0 93 39 124 117l18 44l-228 481h85z" />
    <glyph glyph-name="yacute" unicode="&#xfd;" horiz-adv-x="538" 
d="M276 91l162 389h85l-236 -552c-50 -116 -111 -160 -181 -160c-17 0 -34 2 -52 7v69c14 -4 28 -6 42 -6c54 0 93 39 124 117l18 44l-228 481h85zM281 550h-87l91 147h100z" />
    <glyph glyph-name="ycircumflex" unicode="&#x177;" horiz-adv-x="538" 
d="M276 91l162 389h85l-236 -552c-50 -116 -111 -160 -181 -160c-17 0 -34 2 -52 7v69c14 -4 28 -6 42 -6c54 0 93 39 124 117l18 44l-228 481h85zM227 697h72l132 -146h-91l-77 86l-77 -86h-91z" />
    <glyph glyph-name="ydieresis" unicode="&#xff;" horiz-adv-x="538" 
d="M276 91l162 389h85l-236 -552c-50 -116 -111 -160 -181 -160c-17 0 -34 2 -52 7v69c14 -4 28 -6 42 -6c54 0 93 39 124 117l18 44l-228 481h85zM415 617c0 -30 -25 -55 -55 -55s-55 25 -55 55c0 29 25 55 55 55s55 -26 55 -55zM213 617c0 -30 -25 -55 -55 -55
s-55 25 -55 55c0 29 25 55 55 55s55 -26 55 -55z" />
    <glyph glyph-name="ygrave" unicode="&#x1ef3;" horiz-adv-x="538" 
d="M276 91l162 389h85l-236 -552c-50 -116 -111 -160 -181 -160c-17 0 -34 2 -52 7v69c14 -4 28 -6 42 -6c54 0 93 39 124 117l18 44l-228 481h85zM326 550h-87l-104 147h100z" />
    <glyph glyph-name="z" unicode="z" horiz-adv-x="464" 
d="M48 480h364v-71l-282 -339h301v-70h-395v71l282 339h-270v70z" />
    <glyph glyph-name="zacute" unicode="&#x17a;" horiz-adv-x="464" 
d="M48 480h364v-71l-282 -339h301v-70h-395v71l282 339h-270v70zM255 550h-87l91 147h100z" />
    <glyph glyph-name="zcaron" unicode="&#x17e;" horiz-adv-x="464" 
d="M48 480h364v-71l-282 -339h301v-70h-395v71l282 339h-270v70zM405 687l-132 -146h-72l-132 146h91l77 -86l77 86h91z" />
    <glyph glyph-name="zdotaccent" unicode="&#x17c;" horiz-adv-x="464" 
d="M48 480h364v-71l-282 -339h301v-70h-395v71l282 339h-270v70zM170 607c0 38 28 58 60 58c33 0 60 -20 60 -58c0 -39 -27 -59 -60 -59c-32 0 -60 20 -60 59z" />
    <glyph glyph-name="a.ss01" horiz-adv-x="621" 
d="M475 80c-43 -49 -102 -92 -194 -92c-137 0 -240 108 -240 252s103 252 240 252c92 0 151 -43 194 -92v80h72v-480h-72v80zM121 240c0 -110 76 -178 169 -178c86 0 150 56 177 118v120c-27 62 -91 118 -177 118c-93 0 -169 -68 -169 -178z" />
    <glyph glyph-name="aacute.ss01" horiz-adv-x="621" 
d="M475 80c-43 -49 -102 -92 -194 -92c-137 0 -240 108 -240 252s103 252 240 252c92 0 151 -43 194 -92v80h72v-480h-72v80zM121 240c0 -110 76 -178 169 -178c86 0 150 56 177 118v120c-27 62 -91 118 -177 118c-93 0 -169 -68 -169 -178zM335 550h-87l91 147h100z" />
    <glyph glyph-name="abreve.ss01" horiz-adv-x="621" 
d="M475 80c-43 -49 -102 -92 -194 -92c-137 0 -240 108 -240 252s103 252 240 252c92 0 151 -43 194 -92v80h72v-480h-72v80zM121 240c0 -110 76 -178 169 -178c86 0 150 56 177 118v120c-27 62 -91 118 -177 118c-93 0 -169 -68 -169 -178zM454 590
c-45 -32 -92 -42 -140 -42s-95 10 -140 42v78c50 -33 91 -44 140 -44s90 11 140 44v-78z" />
    <glyph glyph-name="acircumflex.ss01" horiz-adv-x="621" 
d="M475 80c-43 -49 -102 -92 -194 -92c-137 0 -240 108 -240 252s103 252 240 252c92 0 151 -43 194 -92v80h72v-480h-72v80zM121 240c0 -110 76 -178 169 -178c86 0 150 56 177 118v120c-27 62 -91 118 -177 118c-93 0 -169 -68 -169 -178zM281 697h72l132 -146h-91l-77 86
l-77 -86h-91z" />
    <glyph glyph-name="adieresis.ss01" horiz-adv-x="621" 
d="M475 80c-43 -49 -102 -92 -194 -92c-137 0 -240 108 -240 252s103 252 240 252c92 0 151 -43 194 -92v80h72v-480h-72v80zM121 240c0 -110 76 -178 169 -178c86 0 150 56 177 118v120c-27 62 -91 118 -177 118c-93 0 -169 -68 -169 -178zM469 617c0 -30 -25 -55 -55 -55
s-55 25 -55 55c0 29 25 55 55 55s55 -26 55 -55zM267 617c0 -30 -25 -55 -55 -55s-55 25 -55 55c0 29 25 55 55 55s55 -26 55 -55z" />
    <glyph glyph-name="agrave.ss01" horiz-adv-x="621" 
d="M475 80c-43 -49 -102 -92 -194 -92c-137 0 -240 108 -240 252s103 252 240 252c92 0 151 -43 194 -92v80h72v-480h-72v80zM121 240c0 -110 76 -178 169 -178c86 0 150 56 177 118v120c-27 62 -91 118 -177 118c-93 0 -169 -68 -169 -178zM380 550h-87l-104 147h100z" />
    <glyph glyph-name="amacron.ss01" horiz-adv-x="621" 
d="M475 80c-43 -49 -102 -92 -194 -92c-137 0 -240 108 -240 252s103 252 240 252c92 0 151 -43 194 -92v80h72v-480h-72v80zM121 240c0 -110 76 -178 169 -178c86 0 150 56 177 118v120c-27 62 -91 118 -177 118c-93 0 -169 -68 -169 -178zM164 637h300v-73h-300v73z" />
    <glyph glyph-name="aogonek.ss01" horiz-adv-x="621" 
d="M121 240c0 -110 76 -178 169 -178c86 0 150 56 177 118v120c-27 62 -91 118 -177 118c-93 0 -169 -68 -169 -178zM547 480v-480c-55 -38 -90 -91 -89 -127c-1 -24 14 -41 43 -41c16 0 31 4 45 11v-62c-19 -10 -42 -14 -65 -14c-66 -1 -99 39 -99 89c0 46 28 103 93 161
v63c-43 -49 -102 -92 -194 -92c-137 0 -240 108 -240 252s103 252 240 252c92 0 151 -43 194 -92v80h72z" />
    <glyph glyph-name="aring.ss01" horiz-adv-x="621" 
d="M475 80c-43 -49 -102 -92 -194 -92c-137 0 -240 108 -240 252s103 252 240 252c92 0 151 -43 194 -92v80h72v-480h-72v80zM121 240c0 -110 76 -178 169 -178c86 0 150 56 177 118v120c-27 62 -91 118 -177 118c-93 0 -169 -68 -169 -178zM428 635
c0 -69 -55 -111 -115 -111c-61 0 -116 42 -116 111c0 67 55 109 116 109c60 0 115 -42 115 -109zM258 634c0 -35 26 -55 55 -55s55 20 55 55c0 34 -26 55 -55 55s-55 -21 -55 -55z" />
    <glyph glyph-name="atilde.ss01" horiz-adv-x="621" 
d="M475 80c-43 -49 -102 -92 -194 -92c-137 0 -240 108 -240 252s103 252 240 252c92 0 151 -43 194 -92v80h72v-480h-72v80zM121 240c0 -110 76 -178 169 -178c86 0 150 56 177 118v120c-27 62 -91 118 -177 118c-93 0 -169 -68 -169 -178zM479 649
c10 -72 -34 -106 -82 -106c-61 0 -118 42 -148 42c-21 0 -32 -15 -29 -37h-70c-11 72 33 107 80 107c60 0 118 -42 149 -42c23 0 32 14 30 36h70z" />
    <glyph glyph-name="ae.ss01" horiz-adv-x="984" 
d="M475 80c-43 -49 -102 -92 -194 -92c-137 0 -240 108 -240 252s103 252 240 252c92 0 151 -43 194 -92v80h72v-84c41 64 107 96 179 96c180 0 243 -150 213 -292h-382c10 -96 101 -138 198 -138c55 0 113 16 154 39v-74c-44 -25 -99 -39 -161 -39c-84 0 -158 32 -201 99
v-87h-72v80zM121 240c0 -110 76 -178 169 -178c86 0 150 56 177 118v120c-27 62 -91 118 -177 118c-93 0 -169 -68 -169 -178zM721 418c-84 0 -158 -49 -164 -148h311c7 56 -25 148 -147 148z" />
    <glyph glyph-name="y.ss01" 
d="M513 0c-4 -173 -131 -232 -250 -232c-66 0 -133 16 -174 40v74c39 -27 103 -40 164 -40c90 0 181 33 180 158v61c-34 -38 -94 -73 -165 -73c-125 0 -200 79 -200 196v296h80v-286c0 -90 45 -132 129 -132c71 0 124 48 156 96v322h80v-480z" />
    <glyph glyph-name="yacute.ss01" 
d="M513 0c-4 -173 -131 -232 -250 -232c-66 0 -133 16 -174 40v74c39 -27 103 -40 164 -40c90 0 181 33 180 158v61c-34 -38 -94 -73 -165 -73c-125 0 -200 79 -200 196v296h80v-286c0 -90 45 -132 129 -132c71 0 124 48 156 96v322h80v-480zM313 550h-87l91 147h100z" />
    <glyph glyph-name="ycircumflex.ss01" 
d="M513 0c-4 -173 -131 -232 -250 -232c-66 0 -133 16 -174 40v74c39 -27 103 -40 164 -40c90 0 181 33 180 158v61c-34 -38 -94 -73 -165 -73c-125 0 -200 79 -200 196v296h80v-286c0 -90 45 -132 129 -132c71 0 124 48 156 96v322h80v-480zM259 697h72l132 -146h-91
l-77 86l-77 -86h-91z" />
    <glyph glyph-name="ydieresis.ss01" 
d="M513 0c-4 -173 -131 -232 -250 -232c-66 0 -133 16 -174 40v74c39 -27 103 -40 164 -40c90 0 181 33 180 158v61c-34 -38 -94 -73 -165 -73c-125 0 -200 79 -200 196v296h80v-286c0 -90 45 -132 129 -132c71 0 124 48 156 96v322h80v-480zM447 617c0 -30 -25 -55 -55 -55
s-55 25 -55 55c0 29 25 55 55 55s55 -26 55 -55zM245 617c0 -30 -25 -55 -55 -55s-55 25 -55 55c0 29 25 55 55 55s55 -26 55 -55z" />
    <glyph glyph-name="ygrave.ss01" 
d="M513 0c-4 -173 -131 -232 -250 -232c-66 0 -133 16 -174 40v74c39 -27 103 -40 164 -40c90 0 181 33 180 158v61c-34 -38 -94 -73 -165 -73c-125 0 -200 79 -200 196v296h80v-286c0 -90 45 -132 129 -132c71 0 124 48 156 96v322h80v-480zM358 550h-87l-104 147h100z" />
    <glyph glyph-name="f_b" horiz-adv-x="965" 
d="M498 408c35 41 94 84 186 84c137 0 240 -108 240 -252s-103 -252 -240 -252c-92 0 -151 43 -194 92v-80h-72v616c-37 16 -73 22 -114 22c-65 0 -113 -29 -113 -95v-63h150v-74h-150v-406h-80v406h-90v74h90v63c0 109 80 169 189 169c48 0 88 -10 131 -29l67 17v-292z
M498 180c27 -62 91 -118 177 -118c93 0 169 68 169 178s-76 178 -169 178c-86 0 -150 -56 -177 -118v-120z" />
    <glyph glyph-name="f_f_b" horiz-adv-x="1275" 
d="M808 408c35 41 94 84 186 84c137 0 240 -108 240 -252s-103 -252 -240 -252c-92 0 -151 43 -194 92v-80h-72v626c-37 16 -73 22 -114 22c-65 0 -113 -29 -113 -105v-63h150v-74h-150v-406h-80v406h-230v-406h-80v406h-90v74h90v53c0 109 80 169 189 169
c61 0 104 -14 157 -43c34 42 88 63 153 63c48 0 88 -10 131 -29l67 17v-302zM421 480v63c0 19 2 37 6 53c-37 22 -69 32 -123 32c-65 0 -113 -29 -113 -95v-53h230zM808 180c27 -62 91 -118 177 -118c93 0 169 68 169 178s-76 178 -169 178c-86 0 -150 -56 -177 -118v-120z
" />
    <glyph glyph-name="f_f_h" horiz-adv-x="1241" 
d="M808 419c34 38 94 73 165 73c115 0 200 -79 200 -196v-296h-80v286c0 90 -55 132 -129 132c-71 0 -124 -48 -156 -96v-322h-80v626c-37 16 -73 22 -114 22c-65 0 -113 -29 -113 -105v-63h150v-74h-150v-406h-80v406h-230v-406h-80v406h-90v74h90v53c0 109 80 169 189 169
c61 0 104 -14 157 -43c34 42 88 63 153 63c48 0 88 -10 131 -29l67 17v-291zM421 480v63c0 19 2 37 6 53c-37 22 -69 32 -123 32c-65 0 -113 -29 -113 -95v-53h230z" />
    <glyph glyph-name="f_f_j" horiz-adv-x="874" 
d="M798 -89c0 -113 -73 -143 -138 -143c-29 0 -54 5 -74 13v74c16 -8 34 -13 52 -13c42 0 80 18 80 81v483h-217v-406h-80v406h-230v-406h-80v406h-90v74h90v53c0 109 80 169 189 169c61 0 104 -14 157 -43c34 42 88 63 153 63c53 0 97 -12 145 -35v-80
c-47 27 -90 41 -141 41c-65 0 -113 -29 -113 -105v-63h297v-569zM191 533v-53h230v63c0 19 2 37 6 53c-37 22 -69 32 -123 32c-65 0 -113 -29 -113 -95z" />
    <glyph glyph-name="f_f_k" horiz-adv-x="1175" 
d="M1150 480l-182 -239l204 -241h-94l-176 206h-94v-206h-80v626c-37 16 -73 22 -114 22c-65 0 -113 -29 -113 -105v-63h150v-74h-150v-406h-80v406h-230v-406h-80v406h-90v74h90v53c0 109 80 169 189 169c61 0 104 -14 157 -43c34 42 88 63 153 63c48 0 88 -10 131 -29
l67 17v-430h97l152 200h93zM421 480v63c0 19 2 37 6 53c-37 22 -69 32 -123 32c-65 0 -113 -29 -113 -95v-53h230z" />
    <glyph glyph-name="f_h" horiz-adv-x="931" 
d="M498 419c34 38 94 73 165 73c115 0 200 -79 200 -196v-296h-80v286c0 90 -55 132 -129 132c-71 0 -124 -48 -156 -96v-322h-80v616c-37 16 -73 22 -114 22c-65 0 -113 -29 -113 -95v-63h150v-74h-150v-406h-80v406h-90v74h90v63c0 109 80 169 189 169
c48 0 88 -10 131 -29l67 17v-281z" />
    <glyph glyph-name="f_i" horiz-adv-x="564" 
d="M191 480h297v-480h-80v406h-217v-406h-80v406h-90v74h90v63c0 109 80 169 189 169c53 0 97 -12 145 -35v-80c-47 27 -90 41 -141 41c-65 0 -113 -29 -113 -95v-63z" />
    <glyph glyph-name="f_j" horiz-adv-x="564" 
d="M191 480h297v-569c0 -113 -73 -143 -138 -143c-29 0 -54 5 -74 13v74c16 -8 34 -13 52 -13c42 0 80 18 80 81v483h-217v-406h-80v406h-90v74h90v63c0 109 80 169 189 169c53 0 97 -12 145 -35v-80c-47 27 -90 41 -141 41c-65 0 -113 -29 -113 -95v-63z" />
    <glyph glyph-name="f_k" horiz-adv-x="865" 
d="M840 480l-182 -239l204 -241h-94l-176 206h-94v-206h-80v616c-37 16 -73 22 -114 22c-65 0 -113 -29 -113 -95v-63h150v-74h-150v-406h-80v406h-90v74h90v63c0 109 80 169 189 169c48 0 88 -10 131 -29l67 17v-420h97l152 200h93z" />
    <glyph glyph-name="f_l" horiz-adv-x="574" 
d="M300 712c48 0 88 -10 131 -29l67 17v-700h-80v616c-37 16 -73 22 -114 22c-65 0 -113 -29 -113 -95v-63h150v-74h-150v-406h-80v406h-90v74h90v63c0 109 80 169 189 169z" />
    <glyph glyph-name="uni0410" unicode="&#x410;" horiz-adv-x="717" 
d="M98 0h-91l305 700h93l304 -700h-90l-72 169h-377zM347 587l-144 -340h311l-145 340c-4 9 -7 17 -11 27c-4 -10 -7 -18 -11 -27z" />
    <glyph glyph-name="uni0411" unicode="&#x411;" horiz-adv-x="666" 
d="M176 417h186c129 0 269 -38 269 -209s-140 -208 -269 -208h-270v700h485v-80h-401v-203zM176 80h190c89 0 180 14 180 128c0 115 -92 129 -180 129h-190v-257z" />
    <glyph glyph-name="uni0412" unicode="&#x412;" horiz-adv-x="692" 
d="M92 700h287c143 0 238 -59 238 -177c0 -89 -57 -139 -112 -155c58 -16 140 -62 140 -176c0 -159 -156 -192 -258 -192h-295v700zM560 201c0 109 -100 121 -167 121h-217v-242h194c88 0 190 6 190 121zM532 511c0 83 -61 109 -160 109h-196v-218h219c73 0 137 29 137 109z
" />
    <glyph glyph-name="uni0413" unicode="&#x413;" horiz-adv-x="567" 
d="M176 0h-84v700h460v-80h-376v-620z" />
    <glyph glyph-name="uni0414" unicode="&#x414;" horiz-adv-x="768" 
d="M99 -165h-80v245h85c90 163 114 405 114 620h430v-620h88v-245h-80v165h-557v-165zM304 620c-11 -189 -36 -402 -106 -540h366v540h-260z" />
    <glyph glyph-name="uni0415" unicode="&#x415;" horiz-adv-x="618" 
d="M92 700h472v-80h-388v-227h358v-80h-358v-233h394v-80h-478v700z" />
    <glyph glyph-name="uni0401" unicode="&#x401;" horiz-adv-x="618" 
d="M489 837c0 -30 -25 -55 -55 -55s-55 25 -55 55c0 29 25 55 55 55s55 -26 55 -55zM287 837c0 -30 -25 -55 -55 -55s-55 25 -55 55c0 29 25 55 55 55s55 -26 55 -55zM92 700h472v-80h-388v-227h358v-80h-358v-233h394v-80h-478v700z" />
    <glyph glyph-name="uni0416" unicode="&#x416;" horiz-adv-x="939" 
d="M103 0h-96l227 359l-206 341h96l177 -303h127v303h84v-303h126l177 303h96l-206 -341l227 -359h-96l-199 317h-125v-317h-84v317h-126z" />
    <glyph glyph-name="uni0417" unicode="&#x417;" horiz-adv-x="610" 
d="M564 189c0 -151 -147 -201 -277 -201c-94 0 -171 14 -249 44v84c77 -36 154 -49 243 -48c95 0 197 25 197 129c0 101 -97 126 -188 126h-143v80h134c100 0 169 39 169 114c0 86 -76 115 -182 115c-78 1 -143 -14 -218 -49v84c71 31 141 45 225 45c148 0 260 -60 260 -185
c0 -85 -51 -140 -115 -161c64 -13 144 -64 144 -177z" />
    <glyph glyph-name="uni0418" unicode="&#x418;" horiz-adv-x="767" 
d="M675 0h-84v500v60l-421 -560h-78v700h84v-499v-60l421 559h78v-700z" />
    <glyph glyph-name="uni0419" unicode="&#x419;" horiz-adv-x="767" 
d="M591 0h84v700h-78l-421 -559v60v499h-84v-700h78l421 560v-60v-500zM523 810c-45 -32 -92 -42 -140 -42s-95 10 -140 42v78c50 -33 91 -44 140 -44s90 11 140 44v-78z" />
    <glyph glyph-name="uni041A" unicode="&#x41a;" horiz-adv-x="665" 
d="M176 0h-84v700h84v-303h159l211 303h96l-238 -341l259 -359h-96l-229 317h-162v-317z" />
    <glyph glyph-name="uni041B" unicode="&#x41b;" horiz-adv-x="746" 
d="M223 700h431v-700h-84v620h-267c-28 -319 -54 -629 -237 -630c-19 0 -40 3 -62 11v80c14 -5 26 -7 48 -7c127 0 147 317 171 626z" />
    <glyph glyph-name="uni041C" unicode="&#x41c;" horiz-adv-x="906" 
d="M742 700h72v-700h-84v541l-251 -376h-52l-251 376v-541h-84v700h72l289 -432z" />
    <glyph glyph-name="uni041D" unicode="&#x41d;" horiz-adv-x="767" 
d="M591 700h84v-700h-84v311h-415v-311h-84v700h84v-309h415v309z" />
    <glyph glyph-name="uni041E" unicode="&#x41e;" horiz-adv-x="822" 
d="M45 350c0 181 121 362 366 362s366 -181 366 -362s-121 -362 -366 -362s-366 181 -366 362zM692 350c0 144 -91 282 -281 282s-281 -138 -281 -282s91 -282 281 -282s281 138 281 282z" />
    <glyph glyph-name="uni041F" unicode="&#x41f;" horiz-adv-x="755" 
d="M176 0h-84v700h571v-700h-84v620h-403v-620z" />
    <glyph glyph-name="uni0420" unicode="&#x420;" horiz-adv-x="661" 
d="M92 700h239c162 0 297 -51 297 -226s-135 -226 -297 -226h-155v-248h-84v700zM543 474c0 119 -93 146 -208 146h-159v-292h159c114 0 208 28 208 146z" />
    <glyph glyph-name="uni0421" unicode="&#x421;" horiz-adv-x="658" 
d="M45 345c1 243 186 367 368 367c70 0 138 -16 197 -47v-84c-51 34 -117 51 -183 51c-145 0 -296 -87 -297 -287c-1 -187 155 -277 300 -277c72 0 137 17 185 51v-84c-58 -30 -128 -47 -203 -47c-176 0 -368 124 -367 357z" />
    <glyph glyph-name="uni0422" unicode="&#x422;" horiz-adv-x="604" 
d="M14 700h576v-80h-246v-620h-84v620h-246v80z" />
    <glyph glyph-name="uni0423" unicode="&#x423;" horiz-adv-x="632" 
d="M379 159c-65 -137 -143 -171 -220 -171c-31 0 -65 5 -95 14v79c23 -7 52 -13 80 -13c51 0 98 10 141 92l12 26l-289 514h93l241 -435l202 435h90z" />
    <glyph glyph-name="uni0424" unicode="&#x424;" horiz-adv-x="864" 
d="M474 -37h-84v91c-218 6 -361 111 -361 296s143 290 361 296v91h84v-91c218 -6 361 -111 361 -296s-143 -290 -361 -296v-91zM114 350c0 -131 92 -213 276 -220v440c-184 -7 -276 -89 -276 -220zM474 570v-440c184 7 276 89 276 220s-92 213 -276 220z" />
    <glyph glyph-name="uni0425" unicode="&#x425;" horiz-adv-x="645" 
d="M102 0h-100l271 360l-256 340h100l206 -273l205 273h100l-255 -340l270 -360h-100l-220 293z" />
    <glyph glyph-name="uni0427" unicode="&#x427;" horiz-adv-x="685" 
d="M593 0h-84v274c-71 -24 -140 -35 -205 -35c-160 2 -258 80 -258 238v223h84v-227c0 -112 77 -153 194 -154c60 0 123 11 185 35v346h84v-700z" />
    <glyph glyph-name="uni0426" unicode="&#x426;" horiz-adv-x="784" 
d="M752 -165h-80l1 165h-581v700h84v-620h405v620h84v-620h87v-245z" />
    <glyph glyph-name="uni0428" unicode="&#x428;" horiz-adv-x="1060" 
d="M968 0h-876v700h84v-620h312v620h84v-620h312v620h84v-700z" />
    <glyph glyph-name="uni0429" unicode="&#x429;" horiz-adv-x="1087" 
d="M1055 -165h-80l1 165h-884v700h84v-620h312v620h84v-620h312v620h84v-620h87v-245z" />
    <glyph glyph-name="uni042F" unicode="&#x42f;" horiz-adv-x="685" 
d="M130 0h-102l207 267c-100 24 -177 91 -177 211c0 155 130 222 271 222h264v-700h-84v256h-180h-1zM145 478c0 -100 81 -142 181 -142h183v284h-183c-100 0 -181 -42 -181 -142z" />
    <glyph glyph-name="uni042C" unicode="&#x42c;" horiz-adv-x="661" 
d="M331 0h-239v700h84v-249h155c162 0 297 -50 297 -225s-135 -226 -297 -226zM176 371v-291h159c115 0 208 27 208 146c0 118 -94 145 -208 145h-159z" />
    <glyph glyph-name="uni042A" unicode="&#x42a;" horiz-adv-x="762" 
d="M432 0h-239v620h-178v80h262v-249h155c162 0 297 -50 297 -225s-135 -226 -297 -226zM277 371v-291h159c115 0 208 27 208 146c0 118 -94 145 -208 145h-159z" />
    <glyph glyph-name="uni042B" unicode="&#x42b;" horiz-adv-x="881" 
d="M331 0h-239v700h84v-249h155c162 0 297 -50 297 -225s-135 -226 -297 -226zM176 371v-291h159c115 0 208 27 208 146c0 118 -94 145 -208 145h-159zM789 0h-84v700h84v-700z" />
    <glyph glyph-name="uni042D" unicode="&#x42d;" horiz-adv-x="655" 
d="M45 665c58 31 128 47 199 47c180 0 366 -118 366 -369c0 -247 -187 -355 -368 -355c-70 0 -140 17 -197 47v87c52 -37 118 -54 185 -54c140 0 283 67 295 242h-365v80h364c-16 169 -154 242 -292 242c-66 0 -137 -17 -187 -51v84z" />
    <glyph glyph-name="uni042E" unicode="&#x42e;" horiz-adv-x="1091" 
d="M1046 350c0 -181 -121 -362 -366 -362c-227 0 -347 155 -364 322h-140v-310h-84v700h84v-310h140c17 167 137 322 364 322c245 0 366 -181 366 -362zM399 350c0 -144 91 -282 281 -282s281 138 281 282s-91 282 -281 282s-281 -138 -281 -282z" />
    <glyph glyph-name="uni0414.loclBGR" horiz-adv-x="787" 
d="M106 -165h-80v245h76l245 620h93l246 -620h75v-245h-80v165h-575v-165zM394 605l-203 -525h405z" />
    <glyph glyph-name="uni041B.loclBGR" horiz-adv-x="684" 
d="M298 700h87l290 -700h-90l-244 606l-243 -606h-90z" />
    <glyph glyph-name="uni0424.loclBGR" horiz-adv-x="906" 
d="M495 -100h-84v95c-228 10 -366 160 -366 355s138 345 366 355v95h84v-95c228 -10 366 -160 366 -355s-138 -345 -366 -355v-95zM130 350c0 -142 91 -264 281 -275v550c-190 -11 -281 -133 -281 -275zM495 625v-550c190 11 281 133 281 275s-91 264 -281 275z" />
    <glyph glyph-name="uni0430" unicode="&#x430;" horiz-adv-x="550" 
d="M464 100c0 -29 16 -37 37 -37c12 0 25 3 37 7v-65c-19 -7 -40 -11 -60 -11c-39 0 -74 16 -88 58c-48 -40 -109 -64 -187 -64c-85 0 -169 45 -169 146c0 124 114 162 217 162c42 0 93 -6 133 -15v17c0 72 -49 120 -137 120c-74 0 -133 -18 -175 -36v78
c38 13 104 32 183 32c128 0 209 -70 209 -204v-188zM116 138c0 -56 51 -81 104 -81c61 0 122 25 164 70v88c-34 7 -83 14 -122 14c-70 0 -146 -21 -146 -91z" />
    <glyph glyph-name="uni0431" unicode="&#x431;" horiz-adv-x="585" 
d="M543 226c0 -150 -100 -238 -245 -238s-249 99 -249 281c0 161 62 272 148 326c138 85 233 49 303 117v-84c-69 -49 -146 -28 -256 -92c-67 -40 -94 -105 -114 -166c34 53 102 90 177 90c125 0 236 -91 236 -234zM129 224c0 -91 66 -160 167 -160c105 0 167 69 167 160
s-62 160 -167 160c-100 0 -167 -79 -167 -160z" />
    <glyph glyph-name="uni0432" unicode="&#x432;" horiz-adv-x="548" 
d="M345 0h-271v480h263c84 0 148 -45 148 -130c0 -50 -28 -90 -64 -106c39 -13 79 -51 79 -111c0 -79 -51 -133 -155 -133zM154 208v-138h180c50 0 86 15 86 68c0 57 -43 70 -83 70h-183zM154 410v-133h175c42 0 75 16 75 65c0 54 -41 68 -75 68h-175z" />
    <glyph glyph-name="uni0433" unicode="&#x433;" horiz-adv-x="442" 
d="M154 0h-80v480h351v-74h-271v-406z" />
    <glyph glyph-name="uni0434" unicode="&#x434;" horiz-adv-x="633" 
d="M104 -130h-78v202h64c60 106 84 229 82 408h358v-408h70v-202h-78v130h-418v-130zM249 408c-4 -144 -28 -244 -72 -336h273v336h-201z" />
    <glyph glyph-name="uni0435" unicode="&#x435;" horiz-adv-x="546" 
d="M41 240c0 168 125 252 239 252c185 0 253 -151 223 -287h-382c10 -101 101 -143 198 -143c59 0 117 16 158 39v-78c-44 -23 -107 -35 -170 -35c-142 0 -266 81 -266 252zM432 275c7 51 -25 143 -147 143c-82 0 -158 -49 -164 -143h311z" />
    <glyph glyph-name="uni0451" unicode="&#x451;" horiz-adv-x="546" 
d="M436 617c0 -30 -25 -55 -55 -55s-55 25 -55 55c0 29 25 55 55 55s55 -26 55 -55zM234 617c0 -30 -25 -55 -55 -55s-55 25 -55 55c0 29 25 55 55 55s55 -26 55 -55zM41 240c0 168 125 252 239 252c185 0 253 -151 223 -287h-382c10 -101 101 -143 198 -143
c59 0 117 16 158 39v-78c-44 -23 -107 -35 -170 -35c-142 0 -266 81 -266 252zM432 275c7 51 -25 143 -147 143c-82 0 -158 -49 -164 -143h311z" />
    <glyph glyph-name="uni0436" unicode="&#x436;" horiz-adv-x="754" 
d="M747 0h-90l-163 201h-77v-201h-80v201h-77l-163 -201h-90l191 241l-169 239h89l146 -205h73v205h80v-205h73l146 205h89l-169 -239z" />
    <glyph glyph-name="uni0437" unicode="&#x437;" horiz-adv-x="477" 
d="M433 129c0 -91 -83 -141 -216 -141c-68 0 -132 15 -177 37v76c41 -22 109 -39 167 -39c76 0 146 14 146 76c0 59 -58 69 -106 69h-105v74h105c54 0 96 16 96 62c0 53 -57 76 -132 76c-57 0 -119 -16 -163 -38v75c48 22 108 37 172 37c134 0 203 -55 203 -139
c0 -58 -35 -96 -89 -108c54 -14 99 -55 99 -117z" />
    <glyph glyph-name="uni0438" unicode="&#x438;" horiz-adv-x="590" 
d="M142 0h-68v480h80v-351l294 351h68v-480h-80v351z" />
    <glyph glyph-name="uni0439" unicode="&#x439;" horiz-adv-x="590" 
d="M435 596c-45 -32 -92 -42 -140 -42s-95 10 -140 42v72c50 -33 91 -44 140 -44s90 11 140 44v-72zM142 0h-68v480h80v-351l294 351h68v-480h-80v351z" />
    <glyph glyph-name="uni043A" unicode="&#x43a;" horiz-adv-x="523" 
d="M154 0h-80v480h80v-200h97l152 200h93l-182 -239l204 -241h-94l-176 206h-94v-206z" />
    <glyph glyph-name="uni043B" unicode="&#x43b;" horiz-adv-x="593" 
d="M244 406c-16 -246 -50 -414 -174 -414c-18 0 -37 3 -58 11v63c11 -4 22 -6 32 -6c85 0 113 162 122 420h353v-480h-80v406h-195z" />
    <glyph glyph-name="uni043C" unicode="&#x43c;" horiz-adv-x="672" 
d="M150 0h-76v480h87l175 -266l175 266h87v-480h-76v362l-156 -237h-60l-156 237v-362z" />
    <glyph glyph-name="uni043D" unicode="&#x43d;" horiz-adv-x="586" 
d="M154 0h-80v480h80v-203h278v203h80v-480h-80v203h-278v-203z" />
    <glyph glyph-name="uni043E" unicode="&#x43e;" horiz-adv-x="594" 
d="M41 240c0 164 126 252 256 252c131 0 256 -88 256 -252s-125 -252 -256 -252c-130 0 -256 88 -256 252zM473 240c0 111 -78 176 -176 176s-176 -65 -176 -176s78 -176 176 -176s176 65 176 176z" />
    <glyph glyph-name="uni043F" unicode="&#x43f;" horiz-adv-x="586" 
d="M154 0h-80v480h438v-480h-80v406h-278v-406z" />
    <glyph glyph-name="uni0440" unicode="&#x440;" horiz-adv-x="621" 
d="M146 400c43 49 102 92 194 92c137 0 240 -108 240 -252s-103 -252 -240 -252c-92 0 -151 43 -186 84v-292h-80v700h72v-80zM500 240c0 110 -76 178 -169 178c-86 0 -150 -56 -177 -118v-120c27 -62 91 -118 177 -118c93 0 169 68 169 178z" />
    <glyph glyph-name="uni0441" unicode="&#x441;" horiz-adv-x="497" 
d="M41 238c0 175 135 254 260 254c54 0 107 -12 148 -39v-78c-36 28 -87 43 -138 43c-93 0 -190 -52 -190 -178c0 -123 94 -178 188 -178c52 0 105 15 145 39v-80c-45 -22 -96 -33 -156 -33c-126 0 -257 79 -257 250z" />
    <glyph glyph-name="uni0442" unicode="&#x442;" horiz-adv-x="467" 
d="M274 0h-80v406h-177v74h433v-74h-176v-406z" />
    <glyph glyph-name="uni0443" unicode="&#x443;" horiz-adv-x="538" 
d="M276 91l162 389h85l-236 -552c-50 -116 -111 -160 -181 -160c-17 0 -34 2 -52 7v69c14 -4 28 -6 42 -6c54 0 93 39 124 117l18 44l-228 481h85z" />
    <glyph glyph-name="uni0444" unicode="&#x444;" horiz-adv-x="722" 
d="M401 -220h-80v208c-159 4 -281 100 -281 252s122 248 281 252v208h80v-208c159 -4 281 -100 281 -252s-122 -248 -281 -252v-208zM120 240c0 -110 80 -178 201 -182v364c-121 -4 -201 -72 -201 -182zM401 422v-364c121 4 201 72 201 182s-80 178 -201 182z" />
    <glyph glyph-name="uni0445" unicode="&#x445;" horiz-adv-x="489" 
d="M375 480h92l-176 -233l186 -247h-92l-140 190l-141 -190h-92l187 247l-177 233h92l131 -177z" />
    <glyph glyph-name="uni0447" unicode="&#x447;" horiz-adv-x="523" 
d="M449 0h-80v167c-44 -17 -83 -25 -143 -25c-110 0 -185 54 -185 172v166h80v-160c0 -81 49 -104 129 -104c48 0 82 6 119 21v243h80v-480z" />
    <glyph glyph-name="uni0446" unicode="&#x446;" horiz-adv-x="601" 
d="M568 -130h-78v130h-416v480h80v-406h263v406h80v-406h71v-204z" />
    <glyph glyph-name="uni0448" unicode="&#x448;" horiz-adv-x="818" 
d="M744 0h-670v480h80v-406h215v406h80v-406h215v406h80v-480z" />
    <glyph glyph-name="uni0449" unicode="&#x449;" horiz-adv-x="847" 
d="M814 -130h-78v130h-662v480h80v-406h215v406h80v-406h215v406h80v-406h70v-204z" />
    <glyph glyph-name="uni044F" unicode="&#x44f;" horiz-adv-x="542" 
d="M122 0h-94l139 176c-75 22 -115 81 -115 148c0 84 63 156 180 156h236v-480h-80v168h-135zM132 324c0 -53 40 -84 107 -84h149v168h-149c-67 0 -107 -31 -107 -84z" />
    <glyph glyph-name="uni044C" unicode="&#x44c;" horiz-adv-x="517" 
d="M302 0h-228v480h80v-168h148c117 0 186 -67 186 -156s-69 -156 -186 -156zM154 240v-168h138c70 0 115 27 115 84s-45 84 -115 84h-138z" />
    <glyph glyph-name="uni044A" unicode="&#x44a;" horiz-adv-x="592" 
d="M229 312h148c117 0 186 -67 186 -156s-69 -156 -186 -156h-228v410h-131v70h211v-168zM229 72h138c70 0 115 27 115 84s-45 84 -115 84h-138v-168z" />
    <glyph glyph-name="uni044B" unicode="&#x44b;" horiz-adv-x="735" 
d="M302 0h-228v480h80v-168h148c117 0 186 -67 186 -156s-69 -156 -186 -156zM154 240v-168h138c70 0 115 27 115 84s-45 84 -115 84h-138zM661 0h-80v480h80v-480z" />
    <glyph glyph-name="uni044D" unicode="&#x44d;" horiz-adv-x="504" 
d="M463 233c0 -175 -132 -245 -251 -245c-69 0 -119 14 -171 42v75c44 -27 100 -43 155 -43c93 0 177 32 185 141h-248v74h248c-12 105 -101 141 -193 141c-48 0 -102 -16 -142 -43v74c44 28 96 43 151 43c130 0 266 -77 266 -259z" />
    <glyph glyph-name="uni044E" unicode="&#x44e;" horiz-adv-x="823" 
d="M782 240c0 -164 -125 -252 -256 -252c-120 0 -237 76 -254 215h-118v-203h-80v480h80v-203h118c17 139 134 215 254 215c131 0 256 -88 256 -252zM350 240c0 -111 78 -176 176 -176s176 65 176 176s-78 176 -176 176s-176 -65 -176 -176z" />
    <glyph glyph-name="uni0432.loclBGR" horiz-adv-x="580" 
d="M492 545c0 -56 -21 -110 -99 -149c89 -20 147 -93 147 -191c0 -119 -93 -217 -234 -217c-137 0 -243 87 -243 266v143c0 195 84 315 242 315c116 0 187 -77 187 -167zM305 638c-96 0 -162 -69 -162 -241v-7l145 26c97 17 124 76 124 124c0 45 -36 98 -107 98zM144 254
c1 -135 65 -192 162 -192s154 59 154 143c0 92 -60 157 -169 138l-147 -26v-63z" />
    <glyph glyph-name="uni0433.loclBGR" horiz-adv-x="478" 
d="M430 35c-45 -29 -118 -47 -186 -47c-114 0 -208 35 -208 141c0 187 315 103 315 225c0 49 -55 64 -112 64c-61 0 -125 -17 -175 -43v76c50 24 111 41 180 41c95 0 188 -39 188 -140c0 -190 -316 -110 -316 -225c0 -54 54 -65 132 -65c60 0 133 18 182 51v-78z" />
    <glyph glyph-name="uni0434.loclBGR" horiz-adv-x="621" 
d="M41 240c0 144 103 252 240 252c92 0 151 -43 194 -92v80h72v-480c0 -165 -129 -232 -262 -232c-71 0 -138 16 -195 45v78c57 -32 119 -49 185 -49c102 0 193 39 192 158v74c-35 -43 -94 -86 -186 -86c-137 0 -240 108 -240 252zM467 300c-27 62 -91 118 -177 118
c-93 0 -169 -68 -169 -178s76 -178 169 -178c86 0 150 52 177 108v130z" />
    <glyph glyph-name="uni0436.loclBGR" horiz-adv-x="754" 
d="M97 0h-90l191 241l-169 239h89l146 -205h73v425h80v-425h73l146 205h89l-169 -239l191 -241h-90l-163 201h-77v-201h-80v201h-77z" />
    <glyph glyph-name="uni0438.loclBGR" 
d="M433 480h80v-480h-72v71c-32 -42 -96 -83 -173 -83c-125 0 -200 79 -200 196v296h80v-286c0 -90 45 -132 129 -132c71 0 124 48 156 96v322z" />
    <glyph glyph-name="uni0439.loclBGR" 
d="M433 596c-45 -32 -92 -42 -140 -42s-95 10 -140 42v72c50 -33 91 -44 140 -44s90 11 140 44v-72zM433 480h80v-480h-72v71c-32 -42 -96 -83 -173 -83c-125 0 -200 79 -200 196v296h80v-286c0 -90 45 -132 129 -132c71 0 124 48 156 96v322z" />
    <glyph glyph-name="uni043A.loclBGR" horiz-adv-x="523" 
d="M518 0h-94l-176 206h-94v-206h-80v700h80v-420h97l152 200h93l-182 -239z" />
    <glyph glyph-name="uni043B.loclBGR" horiz-adv-x="536" 
d="M522 0h-89l-165 390l-165 -390h-89l212 480h84z" />
    <glyph glyph-name="uni043F.loclBGR" 
d="M146 409c32 42 96 83 173 83c115 0 200 -79 200 -196v-296h-80v286c0 90 -55 132 -129 132c-71 0 -124 -48 -156 -96v-322h-80v480h72v-71z" />
    <glyph glyph-name="uni0442.loclBGR" horiz-adv-x="890" 
d="M154 0h-80v480h72v-64c26 28 83 76 164 76c72 0 125 -31 154 -81c43 44 102 81 175 81c119 0 183 -84 183 -196v-296h-80v298c0 73 -42 120 -112 120c-65 0 -113 -45 -140 -79c2 -14 3 -28 3 -43v-296h-80v298c0 73 -42 120 -112 120c-71 0 -121 -53 -147 -87v-331z" />
    <glyph glyph-name="uni0446.loclBGR" horiz-adv-x="615" 
d="M513 100c0 -29 16 -37 37 -37h33v-193h-74v125c-35 5 -64 25 -73 70c-33 -40 -95 -77 -168 -77c-125 0 -200 79 -200 196v296h80v-286c0 -90 45 -132 129 -132c71 0 124 48 156 96v322h80v-380z" />
    <glyph glyph-name="uni0448.loclBGR" horiz-adv-x="890" 
d="M736 480h80v-480h-72v64c-26 -28 -83 -76 -164 -76c-72 0 -125 31 -154 81c-43 -44 -102 -81 -175 -81c-119 0 -183 84 -183 196v296h80v-298c0 -73 42 -120 112 -120c65 0 113 45 140 79c-2 14 -3 28 -3 43v296h80v-298c0 -73 42 -120 112 -120c71 0 121 53 147 87v331z
" />
    <glyph glyph-name="uni0449.loclBGR" horiz-adv-x="918" 
d="M816 100c0 -29 16 -37 37 -37h33v-193h-74v125c-34 5 -62 24 -72 65c-28 -29 -83 -72 -160 -72c-72 0 -125 31 -154 81c-43 -44 -102 -81 -175 -81c-119 0 -183 84 -183 196v296h80v-298c0 -73 42 -120 112 -120c65 0 113 45 140 79c-2 14 -3 28 -3 43v296h80v-298
c0 -73 42 -120 112 -120c71 0 121 53 147 87v331h80v-380z" />
    <glyph glyph-name="uni044E.loclBGR" horiz-adv-x="823" 
d="M782 240c0 -164 -125 -252 -256 -252c-120 0 -237 76 -254 215h-118v-203h-80v700h80v-423h118c17 139 134 215 254 215c131 0 256 -88 256 -252zM350 240c0 -111 78 -176 176 -176s176 65 176 176s-78 176 -176 176s-176 -65 -176 -176z" />
    <glyph glyph-name="uni0430.ss01" horiz-adv-x="621" 
d="M475 80c-43 -49 -102 -92 -194 -92c-137 0 -240 108 -240 252s103 252 240 252c92 0 151 -43 194 -92v80h72v-480h-72v80zM121 240c0 -110 76 -178 169 -178c86 0 150 56 177 118v120c-27 62 -91 118 -177 118c-93 0 -169 -68 -169 -178z" />
    <glyph glyph-name="uni0437.ss01" horiz-adv-x="464" 
d="M387 326c0 -56 -21 -110 -99 -149c89 -20 147 -93 147 -189c0 -145 -117 -220 -250 -220c-55 0 -113 12 -166 47v76c49 -36 104 -50 155 -50c97 0 181 46 181 147c0 90 -66 159 -169 136l-68 -15v74l77 17c94 24 112 75 112 121c0 70 -58 97 -118 97
c-54 0 -111 -15 -161 -47v75c56 34 111 47 167 47c99 0 192 -55 192 -167z" />
    <glyph glyph-name="uni0443.ss01" 
d="M513 0c-4 -173 -131 -232 -250 -232c-66 0 -133 16 -174 40v74c39 -27 103 -40 164 -40c90 0 181 33 180 158v61c-34 -38 -94 -73 -165 -73c-125 0 -200 79 -200 196v296h80v-286c0 -90 45 -132 129 -132c71 0 124 48 156 96v322h80v-480z" />
    <glyph glyph-name="zero" unicode="0" horiz-adv-x="703" 
d="M51 340c0 201 94 352 300 352c207 0 301 -151 301 -352s-94 -352 -301 -352c-206 0 -300 151 -300 352zM567 340c0 170 -67 272 -216 272c-148 0 -215 -102 -215 -272s67 -272 215 -272c149 0 216 102 216 272z" />
    <glyph glyph-name="one" unicode="1" horiz-adv-x="430" 
d="M218 680h62v-600h127v-80h-354v80h143v511l-143 -54v80z" />
    <glyph glyph-name="two" unicode="2" horiz-adv-x="574" 
d="M68 626c68 47 143 66 218 66c139 0 232 -66 232 -182s-97 -183 -192 -239s-188 -102 -190 -192l387 1v-80h-479v40c0 166 122 229 228 291c85 50 162 92 162 180c0 67 -57 103 -155 103c-69 0 -141 -23 -211 -72v84z" />
    <glyph glyph-name="three" unicode="3" 
d="M510 507c0 -70 -41 -130 -99 -150c58 -18 127 -68 127 -172c0 -132 -113 -197 -249 -197c-97 0 -170 15 -237 45v83c69 -36 140 -50 230 -49c100 0 175 33 175 122c0 93 -74 122 -166 122h-104v80l95 -1c99 0 147 47 147 110c0 70 -57 114 -161 114
c-72 0 -138 -17 -204 -52v82c61 31 130 48 215 48c139 0 231 -75 231 -185z" />
    <glyph glyph-name="four" unicode="4" horiz-adv-x="645" 
d="M396 680h91v-451h128v-78h-128v-151h-83v151h-379v75zM404 229v338l-276 -338h276z" />
    <glyph glyph-name="five" unicode="5" horiz-adv-x="579" 
d="M94 680h408v-80h-329l-12 -192c36 10 76 15 116 15c128 0 258 -55 258 -218c0 -138 -116 -217 -264 -217c-79 0 -159 17 -218 46v80c58 -31 135 -48 208 -48c111 0 189 47 189 139c0 111 -96 142 -202 142c-60 0 -124 -13 -176 -32z" />
    <glyph glyph-name="six" unicode="6" horiz-adv-x="621" 
d="M137 359c69 46 135 65 213 65c113 0 233 -71 233 -213c0 -145 -111 -223 -244 -223c-197 0 -287 131 -287 341c0 250 134 363 309 363c58 0 116 -14 165 -39v-80c-51 27 -109 39 -163 39c-114 0 -216 -65 -226 -253zM138 275c13 -143 84 -209 195 -209
c91 0 165 38 165 141c0 107 -81 139 -169 139c-67 0 -136 -22 -191 -71z" />
    <glyph glyph-name="seven" unicode="7" horiz-adv-x="538" 
d="M27 680h490v-76l-284 -604h-90l282 600h-398v80z" />
    <glyph glyph-name="eight" unicode="8" horiz-adv-x="647" 
d="M73 516c0 86 74 176 248 176c157 0 250 -89 253 -187c2 -62 -28 -127 -93 -172c65 -32 117 -80 117 -160c0 -94 -80 -185 -271 -185c-186 0 -278 95 -278 199c0 62 36 136 116 183c-53 32 -92 78 -92 146zM331 306c-30 8 -63 18 -95 30c-70 -34 -103 -90 -103 -140
c0 -80 67 -130 196 -130c106 0 185 41 185 103c0 88 -89 109 -183 137zM490 490c0 67 -59 124 -171 124c-102 0 -162 -43 -162 -97c0 -88 92 -109 170 -133c25 -7 54 -14 83 -23c54 35 80 83 80 129z" />
    <glyph glyph-name="nine" unicode="9" horiz-adv-x="620" 
d="M38 469c0 145 111 223 244 223c197 0 287 -131 287 -341c0 -250 -134 -363 -309 -363c-58 0 -116 14 -165 39v80c51 -27 109 -39 163 -39c114 0 216 65 226 253c-69 -46 -135 -65 -213 -65c-113 0 -233 71 -233 213zM288 614c-91 0 -165 -38 -165 -141
c0 -107 81 -139 169 -139c67 0 136 22 191 71c-13 143 -84 209 -195 209z" />
    <glyph glyph-name="zero.osf" horiz-adv-x="650" 
d="M605 260c0 -131 -94 -272 -280 -272s-280 141 -280 272s94 272 280 272s280 -141 280 -272zM130 260c0 -100 67 -192 195 -192s195 92 195 192s-67 192 -195 192s-195 -92 -195 -192z" />
    <glyph glyph-name="one.osf" horiz-adv-x="434" 
d="M220 520h62v-440h127v-80h-354v80h143v351l-143 -54v80z" />
    <glyph glyph-name="two.osf" horiz-adv-x="532" 
d="M482 0h-439v50c0 124 117 155 212 197c63 28 138 53 138 118c0 55 -57 89 -130 89c-64 0 -126 -20 -196 -61v84c68 39 133 55 203 55c114 0 207 -64 207 -168c0 -109 -112 -153 -193 -189c-76 -34 -149 -58 -149 -96l347 1v-80z" />
    <glyph glyph-name="three.osf" horiz-adv-x="543" 
d="M472 347c0 -70 -41 -130 -99 -150c58 -18 127 -68 127 -172c0 -132 -123 -197 -239 -197c-92 0 -155 15 -217 45v83c64 -36 125 -49 210 -49c80 0 165 33 165 122c0 93 -74 122 -146 122h-94v80l85 -1c79 -1 127 47 127 110c0 70 -58 114 -146 114
c-67 0 -128 -17 -189 -52v82c56 31 120 48 200 48c123 0 216 -75 216 -185z" />
    <glyph glyph-name="four.osf" horiz-adv-x="594" 
d="M360 520h91v-451h118v-78h-118v-151h-83v151h-349v75zM368 69v333l-250 -333h250z" />
    <glyph glyph-name="five.osf" horiz-adv-x="535" 
d="M88 520h378v-80h-299l-12 -192c36 10 76 15 106 15c108 0 238 -55 238 -218c0 -138 -121 -217 -254 -217c-74 0 -139 17 -198 46v80c58 -31 120 -48 188 -48c96 0 179 47 179 139c0 111 -96 142 -182 142c-50 0 -114 -13 -166 -32z" />
    <glyph glyph-name="six.osf" horiz-adv-x="592" 
d="M136 361c62 45 125 63 193 63c103 0 223 -71 223 -213c0 -145 -111 -223 -234 -223c-177 0 -267 131 -267 341c0 250 144 363 299 363c58 0 106 -14 155 -39v-80c-51 27 -99 39 -153 39c-94 0 -204 -65 -216 -251zM137 275c13 -143 82 -209 175 -209c81 0 155 38 155 141
c0 107 -81 139 -159 139c-58 0 -118 -22 -171 -71z" />
    <glyph glyph-name="seven.osf" horiz-adv-x="494" 
d="M20 520h460v-76l-274 -604h-90l272 600h-368v80z" />
    <glyph glyph-name="eight.osf" horiz-adv-x="617" 
d="M73 516c0 86 75 176 233 176c140 0 235 -89 238 -187c2 -62 -28 -127 -93 -172c65 -32 117 -80 117 -160c0 -94 -75 -185 -256 -185c-166 0 -263 91 -263 199c0 62 36 136 116 183c-53 32 -92 78 -92 146zM312 308c-23 8 -48 17 -76 28c-70 -34 -103 -90 -103 -140
c0 -84 72 -130 181 -130c96 0 170 41 170 103c0 75 -45 92 -172 139zM460 490c0 67 -61 124 -156 124c-86 0 -147 -43 -147 -97c0 -66 48 -97 154 -134c21 -7 44 -14 69 -22c54 35 80 83 80 129z" />
    <glyph glyph-name="nine.osf" horiz-adv-x="579" 
d="M33 309c0 145 111 223 234 223c177 0 267 -131 267 -341c0 -250 -144 -363 -299 -363c-58 0 -106 14 -155 39v80c51 -27 99 -39 153 -39c94 0 204 65 216 251c-62 -45 -125 -63 -193 -63c-103 0 -223 71 -223 213zM273 454c-81 0 -155 -38 -155 -141
c0 -107 81 -139 159 -139c58 0 118 22 171 71c-13 143 -82 209 -175 209z" />
    <glyph glyph-name="zero.sinf" horiz-adv-x="436" 
d="M401 104c0 -119 -56 -212 -183 -212s-183 93 -183 212s56 212 183 212s183 -93 183 -212zM105 104c0 -94 34 -146 113 -146s113 52 113 146s-34 146 -113 146s-113 -52 -113 -146z" />
    <glyph glyph-name="one.sinf" horiz-adv-x="280" 
d="M138 308h52v-342h70v-66h-225v66h86v269l-82 -31v66z" />
    <glyph glyph-name="two.sinf" horiz-adv-x="362" 
d="M45 275c41 29 89 41 136 41c87 0 144 -41 144 -115c0 -69 -58 -112 -113 -145c-53 -31 -103 -56 -105 -91l220 1v-66h-296v32c0 99 73 137 135 173c47 28 89 50 89 97c0 34 -27 49 -80 49c-42 0 -87 -15 -130 -46v70z" />
    <glyph glyph-name="three.sinf" horiz-adv-x="366" 
d="M317 203c0 -42 -24 -75 -48 -88c25 -12 64 -41 64 -102c0 -82 -73 -121 -156 -121c-55 0 -99 9 -142 28v68c44 -24 86 -31 136 -31c53 0 95 12 95 60s-37 60 -85 60h-65v66h57c50 0 77 19 77 54c0 37 -30 54 -86 54c-40 0 -82 -10 -122 -33v68c37 19 81 30 131 30
c85 0 144 -43 144 -113z" />
    <glyph glyph-name="four.sinf" horiz-adv-x="402" 
d="M234 308h75v-259h70v-65h-70v-84h-68v84h-220v63zM241 49v166l-135 -166h135z" />
    <glyph glyph-name="five.sinf" horiz-adv-x="362" 
d="M60 308h252v-66h-186l-5 -83c16 4 34 6 53 6c76 0 158 -33 158 -137c0 -89 -76 -136 -166 -136c-47 0 -95 10 -131 28v66c34 -19 80 -29 122 -29c60 0 104 20 104 71c0 62 -54 74 -112 74c-35 0 -73 -8 -102 -19z" />
    <glyph glyph-name="six.sinf" horiz-adv-x="391" 
d="M107 134c40 20 73 25 115 25c67 0 143 -44 143 -130c0 -90 -70 -137 -152 -137c-124 0 -178 80 -178 209c0 145 85 215 189 215c37 0 74 -9 106 -24v-67c-33 18 -70 25 -104 25c-51 0 -107 -29 -119 -116zM106 66c8 -79 47 -109 102 -109c47 0 86 13 86 69
c0 57 -44 69 -90 69c-33 0 -68 -8 -98 -29z" />
    <glyph glyph-name="seven.sinf" horiz-adv-x="329" 
d="M155 -100h-75l156 342h-217v66h292v-64z" />
    <glyph glyph-name="eight.sinf" horiz-adv-x="403" 
d="M47 206c0 53 46 110 152 110c92 0 154 -54 157 -117c1 -30 -11 -68 -47 -97c33 -19 61 -49 61 -95c0 -58 -48 -115 -166 -115c-114 0 -171 59 -171 122c0 31 17 74 62 105c-27 20 -48 48 -48 87zM208 73c-16 5 -35 10 -54 18c-37 -20 -51 -49 -51 -69
c0 -43 39 -66 103 -66c48 0 94 15 94 48c0 44 -44 54 -92 69zM286 186c0 38 -33 66 -88 66c-47 0 -81 -18 -81 -45c0 -45 45 -55 88 -69c13 -4 29 -7 46 -13c26 21 35 45 35 61z" />
    <glyph glyph-name="nine.sinf" horiz-adv-x="391" 
d="M26 179c0 90 70 137 152 137c124 0 178 -80 178 -209c0 -145 -85 -215 -190 -215c-36 0 -74 9 -106 24v67c34 -18 71 -25 105 -25c51 0 107 29 119 116c-40 -20 -73 -25 -115 -25c-67 0 -143 44 -143 130zM183 251c-47 0 -87 -13 -87 -69c0 -57 44 -69 91 -69
c33 0 68 8 98 29c-8 79 -47 109 -102 109z" />
    <glyph glyph-name="zero.sups" horiz-adv-x="436" 
d="M401 580c0 -119 -56 -212 -183 -212s-183 93 -183 212s56 212 183 212s183 -93 183 -212zM105 580c0 -94 34 -146 113 -146s113 52 113 146s-34 146 -113 146s-113 -52 -113 -146z" />
    <glyph glyph-name="one.sups" horiz-adv-x="280" 
d="M138 780h52v-342h70v-66h-225v66h86v269l-82 -31v66z" />
    <glyph glyph-name="two.sups" horiz-adv-x="362" 
d="M45 751c41 29 89 41 136 41c87 0 144 -41 144 -115c0 -69 -58 -112 -113 -145c-53 -31 -103 -56 -105 -91l220 1v-66h-296v32c0 99 73 137 135 173c47 28 89 50 89 97c0 34 -27 49 -80 49c-42 0 -87 -15 -130 -46v70z" />
    <glyph glyph-name="three.sups" horiz-adv-x="366" 
d="M317 679c0 -42 -24 -75 -48 -88c25 -12 64 -41 64 -102c0 -82 -73 -121 -156 -121c-55 0 -99 9 -142 28v68c44 -24 86 -31 136 -31c53 0 95 12 95 60s-37 60 -85 60h-65v66h57c50 0 77 19 77 54c0 37 -30 54 -86 54c-40 0 -82 -10 -122 -33v68c37 19 81 30 131 30
c85 0 144 -43 144 -113z" />
    <glyph glyph-name="four.sups" horiz-adv-x="402" 
d="M234 780h75v-259h70v-65h-70v-84h-68v84h-220v63zM241 521v166l-135 -166h135z" />
    <glyph glyph-name="five.sups" horiz-adv-x="362" 
d="M60 780h252v-66h-186l-5 -83c16 4 34 6 53 6c76 0 158 -33 158 -137c0 -89 -76 -136 -166 -136c-47 0 -95 10 -131 28v66c34 -19 80 -29 122 -29c60 0 104 20 104 71c0 62 -54 74 -112 74c-35 0 -73 -8 -102 -19z" />
    <glyph glyph-name="six.sups" horiz-adv-x="391" 
d="M107 610c40 20 73 25 115 25c67 0 143 -44 143 -130c0 -90 -70 -137 -152 -137c-124 0 -178 80 -178 209c0 145 85 215 189 215c37 0 74 -9 106 -24v-67c-33 18 -70 25 -104 25c-51 0 -107 -29 -119 -116zM106 542c8 -79 47 -109 102 -109c47 0 86 13 86 69
c0 57 -44 69 -90 69c-33 0 -68 -8 -98 -29z" />
    <glyph glyph-name="seven.sups" horiz-adv-x="329" 
d="M155 372h-75l156 342h-217v66h292v-64z" />
    <glyph glyph-name="eight.sups" horiz-adv-x="403" 
d="M47 682c0 53 46 110 152 110c92 0 154 -54 157 -117c1 -30 -11 -68 -47 -97c33 -19 61 -49 61 -95c0 -58 -48 -115 -166 -115c-114 0 -171 59 -171 122c0 31 17 74 62 105c-27 20 -48 48 -48 87zM208 549c-16 5 -35 10 -54 18c-37 -20 -51 -49 -51 -69
c0 -43 39 -66 103 -66c48 0 94 15 94 48c0 44 -44 54 -92 69zM286 662c0 38 -33 66 -88 66c-47 0 -81 -18 -81 -45c0 -45 45 -55 88 -69c13 -4 29 -7 46 -13c26 21 35 45 35 61z" />
    <glyph glyph-name="nine.sups" horiz-adv-x="391" 
d="M26 655c0 90 70 137 152 137c124 0 178 -80 178 -209c0 -145 -85 -215 -190 -215c-36 0 -74 9 -106 24v67c34 -18 71 -25 105 -25c51 0 107 29 119 116c-40 -20 -73 -25 -115 -25c-67 0 -143 44 -143 130zM183 727c-47 0 -87 -13 -87 -69c0 -57 44 -69 91 -69
c33 0 68 8 98 29c-8 79 -47 109 -102 109z" />
    <glyph glyph-name="zero.tf" horiz-adv-x="630" 
d="M590 340c0 -201 -94 -352 -275 -352s-275 151 -275 352s94 352 275 352s275 -151 275 -352zM125 340c0 -170 67 -272 190 -272s190 102 190 272s-67 272 -190 272s-190 -102 -190 -272z" />
    <glyph glyph-name="one.tf" horiz-adv-x="630" 
d="M315 680h62v-600h207v-80h-515v80h224v511l-191 -71v80z" />
    <glyph glyph-name="two.tf" horiz-adv-x="630" 
d="M80 626c72 47 147 66 228 66c149 0 242 -66 242 -182s-87 -183 -192 -239c-97 -52 -198 -102 -200 -192l407 1v-80h-499v40c0 166 129 234 238 291c95 50 162 92 162 180c0 67 -57 103 -165 103c-75 0 -147 -23 -221 -72v84z" />
    <glyph glyph-name="three.tf" horiz-adv-x="630" 
d="M542 507c0 -70 -41 -130 -99 -150c58 -18 127 -68 127 -172c0 -132 -113 -197 -259 -197c-97 0 -180 19 -247 49v83c69 -36 150 -54 240 -53c110 1 185 33 185 122c0 93 -74 122 -176 122h-114v80l105 -1c109 -1 157 47 157 110c0 70 -57 114 -171 114
c-72 0 -146 -20 -214 -56v82c63 32 140 52 225 52c149 0 241 -75 241 -185z" />
    <glyph glyph-name="four.tf" horiz-adv-x="630" 
d="M393 680h91v-451h118v-78h-118v-151h-83v151h-379v75zM401 229v338l-276 -338h276z" />
    <glyph glyph-name="five.tf" horiz-adv-x="630" 
d="M110 680h428v-80h-349l-12 -192c36 10 76 15 126 15c138 0 268 -55 268 -218c0 -138 -116 -217 -274 -217c-89 0 -169 17 -228 46v80c58 -31 135 -48 218 -48c121 0 199 47 199 139c0 111 -96 142 -212 142c-70 0 -134 -13 -186 -32z" />
    <glyph glyph-name="six.tf" horiz-adv-x="630" 
d="M141 359c69 46 135 65 213 65c113 0 233 -71 233 -213c0 -145 -111 -223 -244 -223c-197 0 -287 131 -287 341c0 250 134 363 309 363c58 0 116 -14 165 -39v-80c-51 27 -109 39 -163 39c-114 0 -216 -65 -226 -253zM142 275c13 -143 84 -209 195 -209
c91 0 165 38 165 141c0 107 -81 139 -169 139c-67 0 -136 -22 -191 -71z" />
    <glyph glyph-name="seven.tf" horiz-adv-x="630" 
d="M58 680h520v-76l-294 -604h-90l292 600h-428v80z" />
    <glyph glyph-name="eight.tf" horiz-adv-x="630" 
d="M64 516c0 86 74 176 248 176c157 0 250 -89 253 -187c2 -62 -28 -127 -93 -172c65 -32 117 -80 117 -160c0 -94 -80 -185 -271 -185c-186 0 -278 95 -278 199c0 62 36 136 116 183c-53 32 -92 78 -92 146zM322 306c-30 8 -63 18 -95 30c-70 -34 -103 -90 -103 -140
c0 -80 67 -130 196 -130c106 0 185 41 185 103c0 88 -89 109 -183 137zM481 490c0 67 -59 124 -171 124c-102 0 -162 -43 -162 -97c0 -88 92 -109 170 -133c25 -7 54 -14 83 -23c54 35 80 83 80 129z" />
    <glyph glyph-name="nine.tf" horiz-adv-x="630" 
d="M43 469c0 145 111 223 244 223c197 0 287 -131 287 -341c0 -250 -134 -363 -309 -363c-58 0 -116 14 -165 39v80c51 -27 109 -39 163 -39c114 0 216 65 226 253c-69 -46 -135 -65 -213 -65c-113 0 -233 71 -233 213zM293 614c-91 0 -165 -38 -165 -141
c0 -107 81 -139 169 -139c67 0 136 22 191 71c-13 143 -84 209 -195 209z" />
    <glyph glyph-name="zero.tosf" horiz-adv-x="630" 
d="M595 260c0 -131 -94 -272 -280 -272s-280 141 -280 272s94 272 280 272s280 -141 280 -272zM120 260c0 -100 67 -192 195 -192s195 92 195 192s-67 192 -195 192s-195 -92 -195 -192z" />
    <glyph glyph-name="one.tosf" horiz-adv-x="630" 
d="M314 520h62v-440h207v-80h-515v80h224v351l-191 -71v80z" />
    <glyph glyph-name="two.tosf" horiz-adv-x="630" 
d="M556 0h-489v50c0 134 142 170 242 197c103 28 158 51 158 114c0 57 -57 93 -160 93c-64 0 -146 -23 -216 -72v84c68 47 153 66 223 66c144 0 237 -66 237 -172c0 -107 -92 -149 -213 -185c-80 -24 -179 -48 -179 -96l397 1v-80z" />
    <glyph glyph-name="three.tosf" horiz-adv-x="630" 
d="M536 347c0 -70 -41 -130 -99 -150c58 -18 127 -68 127 -172c0 -132 -113 -197 -254 -197c-102 0 -175 15 -242 45v83c69 -36 140 -50 235 -49c105 1 180 33 180 122c0 93 -74 122 -171 122h-109v80l100 -1c104 -1 152 47 152 110c0 70 -57 114 -166 114
c-77 0 -143 -17 -209 -52v82c61 31 130 48 220 48c144 0 236 -75 236 -185z" />
    <glyph glyph-name="four.tosf" horiz-adv-x="630" 
d="M388 520h91v-451h128v-78h-128v-151h-83v151h-379v75zM396 69v338l-276 -338h276z" />
    <glyph glyph-name="five.tosf" horiz-adv-x="630" 
d="M115 520h418v-80h-339l-12 -192c36 10 76 15 126 15c128 0 258 -55 258 -218c0 -138 -116 -217 -264 -217c-89 0 -169 17 -228 46v80c58 -31 135 -48 218 -48c111 0 189 47 189 139c0 111 -96 142 -202 142c-70 0 -134 -13 -186 -32z" />
    <glyph glyph-name="six.tosf" horiz-adv-x="630" 
d="M141 359c69 46 135 65 213 65c113 0 233 -71 233 -213c0 -145 -111 -223 -244 -223c-197 0 -287 131 -287 341c0 250 134 363 309 363c58 0 116 -14 165 -39v-80c-51 27 -109 39 -163 39c-114 0 -216 -65 -226 -253zM142 275c13 -143 84 -209 195 -209
c91 0 165 38 165 141c0 107 -81 139 -169 139c-67 0 -136 -22 -191 -71z" />
    <glyph glyph-name="seven.tosf" horiz-adv-x="630" 
d="M57 520h520v-76l-294 -604h-90l292 600h-428v80z" />
    <glyph glyph-name="eight.tosf" horiz-adv-x="630" 
d="M65 516c0 86 74 176 248 176c157 0 250 -89 253 -187c2 -62 -28 -127 -93 -172c65 -32 117 -80 117 -160c0 -94 -80 -185 -271 -185c-186 0 -278 95 -278 199c0 62 36 136 116 183c-53 32 -92 78 -92 146zM323 306c-30 8 -63 18 -95 30c-70 -34 -103 -90 -103 -140
c0 -80 67 -130 196 -130c106 0 185 41 185 103c0 88 -89 109 -183 137zM482 490c0 67 -59 124 -171 124c-102 0 -162 -43 -162 -97c0 -88 92 -109 170 -133c25 -7 54 -14 83 -23c54 35 80 83 80 129z" />
    <glyph glyph-name="nine.tosf" horiz-adv-x="630" 
d="M43 309c0 145 111 223 244 223c197 0 287 -131 287 -341c0 -250 -134 -363 -309 -363c-58 0 -116 14 -165 39v80c51 -27 109 -39 163 -39c114 0 216 65 226 253c-69 -46 -135 -65 -213 -65c-113 0 -233 71 -233 213zM293 454c-91 0 -165 -38 -165 -141
c0 -107 81 -139 169 -139c67 0 136 22 191 71c-13 143 -84 209 -195 209z" />
    <glyph glyph-name="fraction" unicode="&#x2044;" horiz-adv-x="171" 
d="M-126 -13h-35l458 725h35z" />
    <glyph glyph-name="onehalf" unicode="&#xbd;" horiz-adv-x="882" 
d="M222 -13h-35l458 725h35zM559 375c41 29 89 41 136 41c87 0 144 -41 144 -115c0 -69 -58 -112 -113 -145c-53 -31 -103 -56 -105 -91l220 1v-66h-296v32c0 99 73 137 135 173c47 28 89 50 89 97c0 34 -27 49 -80 49c-42 0 -87 -15 -130 -46v70zM152 680h52v-342h70v-66
h-225v66h86v269l-82 -31v66z" />
    <glyph glyph-name="onequarter" unicode="&#xbc;" horiz-adv-x="922" 
d="M742 408h75v-259h70v-65h-70v-84h-68v84h-220v63zM749 149v166l-135 -166h135zM226 -13h-35l458 725h35zM156 680h52v-342h70v-66h-225v66h86v269l-82 -31v66z" />
    <glyph glyph-name="threequarters" unicode="&#xbe;" horiz-adv-x="978" 
d="M292 -13h-35l458 725h35zM798 408h75v-259h70v-65h-70v-84h-68v84h-220v63zM805 149v166l-135 -166h135zM332 579c0 -42 -24 -75 -48 -88c25 -12 64 -41 64 -102c0 -82 -73 -121 -156 -121c-55 0 -99 9 -142 28v68c44 -24 86 -31 136 -31c53 0 95 12 95 60s-37 60 -85 60
h-65v66h57c50 0 77 19 77 54c0 37 -30 54 -86 54c-40 0 -82 -10 -122 -33v68c37 19 81 30 131 30c85 0 144 -43 144 -113z" />
    <glyph glyph-name="oneeighth" unicode="&#x215b;" horiz-adv-x="910" 
d="M551 306c0 53 46 110 152 110c92 0 154 -54 157 -117c1 -30 -11 -68 -47 -97c33 -19 61 -49 61 -95c0 -58 -48 -115 -166 -115c-114 0 -171 59 -171 122c0 31 17 74 62 105c-27 20 -48 48 -48 87zM712 173c-16 5 -35 10 -54 18c-37 -20 -51 -49 -51 -69
c0 -43 39 -66 103 -66c48 0 94 15 94 48c0 44 -44 54 -92 69zM790 286c0 38 -33 66 -88 66c-47 0 -81 -18 -81 -45c0 -45 45 -55 88 -69c13 -4 29 -7 46 -13c26 21 35 45 35 61zM214 -13h-35l458 725h35zM154 680h52v-342h70v-66h-225v66h86v269l-82 -31v66z" />
    <glyph glyph-name="threeeighths" unicode="&#x215c;" horiz-adv-x="947" 
d="M588 306c0 53 46 110 152 110c92 0 154 -54 157 -117c1 -30 -11 -68 -47 -97c33 -19 61 -49 61 -95c0 -58 -48 -115 -166 -115c-114 0 -171 59 -171 122c0 31 17 74 62 105c-27 20 -48 48 -48 87zM749 173c-16 5 -35 10 -54 18c-37 -20 -51 -49 -51 -69
c0 -43 39 -66 103 -66c48 0 94 15 94 48c0 44 -44 54 -92 69zM827 286c0 38 -33 66 -88 66c-47 0 -81 -18 -81 -45c0 -45 45 -55 88 -69c13 -4 29 -7 46 -13c26 21 35 45 35 61zM261 -13h-35l458 725h35zM330 579c0 -42 -24 -75 -48 -88c25 -12 64 -41 64 -102
c0 -82 -73 -121 -156 -121c-55 0 -99 9 -142 28v68c44 -24 86 -31 136 -31c53 0 95 12 95 60s-37 60 -85 60h-65v66h57c50 0 77 19 77 54c0 37 -30 54 -86 54c-40 0 -82 -10 -122 -33v68c37 19 81 30 131 30c85 0 144 -43 144 -113z" />
    <glyph glyph-name="fiveeighths" unicode="&#x215d;" horiz-adv-x="937" 
d="M578 306c0 53 46 110 152 110c92 0 154 -54 157 -117c1 -30 -11 -68 -47 -97c33 -19 61 -49 61 -95c0 -58 -48 -115 -166 -115c-114 0 -171 59 -171 122c0 31 17 74 62 105c-27 20 -48 48 -48 87zM739 173c-16 5 -35 10 -54 18c-37 -20 -51 -49 -51 -69
c0 -43 39 -66 103 -66c48 0 94 15 94 48c0 44 -44 54 -92 69zM817 286c0 38 -33 66 -88 66c-47 0 -81 -18 -81 -45c0 -45 45 -55 88 -69c13 -4 29 -7 46 -13c26 21 35 45 35 61zM251 -13h-35l458 725h35zM71 680h252v-66h-186l-5 -83c16 4 34 6 53 6c76 0 158 -33 158 -137
c0 -89 -76 -136 -166 -136c-47 0 -95 10 -131 28v66c34 -19 80 -29 122 -29c60 0 104 20 104 71c0 62 -54 74 -112 74c-35 0 -73 -8 -102 -19z" />
    <glyph glyph-name="seveneighths" unicode="&#x215e;" horiz-adv-x="849" 
d="M158 -13h-35l458 725h35zM490 306c0 53 46 110 152 110c92 0 154 -54 157 -117c1 -30 -11 -68 -47 -97c33 -19 61 -49 61 -95c0 -58 -48 -115 -166 -115c-114 0 -171 59 -171 122c0 31 17 74 62 105c-27 20 -48 48 -48 87zM651 173c-16 5 -35 10 -54 18
c-37 -20 -51 -49 -51 -69c0 -43 39 -66 103 -66c48 0 94 15 94 48c0 44 -44 54 -92 69zM729 286c0 38 -33 66 -88 66c-47 0 -81 -18 -81 -45c0 -45 45 -55 88 -69c13 -4 29 -7 46 -13c26 21 35 45 35 61zM172 272h-75l156 342h-217v66h292v-64z" />
    <glyph glyph-name="zero.dnom" horiz-adv-x="436" 
d="M401 204c0 -119 -56 -212 -183 -212s-183 93 -183 212s56 212 183 212s183 -93 183 -212zM105 204c0 -94 34 -146 113 -146s113 52 113 146s-34 146 -113 146s-113 -52 -113 -146z" />
    <glyph glyph-name="one.dnom" horiz-adv-x="280" 
d="M138 408h52v-342h70v-66h-225v66h86v269l-82 -31v66z" />
    <glyph glyph-name="two.dnom" horiz-adv-x="362" 
d="M45 375c41 29 89 41 136 41c87 0 144 -41 144 -115c0 -69 -58 -112 -113 -145c-53 -31 -103 -56 -105 -91l220 1v-66h-296v32c0 99 73 137 135 173c47 28 89 50 89 97c0 34 -27 49 -80 49c-42 0 -87 -15 -130 -46v70z" />
    <glyph glyph-name="three.dnom" horiz-adv-x="366" 
d="M317 303c0 -42 -24 -75 -48 -88c25 -12 64 -41 64 -102c0 -82 -73 -121 -156 -121c-55 0 -99 9 -142 28v68c44 -24 86 -31 136 -31c53 0 95 12 95 60s-37 60 -85 60h-65v66h57c50 0 77 19 77 54c0 37 -30 54 -86 54c-40 0 -82 -10 -122 -33v68c37 19 81 30 131 30
c85 0 144 -43 144 -113z" />
    <glyph glyph-name="four.dnom" horiz-adv-x="402" 
d="M234 408h75v-259h70v-65h-70v-84h-68v84h-220v63zM241 149v166l-135 -166h135z" />
    <glyph glyph-name="five.dnom" horiz-adv-x="362" 
d="M60 408h252v-66h-186l-5 -83c16 4 34 6 53 6c76 0 158 -33 158 -137c0 -89 -76 -136 -166 -136c-47 0 -95 10 -131 28v66c34 -19 80 -29 122 -29c60 0 104 20 104 71c0 62 -54 74 -112 74c-35 0 -73 -8 -102 -19z" />
    <glyph glyph-name="six.dnom" horiz-adv-x="391" 
d="M107 234c40 20 73 25 115 25c67 0 143 -44 143 -130c0 -90 -70 -137 -152 -137c-124 0 -178 80 -178 209c0 145 85 215 189 215c37 0 74 -9 106 -24v-67c-33 18 -70 25 -104 25c-51 0 -107 -29 -119 -116zM106 166c8 -79 47 -109 102 -109c47 0 86 13 86 69
c0 57 -44 69 -90 69c-33 0 -68 -8 -98 -29z" />
    <glyph glyph-name="seven.dnom" horiz-adv-x="329" 
d="M155 0h-75l156 342h-217v66h292v-64z" />
    <glyph glyph-name="eight.dnom" horiz-adv-x="403" 
d="M47 306c0 53 46 110 152 110c92 0 154 -54 157 -117c1 -30 -11 -68 -47 -97c33 -19 61 -49 61 -95c0 -58 -48 -115 -166 -115c-114 0 -171 59 -171 122c0 31 17 74 62 105c-27 20 -48 48 -48 87zM208 173c-16 5 -35 10 -54 18c-37 -20 -51 -49 -51 -69
c0 -43 39 -66 103 -66c48 0 94 15 94 48c0 44 -44 54 -92 69zM286 286c0 38 -33 66 -88 66c-47 0 -81 -18 -81 -45c0 -45 45 -55 88 -69c13 -4 29 -7 46 -13c26 21 35 45 35 61z" />
    <glyph glyph-name="nine.dnom" horiz-adv-x="391" 
d="M26 279c0 90 70 137 152 137c124 0 178 -80 178 -209c0 -145 -85 -215 -190 -215c-36 0 -74 9 -106 24v67c34 -18 71 -25 105 -25c51 0 107 29 119 116c-40 -20 -73 -25 -115 -25c-67 0 -143 44 -143 130zM183 351c-47 0 -87 -13 -87 -69c0 -57 44 -69 91 -69
c33 0 68 8 98 29c-8 79 -47 109 -102 109z" />
    <glyph glyph-name="zero.numr" horiz-adv-x="436" 
d="M401 480c0 -119 -56 -212 -183 -212s-183 93 -183 212s56 212 183 212s183 -93 183 -212zM105 480c0 -94 34 -146 113 -146s113 52 113 146s-34 146 -113 146s-113 -52 -113 -146z" />
    <glyph glyph-name="one.numr" horiz-adv-x="280" 
d="M138 680h52v-342h70v-66h-225v66h86v269l-82 -31v66z" />
    <glyph glyph-name="two.numr" horiz-adv-x="362" 
d="M45 651c41 29 89 41 136 41c87 0 144 -41 144 -115c0 -69 -58 -112 -113 -145c-53 -31 -103 -56 -105 -91l220 1v-66h-296v32c0 99 73 137 135 173c47 28 89 50 89 97c0 34 -27 49 -80 49c-42 0 -87 -15 -130 -46v70z" />
    <glyph glyph-name="three.numr" horiz-adv-x="366" 
d="M317 579c0 -42 -24 -75 -48 -88c25 -12 64 -41 64 -102c0 -82 -73 -121 -156 -121c-55 0 -99 9 -142 28v68c44 -24 86 -31 136 -31c53 0 95 12 95 60s-37 60 -85 60h-65v66h57c50 0 77 19 77 54c0 37 -30 54 -86 54c-40 0 -82 -10 -122 -33v68c37 19 81 30 131 30
c85 0 144 -43 144 -113z" />
    <glyph glyph-name="four.numr" horiz-adv-x="402" 
d="M234 680h75v-259h70v-65h-70v-84h-68v84h-220v63zM241 421v166l-135 -166h135z" />
    <glyph glyph-name="five.numr" horiz-adv-x="362" 
d="M60 680h252v-66h-186l-5 -83c16 4 34 6 53 6c76 0 158 -33 158 -137c0 -89 -76 -136 -166 -136c-47 0 -95 10 -131 28v66c34 -19 80 -29 122 -29c60 0 104 20 104 71c0 62 -54 74 -112 74c-35 0 -73 -8 -102 -19z" />
    <glyph glyph-name="six.numr" horiz-adv-x="391" 
d="M107 510c40 20 73 25 115 25c67 0 143 -44 143 -130c0 -90 -70 -137 -152 -137c-124 0 -178 80 -178 209c0 145 85 215 189 215c37 0 74 -9 106 -24v-67c-33 18 -70 25 -104 25c-51 0 -107 -29 -119 -116zM106 442c8 -79 47 -109 102 -109c47 0 86 13 86 69
c0 57 -44 69 -90 69c-33 0 -68 -8 -98 -29z" />
    <glyph glyph-name="seven.numr" horiz-adv-x="329" 
d="M155 272h-75l156 342h-217v66h292v-64z" />
    <glyph glyph-name="eight.numr" horiz-adv-x="403" 
d="M47 582c0 53 46 110 152 110c92 0 154 -54 157 -117c1 -30 -11 -68 -47 -97c33 -19 61 -49 61 -95c0 -58 -48 -115 -166 -115c-114 0 -171 59 -171 122c0 31 17 74 62 105c-27 20 -48 48 -48 87zM208 449c-16 5 -35 10 -54 18c-37 -20 -51 -49 -51 -69
c0 -43 39 -66 103 -66c48 0 94 15 94 48c0 44 -44 54 -92 69zM286 562c0 38 -33 66 -88 66c-47 0 -81 -18 -81 -45c0 -45 45 -55 88 -69c13 -4 29 -7 46 -13c26 21 35 45 35 61z" />
    <glyph glyph-name="nine.numr" horiz-adv-x="391" 
d="M26 555c0 90 70 137 152 137c124 0 178 -80 178 -209c0 -145 -85 -215 -190 -215c-36 0 -74 9 -106 24v67c34 -18 71 -25 105 -25c51 0 107 29 119 116c-40 -20 -73 -25 -115 -25c-67 0 -143 44 -143 130zM183 627c-47 0 -87 -13 -87 -69c0 -57 44 -69 91 -69
c33 0 68 8 98 29c-8 79 -47 109 -102 109z" />
    <glyph glyph-name="asterisk" unicode="*" horiz-adv-x="445" 
d="M223 492l-75 -120l-61 42l87 106l-130 32l26 70l124 -49l-8 127h74l-9 -127l125 49l25 -70l-130 -32l87 -106l-60 -42z" />
    <glyph glyph-name="backslash" unicode="\" horiz-adv-x="423" 
d="M391 -58h-60l-298 816h60z" />
    <glyph glyph-name="periodcentered" unicode="&#xb7;" horiz-adv-x="233" 
d="M169 239c0 -34 -24 -51 -52 -51s-53 17 -53 51s25 51 53 51s52 -17 52 -51z" />
    <glyph glyph-name="bullet" unicode="&#x2022;" horiz-adv-x="335" 
d="M86 350c0 53 38 79 81 79c44 0 82 -26 82 -79s-38 -79 -82 -79c-43 0 -81 26 -81 79z" />
    <glyph glyph-name="colon" unicode=":" horiz-adv-x="232" 
d="M168 390c0 -34 -24 -51 -53 -51c-27 0 -52 17 -52 51s25 51 52 51c29 0 53 -17 53 -51zM168 42c0 -34 -24 -51 -53 -51c-27 0 -52 17 -52 51c0 33 25 50 52 50c29 0 53 -17 53 -50z" />
    <glyph glyph-name="comma" unicode="," horiz-adv-x="224" 
d="M86 -150h-65l55 230h85z" />
    <glyph glyph-name="ellipsis" unicode="&#x2026;" horiz-adv-x="589" 
d="M534 42c0 -34 -24 -51 -53 -51c-27 0 -52 17 -52 51c0 33 25 50 52 50c29 0 53 -17 53 -50zM160 42c0 -34 -24 -51 -52 -51s-53 17 -53 51c0 33 25 50 53 50s52 -17 52 -50zM347 42c0 -34 -24 -51 -52 -51s-53 17 -53 51c0 33 25 50 53 50s52 -17 52 -50z" />
    <glyph glyph-name="exclam" unicode="!" horiz-adv-x="230" 
d="M150 203h-70l-7 497h84zM166 40c0 -33 -24 -50 -51 -50s-51 17 -51 50s24 50 51 50s51 -17 51 -50z" />
    <glyph glyph-name="exclamdown" unicode="&#xa1;" horiz-adv-x="218" 
d="M151 -218h-84l7 497h70zM160 442c0 -33 -24 -50 -51 -50s-51 17 -51 50s24 50 51 50s51 -17 51 -50z" />
    <glyph glyph-name="numbersign" unicode="#" horiz-adv-x="653" 
d="M155 0h-80l40 171h-78v70h95l47 199h-92v70h109l40 171h80l-40 -171h182l40 171h80l-40 -171h77v-70h-94l-47 -199h91v-70h-108l-40 -171h-80l40 171h-182zM259 440l-47 -199h182l47 199h-182z" />
    <glyph glyph-name="period" unicode="." horiz-adv-x="215" 
d="M160 42c0 -34 -24 -51 -52 -51s-53 17 -53 51c0 33 25 50 53 50s52 -17 52 -50z" />
    <glyph glyph-name="question" unicode="?" horiz-adv-x="491" 
d="M270 208h-80c0 131 181 212 181 327c0 72 -61 97 -154 97c-68 0 -131 -24 -180 -53v80c51 30 118 53 193 53c127 0 226 -56 226 -169c0 -142 -186 -225 -186 -335zM282 42c0 -34 -24 -51 -52 -51s-53 17 -53 51c0 33 25 50 53 50s52 -17 52 -50z" />
    <glyph glyph-name="questiondown" unicode="&#xbf;" horiz-adv-x="483" 
d="M450 -176c-51 -30 -118 -53 -193 -53c-127 0 -226 56 -226 169c0 142 186 225 186 335h80c0 -131 -181 -212 -181 -327c0 -72 61 -97 154 -97c68 0 131 24 180 53v-80zM310 441c0 -33 -25 -50 -53 -50s-52 17 -52 50c0 34 24 51 52 51s53 -17 53 -51z" />
    <glyph glyph-name="quotedbl" unicode="&#x22;" horiz-adv-x="318" 
d="M248 520h-56v180h76zM118 520h-56v180h76z" />
    <glyph glyph-name="quotesingle" unicode="'" horiz-adv-x="188" 
d="M118 520h-56v180h76z" />
    <glyph glyph-name="semicolon" unicode=";" horiz-adv-x="282" 
d="M117 -150h-65l55 230h85zM191 426c0 -34 -24 -51 -53 -51c-27 0 -52 17 -52 51s25 51 52 51c29 0 53 -17 53 -51z" />
    <glyph glyph-name="slash" unicode="/" horiz-adv-x="423" 
d="M92 -58h-60l298 816h60z" />
    <glyph glyph-name="underscore" unicode="_" horiz-adv-x="454" 
d="M454 -149h-454v76h454v-76z" />
    <glyph glyph-name="braceleft" unicode="{" horiz-adv-x="308" 
d="M268 -40v-70c-106 -22 -159 27 -159 115v229c0 63 -44 85 -80 81v70c35 -4 80 17 80 81v229c0 88 53 137 159 115v-70c-58 8 -75 -22 -75 -80v-200c0 -68 -25 -104 -57 -110c32 -6 57 -42 57 -110v-200c0 -58 17 -88 75 -80z" />
    <glyph glyph-name="braceright" unicode="}" horiz-adv-x="308" 
d="M199 5c0 -88 -53 -137 -159 -115v70c58 -8 75 22 75 80v200c0 68 25 104 57 110c-32 6 -57 42 -57 110v200c0 58 -17 88 -75 80v70c106 22 159 -27 159 -115v-229c0 -64 45 -85 80 -81v-70c-36 4 -80 -18 -80 -81v-229z" />
    <glyph glyph-name="bracketleft" unicode="[" horiz-adv-x="285" 
d="M257 -110h-187v920h187v-80h-103v-760h103v-80z" />
    <glyph glyph-name="bracketright" unicode="]" horiz-adv-x="285" 
d="M215 -110h-187v80h103v760h-103v80h187v-920z" />
    <glyph glyph-name="parenleft" unicode="(" horiz-adv-x="288" 
d="M189 809h78c-85 -127 -133 -302 -133 -459s48 -332 133 -459h-78c-88 127 -145 298 -145 459s57 332 145 459z" />
    <glyph glyph-name="parenright" unicode=")" horiz-adv-x="288" 
d="M21 809h78c88 -127 145 -298 145 -459s-57 -332 -145 -459h-78c85 127 133 302 133 459s-48 332 -133 459z" />
    <glyph glyph-name="emdash" unicode="&#x2014;" horiz-adv-x="762" 
d="M698 210h-634v76h634v-76z" />
    <glyph glyph-name="endash" unicode="&#x2013;" horiz-adv-x="574" 
d="M510 210h-446v76h446v-76z" />
    <glyph glyph-name="hyphen" unicode="-" horiz-adv-x="485" 
d="M64 286h357v-76h-357v76z" />
    <glyph glyph-name="emdash.case" horiz-adv-x="766" 
d="M700 312h-634v76h634v-76z" />
    <glyph glyph-name="endash.case" horiz-adv-x="578" 
d="M512 312h-446v76h446v-76z" />
    <glyph glyph-name="hyphen.case" horiz-adv-x="489" 
d="M66 388h357v-76h-357v76z" />
    <glyph glyph-name="guillemotleft" unicode="&#xab;" horiz-adv-x="492" 
d="M440 58h-86l-123 174v16l123 174h86l-128 -182zM253 58h-86l-123 174v16l123 174h86l-129 -182z" />
    <glyph glyph-name="guillemotright" unicode="&#xbb;" horiz-adv-x="492" 
d="M324 58h-85l128 182l-128 182h85l124 -174v-16zM137 58h-85l128 182l-128 182h85l124 -174v-16z" />
    <glyph glyph-name="guilsinglleft" unicode="&#x2039;" horiz-adv-x="305" 
d="M253 58h-86l-123 174v16l123 174h86l-129 -182z" />
    <glyph glyph-name="guilsinglright" unicode="&#x203a;" horiz-adv-x="305" 
d="M137 58h-85l128 182l-128 182h85l124 -174v-16z" />
    <glyph glyph-name="quotedblbase" unicode="&#x201e;" horiz-adv-x="364" 
d="M226 -150h-65l55 230h85zM86 -150h-65l55 230h85z" />
    <glyph glyph-name="quotedblleft" unicode="&#x201c;" horiz-adv-x="361" 
d="M270 470h-85l75 230h65zM130 470h-85l75 230h65z" />
    <glyph glyph-name="quotedblright" unicode="&#x201d;" horiz-adv-x="357" 
d="M254 470h-65l55 230h85zM114 470h-65l55 230h85z" />
    <glyph glyph-name="quoteleft" unicode="&#x2018;" horiz-adv-x="221" 
d="M130 470h-85l75 230h65z" />
    <glyph glyph-name="quoteright" unicode="&#x2019;" horiz-adv-x="217" 
d="M114 470h-65l55 230h85z" />
    <glyph glyph-name="quotesinglbase" unicode="&#x201a;" horiz-adv-x="224" 
d="M86 -150h-65l55 230h85z" />
    <glyph glyph-name="guillemotleft.case" horiz-adv-x="508" 
d="M447 168h-86l-123 174v16l123 174h86l-128 -182zM260 168h-86l-123 174v16l123 174h86l-129 -182z" />
    <glyph glyph-name="guillemotright.case" horiz-adv-x="508" 
d="M333 168h-85l128 182l-128 182h85l124 -174v-16zM146 168h-85l128 182l-128 182h85l124 -174v-16z" />
    <glyph glyph-name="guilsinglleft.case" horiz-adv-x="321" 
d="M260 168h-86l-123 174v16l123 174h86l-129 -182z" />
    <glyph glyph-name="guilsinglright.case" horiz-adv-x="321" 
d="M146 168h-85l128 182l-128 182h85l124 -174v-16z" />
    <glyph glyph-name="space" unicode=" " horiz-adv-x="249" 
 />
    <glyph glyph-name="cent" unicode="&#xa2;" horiz-adv-x="509" 
d="M338 63c44 4 86 18 120 38v-80c-36 -17 -75 -28 -120 -32v-109h-70v110c-114 13 -223 92 -223 248c0 158 110 238 223 252v110h70v-110c42 -4 82 -16 115 -37v-78c-31 24 -72 38 -115 42v-354zM268 413c-76 -15 -143 -68 -143 -173c0 -103 66 -159 143 -174v347z" />
    <glyph glyph-name="currency" unicode="&#xa4;" horiz-adv-x="578" 
d="M182 186l-64 -64l-56 56l61 61c-22 29 -34 67 -34 111s12 82 34 111l-61 61l56 56l64 -64c31 18 68 27 107 27s77 -9 108 -27l64 64l56 -56l-61 -61c21 -30 33 -67 33 -111s-12 -81 -33 -111l61 -61l-56 -56l-64 64c-31 -18 -69 -27 -108 -27s-76 9 -107 27zM169 350
c0 -73 48 -117 120 -117s120 44 120 117s-48 117 -120 117s-120 -44 -120 -117z" />
    <glyph glyph-name="dollar" unicode="$" horiz-adv-x="583" 
d="M317 -130h-70v120c-73 7 -144 27 -199 58v84c74 -45 164 -64 244 -64c97 0 170 25 170 104c0 188 -412 89 -412 335c0 111 89 170 197 183v120h70v-119c68 -4 136 -22 185 -50v-84c-56 36 -134 56 -206 55c-92 0 -161 -27 -161 -102c0 -177 412 -81 412 -332
c0 -132 -104 -186 -230 -190v-118z" />
    <glyph glyph-name="Euro" unicode="&#x20ac;" horiz-adv-x="728" 
d="M672 35c-58 -30 -128 -47 -198 -47c-148 0 -301 88 -344 251h-90v70h78c-1 10 -1 20 -1 30c0 11 0 22 1 32h-78v70h90c44 164 192 251 345 251c70 0 138 -16 197 -47v-84c-51 34 -117 51 -183 51c-115 0 -228 -55 -270 -171h331v-70h-346c-1 -10 -2 -21 -2 -32
c0 -10 0 -20 1 -30h347v-70h-331c42 -114 158 -171 273 -171c67 0 132 17 180 51v-84z" />
    <glyph glyph-name="sterling" unicode="&#xa3;" horiz-adv-x="602" 
d="M563 0h-525v80h37c42 0 68 35 68 83v133h-85v78h85v85c0 166 112 233 230 233c52 0 107 -14 150 -38v-80c-40 25 -92 41 -140 41c-82 0 -156 -44 -156 -158v-83h222v-78h-222v-133c0 -41 -9 -69 -28 -83h364v-80z" />
    <glyph glyph-name="yen" unicode="&#xa5;" horiz-adv-x="672" 
d="M548 680h92l-223 -354h130v-70h-169v-56h169v-70h-169v-130h-84v130h-167v70h167v56h-167v70h128l-223 354h92l212 -340z" />
    <glyph glyph-name="cent.tf" horiz-adv-x="630" 
d="M394 63c45 3 90 17 125 38v-80c-37 -18 -78 -29 -125 -32v-109h-70v111c-113 14 -218 94 -218 247c0 155 107 235 218 251v111h70v-109c44 -4 86 -16 120 -38v-78c-32 25 -75 39 -120 42v-354zM324 412c-74 -16 -138 -70 -138 -172c0 -101 63 -156 138 -173v345z" />
    <glyph glyph-name="currency.tf" horiz-adv-x="630" 
d="M208 186l-84 -84l-56 56l81 81c-22 29 -34 67 -34 111s12 82 34 111l-81 81l56 56l84 -84c31 18 68 27 107 27s76 -9 107 -27l84 84l56 -56l-81 -81c22 -29 34 -67 34 -111s-12 -82 -34 -111l81 -81l-56 -56l-84 84c-31 -18 -68 -27 -107 -27s-76 9 -107 27zM195 350
c0 -73 48 -117 120 -117s120 44 120 117s-48 117 -120 117s-120 -44 -120 -117z" />
    <glyph glyph-name="dollar.tf" horiz-adv-x="630" 
d="M344 -130h-70v120c-73 7 -144 27 -199 58v84c74 -45 164 -64 244 -64c97 0 170 20 170 99c0 188 -422 99 -422 345c0 114 94 170 207 179v119h70v-119c65 -5 128 -23 175 -50v-84c-56 36 -134 56 -206 55c-92 0 -161 -22 -161 -97c0 -177 422 -91 422 -342
c0 -132 -104 -181 -230 -185v-118z" />
    <glyph glyph-name="Euro.tf" horiz-adv-x="630" 
d="M204 239c44 -114 162 -171 279 -171c39 0 77 6 112 17v-78c-41 -12 -86 -19 -130 -19c-150 0 -305 88 -350 251h-90v70h78c-1 10 -1 20 -1 31s0 21 1 31h-78v70h90c45 163 200 251 345 251c44 0 89 -7 130 -19v-78c-35 11 -73 17 -112 17c-113 0 -230 -57 -274 -171h291
v-70h-307c-1 -10 -1 -20 -1 -31s0 -21 1 -31h307v-70h-291z" />
    <glyph glyph-name="sterling.tf" horiz-adv-x="630" 
d="M586 0h-545v80h37c42 0 68 35 68 83v133h-75v78h75v85c0 166 112 233 250 233c52 0 107 -14 150 -38v-80c-40 25 -92 41 -140 41c-102 0 -176 -44 -176 -158v-83h222v-78h-222v-133c0 -41 -9 -69 -28 -83h384v-80z" />
    <glyph glyph-name="yen.tf" horiz-adv-x="630" 
d="M515 680h93l-214 -354h132v-70h-169v-56h169v-70h-169v-130h-84v130h-167v70h167v56h-167v70h130l-214 354h93l200 -340z" />
    <glyph glyph-name="approxequal" unicode="&#x2248;" 
d="M523 487c3 -72 -40 -117 -107 -117c-71 0 -162 55 -231 55c-24 0 -41 -12 -39 -41h-76c-3 74 43 116 106 116c76 0 158 -54 232 -54c23 0 41 10 39 41h76zM523 335c3 -72 -40 -117 -107 -117c-71 0 -162 55 -231 55c-24 0 -41 -12 -39 -41h-76c-3 74 43 116 106 116
c76 0 158 -54 232 -54c23 0 41 10 39 41h76z" />
    <glyph glyph-name="asciitilde" unicode="~" horiz-adv-x="589" 
d="M523 382c3 -72 -40 -117 -107 -117c-71 0 -162 55 -231 55c-24 0 -41 -12 -39 -41h-76c-3 74 43 116 106 116c76 0 158 -54 232 -54c23 0 41 10 39 41h76z" />
    <glyph glyph-name="divide" unicode="&#xf7;" horiz-adv-x="614" 
d="M547 312h-480v76h480v-76zM359 126c0 -34 -23 -51 -52 -51c-28 0 -52 17 -52 51s24 50 52 50c29 0 52 -16 52 -50zM359 573c0 -34 -23 -51 -52 -51c-28 0 -52 17 -52 51s24 50 52 50c29 0 52 -16 52 -50z" />
    <glyph glyph-name="emptyset" unicode="&#x2205;" horiz-adv-x="812" 
d="M730 700l-75 -87c70 -66 114 -159 114 -263c0 -200 -163 -362 -363 -362c-83 0 -160 28 -222 75l-54 -63h-49l75 88c-70 66 -113 159 -113 262c0 200 163 362 363 362c83 0 160 -28 221 -75l54 63h49zM406 670c-177 0 -320 -144 -320 -320c0 -90 37 -172 98 -230l415 485
c-53 41 -120 65 -193 65zM212 96c54 -41 121 -66 194 -66c177 0 320 144 320 320c0 90 -38 172 -98 231z" />
    <glyph glyph-name="equal" unicode="=" horiz-adv-x="555" 
d="M489 403h-423v76h423v-76zM489 221h-423v76h423v-76z" />
    <glyph glyph-name="greater" unicode="&#x3e;" horiz-adv-x="503" 
d="M457 310l-376 -153v78l295 115l-295 115v78l376 -153v-80z" />
    <glyph glyph-name="greaterequal" unicode="&#x2265;" horiz-adv-x="524" 
d="M457 334l-376 -153v78l295 115l-295 115v78l376 -153v-80zM457 0h-376v76h376v-76z" />
    <glyph glyph-name="infinity" unicode="&#x221e;" horiz-adv-x="855" 
d="M428 420c47 64 102 121 194 121c96 0 176 -68 176 -183s-80 -183 -176 -183c-92 0 -149 57 -195 121c-47 -64 -102 -121 -194 -121c-96 0 -176 68 -176 183s80 183 176 183c92 0 149 -57 195 -121zM384 357c-40 58 -79 108 -139 108c-59 0 -108 -32 -108 -107
s49 -107 108 -107c60 0 100 48 139 106zM718 358c0 75 -49 107 -108 107c-60 0 -99 -48 -139 -106c40 -58 80 -108 139 -108s108 32 108 107z" />
    <glyph glyph-name="integral" unicode="&#x222b;" horiz-adv-x="422" 
d="M171 639c0 118 84 153 158 153c32 0 63 -7 84 -15v-75c-17 7 -41 14 -75 14c-38 0 -87 -12 -87 -80v-715c0 -118 -84 -153 -158 -153c-32 0 -63 7 -84 15v75c17 -7 41 -14 66 -14c47 0 96 8 96 80v715z" />
    <glyph glyph-name="less" unicode="&#x3c;" horiz-adv-x="503" 
d="M422 235v-78l-376 153v80l376 153v-78l-295 -115z" />
    <glyph glyph-name="lessequal" unicode="&#x2264;" horiz-adv-x="524" 
d="M443 259v-78l-376 153v80l376 153v-78l-295 -115zM443 0h-376v76h376v-76z" />
    <glyph glyph-name="logicalnot" unicode="&#xac;" horiz-adv-x="577" 
d="M505 271h-80v133h-366v76h446v-209z" />
    <glyph glyph-name="minus" unicode="&#x2212;" horiz-adv-x="514" 
d="M448 307h-382v76h382v-76z" />
    <glyph glyph-name="multiply" unicode="&#xd7;" horiz-adv-x="471" 
d="M236 301l-128 -128l-51 51l128 128l-128 127l51 51l128 -127l127 127l51 -51l-127 -127l127 -128l-51 -51z" />
    <glyph glyph-name="notequal" unicode="&#x2260;" horiz-adv-x="555" 
d="M176 120h-70l60 101h-100v76h145l63 106h-208v76h253l60 101h70l-60 -101h100v-76h-145l-63 -106h208v-76h-253z" />
    <glyph glyph-name="partialdiff" unicode="&#x2202;" horiz-adv-x="592" 
d="M541 271c0 -188 -105 -283 -251 -283c-141 0 -249 92 -249 233c0 130 105 223 227 223c92 0 171 -43 202 -105c-1 7 -2 14 -4 22c-43 224 -231 264 -365 263v76c191 0 440 -95 440 -429zM121 221c0 -94 66 -157 169 -157c101 0 152 58 165 141c-2 96 -74 165 -174 165
c-95 0 -160 -61 -160 -149z" />
    <glyph glyph-name="percent" unicode="%" horiz-adv-x="896" 
d="M284 -60h-80l409 820h80zM361 555c0 -101 -77 -157 -163 -157c-87 0 -165 56 -165 157s78 157 165 157c86 0 163 -56 163 -157zM109 555c0 -47 30 -87 89 -87c57 0 87 40 87 87s-30 87 -87 87c-59 0 -89 -40 -89 -87zM863 145c0 -101 -77 -157 -163 -157
c-87 0 -165 56 -165 157s78 157 165 157c86 0 163 -56 163 -157zM611 145c0 -47 30 -87 89 -87c57 0 87 40 87 87s-30 87 -87 87c-59 0 -89 -40 -89 -87z" />
    <glyph glyph-name="perthousand" unicode="&#x2030;" horiz-adv-x="1284" 
d="M284 -60h-80l409 820h80zM361 555c0 -101 -77 -157 -163 -157c-87 0 -165 56 -165 157s78 157 165 157c86 0 163 -56 163 -157zM109 555c0 -47 30 -87 89 -87c57 0 87 40 87 87s-30 87 -87 87c-59 0 -89 -40 -89 -87zM863 145c0 -101 -77 -157 -163 -157
c-87 0 -165 56 -165 157s78 157 165 157c86 0 163 -56 163 -157zM611 145c0 -47 30 -87 89 -87c57 0 87 40 87 87s-30 87 -87 87c-59 0 -89 -40 -89 -87zM1251 145c0 -101 -77 -157 -163 -157c-87 0 -165 56 -165 157s78 157 165 157c86 0 163 -56 163 -157zM999 145
c0 -47 30 -87 89 -87c57 0 87 40 87 87s-30 87 -87 87c-59 0 -89 -40 -89 -87z" />
    <glyph glyph-name="plus" unicode="+" horiz-adv-x="534" 
d="M305 388h185v-76h-185v-185h-76v185h-185v76h185v185h76v-185z" />
    <glyph glyph-name="plusminus" unicode="&#xb1;" horiz-adv-x="574" 
d="M325 607v-185h185v-76h-185v-185h-76v185h-185v76h185v185h76zM510 0h-446v76h446v-76z" />
    <glyph glyph-name="product" unicode="&#x220f;" horiz-adv-x="752" 
d="M215 -220h-84v840h-95v80h680v-80h-95v-840h-84v840h-322v-840z" />
    <glyph glyph-name="radical" unicode="&#x221a;" horiz-adv-x="737" 
d="M371 0h-75l-170 400h-100v80h153l156 -382l318 682h88z" />
    <glyph glyph-name="summation" unicode="&#x2211;" horiz-adv-x="567" 
d="M516 0h-477v47l264 303l-264 303v47h477v-80h-340l228 -261v-18l-228 -261h340v-80z" />
    <glyph glyph-name="lozenge" unicode="&#x25ca;" horiz-adv-x="566" 
d="M328 0h-89l-203 350l203 350h89l202 -350zM126 350l157 -265l158 265l-158 265z" />
    <glyph glyph-name="bar" unicode="|" horiz-adv-x="224" 
d="M154 -100h-84v910h84v-910z" />
    <glyph glyph-name="brokenbar" unicode="&#xa6;" horiz-adv-x="240" 
d="M162 453h-84v357h84v-357zM162 -100h-84v357h84v-357z" />
    <glyph glyph-name="at" unicode="@" horiz-adv-x="1051" 
d="M44 240c0 242 177 472 490 472c311 0 469 -240 469 -433c0 -183 -82 -271 -197 -271c-77 0 -135 36 -156 103c-32 -54 -89 -82 -151 -82c-113 0 -196 89 -196 208c0 120 83 210 196 210c66 0 119 -36 142 -74v64h78v-262c0 -60 24 -97 88 -97c78 0 112 86 112 201
c0 164 -132 353 -385 353c-259 0 -406 -186 -406 -392c0 -252 196 -392 435 -392c76 0 149 11 220 36v-80c-73 -26 -145 -36 -222 -36c-273 0 -517 164 -517 472zM641 274c-13 50 -60 99 -132 99c-69 0 -126 -54 -126 -135s57 -135 126 -135c72 0 119 49 132 99v72z" />
    <glyph glyph-name="ampersand" unicode="&#x26;" horiz-adv-x="705" 
d="M572 120l129 -120h-101l-76 69c-58 -50 -139 -81 -239 -81c-151 0 -236 77 -236 180c0 96 84 160 148 197l-2 2c-46 45 -83 102 -83 165c0 100 94 180 217 180c113 0 188 -63 188 -154c0 -106 -115 -168 -193 -208l189 -176c30 43 46 96 44 153h84
c0 -74 -23 -148 -69 -207zM328 636c-81 0 -134 -48 -134 -105c0 -48 36 -92 74 -129c63 29 167 81 167 150c0 51 -39 84 -107 84zM133 172c0 -67 55 -108 157 -108c70 0 130 22 175 58l-211 191c-54 -29 -121 -74 -121 -141z" />
    <glyph glyph-name="paragraph" unicode="&#xb6;" horiz-adv-x="639" 
d="M340 -220h-84v500c-139 0 -223 78 -223 210s84 210 223 210h302v-920h-84v840h-134v-840z" />
    <glyph glyph-name="copyright" unicode="&#xa9;" horiz-adv-x="848" 
d="M801 350c0 -241 -199 -362 -377 -362s-377 121 -377 362s199 362 377 362s377 -121 377 -362zM574 182c-41 -22 -82 -34 -137 -34c-92 0 -201 59 -201 194c0 148 112 210 213 210c48 0 90 -12 125 -34v-61c-33 21 -72 33 -114 33c-76 0 -156 -34 -156 -145
c0 -103 75 -135 150 -135c42 0 85 13 120 32v-60zM78 350c0 -221 179 -332 346 -332s346 111 346 332s-179 332 -346 332s-346 -111 -346 -332z" />
    <glyph glyph-name="registered" unicode="&#xae;" horiz-adv-x="848" 
d="M801 350c0 -241 -199 -362 -377 -362s-377 121 -377 362s199 362 377 362s377 -121 377 -362zM78 350c0 -221 179 -332 346 -332s346 111 346 332s-179 332 -346 332s-346 -111 -346 -332zM342 154h-60v393h169c63 0 150 -23 150 -123c0 -68 -40 -101 -86 -114l110 -156
h-69l-102 147h-13h-99v-147zM342 489v-130h103c37 0 97 0 97 65s-60 65 -97 65h-103z" />
    <glyph glyph-name="section" unicode="&#xa7;" horiz-adv-x="500" 
d="M437 101c0 -100 -94 -135 -198 -135c-58 0 -131 18 -176 47v74c49 -33 122 -51 172 -51c68 0 122 11 122 63c0 49 -63 65 -138 88c-80 24 -163 51 -163 146c0 48 24 90 80 131c-41 23 -70 56 -70 110c0 99 93 138 188 138c54 0 115 -17 160 -41v-74
c-40 26 -107 45 -155 45c-57 0 -112 -19 -112 -66c0 -52 66 -67 143 -90c80 -24 163 -51 163 -146c0 -48 -24 -90 -80 -131c38 -23 64 -55 64 -108zM244 257c20 -6 40 -11 60 -18c46 19 71 60 71 89c0 52 -52 70 -110 88c-19 6 -39 12 -59 18c-47 -18 -72 -60 -72 -89
c0 -52 52 -70 110 -88z" />
    <glyph glyph-name="trademark" unicode="&#x2122;" horiz-adv-x="669" 
d="M354 446h-48v254h55l89 -131l89 131h55v-254h-48v186l-83 -122h-26l-83 122v-186zM177 446h-48v210h-85v44h218v-44h-85v-210z" />
    <glyph glyph-name="degree" unicode="&#xb0;" horiz-adv-x="394" 
d="M352 562c0 -97 -73 -152 -155 -152c-81 0 -156 55 -156 152c0 94 75 150 156 150c82 0 155 -56 155 -150zM101 562c0 -57 40 -93 96 -93s95 36 95 93c0 56 -39 91 -95 91s-96 -35 -96 -91z" />
    <glyph glyph-name="asciicircum" unicode="^" horiz-adv-x="536" 
d="M136 380h-90l187 320h70l187 -320h-90l-132 231z" />
    <glyph glyph-name="dagger" unicode="&#x2020;" horiz-adv-x="513" 
d="M299 -220h-84v620h-183v80h183v220h84v-220h182v-80h-182v-620z" />
    <glyph glyph-name="daggerdbl" unicode="&#x2021;" horiz-adv-x="572" 
d="M328 -220h-84v294h-182v80h182v246h-182v80h182v220h84v-220h182v-80h-182v-246h182v-80h-182v-294z" />
    <glyph glyph-name="acute" unicode="&#xb4;" horiz-adv-x="185" 
d="M112 770h-87l91 147h100z" />
    <glyph glyph-name="breve" unicode="&#x2d8;" horiz-adv-x="338" 
d="M309 810c-45 -32 -92 -42 -140 -42s-95 10 -140 42v78c50 -33 91 -44 140 -44s90 11 140 44v-78z" />
    <glyph glyph-name="caron" unicode="&#x2c7;" horiz-adv-x="328" 
d="M332 907l-132 -146h-72l-132 146h91l77 -86l77 86h91z" />
    <glyph glyph-name="cedilla" unicode="&#xb8;" horiz-adv-x="215" 
d="M72 0h70l-15 -58c64 3 104 -26 105 -78c1 -65 -54 -96 -133 -96c-40 0 -70 7 -98 19v68c23 -13 54 -22 89 -22c49 0 73 13 73 34c0 30 -64 35 -115 25z" />
    <glyph glyph-name="circumflex" unicode="&#x2c6;" horiz-adv-x="328" 
d="M128 917h72l132 -146h-91l-77 86l-77 -86h-91z" />
    <glyph glyph-name="dieresis" unicode="&#xa8;" horiz-adv-x="301" 
d="M308 837c0 -30 -25 -55 -55 -55s-55 25 -55 55c0 29 25 55 55 55s55 -26 55 -55zM106 837c0 -30 -25 -55 -55 -55s-55 25 -55 55c0 29 25 55 55 55s55 -26 55 -55z" />
    <glyph glyph-name="dotaccent" unicode="&#x2d9;" horiz-adv-x="111" 
d="M-4 827c0 38 28 58 60 58c33 0 60 -20 60 -58c0 -39 -27 -59 -60 -59c-32 0 -60 20 -60 59z" />
    <glyph glyph-name="grave" unicode="`" horiz-adv-x="185" 
d="M176 770h-87l-104 147h100z" />
    <glyph glyph-name="hungarumlaut" unicode="&#x2dd;" horiz-adv-x="374" 
d="M270 780h-85l69 147h90zM115 780h-85l69 147h90z" />
    <glyph glyph-name="macron" unicode="&#xaf;" horiz-adv-x="360" 
d="M30 857h300v-73h-300v73z" />
    <glyph glyph-name="ogonek" unicode="&#x2db;" horiz-adv-x="215" 
d="M95 0h83c-56 -38 -91 -91 -90 -127c-1 -24 14 -40 43 -41c19 1 42 8 59 21v-64c-22 -15 -50 -22 -79 -22c-66 -1 -99 39 -99 89c0 46 28 101 83 144z" />
    <glyph glyph-name="ring" unicode="&#x2da;" horiz-adv-x="223" 
d="M227 855c0 -69 -55 -111 -115 -111c-61 0 -116 42 -116 111c0 67 55 109 116 109c60 0 115 -42 115 -109zM57 854c0 -35 26 -55 55 -55s55 20 55 55c0 34 -26 55 -55 55s-55 -21 -55 -55z" />
    <glyph glyph-name="tilde" unicode="&#x2dc;" horiz-adv-x="351" 
d="M340 869c10 -72 -34 -106 -82 -106c-61 0 -118 42 -148 42c-21 0 -32 -15 -29 -37h-70c-11 72 33 107 80 107c60 0 118 -42 149 -42c23 0 32 14 30 36h70z" />
    <glyph glyph-name="uni0326" unicode="&#x326;" horiz-adv-x="145" 
d="M90 -231h-70l25 190h80z" />
    <glyph glyph-name="A" unicode="A" horiz-adv-x="717" 
d="M98 0h-91l305 700h93l304 -700h-90l-72 169h-377zM347 587l-144 -340h311l-145 340c-4 9 -7 17 -11 27c-4 -10 -7 -18 -11 -27z" />
    </font>
</defs>
</svg>
