<svg xmlns="http://www.w3.org/2000/svg" width="865.76" height="682.89" viewBox="0 0 865.76 682.89"><polygon points="184.99 616.85 184.99 546.45 357.46 534.57 623.6 562.45 719.91 575.45 695.25 630.45 184.99 616.85" fill="#0071f2"/><polygon points="184.99 616.85 184.99 546.45 357.46 534.57 623.6 562.45 719.91 575.45 695.25 630.45 184.99 616.85" fill="#fff" opacity="0.5"/><path d="M233.46,482.58s9.47-19.56,124,14.66l75,19.93,21.16,3.49s149.49-61.95,191.42-35.58l74.85,72.54-32,26.47L305.39,567.81l-44.12,6.85-8.29-6Z" fill="#0071f2"/><path d="M233.46,482.58s9.47-19.56,124,14.66l75,19.93,21.16,3.49s149.49-61.95,191.42-35.58l74.85,72.54-32,26.47L305.39,567.81l-44.12,6.85-8.29-6Z" fill="#fff" opacity="0.5"/><path d="M587,419.77s12.44,38.13,11.22,66.41c0,0,10.78,38.27,15.78,61.27l20.86,2.07-.4-33.46S610,437.45,600,415.45Z" fill="#2f2e41"/><path d="M539,433.45s-23,67-28,101l48,5s-9-89.47,0-108.74Z" fill="#2f2e41"/><path d="M539,433.45s-23,67-28,101l48,5s-9-89.47,0-108.74Z" opacity="0.2"/><path d="M465,437.45s10,44,7,94l39,3v-3.88s-31.4-97.59-32.7-99.86Z" fill="#2f2e41"/><path d="M417,530.45H461.8s-3.82-62,1.18-89l-38,11,2.41,40.31S418,522.45,417,530.45Z" fill="#2f2e41"/><ellipse cx="488.36" cy="494.27" rx="6.33" ry="17.5" transform="matrix(0.98, -0.19, 0.19, 0.98, -84.91, 101.64)" fill="#fff" opacity="0.3"/><path d="M196,359.45s7,3,7,51c0,0-4,45.26-14,74.63l-21,36.37,23,37,30.09-6.61L227,452.73s-5.9-73.28-10.45-93.28Z" fill="#2f2e41"/><path d="M196,359.45s7,3,7,51c0,0-4,45.26-14,74.63l-21,36.37,23,37,30.09-6.61L227,452.73s-5.9-73.28-10.45-93.28Z" opacity="0.2"/><path d="M253,416.45s-11,77.39-3,130.19l-49,8.81s11.85-83.54,46.93-151.77Z" fill="#2f2e41"/><ellipse cx="233.46" cy="462.56" rx="16.79" ry="6.33" transform="translate(-257.62 627.82) rotate(-81.82)" fill="#fff" opacity="0.3"/><path d="M836.68,289.1s-1.42,20.11-14.34,17a57,57,0,1,1-102.11-49.59,25.57,25.57,0,0,1-4.74-12.31,25,25,0,0,1,12.21,2.51,57,57,0,0,1,97.84,46.64C828.58,291.22,832.82,288.94,836.68,289.1Z" fill="#0071f2"/><path d="M836.68,289.1s-1.42,20.11-14.34,17a57,57,0,1,1-102.11-49.59,25.57,25.57,0,0,1-4.74-12.31,25,25,0,0,1,12.21,2.51,57,57,0,0,1,97.84,46.64C828.58,291.22,832.82,288.94,836.68,289.1Z" fill="#fff" opacity="0.3"/><path d="M626.6,83.61l-2,22.13h0l-4.84,54.55L494.25,313.45l-121.19,7-83.38-40.09-39.48-153-9-34.76,16.37-9.32S438.23,47.78,626.6,83.61Z" fill="#0071f2"/><path d="M626.6,83.61l-2,22.13h0l-4.84,54.55L494.25,313.45l-121.19,7-83.38-40.09-39.48-153-9-34.76,16.37-9.32S438.23,47.78,626.6,83.61Z" fill="#fff" opacity="0.7"/><path d="M345,209.52s30.09,10.54,40.39,20.94a8.32,8.32,0,0,1,1.51,9.34c-1,2.26-.77,5.95,7.12,10,0,0,37.31,6.75,46.36,12.82a1.73,1.73,0,0,1-.56,3.14c-6.68,1.56-29.08,3.7-94.27-9C345.51,256.74,351.94,228.6,345,209.52Z" fill="#fff" opacity="0.7"/><path d="M496,230.45s-50.32,1-44.16-5c0,0,4.16-4,19.16-2,0,0,14.42.9,17.16-8.44a12.08,12.08,0,0,1,1.81-3.88,18.7,18.7,0,0,1,18.25-7.72S501,213.45,496,230.45Z" fill="#fff" opacity="0.7"/><path d="M626.6,83.61l-2,22.13h0l-14.12-1.59C588,96.85,525,121.45,525,121.45c-25,10-29,6-29,6-10-8,12.22-19,12.22-19,24.22-31-181.22-5-181.22-5,40,20.6,52.44,30.18,56,34.54a2.25,2.25,0,0,1-1.89,3.69c-13.92-.86-58.41-21.54-73.16-25.23-16-4-13,4-13,4,2,12-12.68,13.42-12.68,13.42l-32.1-6.53-9-34.76,16.37-9.32S438.23,47.78,626.6,83.61Z" fill="#fff" opacity="0.7"/><path d="M532,177.21s-3-3.75,25-17.76c2-1,40.59-17.77,40.59-17.77h15.55l-23.06,31.9Z" fill="#fff" opacity="0.7"/><path d="M739,303.45l-22.89,3.73C695.2,416.91,633,382.45,633,382.45c-9,54-59,41-59,41-32,33-65.78,3.18-65.78,3.18,13.51,6.46,33,8.11,54.78-14.18,0,0,60-2,84-72,0,0,27-18,64-70a93.35,93.35,0,0,0,22.37,18.43Z" fill="#0071f2"/><path d="M739,303.45l-22.89,3.73C695.2,416.91,633,382.45,633,382.45c-9,54-59,41-59,41-32,33-65.78,3.18-65.78,3.18,13.51,6.46,33,8.11,54.78-14.18,0,0,60-2,84-72,0,0,27-18,64-70a93.35,93.35,0,0,0,22.37,18.43Z" opacity="0.2"/><path d="M371,471.45c-74,37-79-37-79-37a84,84,0,0,1-20-2.91c-34-9.59-31-39.09-31-39.09-15-2-13-13-13-13,8-4,13,3,13,3a26.77,26.77,0,0,1,11-22c-5-3-4.8-10.34-4.8-10.34-45.79,47.67-95.62-22.43-95.62-22.43C158.84,326,172,321.94,177,313.45c0,0,69,47,123,8-.44.49-14.58,16.5-15.78,48.49,0,0-7.64-3.5-11.42,0,0,0-1.79,7.5,11.21,12.5C284,382.45,290,459.45,371,471.45Z" fill="#0071f2"/><path d="M371,471.45c-74,37-79-37-79-37a84,84,0,0,1-20-2.91c-34-9.59-31-39.09-31-39.09-15-2-13-13-13-13,8-4,13,3,13,3a26.77,26.77,0,0,1,11-22c-5-3-4.8-10.34-4.8-10.34-45.79,47.67-95.62-22.43-95.62-22.43C158.84,326,172,321.94,177,313.45c0,0,69,47,123,8-.44.49-14.58,16.5-15.78,48.49,0,0-7.64-3.5-11.42,0,0,0-1.79,7.5,11.21,12.5C284,382.45,290,459.45,371,471.45Z" opacity="0.2"/><path d="M804,182.45s-5-144-130-124c0,0-19.65,3.19-39.24,18.18A14.41,14.41,0,0,0,619.34,71c1.74,6.54,4.44,10.37,7.27,12.57-15.38,14.79-29,37.92-30.63,73.84,0,0-75-6-100,73,0,0-43,29-42,71,0,0-49-48-118-15,0,0,49-98-52-141,0,0-5-94-106-93,0,0-68,2-103,103,0,0-71,45-29,107,0,0,14,25,55,27,0,0,8.15,42.39,45.57,39.19,0,0,2-.27,5-1C158.84,326,172,321.94,177,313.45c0,0,69,47,123,8-.44.49-14.58,16.5-15.78,48.49,0,0-7.64-3.5-11.42,0,0,0-1.79,7.5,11.21,12.5,0,0,6,77,87,89,0,0,12.4,15.62,31.91,21.32a42.83,42.83,0,0,0,52.84-27.41A69.28,69.28,0,0,0,459,449.45s27-5,30-38a58.4,58.4,0,0,0,19.22,15.18c13.51,6.46,33,8.11,54.78-14.18,0,0,60-2,84-72,0,0,27-18,64-70a93.35,93.35,0,0,0,22.37,18.43c20.82,12.25,53.54,19.48,86.63-21.43C820,267.45,850,220.45,804,182.45Z" fill="#0071f2"/><path d="M682.71,547.6l-1.69,10-37-6.5-9.13-1.6S636,449.45,621,398.45c0,0-12-47-34-61l2-5,0,0,.1.06.1.06c2.2,1.32,19.92,12,22.76,14.85-.21-.58-7-19.08-10-25l9-2s17,34,21,47c0,0,15-23,20-27l3.54,2.51S632,376.45,642,393.45c0,0,14,36,23,73C665,466.45,678.43,515.75,682.71,547.6Z" fill="#2f2e41"/><path d="M682.71,547.6l-1.69,10-37-6.5a709.68,709.68,0,0,0-6-103.67c-9-65-18-82-18-82-5.66-16.05-28.26-31.21-30.77-32.86,2.2,1.32,19.92,12,22.76,14.85-.21-.58-7-19.08-10-25l9-2s17,34,21,47c0,0,15-23,20-27l3.54,2.51S632,376.45,642,393.45c0,0,14,36,23,73C665,466.45,678.43,515.75,682.71,547.6Z" opacity="0.2"/><path d="M614,547.45l-36-6-10-1.66V465.45c-7-61-15-69-15-69-9-12-40-23.5-40-23.5v-4.5c16,6,34,13,34,13l-3.36-15H554l26,66C598,475.45,614,547.45,614,547.45Z" fill="#2f2e41"/><path d="M578,541.47v-56c-3-58-17-88-17-88-2-8-48-29-48-29,16,6,34,13,34,13l-3.36-15H554l26,66c18,43,34,115,34,115Z" opacity="0.2"/><path d="M387,532.45c-2.31,0-6.18.21-10.76.55C361,534.09,338,536.45,338,536.45c6-22,27-88,27-88l-13-34,11-1,8,21.21a97.3,97.3,0,0,1,3.61-11.87c4.45-12.27,10.75-25.16,10.75-25.16l8.64,2.82C377,441.45,387,532.45,387,532.45Z" fill="#2f2e41"/><path d="M293,542.45l-51.26,5c-4.37-38.16,21.4-97,30.31-115.91a84,84,0,0,0,20,2.91C284,488.45,293,542.45,293,542.45Z" fill="#2f2e41"/><path d="M293,542.45l-51.26,5c-4.37-38.16,21.4-97,30.31-115.91a84,84,0,0,0,20,2.91C284,488.45,293,542.45,293,542.45Z" opacity="0.2"/><ellipse cx="659.36" cy="502.27" rx="6.33" ry="17.5" transform="matrix(0.98, -0.19, 0.19, 0.98, -83.33, 134.24)" fill="#fff" opacity="0.3"/><ellipse cx="357.46" cy="501.56" rx="16.79" ry="6.33" transform="translate(-189.87 784.01) rotate(-81.82)" fill="#fff" opacity="0.3"/><path d="M387,532.45c-2.31,0-6.18.21-10.76.55-4.85-31.22-3-83.27-1.63-110.21,4.45-12.27,10.75-25.16,10.75-25.16l8.64,2.82C377,441.45,387,532.45,387,532.45Z" opacity="0.2"/><path d="M513,534.66s65.27,8.54,101,12.79c0,0,5-8-11.48-8,0,0,2.48-12-10.52-3,0,0,3-14-12-9,0,0,4-11-11-6,0,0-1-19-15-4,0,0-8-19-14,3,0,0-12-15-14,10C526,530.45,514,518.87,513,534.66Z" fill="#0071f2"/><path d="M328,537.45s-44,7.39-78,9.19c0,0-5.46-23.19,12.77-9.19,0,0,1.23-23,13.23-9,0,0,5.42-22,14.71-4.52,0,0,12.29-16.48,14.29,4.52,0,0,12-4,12,6C317,534.45,323,528.45,328,537.45Z" fill="#0071f2"/><g opacity="0.3"><path d="M513,534.66s66.27,8.54,101,12.79c0,0,5-8-11.48-8,0,0,2.48-12-10.52-3,0,0,3-14-12-9,0,0,4-11-11-6,0,0-1-19-15-4,0,0-8-19-14,3,0,0-12-15-14,10C526,530.45,514,518.87,513,534.66Z" fill="#fff"/><path d="M328,537.45s-44,7.39-78,9.19c0,0-5.46-23.19,12.77-9.19,0,0,1.23-23,13.23-9,0,0,5.42-22,14.71-4.52,0,0,12.29-16.48,14.29,4.52,0,0,12-4,12,6C317,534.45,323,528.45,328,537.45Z" fill="#fff"/></g><path d="M164,146.45s-3.46,19.87-16,15.44a57,57,0,1,1-96.54-59.72A25.61,25.61,0,0,1,48,89.45a25,25,0,0,1,11.9,3.74,57,57,0,0,1,92.59,56.34C155.71,147.74,160.16,145.9,164,146.45Z" fill="#0071f2"/><path d="M164,146.45s-3.46,19.87-16,15.44a57,57,0,1,1-96.54-59.72A25.61,25.61,0,0,1,48,89.45a25,25,0,0,1,11.9,3.74,57,57,0,0,1,92.59,56.34C155.71,147.74,160.16,145.9,164,146.45Z" fill="#fff" opacity="0.3"/><path d="M825.41,118s7.93,18.55-5,21.67a57,57,0,1,1-113.48,2.58,25.54,25.54,0,0,1-9.85-8.77,25.06,25.06,0,0,1,12-3.36,57,57,0,0,1,108.33-3.26C819.18,123.62,821.91,119.65,825.41,118Z" fill="#0071f2"/><path d="M825.41,118s7.93,18.55-5,21.67a57,57,0,1,1-113.48,2.58,25.54,25.54,0,0,1-9.85-8.77,25.06,25.06,0,0,1,12-3.36,57,57,0,0,1,108.33-3.26C819.18,123.62,821.91,119.65,825.41,118Z" fill="#fff" opacity="0.3"/><path d="M298,168.45s-.17-19,16.42-16C314.4,152.45,318,167.45,298,168.45Z" fill="#0071f2"/><path d="M425,287.45s6.64-8,17.32-7c0,0-2.32,11.27-9.82,13.63Z" fill="#0071f2"/><path d="M255,308.45s1-21,17-16C272,292.45,276,305.45,255,308.45Z" fill="#0071f2"/><path d="M445,420.45s1-21,17-16C462,404.45,466,417.45,445,420.45Z" fill="#0071f2"/><path d="M538.62,394.37s20.74-3.44,19.22,13.25C557.84,407.62,546,414.27,538.62,394.37Z" fill="#0071f2"/><path d="M631.37,327s7.2,19.75-9.49,21.33C621.88,348.32,613.17,337.88,631.37,327Z" fill="#0071f2"/><path d="M45,209.45s-15.8-1-15.9-16C29.08,193.45,46,189.45,45,209.45Z" fill="#0071f2"/><path d="M123,278.45s-4,14,16,15C139,293.45,141,276.45,123,278.45Z" fill="#0071f2"/><path d="M540,237.45s-11-10,4-24C544,213.45,555,224.45,540,237.45Z" fill="#0071f2"/><path d="M648.63,188.86s-14,5-19.29-14.82C629.34,174,644.22,169.51,648.63,188.86Z" fill="#0071f2"/><path d="M711.63,107.86s-14,5-19.29-14.82C692.34,93,707.22,88.51,711.63,107.86Z" fill="#0071f2"/><g opacity="0.4"><path d="M255,308.45s1-21,17-16C272,292.45,276,305.45,255,308.45Z" fill="#fff"/><path d="M445,420.45s1-21,17-16C462,404.45,466,417.45,445,420.45Z" fill="#fff"/><path d="M538.62,394.37s20.74-3.44,19.22,13.25C557.84,407.62,546,414.27,538.62,394.37Z" fill="#fff"/><path d="M631.37,327s7.2,19.75-9.49,21.33C621.88,348.32,613.17,337.88,631.37,327Z" fill="#fff"/><path d="M45,209.45s-15.8-1-15.9-16C29.08,193.45,46,189.45,45,209.45Z" fill="#fff"/><path d="M123,278.45s-4,14,16,15C139,293.45,141,276.45,123,278.45Z" fill="#fff"/><path d="M540,237.45s-11-10,4-24C544,213.45,555,224.45,540,237.45Z" fill="#fff"/><path d="M648.63,188.86s-14,5-19.29-14.82C629.34,174,644.22,169.51,648.63,188.86Z" fill="#fff"/><path d="M711.63,107.86s-14,5-19.29-14.82C692.34,93,707.22,88.51,711.63,107.86Z" fill="#fff"/></g><path d="M305,193.45c-7.47,1.25-11.84,4.43-14.07,6.66A53.45,53.45,0,0,0,203.44,188c-7.67-6.45-14.46-6.13-14.46-6.13,1,9,4.75,12.92,8.1,14.62a55.41,55.41,0,0,0-8.1,28.95c0,30.38,24.18,55,54,55s54-24.62,54-55a56.19,56.19,0,0,0-2.09-15.17C308.51,204,305,193.45,305,193.45Z" fill="#0071f2"/><path d="M305,193.45c-7.47,1.25-11.84,4.43-14.07,6.66A53.45,53.45,0,0,0,203.44,188c-7.67-6.45-14.46-6.13-14.46-6.13,1,9,4.75,12.92,8.1,14.62a55.41,55.41,0,0,0-8.1,28.95c0,30.38,24.18,55,54,55s54-24.62,54-55a56.19,56.19,0,0,0-2.09-15.17C308.51,204,305,193.45,305,193.45Z" fill="#fff" opacity="0.3"/><path d="M98.48,231l5-7,23,23,3-30s4,22,6,37l26.5,32.5,29-134h11.15l1.85,92,39-21,7,7-43,33s-12,49-13,80c0,0-5,49-6,111,0,0,2,94,14,130l-93,13s13-16,20-77c0,0,8-158,19-187l-19-64Z" fill="#2f2e41"/><path d="M673.63,630.45,662.2,619.91C504.42,609.36,293,618.72,293,618.72c0-9.72-20-8.27-20-8.27-2-24-20-8.9-20-8.9-2-25.91-24-14.1-24-14.1,4-30-21-13-21-13-9-37-30.87-7.9-30.87-7.9-21.87-22.9-25.55,8.69-25.55,8.69C124.15,549,122,590.45,122,590.45c-37-16-23.5,18.61-23.5,18.61C73,603.67,86,630.45,86,630.45Z" fill="#0071f2"/><path d="M673.63,630.45,662.2,619.91C504.42,609.36,293,618.72,293,618.72c0-9.72-20-8.27-20-8.27-2-24-20-8.9-20-8.9-2-25.91-24-14.1-24-14.1,4-30-21-13-21-13-9-37-30.87-7.9-30.87-7.9-21.87-22.9-25.55,8.69-25.55,8.69C124.15,549,122,590.45,122,590.45c-37-16-23.5,18.61-23.5,18.61C73,603.67,86,630.45,86,630.45Z" opacity="0.2"/><path d="M673,244.45l-18-64h11.35L715.46,286l58.88-60.51,5.85,4.6L750,268.45s-16,55-20,65c0,0,15,73,14,123l6,70s5,69,41,104H655s25.29-21.82,33.65-135.91c0,0,8.35-118.09-18.65-231.09l-40-18-42,14,32-18-35.07-16,5.07-8Z" fill="#2f2e41"/><path d="M207,589.45l-10.71-4.2s4.71-17.8,14.71-22.8l7.17,7.53S211,575.45,207,589.45Z" fill="#fff"/><path d="M246.37,575.21a89.9,89.9,0,0,1-2.39,9.24c-35-7-47.71-44.93-47.71-44.93A86,86,0,0,1,207,536.14a56.63,56.63,0,0,1,19.52-1.56c8.35.93,12.47,3.87,12.47,3.87a16.54,16.54,0,0,1,6.84,8.12C249.43,555.14,248.05,567.05,246.37,575.21Z" fill="#0071f2"/><ellipse cx="217.15" cy="555.33" rx="6.2" ry="8" transform="translate(-286.31 235.83) rotate(-36.24)" fill="#fff" opacity="0.5"/><path d="M246.37,575.21a7.48,7.48,0,0,1-1.89.24c-5.8,0-10.5-6.49-10.5-14.5s4.7-14.5,10.5-14.5a7.5,7.5,0,0,1,1.34.12C249.43,555.14,248.05,567.05,246.37,575.21Z" fill="#fff" opacity="0.5"/><path d="M227,536c0,2.49-4.48,4.5-10,4.5s-9.77-1.91-10-4.31a56.63,56.63,0,0,1,19.52-1.56A2.39,2.39,0,0,1,227,536Z" fill="#fff" opacity="0.5"/><path d="M168,581.5v-16l6.25-1.72s1.75,5.7,3.75,14.7C178,578.45,175,579.54,168,581.5Z" fill="#fff"/><path d="M185,557.45c-7,16-34,10-34,10,1.47-11.28,4.14-17.74,6.49-21.41A10.45,10.45,0,0,1,170,541.8c.29.11.59.24.87.38,4.84,2.2,8.78,6.92,11.26,10.53A45.4,45.4,0,0,1,185,557.45Z" fill="#0071f2"/><ellipse cx="160.48" cy="556.95" rx="4.5" ry="5.5" fill="#fff" opacity="0.5"/><path d="M182.11,552.71a7.22,7.22,0,0,1-5.63,2.74,7.76,7.76,0,0,1-7.5-8,8.22,8.22,0,0,1,1.87-5.27C175.69,544.38,179.63,549.1,182.11,552.71Z" fill="#fff" opacity="0.5"/></svg>