<svg id="b22a30bf-d051-409c-aad4-3dbaa1a7b3de" data-name="Layer 1" xmlns="http://www.w3.org/2000/svg" width="865.76" height="682.89" viewBox="0 0 865.76 682.89"><path d="M777.14,341.45q0,4.6-.12,9.17c0,1.58-.1,3.15-.17,4.72a326,326,0,0,1-28,119.54c-1,2.14-1.93,4.28-2.94,6.4-.61,1.31-1.23,2.6-1.87,3.9a325.1,325.1,0,0,1-20,35.13,329.38,329.38,0,0,1-56.69,65.89q-6.07,5.41-12.42,10.53-4.62,3.72-9.37,7.27a327.81,327.81,0,0,1-384.38,5.79c-2.11-1.48-4.2-3-6.27-4.52h0q-11-8.12-21.26-17.12l-.17-.15q-8.15-7.12-15.8-14.79a328.33,328.33,0,0,1-56-74.63q-6.09-11.11-11.32-22.74c-1-2.29-2-4.58-3-6.89q-1.27-3-2.48-6.06A327.82,327.82,0,0,1,449.4,13.7C569.17,13.7,673.94,78,731.1,173.86q3,5,5.82,10.17,5.26,9.57,9.88,19.53c2.06,4.41,4,8.89,5.88,13.4A326.85,326.85,0,0,1,777.14,341.45Z" fill="#0071f2"/><path d="M777.14,341.45q0,4.6-.12,9.17c0,1.58-.1,3.15-.17,4.72a326,326,0,0,1-28,119.54c-1,2.14-1.93,4.28-2.94,6.4-.61,1.31-1.23,2.6-1.87,3.9a325.1,325.1,0,0,1-20,35.13,329.38,329.38,0,0,1-56.69,65.89q-6.07,5.41-12.42,10.53-4.62,3.72-9.37,7.27a327.81,327.81,0,0,1-384.38,5.79c-2.11-1.48-4.2-3-6.27-4.52h0q-11-8.12-21.26-17.12l-.17-.15q-8.15-7.12-15.8-14.79a328.33,328.33,0,0,1-56-74.63q-6.09-11.11-11.32-22.74c-1-2.29-2-4.58-3-6.89q-1.27-3-2.48-6.06A327.82,327.82,0,0,1,449.4,13.7C569.17,13.7,673.94,78,731.1,173.86q3,5,5.82,10.17,5.26,9.57,9.88,19.53c2.06,4.41,4,8.89,5.88,13.4A326.85,326.85,0,0,1,777.14,341.45Z" fill="#fff" opacity="0.7" style="isolation:isolate"/><path d="M756.24,460.66a31.5,31.5,0,0,1-8.61-26.3,62.92,62.92,0,0,0,.63-6.71c.2-7.57,2.14-25.56,15.62-30.06,0,0,46.5-25.16,56.06-4.14,0,0,21,32.17-26.44,75.49C793.5,468.94,775.61,486.12,756.24,460.66Z" fill="#0071f2"/><path d="M756.24,460.66a31.5,31.5,0,0,1-8.61-26.3,62.92,62.92,0,0,0,.63-6.71c.2-7.57,2.14-25.56,15.62-30.06,0,0,46.5-25.16,56.06-4.14,0,0,21,32.17-26.44,75.49C793.5,468.94,775.61,486.12,756.24,460.66Z" opacity="0.1" style="isolation:isolate"/><path d="M797.62,311.43c-2.5,51.58-25.46,90.95-25.46,90.95-22.61,48.1-52.24,33.75-52.24,33.75-9.23,26.12-18.78,27.7-18.78,27.7-7.18,1.3-14.74-2.45-22-8.77-21.51-18.65-40.66-59.7-40.66-59.7C615,355.23,653.68,284.85,653.68,284.85,680,223.5,717.7,218,717.7,218c68.79-19.11,77.39,53.49,77.39,53.49A175,175,0,0,1,797.62,311.43Z" fill="#0071f2"/><path d="M797.62,311.43c-2.5,51.58-25.46,90.95-25.46,90.95-22.61,48.1-52.24,33.75-52.24,33.75-9.23,26.12-18.78,27.7-18.78,27.7-7.18,1.3-14.74-2.45-22-8.77,0,0,28.64,9.3,37.77-32.35C716.89,422.71,772.74,428.59,797.62,311.43Z" fill="#fff" opacity="0.1" style="isolation:isolate"/><path d="M793.5,456.94s-9.83,19-47.61,24.34l-2.08.28.21,3.62a325.1,325.1,0,0,1-20,35.13V514.8s-6.36-15.61-12.41-26.75l-22.94-43.64,8.28,1.27s10.84,28,27.07,52.24l2.63-113.06s-15.1-88.09-34.47-108.93h10.51s16.56,36.94,25.79,77.07V275.93h14.34s-9.56,62.42-8,106.06l-.31,59.87s28-82.81,36.94-91.41l5.5.17,4.69.15a49.22,49.22,0,0,0-4.86,4.57,81.92,81.92,0,0,0-19,33.65s-14.65,40.46-14.65,57.65l1,28.67s1.81-.08,4.7-.43c9.18-1.12,29.34-5,37.34-17.94Z" fill="#2f2e41"/><path d="M667.37,542.51V586.2q-6.07,5.41-12.42,10.53V542.51Z" fill="#2f2e41"/><path d="M539.65,571.49s31.27-25.27,67-4.6c0,0-.88,17.14-6,26,0,0,8.65-6,15.55-19.44,0,0,14.31,9.72,17.49,30.57l-63.26-7.07L543.53,583.5Z" fill="#0071f2"/><path d="M539.65,571.49s31.27-25.27,67-4.6c0,0-.88,17.14-6,26,0,0,8.65-6,15.55-19.44,0,0,14.31,9.72,17.49,30.57l-63.26-7.07L543.53,583.5Z" fill="#fff" opacity="0.1" style="isolation:isolate"/><circle cx="449.54" cy="258.96" r="197.99" fill="#0071f2"/><path d="M597.27,538.79c-.62,16.05-16.37,34-16.37,34v15.74l-2.42-.69L572.26,586V555.46C553.74,536.32,542,501.74,542,501.74l5-5.73a128.5,128.5,0,0,0,12.1,30.89l14.33,4.15v-36l5.07-8.25,1.2-1.95v82.29c10.51-9.14,14.19-27.75,14.19-27.75Z" fill="#2f2e41"/><path d="M597.27,538.79c-.62,16.05-16.37,34-16.37,34v15.74l-2.42-.69v-101l1.2-1.95v82.29c10.51-9.14,14.19-27.75,14.19-27.75Z" opacity="0.1" style="isolation:isolate"/><polygon points="340.55 581.38 366.17 529.7 456.56 471.34 481.83 471.34 502.81 512.62 536.27 555.32 546.24 581.38 448.02 605.5 340.55 581.38" fill="#2f2e41"/><polygon points="383.25 578.1 395.35 531.48 481.83 471.34 502.81 512.62 402.47 550.7 383.25 578.1" opacity="0.3" style="isolation:isolate"/><polygon points="432.61 602.04 423.11 552.47 502.81 512.62 536.27 555.32 546.24 581.38 448.02 605.5 432.61 602.04" opacity="0.1" style="isolation:isolate"/><polygon points="395.35 531.48 366.17 529.7 456.56 471.34 481.83 471.34 395.35 531.48" opacity="0.2" style="isolation:isolate"/><polygon points="402.47 550.7 423.11 552.47 502.81 512.62 402.47 550.7" opacity="0.2" style="isolation:isolate"/><path d="M367.18,534.22h0l0,.06c-.82,1.47-1.72,3-2.67,4.41-6.49,9.95-16,19.55-29.73,28a32.71,32.71,0,0,1-10,4.08,111.63,111.63,0,0,1-12.72,2.12,43.65,43.65,0,0,1-17.74-1.73c-15.24-4.79-44.1-19.94-52.22-66.65,0,0-4.19-29.11,10.39-53.51a68.9,68.9,0,0,0,9.7-28.55,77.83,77.83,0,0,0-2.1-27.05s-21.79-71.15,43.19-87a37.42,37.42,0,0,1,13.61-.77,35.87,35.87,0,0,1,10.68,3.06c13.72,6.34,33.19,21.61,34.34,57.36a79.26,79.26,0,0,1-3,23.47c-3.09,11.28-7,34.68,5.45,56.35a76,76,0,0,1,5,10.26C374.89,472.28,383.83,504.35,367.18,534.22Z" fill="#0071f2"/><path d="M367.18,534.22h0l0,.06c-.82,1.47-1.72,3-2.67,4.41-6.49,9.95-16,19.55-29.73,28a32.71,32.71,0,0,1-10,4.08,111.63,111.63,0,0,1-12.72,2.12,43.65,43.65,0,0,1-17.74-1.73c-15.24-4.79-44.1-19.94-52.22-66.65,0,0-4.19-29.11,10.39-53.51a68.9,68.9,0,0,0,9.7-28.55,77.83,77.83,0,0,0-2.1-27.05s-21.79-71.15,43.19-87a37.42,37.42,0,0,1,13.61-.77,35.87,35.87,0,0,1,10.68,3.06c13.72,6.34,33.19,21.61,34.34,57.36a79.26,79.26,0,0,1-3,23.47c-3.09,11.28-7,34.68,5.45,56.35a76,76,0,0,1,5,10.26C374.89,472.28,383.83,504.35,367.18,534.22Z" fill="#fff" opacity="0.1" style="isolation:isolate"/><path d="M367.18,534.22h0l0,.06-2.67,4.41c-6.49,9.95-16,19.55-29.73,28a32.71,32.71,0,0,1-10,4.08,111.63,111.63,0,0,1-12.72,2.12,43.65,43.65,0,0,1-17.74-1.73c-15.24-4.79-44.1-19.94-52.22-66.65,0,0-4.19-29.11,10.39-53.51a68.9,68.9,0,0,0,9.7-28.55,77.83,77.83,0,0,0-2.1-27.05s-21.79-71.15,43.19-87a37.42,37.42,0,0,1,13.61-.77c-4.65,1.51-23.28,9.68-23.58,43.19a58.87,58.87,0,0,0,2.89,18.28c2.23,7.09,3.92,21.76-8.34,42.83a49.76,49.76,0,0,0-6.94,23.68c-.35,14.35,4.39,34.21,29.45,46.1a49.88,49.88,0,0,0,11.56,3.73C332.76,487.65,362.14,496.92,367.18,534.22Z" fill="#fff" opacity="0.1" style="isolation:isolate"/><path d="M233.66,588.15l-.17-.15q-8.15-7.12-15.8-14.79l1.93-130.07L230,440.25S233.75,564.56,233.66,588.15Z" fill="#2f2e41"/><path d="M182.52,402.65l-11.27,37.6c-6.71,23.7-7.54,56.56-7.54,56.56l-2,1.77q-6.09-11.11-11.32-22.74v-6.07c-1-.24-2-.51-3-.82-25.69-8.07-34.14-39.21-34.14-39.21l3.83-2.64c5.27,25.32,19.81,33.29,27.83,35.79A24.83,24.83,0,0,0,150.4,464c5.7-55.62-13.19-117.94-13.19-117.94l5.63-5.27c3,9.11,9.71,44.58,9.71,44.58l-.71-44.58H159l-1.44,138.55,19.9-73.12Z" fill="#2f2e41"/><path d="M147.88,420.38a31.79,31.79,0,0,1-2,6.74h0c-2.85,6.46-7.15,8.28-11.13,8.26a20.12,20.12,0,0,1-9.95-3.29c-10.83-7.44-24.69,4.59-24.69,4.59s-27.81,18-37.15-4.07A40.73,40.73,0,0,1,58.4,417a36.07,36.07,0,0,1,2.15-15.94A37.52,37.52,0,0,1,66.3,391a43.28,43.28,0,0,1,32.6-16.11c14-.51,35.83,2.83,45.74,20.31C151,406.48,147.88,420.38,147.88,420.38Z" fill="#0071f2"/><path d="M147.88,420.38a31.79,31.79,0,0,1-2,6.74h0c-2.85,6.46-7.15,8.28-11.13,8.26a20.12,20.12,0,0,1-9.95-3.29c-10.83-7.44-24.69,4.59-24.69,4.59s-27.81,18-37.15-4.07A40.73,40.73,0,0,1,58.4,417a36.07,36.07,0,0,1,2.15-15.94A37.52,37.52,0,0,1,66.3,391a43.28,43.28,0,0,1,32.6-16.11c14-.51,35.83,2.83,45.74,20.31C151,406.48,147.88,420.38,147.88,420.38Z" fill="#fff" opacity="0.3" style="isolation:isolate"/><path d="M147.88,420.38a31.79,31.79,0,0,1-2,6.74c-.15-22.16-15.14-33.45-15.14-33.45C104.36,369,60.55,401.1,60.55,401.1A37.52,37.52,0,0,1,66.3,391a43.28,43.28,0,0,1,32.6-16.11c14-.51,35.83,2.83,45.74,20.31C151,406.48,147.88,420.38,147.88,420.38Z" fill="#fff" opacity="0.3" style="isolation:isolate"/><path d="M255,311.07a108.54,108.54,0,0,1-2.76,18.48h0q-.19.85-.42,1.74c-6.12,23.94-23.75,56.24-74.05,19.65,0,0-21.44-15.73-58.41,6,0,0-32.35,22.21-53.1,0,0,0-36.09-36.08-21.65-84.55,4.17-14,12.54-29,27.23-44.54,1-1.05,2-2.12,3.1-3.18,0,0,30.9-33.31,89.79-20.76C164.72,203.9,275.76,214.52,255,311.07Z" fill="#0071f2"/><path d="M255,311.07a108.54,108.54,0,0,1-2.76,18.48h0q-.19.85-.42,1.74c-6.12,23.94-23.75,56.24-74.05,19.65,0,0-21.44-15.73-58.41,6,0,0-32.35,22.21-53.1,0,0,0-36.09-36.08-21.65-84.55,4.17-14,12.54-29,27.23-44.54,1-1.05,2-2.12,3.1-3.18,0,0,30.9-33.31,89.79-20.76C164.72,203.9,275.76,214.52,255,311.07Z" fill="#fff" opacity="0.1" style="isolation:isolate"/><path d="M251.81,331.29c-6.12,23.94-23.75,56.24-74.05,19.65,0,0-21.44-15.73-58.41,6,0,0-32.35,22.21-53.1,0,0,0-36.09-36.08-21.65-84.55,0,0,2.82,96.23,70.41,68.42,0,0,33.79-20.89,82.06-3.59,0,0,36,24.05,54.49-6.59Z" fill="#fff" opacity="0.1" style="isolation:isolate"/><path d="M255,311.07a108.54,108.54,0,0,1-2.76,18.48h0c-6.08,9.52-10.68,11.89-10.68,11.89-.24-20.31-3.13-37.9-7.39-51.91-11.88-39.11-47.42-66.23-88.25-68.06-38.6-1.73-74.08,6.38-74.08,6.38h0c1-1.05,2-2.12,3.1-3.18,0,0,30.9-33.31,89.79-20.76C164.72,203.9,275.76,214.52,255,311.07Z" fill="#fff" opacity="0.2" style="isolation:isolate"/><path d="M166.19,382.25s-1.93-28.87,26.95-28.93c0,0,26.7,3.5,22.12,34.52,0,0-2.31,19.4-16.54,12.6Z" fill="#0071f2"/><path d="M166.19,382.25s-1.93-28.87,26.95-28.93c0,0,26.7,3.5,22.12,34.52,0,0-2.31,19.4-16.54,12.6Z" fill="#fff" opacity="0.3" style="isolation:isolate"/><path d="M291.3,570.12l-1.13,27.76-29,11.91c-2.11-1.48-4.2-3-6.27-4.52h0q-11.08-8.19-21.43-17.27l-.14-23,12.58-5s-5.55,25.23-4.37,25,13.77-31.23,13.77-31.23H264l-2,31.23,10.67-25.29S278.69,565.19,291.3,570.12Z" fill="#0071f2"/><path d="M726.69,546.88H597.27c20.93-5.84,35.26-37.69,43.56-63.14a301.87,301.87,0,0,0,8.75-32.93v0H609.93c12.12-15,22.4-45,22.4-45h-9.18c5.55-4.67,11-14.29,15.31-23.52a240.71,240.71,0,0,0,9.07-22.52H607.36c9.91-6.62,22-35.61,22-35.61H611c20.39-4.89,33.53-37.26,41.34-66.38a396.59,396.59,0,0,0,9.49-47.45,1.05,1.05,0,0,1,1.06-.92,1.07,1.07,0,0,1,1.06.95c10.37,89.36,50.84,113.8,50.84,113.8h-19.3a64.86,64.86,0,0,0,4,9.44v0a62.07,62.07,0,0,0,24.67,25.69H677.72c10.39,41.05,36.11,55.39,36.11,55.39H696.51c1,2.92,2.08,5.59,3.2,8.06,11.06,24.39,27,28.08,27,28.08H674.75c19.91,51.56,33.65,59.07,38.57,59.95H695c.21.53.43,1.05.64,1.57h0C709,544.58,726.69,546.88,726.69,546.88Z" fill="#0071f2"/><path d="M726.69,546.88H597.27c20.93-5.84,35.26-37.69,43.56-63.14a301.87,301.87,0,0,0,8.75-32.93v0H609.93c12.12-15,22.4-45,22.4-45h-9.18c5.55-4.67,11-14.29,15.31-23.52a240.71,240.71,0,0,0,9.07-22.52H607.36c9.91-6.62,22-35.61,22-35.61H611c20.39-4.89,33.53-37.26,41.34-66.38a396.59,396.59,0,0,0,9.49-47.45,1.05,1.05,0,0,1,1.06-.92,1.07,1.07,0,0,1,1.06.95c10.37,89.36,50.84,113.8,50.84,113.8h-19.3a64.86,64.86,0,0,0,4,9.44v0a62.07,62.07,0,0,0,24.67,25.69H677.72c10.39,41.05,36.11,55.39,36.11,55.39H696.51c1,2.92,2.08,5.59,3.2,8.06,11.06,24.39,27,28.08,27,28.08H674.75c19.91,51.56,33.65,59.07,38.57,59.95H695c.21.53.43,1.05.64,1.57h0C709,544.58,726.69,546.88,726.69,546.88Z" opacity="0.2" style="isolation:isolate"/><path d="M695.52,324.11a64.86,64.86,0,0,0,4,9.44c-6.38-11.34-12.9-22.14-17.1-29a75.88,75.88,0,0,0-8.79-11.71c-12.91-14-18.69-26.71-21.27-35.14a396.59,396.59,0,0,0,9.49-47.45,1.05,1.05,0,0,1,1.06-.92,1.07,1.07,0,0,1,1.06.95c10.37,89.36,50.84,113.8,50.84,113.8Z" opacity="0.2" style="isolation:isolate"/><path d="M696.51,414.65c1,2.92,2.08,5.59,3.2,8.06h0s-34.56-7.8-43.48-20.33c0,0-10.33-10.56-17.76-20.14a240.71,240.71,0,0,0,9.07-22.52l30.19-.46c10.39,41.05,36.11,55.39,36.11,55.39Z" opacity="0.2" style="isolation:isolate"/><path d="M695,510.74c.21.53.43,1.05.64,1.57-.39-.17-12.85-5.78-22.57-5.78,0,0-13.67,1.68-22-12.64a26.75,26.75,0,0,0-7.59-8.52,19.67,19.67,0,0,0-2.71-1.63,301.87,301.87,0,0,0,8.75-32.93v0h25.16c19.91,51.56,33.65,59.07,38.57,59.95Z" opacity="0.2" style="isolation:isolate"/><path d="M746.8,203.56H546.43a62.51,62.51,0,0,0,26.94-21.3c10.19-16.57,13.38-15.13,13.38-15.13,6.37-1.76,13.7,11.14,13.7,11.14,9.07,11,14.64,12.42,14.64,12.42,13.7,7.81,31.67-11.94,31.67-11.94,20.36-22.94,26-24.87,26-24.87,16.89-14,33.3,10.87,33.3,10.87,9.32,16,22.26,10.34,22.26,10.34.95-.44,1.88-.86,2.78-1.23q3,5,5.82,10.17Q742.19,193.6,746.8,203.56Z" fill="#fff"/><path d="M406,130.68H198.41A329.22,329.22,0,0,1,225,102.54c3.08.93,13.51,2.86,21.36-10.67,0,0,16.43-24.83,33.3-10.86,0,0,5.64,1.93,26,24.86,0,0,18,19.76,31.66,11.95,0,0,5.58-1.43,14.66-12.42,0,0,7.32-12.9,13.69-11.15,0,0,3.19-1.43,13.38,15.13A62.43,62.43,0,0,0,406,130.68Z" fill="#fff"/><path d="M587.85,544.43S537.32,560.56,514,510c0,0,52.18,38.22,66.65-11.47,0,0-25.88,16.56-69.62,4.25,0,0-14.33-28.05-5-81.56q1-5.94,2.46-12.28c1.3-5.72,2.86-11.71,4.72-17.93,0,0,9,.14,26.36-17.09,0,0-13,3.08-20.83-2.39a181.85,181.85,0,0,1,17-34.19c8.64-13.22,20.14-25.53,33.54-26.91a36.65,36.65,0,0,1,16.84,3,32.63,32.63,0,0,1,16.27,15.77s-8.87,3-16,2.86c0,0,6.45,17.31,25.27,12.5,0,0,21.5,47.46,26.62,70,0,0-23.56,10.59-26.62,21.85l29.35-9.21,3.41,17.06s-16.73,2.82-16.39,12.68c0,0,5.4-4.74,17.34-5.37C645.23,451.58,663.87,538.05,587.85,544.43Z" fill="#0071f2"/><path d="M587.85,544.43S537.32,560.56,514,510c0,0,52.18,38.22,66.65-11.47,0,0-25.88,16.56-69.62,4.25,0,0-14.33-28.05-5-81.56q1-5.94,2.46-12.28c1.3-5.72,2.86-11.71,4.72-17.93,0,0,9,.14,26.36-17.09,0,0-13,3.08-20.83-2.39a181.85,181.85,0,0,1,17-34.19c8.64-13.22,20.14-25.53,33.54-26.91a36.65,36.65,0,0,1,16.84,3,32.63,32.63,0,0,1,16.27,15.77s-8.87,3-16,2.86c0,0,6.45,17.31,25.27,12.5,0,0,21.5,47.46,26.62,70,0,0-23.56,10.59-26.62,21.85l29.35-9.21,3.41,17.06s-16.73,2.82-16.39,12.68c0,0,5.4-4.74,17.34-5.37C645.23,451.58,663.87,538.05,587.85,544.43Z" opacity="0.1" style="isolation:isolate"/><path d="M554.31,390.27s-20,27.87-48.36,31q1-5.94,2.46-12.28A209.21,209.21,0,0,0,554.31,390.27Z" opacity="0.1" style="isolation:isolate"/><path d="M586,313.46h0c-6.63-.82-12.61,1.62-16.91,4.24a32.09,32.09,0,0,0-8.81,8.18c-11.65,15.5-24.66,11.5-24.66,11.5v0c8.64-13.22,20.14-25.53,33.54-26.91A36.65,36.65,0,0,1,586,313.46Z" opacity="0.1" style="isolation:isolate"/><path d="M568.31,448s12.71-48.11,37.21-45.57a3,3,0,0,1,2.33,4.39c-1.37,2.46-4.44,6.19-11.23,11.36-1.29,1-2.55,2-3.76,3.09C587.51,426.09,573.51,439,568.31,448Z" opacity="0.1" style="isolation:isolate"/><path d="M578.48,463.84s9-28.84,22.13-25.88a1.85,1.85,0,0,1,1.27,2.63c-.55,1.17-1.88,2.85-4.79,5.17C597.09,445.76,585.68,453.83,578.48,463.84Z" opacity="0.1" style="isolation:isolate"/><path d="M618.1,504.51s8.45,14.55,18.9,12.2a45.3,45.3,0,0,0,5.16-11S624.25,507.06,618.1,504.51Z" opacity="0.1" style="isolation:isolate"/><path d="M303.64,592.84l3.47-237.14a2.41,2.41,0,0,1,2.42-2.38h0a2.42,2.42,0,0,1,2.41,2.4l2.21,238.39Z" fill="#2f2e41"/><path d="M311.6,517.35s21.59-15.13,34-69.07a126,126,0,0,0,2.93-20c.46-7,1.18-18.61,2.15-36.15a2,2,0,0,1,2-1.87h0a2,2,0,0,1,2,2c.11,14.31-.92,103-43,136.91Z" fill="#2f2e41"/><path d="M306.51,543.79v6.69s-30.58-9.88-23.89-107.34C282.62,443.14,278.8,527.54,306.51,543.79Z" fill="#2f2e41"/><path d="M309,513.22c-15.72,53.07-41.79,9.65-41.79,9.65-16.34,21.68-25.65-45.16-25.65-45.16C227.71,490.22,225.61,457,225.61,457c-3.75,36.19-15,20.76-15,20.76-12.5,71.56-27.09,45.16-27.09,45.16-25.85,37.37-38.29-.52-40.59-8.75a2,2,0,0,1,.89-2.24c1.5-.9,4.22-2.59,7.68-5.09h0c9.74-7,25.3-20.37,35.82-39.85,35.72-66.12,34.73-116,34.73-116h5.21c8,53.84,19.1,77.11,19.1,77.11,10.16,36.68,30.55,59.7,45.35,72.28a104.7,104.7,0,0,0,16.91,12A.77.77,0,0,1,309,513.22Z" fill="#0071f2"/><path d="M309,513.22c-15.72,53.07-41.79,9.65-41.79,9.65-16.34,21.68-25.65-45.16-25.65-45.16C227.71,490.22,225.61,457,225.61,457c-3.75,36.19-15,20.76-15,20.76-12.5,71.56-27.09,45.16-27.09,45.16-25.85,37.37-38.29-.52-40.59-8.75a2,2,0,0,1,.89-2.24c1.5-.9,4.22-2.59,7.68-5.09h0c9.74-7,25.3-20.37,35.82-39.85,35.72-66.12,34.73-116,34.73-116h5.21c8,53.84,19.1,77.11,19.1,77.11,10.16,36.68,30.55,59.7,45.35,72.28a104.7,104.7,0,0,0,16.91,12A.77.77,0,0,1,309,513.22Z" opacity="0.3" style="isolation:isolate"/><path d="M309,513.22c-15.72,53.07-41.79,9.65-41.79,9.65-16.34,21.68-25.65-45.16-25.65-45.16C227.71,490.22,225.61,457,225.61,457c-3.75,36.19-15,20.76-15,20.76-12.5,71.56-27.09,45.16-27.09,45.16-25.85,37.37-38.29-.52-40.59-8.75a2,2,0,0,1,.89-2.24c1.5-.9,4.22-2.59,7.68-5.09h0c.49-.18,17.13-6.06,28.88,7.05,0,0-5.56-25.35,16.66-36.13,0,0,9.38-5.21,13.89-12.5,0,0,12.4-24.17,25.19-6.95a23.78,23.78,0,0,1,3.12,5.84c2.31,6.11,9,22.63,16.77,32.33a14.2,14.2,0,0,0,5.92,4.31,21.11,21.11,0,0,1,9.79,8.23s11.27-6.83,20-8.64a104.7,104.7,0,0,0,16.91,12A.77.77,0,0,1,309,513.22Z" opacity="0.3" style="isolation:isolate"/><path d="M303.64,390.27a73.31,73.31,0,0,1-4.07,10.19c-15,29.93-35.84-1.24-35.84-1.24-11.81,19.8-25.35-35.78-25.35-35.78-7.3,6.95-10.76-10.12-10.76-10.12-10.06,18.71-16,9.78-16,9.78-11.81,58.35-24,36.47-24,36.47-24.87,35.22-38.75-8.8-38.89-9.29h0c63.55-29.44,74.67-133.1,74.67-133.1l2.77-9.38c1.71,31.26,15.34,64.25,15.34,64.25C261.75,379.77,303.64,390.27,303.64,390.27Z" fill="#0071f2"/><path d="M303.64,390.27a73.31,73.31,0,0,1-4.07,10.19c-15,29.93-35.84-1.24-35.84-1.24-11.81,19.8-25.35-35.78-25.35-35.78-7.3,6.95-10.76-10.12-10.76-10.12-10.06,18.71-16,9.78-16,9.78-11.81,58.35-24,36.47-24,36.47-24.87,35.22-38.75-8.8-38.89-9.29h0c63.55-29.44,74.67-133.1,74.67-133.1l2.77-9.38c1.71,31.26,15.34,64.25,15.34,64.25C261.75,379.77,303.64,390.27,303.64,390.27Z" opacity="0.3" style="isolation:isolate"/><path d="M299.57,400.46c-15,29.93-35.84-1.24-35.84-1.24-11.81,19.8-25.35-35.78-25.35-35.78-7.3,6.95-10.76-10.12-10.76-10.12-10.06,18.71-16,9.78-16,9.78-11.81,58.35-24,36.47-24,36.47-24.87,35.22-38.75-8.8-38.89-9.29.58.38,31,20.15,41-4.6,0,0,4.17-17,14.59-22.58,0,0,9.37-7,13.19-18.06,0,0,4.87-15.29,11.12-3.13,0,0,2.08,7.2,7.64,11.41,0,0,5.91-.54,8.34,14.35,0,0,1.85,6.91,6.93,5.5,0,0,5.05-4.74,6.45,12.71,0,0,3.64,12.88,15.1,12.24C273.11,398.12,290.59,391.63,299.57,400.46Z" opacity="0.3" style="isolation:isolate"/><path d="M295,286.34c-2.46,7-5.37,11.35-8.44,13.81-11.66,9.39-25.6-8.25-25.6-8.25-14.59,13.89-22.92-26-22.92-26-5.91,7.64-13.86-6.89-13.86-6.89-2,11.17-10.46,6.2-10.46,6.2-11.46,44.1-22.4,27.09-22.4,27.09-25.2,26-34.9-6.25-34.9-6.25s51.4-12.16,69.8-104.9c0,0,9.39,73.29,53.85,98Z" fill="#0071f2"/><path d="M295,286.34c-2.46,7-5.37,11.35-8.44,13.81-11.66,9.39-25.6-8.25-25.6-8.25-14.59,13.89-22.92-26-22.92-26-5.91,7.64-13.86-6.89-13.86-6.89-2,11.17-10.46,6.2-10.46,6.2-11.46,44.1-22.4,27.09-22.4,27.09-25.2,26-34.9-6.25-34.9-6.25s51.4-12.16,69.8-104.9c0,0,9.39,73.29,53.85,98Z" opacity="0.3" style="isolation:isolate"/><path d="M286.55,300.15c-11.66,9.39-25.6-8.25-25.6-8.25-14.59,13.89-22.92-26-22.92-26-5.91,7.64-13.86-6.89-13.86-6.89-2,11.17-10.46,6.2-10.46,6.2-11.46,44.1-22.4,27.09-22.4,27.09-25.2,26-34.9-6.25-34.9-6.25s25.7,13.19,37.86-6.26c0,0,7.64-19,18.4-20.78,0,0,11.08-5.61,13.54-24,0,0,2.09,12.85,10.78,17.71,0,0,6.38,2.44,12.85,22.23,0,0,1.73,11.12,10.77,7.3,0,0,16-1.74,22.23,12.5A14.1,14.1,0,0,0,286.55,300.15Z" opacity="0.3" style="isolation:isolate"/><path d="M645.58,604a327.79,327.79,0,0,1-390.65,1.27l-.13,0,.12,0,.15,0,.29,0a1.71,1.71,0,0,0,.3-.05l1.42-.21.77-.12,2.29-.39.5-.09.21,0,1.26-.23.11,0c1.47-.26,3.07-.58,4.78-1,.43-.08.86-.18,1.3-.28l1.35-.3c1-.23,2-.46,3-.72s2.37-.59,3.59-.93c1.83-.49,3.71-1,5.61-1.61l2.68-.85,1.58-.53.12,0c2-.7,4.05-1.45,6.07-2.26.54-.21,1.07-.42,1.6-.65s1.3-.55,1.94-.83c0,0,31.28-14.43,75.52-17.09a95.62,95.62,0,0,1,31.13,3.33c13.52,3.72,33.63,10,48.15,17.73,0,0,42.06-21.65,91.87-19.42l1.68.08c4.33.24,8.72.66,13.13,1.3l1.65.25c1.32.2,2.65.43,4,.67,1.07.21,2.15.41,3.24.64.86.18,1.73.38,2.6.58.57.12,1.13.26,1.7.4l1.89.47,1.4.37c.8.21,1.59.44,2.38.67l1.89.56,1.89.6,1.57.52c.74.24,1.49.5,2.23.77s1.25.44,1.87.68,1.26.47,1.88.72l.31.12,1.58.64,1.29.54c1.46.61,2.9,1.26,4.35,1.94C595.07,591.18,621.33,603.75,645.58,604Z" fill="#0071f2"/><path d="M645.58,604a327.79,327.79,0,0,1-390.65,1.27l.14,0,.29,0,.3-.05,1.42-.21.77-.12,2.29-.39.5-.09.21,0,1.26-.23.11,0c1.47-.27,3.07-.58,4.78-1,.43-.08.86-.18,1.3-.28l1.35-.3c1-.23,2-.46,3-.72s2.37-.6,3.59-.93c1.83-.49,3.71-1,5.61-1.61.89-.27,1.78-.56,2.68-.85l1.58-.53.12,0c2-.7,4.05-1.45,6.07-2.26.54-.21,1.07-.42,1.6-.65s1.3-.55,1.94-.83c0,0,31.28-14.43,75.52-17.09a95.62,95.62,0,0,1,31.13,3.33c13.52,3.72,33.63,10,48.15,17.73,0,0,42.06-21.65,91.87-19.42l1.68.08c4.33.24,8.72.66,13.13,1.3l1.65.25c1.32.2,2.65.43,4,.67,1.07.21,2.15.41,3.24.64.86.18,1.73.38,2.6.58.57.12,1.13.26,1.7.4l1.89.47,1.4.37c.8.21,1.59.44,2.38.67l1.89.56,1.89.6,1.57.52c.74.24,1.49.5,2.23.77s1.25.44,1.87.68,1.26.47,1.88.72l.31.12,1.58.64,1.29.54c1.46.61,2.9,1.26,4.35,1.94C595.07,591.18,621.33,603.75,645.58,604Z" fill="#fff" opacity="0.4" style="isolation:isolate"/><path d="M587.85,588.06C524.47,576,476.59,605.5,476.59,605.5c-37,13.66-68.51-7.62-68.51-7.62-36.22-22.26-118.41-.93-121.81,0,3.21-1.11,6.45-2.34,9.61-3.74,0,0,31.28-14.43,75.52-17.09a95.62,95.62,0,0,1,31.13,3.33c13.52,3.72,33.63,10,48.15,17.73C450.68,598.08,521.28,561.74,587.85,588.06Z" fill="#fff" opacity="0.4" style="isolation:isolate"/><g id="bcd1b94d-cc19-47d9-af84-c49adc2e8510" data-name="freepik--bird-1--inject-61"><g id="aafaaa77-a273-4068-bcc9-2f1e3f34984f" data-name="freepik--bird--inject-61"><path d="M490,243.9A56.2,56.2,0,0,1,504.19,252c5.31,4,10.26,8.33,11.74,9.19s-.84-3.29-5.95-7.48c.58-1.48-2.23-3.71-4.05-4.68,2.32.33,2.33-2.58-4.62-6.36,1.62-.08,1.24-2.23-6.69-5.37,4.87,1.41,6.34,0-2.39-3,.52-.89-4.61-3.72-16.67-3.85a90.94,90.94,0,0,1,10.7,0c3.52.18,4.31-.41,1.58-1.24s-8.13-1-13.64-.62a79.42,79.42,0,0,1,9.34-1.16c3.09-.15,4.13-.46,2.62-1s-7.19-1-16.35,1.49a51.67,51.67,0,0,1,7.06-2.15c1.94-.37,5.4-1.21,2.41-1.42s-10.59,1.49-16.42,3.25a60,60,0,0,1,8.45-3.51c2.46-.84,5.61-2.39,1.36-1.94s-10.22,2.73-14.21,4.67c2.77-1.84,5.82-3.62,5.72-4.2s-4.46.9-9.82,3.56c.74-1.27,1.74-2.72-2.56-.41a22.79,22.79,0,0,0-6.51,5s2.52-3.3,2.39-3.93-3.59,1.89-4.77,4.67c.44-2-1.39-2.67-2.23,1.79s1.41,5.76,1.41,5.76,14-.16,20.07-1S483.24,241.08,490,243.9Z" fill="#2f2e41"/><path d="M476.59,240.61a64.37,64.37,0,0,1,9,2.33c3.84,1.12,5.4,1.87,3.72-.38s-6.36-8-12.6-6.35A14.62,14.62,0,0,0,466,229.92c-4-.32-4.54,1.78-4.54,1.78a7.26,7.26,0,0,0-5.62-2.11c-3.47.26-3.67,2.55-3.67,2.55a6,6,0,0,0-6.52-.08c-3.63,2.1-3.6,7.12-3.6,7.12s8,.57,12.74.95S464.72,238.43,476.59,240.61Z" fill="#2f2e41"/><path d="M476.59,240.61a64.37,64.37,0,0,1,9,2.33c3.84,1.12,5.4,1.87,3.72-.38s-6.36-8-12.6-6.35A14.62,14.62,0,0,0,466,229.92c-4-.32-4.54,1.78-4.54,1.78a7.26,7.26,0,0,0-5.62-2.11c-3.47.26-3.67,2.55-3.67,2.55a6,6,0,0,0-6.52-.08c-3.63,2.1-3.6,7.12-3.6,7.12s8,.57,12.74.95S464.72,238.43,476.59,240.61Z" opacity="0.3" style="isolation:isolate"/><path d="M447.68,241.64c.57-1,2.12-1,6.84-.56a67.05,67.05,0,0,0,12.36-.48,36.46,36.46,0,0,1,8.91.52c1.49.25.78-1.23-1.12-3.17s-5.74-3.33-8.92-1.74c-1-2.77-5.72-3.58-7.86-1.11-3.72-2.15-7.34-2-9.78,1.75Z" fill="#2f2e41"/><path d="M447.68,241.64c.57-1,2.12-1,6.84-.56a67.05,67.05,0,0,0,12.36-.48,36.46,36.46,0,0,1,8.91.52c1.49.25.78-1.23-1.12-3.17s-5.74-3.33-8.92-1.74c-1-2.77-5.72-3.58-7.86-1.11-3.72-2.15-7.34-2-9.78,1.75Z" opacity="0.4" style="isolation:isolate"/><path d="M453.93,226.54a18.93,18.93,0,0,0-2.74,1.87l-1.29,1.08a4.24,4.24,0,0,0-1.18,1.17s0,.17,0,.15a2.06,2.06,0,0,0,.61-.49l.56-.55a13.38,13.38,0,0,1,1.28-1.09c.9-.68,1.82-1.34,2.75-2C454,226.65,454,226.49,453.93,226.54Zm8.85,1.22a4.83,4.83,0,0,0-1.57.94,7,7,0,0,0-1.3,1.19v.1a3.5,3.5,0,0,0,.63-.43c.24-.2.49-.38.75-.56s.49-.36.74-.53a8.27,8.27,0,0,0,.74-.54C462.85,227.89,462.85,227.73,462.78,227.76Zm-5.31-.31-.74.5-.68.51-.35.28-.15.13a.44.44,0,0,0-.1.19v.13h.18l.16-.12.34-.26.65-.5c.21-.17.43-.32.64-.48a2.23,2.23,0,0,0,.68-.58v-.11a1.37,1.37,0,0,0-.64.31Zm33.58,6.61h0a12.3,12.3,0,0,0-1.69-.33v0a13.41,13.41,0,0,1,1.66.29Zm2.86,8.55s-.05.06,0,.07a32.53,32.53,0,0,1,6.18,2.75c.9.51,1.79,1,2.66,1.61s1.72,1.13,2.62,1.63a.07.07,0,0,0,.05-.11,21.54,21.54,0,0,0-2.69-1.87c-.92-.58-1.85-1.14-2.81-1.65a28.53,28.53,0,0,0-6-2.43Zm-6.31-9.16a34.33,34.33,0,0,0-5.62-.74,44.07,44.07,0,0,0-5.63,0s-.06.11,0,.11c1.89.06,3.77.1,5.66.22s3.71.31,5.6.43c0,0,0,0,0,0Zm6.16,3.72a0,0,0,0,0,0-.09,31.7,31.7,0,0,0-5.72-1.16c-.94-.11-1.89-.2-2.84-.25a9.46,9.46,0,0,0-2.71,0c-.13,0-.09.27,0,.29a18.79,18.79,0,0,0,2.7.14c.94.05,1.88.13,2.81.23,1.95.17,3.85.52,5.75.82Zm3.88,4.46a12.9,12.9,0,0,1,1.48.39c.49.17,1,.39,1.49.53v-.05c-.91-.44-1.93-.7-2.87-1.07a26.82,26.82,0,0,0-3-.87,38.07,38.07,0,0,0-6.94-1.22s0,.07,0,.08c2.29.56,4.65.89,6.94,1.44,1,.2,1.93.5,2.91.74Zm-22.3-11.21a10.15,10.15,0,0,0-2.27.13,6.58,6.58,0,0,0-1.8.49s0,.06,0,.06a16,16,0,0,0,1.8-.28c.35,0,.69-.1,1-.13s.82,0,1.23-.06c.07,0,.07-.23,0-.24Zm33.93,22.9c-1.37-1.15-2.9-2.15-4.37-3.16s-2.85-1.94-4.32-2.84a45.27,45.27,0,0,0-9.22-4.51.07.07,0,0,0,0,.13,70.19,70.19,0,0,1,9.24,4.77q2.23,1.33,4.36,2.79c1.42,1,2.83,2,4.31,2.9,0,0,0-.09,0-.11ZM472.86,229.1l.61-.14a3,3,0,0,0,.58-.12s.07-.12,0-.13a5,5,0,0,0-1.21.18c-.37.08-.74.16-1.1.27a15.09,15.09,0,0,0-2.37.82s0,.09,0,.08c.74-.15,1.52-.41,2.28-.63Z" opacity="0.2" style="isolation:isolate"/><path d="M451.57,252.49a16,16,0,0,1-4.35.59c-2.5.07-6-.74-11.3-1.08,0-3.16,7-8.72,12.75-8S456.57,250.34,451.57,252.49Z" fill="#0071f2"/><g opacity="0.2"><path d="M451.57,252.49a16,16,0,0,1-4.35.59c-2.5.07-6-.74-11.3-1.08,0-3.16,7-8.72,12.75-8S456.57,250.34,451.57,252.49Z" fill="#fff"/></g><path d="M436.67,251.72A130.42,130.42,0,0,0,423.06,241c-5.82-3.7-15.53-7.43-15.61-7.43l-.74-.58a35.67,35.67,0,0,0,5.43,9.42A22.93,22.93,0,0,0,423.29,250c4.41,1.35,9.19,2.42,12.68,2.42h1.4Z" fill="#fff"/><path d="M425.1,246.66c-1.81-2.48-5.62-5-11.15-7.35-5.36-2.32-6.45-5.2-8.07-7.87-1.31-2.23-2.55-2.84-6.33-4.14s-11.21-1.7-20.4-2.71-32.29-3.81-35.19-4.46c-1.74-.39-.78-1.18,2-.84s19,1.85,28,2.66c-5.81-1-4.36-3-.9-2.79,4.85.24,9.49,1.14,12.85,1.56-2.89-1.44-2.46-2.93.43-2.76a22.88,22.88,0,0,1,6.81,1.19c-3.2-1.68-.29-3.56,2.68-2.07-.95-2.19-1.22-5.34.75-5.09-2.65-5.89-2.56-9.07-.66-8.34,0,0-3.13-9.55-3.65-11.47s.05-2.62,1.28.57c1.06,2.78,7.91,21.3,10.55,25.74s4.86,6,8,7.08,15.73,2.66,21.48,4.65c6.14,2.11,8.61,4.63,12.74,5.8,2.45.7,6.75-.09,10.18,2.92s3.33,7.55,1.85,9.21c-1.27,1.43-3.79,2.4-5.28,1.49s-.89-2.11-2.54-3.52-3.72-1.63-5.58.5-4.36,5.6-9.09,5.36S428.39,251,425.1,246.66Z" fill="#2f2e41"/><path d="M433.64,230.22c4.24,1.19,7.88,3.84,12,5.37,2.75.95,5.87.39,8.58,1.67,4,1.53,7,7.09,4.22,10.89,2.51-3.81-.45-9.07-4.36-10.57-2.7-1.22-5.78-.65-8.56-1.65C441.37,234.37,437.84,231.62,433.64,230.22Z" fill="#2f2e41"/><path d="M433.64,230.22c4.24,1.19,7.88,3.84,12,5.37,2.75.95,5.87.39,8.58,1.67,4,1.53,7,7.09,4.22,10.89,2.51-3.81-.45-9.07-4.36-10.57-2.7-1.22-5.78-.65-8.56-1.65C441.37,234.37,437.84,231.62,433.64,230.22Z" opacity="0.3" style="isolation:isolate"/><path d="M452.49,250.68a2.31,2.31,0,0,0-.92,1.81c.27.59,2.33,1.29,3.78,1.24a6.13,6.13,0,0,0,2.12-.35s0-.74-1.2-1.57A10.79,10.79,0,0,0,452.49,250.68Z" fill="#e0e0e0"/><path d="M452.49,250.68a2.31,2.31,0,0,0-.92,1.81c.27.59,2.33,1.29,3.78,1.24a6.13,6.13,0,0,0,2.12-.35s0-.74-1.2-1.57A10.79,10.79,0,0,0,452.49,250.68Z" opacity="0.1" style="isolation:isolate"/><path d="M458.17,248.4c-.74-.28-2.62.31-3.79.85s-2.15,1.24-1.84,1.49,1.82.95,3.57,1.85c1,.5,3,1.95,3.5,2s.74-.58.59-1.48S459.37,249.38,458.17,248.4Z" fill="#e0e0e0"/><path d="M450.34,249.38c0-.52.05-1.79-.93-2.37s-1.91.23-2.32.33a2.83,2.83,0,0,0,.75,1.87C448.61,249.94,449.73,249.44,450.34,249.38Z" fill="#2f2e41"/><path d="M433.42,246.48c-3.62-.49-7.6-1.32-9.41-.8S426.2,248,426.2,248a22.43,22.43,0,0,0-6.09,1c-3,1-1.63,2.88.74,2.76-4.16,1.91-5.34,4-3.88,4.11s4.79-1.09,4.79-1.09c-5.69,5.5-5.89,8.27-4.86,8.45,1.49.25,5.6-4.17,5.6-4.17-2.75,7.29-3.57,13.44-3.23,15.8s1.42,1.83,2.23-2.17c.74-3.52,2.45-8.91,2.45-8.91-1.78,10.07-1.75,14.78-1.45,17.79s1.55,2.28,1.95-.6,1.1-7.93,1.8-11a107.33,107.33,0,0,0-.7,14.67c.22,3.16.58,4.62,1.1,4.83s.81-.91,1-4.7.74-7.59.74-7.59c0,6.26.12,9.43.35,11.82s1,3.71,1.65,3.71.49-3,.61-6.65.37-6.79.37-6.79a51.14,51.14,0,0,0,1.88,13.65c1.1,3.58,2.55,4.46,2.55,2.6s-.55-7.34-.37-11.09c.78,5.79.89,7.39,2.18,11.09,1.07,3,1.84,3.47,2.39,3.72,1,.41.66-1.85,0-7.13,1.49,6.2,2.83,10.12,4.31,11.37s1.67-.17,1.18-1.83c-1-3.42-1.78-8-1.78-8,1.34,4,2.45,7.14,3.33,9s2.23,3.76,3.31,3.79.46-2.09-.44-5c2.53,5.27,3.31,7.17,5.94,9.06,2,1.48,2.08-.75.51-3.79a188.13,188.13,0,0,1-8-20.11C446.68,281.22,433.42,246.48,433.42,246.48Z" fill="#2f2e41"/><path d="M433.42,246.48c-4.25.84-8.36,4.34-6.27,5.73-1.95,4-2.23,7-.07,7-.74,6.54-.07,10.85,2.85,10,1.7,6.44,5.65,12.64,8,8.78,2.78,6.31,5.76,10.31,9.14,10.33,3,0,0-10.81,0-10.81Z" fill="#2f2e41"/><path d="M433.42,246.48c-4.25.84-8.36,4.34-6.27,5.73-1.95,4-2.23,7-.07,7-.74,6.54-.07,10.85,2.85,10,1.7,6.44,5.65,12.64,8,8.78,2.78,6.31,5.76,10.31,9.14,10.33,3,0,0-10.81,0-10.81Z" opacity="0.3" style="isolation:isolate"/><path d="M439.13,247.3c-2.09,1.34-1.18,2.73.22,3.78s3,3.19,5.15,11.07,2.9,13.15,2.89,15-4.62.29-8.47-7.39c-.68,2.11-4.93,2.35-6.62-8-2.93.56-4.2-5.29-.74-8.54-1.93-1.11-1.73-5.2,1.82-6.72Z" fill="#2f2e41"/><path d="M439.13,247.3c-2.09,1.34-1.18,2.73.22,3.78s3,3.19,5.15,11.07,2.9,13.15,2.89,15-4.62.29-8.47-7.39c-.68,2.11-4.93,2.35-6.62-8-2.93.56-4.2-5.29-.74-8.54-1.93-1.11-1.73-5.2,1.82-6.72Z" opacity="0.4" style="isolation:isolate"/><path d="M424.17,254a16.22,16.22,0,0,0-1.77.52s-.06.1,0,.09c.61-.08,1.2-.25,1.79-.38a14.41,14.41,0,0,0,1.83-.46v-.06A5.05,5.05,0,0,0,424.17,254ZM429,270.11a13.25,13.25,0,0,0-.23,1.66l-.15,1.49a31.62,31.62,0,0,0-.24,3.37h0a33.72,33.72,0,0,0,.34-3.37c.05-.52.1-1,.16-1.56s.17-1.05.19-1.57C429.16,270.06,429.07,270,429,270.11Zm-7.64-18.5v.07c.59-.15,1.18-.36,1.78-.52.95-.26,1.91-.4,2.87-.62,0,0,0-.06,0-.06A13.56,13.56,0,0,0,421.4,251.61Zm4.07,7.25a4.06,4.06,0,0,0-.39.94c-.13.37-.26.73-.38,1.1a10.15,10.15,0,0,0-.59,2.49s0,0,.05,0c.24-.74.41-1.48.66-2.27.11-.33.23-.67.35-1a5.5,5.5,0,0,0,.38-1.19s0-.12-.08-.05Zm-.23-2.16a5.63,5.63,0,0,0-1.33.89,12.9,12.9,0,0,0-1.08,1v0c.36-.31.75-.62,1.1-.91s.89-.6,1.31-.92c0,0,.06-.14,0-.11Zm17.47,31.49a10.12,10.12,0,0,0-.37-1.63h0a12.54,12.54,0,0,0,.23,1.83c.1.56.2,1.12.32,1.68.21,1.09.43,2.16.74,3.21,0,.05.05,0,.05,0-.17-1.15-.4-2.28-.62-3.42C442.94,289.3,442.83,288.77,442.71,288.19Zm-11.22-13.45q-.12,1-.15,2v.95a5.82,5.82,0,0,0,0,1.18c0,.05.05,0,.06,0a7.83,7.83,0,0,0,.07-1.08l0-1a20.84,20.84,0,0,0,.06-2.09c0-.1-.06-.07-.07,0Zm17.24,22.77c-.32-.9-.63-1.81-1-2.72-.63-1.83-1.22-3.71-1.83-5.52,0-.13-.15,0-.13.09.46,1.84,1,3.67,1.62,5.47.31.91.63,1.81,1,2.71a15.52,15.52,0,0,0,1.15,2.72c0,.05.07,0,.06-.06a18,18,0,0,0-.88-2.69Zm-9.66-13.95a14.61,14.61,0,0,0-.43-2.36c0-.06-.06,0-.06,0a13.94,13.94,0,0,0,.26,2.49c.12.87.24,1.74.35,2.61a45,45,0,0,0,.75,5.17c0,.05.05,0,.05,0a37.68,37.68,0,0,0-.58-5.3c-.11-.86-.24-1.73-.37-2.61Zm-3.59-3.12a.06.06,0,1,0-.12,0,9.65,9.65,0,0,0,0,1.7,10.34,10.34,0,0,0,.11,1.67s0,0,0,0v-1.76c0-.59,0-1.09-.07-1.61Z" opacity="0.2" style="isolation:isolate"/><path d="M391.81,224.06c-3.61-.55-7.23-1-10.85-1.48-2-.25-3.94-.58-5.95-.74-.08,0-.09.17,0,.18,1.77.39,3.58.58,5.37.82l5.38.7c3.56.46,7.1,1,10.62,1.61q2.94.54,5.85,1.15s0,0,0-.05A65.86,65.86,0,0,0,391.81,224.06Zm6.43-2.18c1.48.88,3,1.86,4.45,2.71,0,0,.06-.05,0-.07a31.13,31.13,0,0,0-4.4-3,33,33,0,0,0-4.46-2.3c-.09,0-.12.16-.05.18C395.29,220.24,396.78,221,398.24,221.88Zm1.91,2.5c-1.27-.48-2.54-.95-3.83-1.34a65.36,65.36,0,0,0-9.76-2.23s-.07.09,0,.1c3.26.93,6.59,1.59,9.84,2.57,1.26.38,2.51.74,3.72,1.2s2.5,1,3.77,1.49c.05,0,.08-.11,0-.14a31.8,31.8,0,0,0-3.74-1.63Zm5.2-2.23a50.87,50.87,0,0,1-5.26-9.17c-1.34-3-2.37-6.13-3.88-9,0-.05-.06,0-.06.07,1.12,3.16,2.37,6.3,3.72,9.35a37.49,37.49,0,0,0,5.39,8.91c.08.06.13-.06.1-.1Zm-4.79-1.49a32.89,32.89,0,0,0-4.23-3.39c-.08-.05-.11.14-.06.18,1.49,1.23,3,2.39,4.34,3.72s2.52,2.58,3.88,3.71c.06,0,.08-.09.06-.13a34.69,34.69,0,0,0-4-4.06Zm-3.63-8.23c-.05-.09-.11,0-.08.1A55.59,55.59,0,0,0,405,224c.05.06.09-.07.06-.12Q400.73,218.34,396.93,212.43Z" opacity="0.2" style="isolation:isolate"/></g></g></svg>