<?xml version="1.0" standalone="no"?>
<!DOCTYPE svg PUBLIC "-//W3C//DTD SVG 1.1//EN" "http://www.w3.org/Graphics/SVG/1.1/DTD/svg11.dtd" >
<svg xmlns="http://www.w3.org/2000/svg" xmlns:xlink="http://www.w3.org/1999/xlink" version="1.1">
<metadata>
Created by FontForge 20161116 at Fri Mar 13 14:23:26 2015
 By Jimmy Warting
Copyright \(c\) 2015 by Fontfabric LLC. All rights reserved.
</metadata>
<defs>
<font id="MullerExtraBold" horiz-adv-x="592" >
  <font-face 
    font-family="Muller ExtraBold"
    font-weight="800"
    font-stretch="normal"
    units-per-em="1000"
    panose-1="0 0 0 0 0 0 0 0 0 0"
    ascent="780"
    descent="-220"
    x-height="480"
    cap-height="700"
    bbox="-159 -290 1328 980"
    underline-thickness="50"
    underline-position="-125"
    stemh="125"
    stemv="175"
    unicode-range="U+0020-25CA"
  />
<missing-glyph horiz-adv-x="208" 
 />
    <glyph glyph-name="f_f" unicode="ff" horiz-adv-x="747" 
d="M755 576c-18 11 -46 19 -74 19c-38 0 -73 -16 -73 -61v-54h128v-140h-128v-340h-170v340h-165v-340h-170v340h-79v140h79v16c0 151 104 209 220 209c49 0 104 -8 158 -31c39 45 99 61 157 61c44 0 86 -8 117 -19v-140zM273 480h165v42v28c-18 13 -45 20 -74 20
c-56 0 -91 -26 -91 -75v-15z" />
    <glyph glyph-name="f_f_i" unicode="ffi" horiz-adv-x="991" 
d="M273 0h-170v340h-79v140h79v16c0 151 104 209 220 209c51 0 109 -9 173 -33c44 43 111 63 188 63c55 0 116 -10 178 -29v-139c-45 18 -96 28 -141 28c-63 0 -113 -23 -113 -81v-34h331v-480h-170v340h-161v-340h-170v340h-165v-340zM273 495v-15h165v35c0 13 1 26 2 38
c-25 11 -52 17 -82 17c-52 0 -85 -26 -85 -75z" />
    <glyph glyph-name="f_f_l" unicode="ffl" horiz-adv-x="1001" 
d="M644 725c66 0 114 -12 160 -31l145 22v-716h-170v567c-27 11 -57 18 -84 18c-48 0 -87 -21 -87 -74v-31h118v-140h-118v-340h-170v340h-165v-340h-170v340h-79v140h79v16c0 151 104 209 220 209c51 0 110 -9 173 -34c38 37 91 54 148 54zM438 480v35c0 13 1 26 2 38
c-25 11 -52 17 -82 17c-52 0 -85 -26 -85 -75v-15h165z" />
    <glyph glyph-name=".notdef" horiz-adv-x="208" 
 />
    <glyph glyph-name="Aacute" unicode="&#xc1;" horiz-adv-x="752" 
d="M191 0h-190l275 700h200l275 -700h-190l-40 110h-290zM358 462l-72 -202h180l-72 202c-6 17 -12 34 -18 71c-6 -37 -12 -54 -18 -71zM436 760h-160l90 150h180z" />
    <glyph glyph-name="Abreve" unicode="&#x102;" horiz-adv-x="752" 
d="M191 0h-190l275 700h200l275 -700h-190l-40 110h-290zM358 462l-72 -202h180l-72 202c-6 17 -12 34 -18 71c-6 -37 -12 -54 -18 -71zM541 785c-43 -29 -91 -46 -165 -46s-122 17 -165 46v126c54 -33 108 -42 165 -42s111 9 165 42v-126z" />
    <glyph glyph-name="Acircumflex" unicode="&#xc2;" horiz-adv-x="752" 
d="M191 0h-190l275 700h200l275 -700h-190l-40 110h-290zM358 462l-72 -202h180l-72 202c-6 17 -12 34 -18 71c-6 -37 -12 -54 -18 -71zM301 910h150l120 -160h-155l-40 53l-40 -53h-155z" />
    <glyph glyph-name="Adieresis" unicode="&#xc4;" horiz-adv-x="752" 
d="M191 0h-190l275 700h200l275 -700h-190l-40 110h-290zM358 462l-72 -202h180l-72 202c-6 17 -12 34 -18 71c-6 -37 -12 -54 -18 -71zM571 831c0 -47 -38 -85 -85 -85s-85 38 -85 85s38 85 85 85s85 -38 85 -85zM351 831c0 -47 -38 -85 -85 -85s-85 38 -85 85s38 85 85 85
s85 -38 85 -85z" />
    <glyph glyph-name="Agrave" unicode="&#xc0;" horiz-adv-x="752" 
d="M191 0h-190l275 700h200l275 -700h-190l-40 110h-290zM358 462l-72 -202h180l-72 202c-6 17 -12 34 -18 71c-6 -37 -12 -54 -18 -71zM476 760h-160l-110 150h180z" />
    <glyph glyph-name="Amacron" unicode="&#x100;" horiz-adv-x="752" 
d="M191 0h-190l275 700h200l275 -700h-190l-40 110h-290zM358 462l-72 -202h180l-72 202c-6 17 -12 34 -18 71c-6 -37 -12 -54 -18 -71zM206 888h340v-130h-340v130z" />
    <glyph glyph-name="Aogonek" unicode="&#x104;" horiz-adv-x="752" 
d="M751 0h-1c-46 -30 -62 -61 -62 -82s14 -28 31 -28c11 0 22 3 31 8v-110c-27 -16 -60 -23 -91 -23c-80 0 -122 48 -121 106c1 43 25 92 75 129h-52l-40 110h-290l-40 -110h-190l275 700h200zM358 462l-72 -202h180l-72 202c-6 17 -12 34 -18 71c-6 -37 -12 -54 -18 -71z
" />
    <glyph glyph-name="Aring" unicode="&#xc5;" horiz-adv-x="752" 
d="M191 0h-190l275 700h200l275 -700h-190l-40 110h-290zM358 462l-72 -202h180l-72 202c-6 17 -12 34 -18 71c-6 -37 -12 -54 -18 -71zM506 856c0 -81 -60 -126 -130 -126c-69 0 -130 45 -130 126c0 78 61 124 130 124c70 0 130 -46 130 -124zM341 856c0 -21 13 -37 35 -37
s35 16 35 37c0 20 -13 35 -35 35s-35 -15 -35 -35z" />
    <glyph glyph-name="Atilde" unicode="&#xc3;" horiz-adv-x="752" 
d="M191 0h-190l275 700h200l275 -700h-190l-40 110h-290zM358 462l-72 -202h180l-72 202c-6 17 -12 34 -18 71c-6 -37 -12 -54 -18 -71zM561 894c24 -88 -22 -157 -100 -157c-67 0 -107 42 -139 42c-25 0 -24 -26 -20 -36h-115c-24 88 22 157 100 157c67 0 107 -42 139 -42
c25 0 24 26 20 36h115z" />
    <glyph glyph-name="AE" unicode="&#xc6;" horiz-adv-x="1022" 
d="M676 274v-114h305v-160h-490v115h-246l-72 -115h-190l445 700h547v-160h-299v-107h269v-159h-269zM335 260h156v252z" />
    <glyph glyph-name="B" unicode="B" horiz-adv-x="684" 
d="M66 700h316c153 0 245 -56 245 -177c0 -77 -37 -128 -104 -152c75 -22 132 -76 132 -173c0 -159 -152 -198 -285 -198h-304v700zM469 218c0 55 -37 73 -93 73h-126v-146h126c56 0 93 18 93 73zM442 490c0 40 -28 65 -77 65h-114v-129l114 -1c49 0 77 25 77 65z" />
    <glyph glyph-name="C" unicode="C" horiz-adv-x="655" 
d="M32 340c0 264 190 375 379 375c71 0 142 -15 203 -44v-175c-43 36 -107 57 -171 57c-111 0 -221 -61 -221 -213c0 -136 110 -192 219 -192c72 0 138 22 178 61v-180c-61 -29 -130 -44 -204 -44c-192 0 -383 105 -383 355z" />
    <glyph glyph-name="Cacute" unicode="&#x106;" horiz-adv-x="655" 
d="M32 340c0 264 190 375 379 375c71 0 142 -15 203 -44v-175c-43 36 -107 57 -171 57c-111 0 -221 -61 -221 -213c0 -136 110 -192 219 -192c72 0 138 22 178 61v-180c-61 -29 -130 -44 -204 -44c-192 0 -383 105 -383 355zM467 760h-160l90 150h180z" />
    <glyph glyph-name="Ccaron" unicode="&#x10c;" horiz-adv-x="655" 
d="M32 340c0 264 190 375 379 375c71 0 142 -15 203 -44v-175c-43 36 -107 57 -171 57c-111 0 -221 -61 -221 -213c0 -136 110 -192 219 -192c72 0 138 22 178 61v-180c-61 -29 -130 -44 -204 -44c-192 0 -383 105 -383 355zM612 920l-130 -160h-150l-130 160h155l50 -63
l50 63h155z" />
    <glyph glyph-name="Ccedilla" unicode="&#xc7;" horiz-adv-x="655" 
d="M619 209v-180c-43 -20 -89 -34 -139 -40l-9 -32c64 -10 88 -42 88 -92c0 -74 -85 -100 -150 -100c-35 0 -70 4 -105 19v95c22 -13 51 -18 76 -18c31 0 56 8 56 28c0 23 -37 30 -86 26l18 72c-175 16 -336 124 -336 353c0 264 190 375 379 375c71 0 142 -15 203 -44v-175
c-43 36 -107 57 -171 57c-111 0 -221 -61 -221 -213c0 -136 110 -192 219 -192c72 0 138 22 178 61z" />
    <glyph glyph-name="Cdotaccent" unicode="&#x10a;" horiz-adv-x="655" 
d="M32 340c0 264 190 375 379 375c71 0 142 -15 203 -44v-175c-43 36 -107 57 -171 57c-111 0 -221 -61 -221 -213c0 -136 110 -192 219 -192c72 0 138 22 178 61v-180c-61 -29 -130 -44 -204 -44c-192 0 -383 105 -383 355zM315 837c0 62 43 90 93 90s93 -28 93 -90
c0 -63 -43 -90 -93 -90s-93 27 -93 90z" />
    <glyph glyph-name="D" unicode="D" horiz-adv-x="744" 
d="M66 700h279c250 0 366 -146 366 -350s-116 -350 -366 -350h-279v700zM521 350c0 131 -65 190 -176 190h-94v-380h94c111 0 176 59 176 190z" />
    <glyph glyph-name="Eth" unicode="&#xd0;" horiz-adv-x="760" 
d="M82 700h279c250 0 366 -146 366 -350s-116 -350 -366 -350h-279v285h-70v130h70v285zM267 160h94c111 0 176 59 176 190s-65 190 -176 190h-94v-125h125v-130h-125v-125z" />
    <glyph glyph-name="Dcaron" unicode="&#x10e;" horiz-adv-x="744" 
d="M66 700h279c250 0 366 -146 366 -350s-116 -350 -366 -350h-279v700zM521 350c0 131 -65 190 -176 190h-94v-380h94c111 0 176 59 176 190zM551 920l-130 -160h-150l-130 160h155l50 -63l50 63h155z" />
    <glyph glyph-name="Dcroat" unicode="&#x110;" horiz-adv-x="760" 
d="M82 700h279c250 0 366 -146 366 -350s-116 -350 -366 -350h-279v285h-70v130h70v285zM267 160h94c111 0 176 59 176 190s-65 190 -176 190h-94v-125h125v-130h-125v-125z" />
    <glyph glyph-name="E" unicode="E" horiz-adv-x="617" 
d="M66 700h504v-160h-319v-107h289v-159h-289v-114h325v-160h-510v700z" />
    <glyph glyph-name="Eacute" unicode="&#xc9;" horiz-adv-x="617" 
d="M66 700h504v-160h-319v-107h289v-159h-289v-114h325v-160h-510v700zM388 760h-160l90 150h180z" />
    <glyph glyph-name="Ecaron" unicode="&#x11a;" horiz-adv-x="617" 
d="M66 700h504v-160h-319v-107h289v-159h-289v-114h325v-160h-510v700zM533 920l-130 -160h-150l-130 160h155l50 -63l50 63h155z" />
    <glyph glyph-name="Ecircumflex" unicode="&#xca;" horiz-adv-x="617" 
d="M66 700h504v-160h-319v-107h289v-159h-289v-114h325v-160h-510v700zM253 910h150l120 -160h-155l-40 53l-40 -53h-155z" />
    <glyph glyph-name="Edieresis" unicode="&#xcb;" horiz-adv-x="617" 
d="M66 700h504v-160h-319v-107h289v-159h-289v-114h325v-160h-510v700zM523 831c0 -47 -38 -85 -85 -85s-85 38 -85 85s38 85 85 85s85 -38 85 -85zM303 831c0 -47 -38 -85 -85 -85s-85 38 -85 85s38 85 85 85s85 -38 85 -85z" />
    <glyph glyph-name="Edotaccent" unicode="&#x116;" horiz-adv-x="617" 
d="M66 700h504v-160h-319v-107h289v-159h-289v-114h325v-160h-510v700zM236 837c0 62 43 90 93 90s93 -28 93 -90c0 -63 -43 -90 -93 -90s-93 27 -93 90z" />
    <glyph glyph-name="Egrave" unicode="&#xc8;" horiz-adv-x="617" 
d="M66 700h504v-160h-319v-107h289v-159h-289v-114h325v-160h-510v700zM428 760h-160l-110 150h180z" />
    <glyph glyph-name="Emacron" unicode="&#x112;" horiz-adv-x="617" 
d="M66 700h504v-160h-319v-107h289v-159h-289v-114h325v-160h-510v700zM158 888h340v-130h-340v130z" />
    <glyph glyph-name="Eogonek" unicode="&#x118;" horiz-adv-x="617" 
d="M576 160v-160c-46 -30 -62 -61 -62 -82s14 -28 31 -28c11 0 22 3 31 8v-110c-27 -16 -60 -23 -91 -23c-80 0 -122 48 -121 106c1 43 25 92 75 129h-373v700h504v-160h-319v-107h289v-159h-289v-114h325z" />
    <glyph glyph-name="F" unicode="F" horiz-adv-x="604" 
d="M66 700h505v-165h-320v-121h291v-165h-291v-249h-185v700z" />
    <glyph glyph-name="G" unicode="G" horiz-adv-x="699" 
d="M32 350c0 261 191 365 386 365c75 0 151 -16 217 -44v-175c-52 36 -123 56 -193 56c-113 0 -220 -58 -220 -202c0 -173 127 -206 207 -206c20 0 36 2 48 5v236h175v-353c-72 -30 -153 -47 -232 -47c-199 0 -388 111 -388 365z" />
    <glyph glyph-name="Gbreve" unicode="&#x11e;" horiz-adv-x="699" 
d="M32 350c0 261 191 365 386 365c75 0 151 -16 217 -44v-175c-52 36 -123 56 -193 56c-113 0 -220 -58 -220 -202c0 -173 127 -206 207 -206c20 0 36 2 48 5v236h175v-353c-72 -30 -153 -47 -232 -47c-199 0 -388 111 -388 365zM559 785c-43 -29 -91 -46 -165 -46
s-122 17 -165 46v126c54 -33 108 -42 165 -42s111 9 165 42v-126z" />
    <glyph glyph-name="Gcommaaccent" unicode="&#x122;" horiz-adv-x="699" 
d="M32 350c0 261 191 365 386 365c75 0 151 -16 217 -44v-175c-52 36 -123 56 -193 56c-113 0 -220 -58 -220 -202c0 -173 127 -206 207 -206c20 0 36 2 48 5v236h175v-353c-72 -30 -153 -47 -232 -47c-199 0 -388 111 -388 365zM439 -290h-135l35 220h155z" />
    <glyph glyph-name="Gdotaccent" unicode="&#x120;" horiz-adv-x="699" 
d="M32 350c0 261 191 365 386 365c75 0 151 -16 217 -44v-175c-52 36 -123 56 -193 56c-113 0 -220 -58 -220 -202c0 -173 127 -206 207 -206c20 0 36 2 48 5v236h175v-353c-72 -30 -153 -47 -232 -47c-199 0 -388 111 -388 365zM302 837c0 62 43 90 93 90s93 -28 93 -90
c0 -63 -43 -90 -93 -90s-93 27 -93 90z" />
    <glyph glyph-name="H" unicode="H" horiz-adv-x="762" 
d="M511 700h185v-700h-185v267h-260v-267h-185v700h185v-268h260v268z" />
    <glyph glyph-name="Hbar" unicode="&#x126;" horiz-adv-x="780" 
d="M260 0h-185v495h-65v110h65v95h185v-95h260v95h185v-95h65v-110h-65v-495h-185v277h-260v-277zM260 495v-73h260v73h-260z" />
    <glyph glyph-name="I" unicode="I" horiz-adv-x="317" 
d="M66 700h185v-700h-185v700z" />
    <glyph glyph-name="IJ" unicode="&#x132;" horiz-adv-x="835" 
d="M66 700h185v-700h-185v700zM414 700h360v-482c0 -174 -123 -233 -261 -233c-69 0 -137 17 -181 33v170c37 -20 88 -33 134 -33c66 0 123 20 123 88v292h-175v165z" />
    <glyph glyph-name="Iacute" unicode="&#xcd;" horiz-adv-x="317" 
d="M66 700h185v-700h-185v700zM219 760h-160l90 150h180z" />
    <glyph glyph-name="Icircumflex" unicode="&#xce;" horiz-adv-x="317" 
d="M66 700h185v-700h-185v700zM84 910h150l120 -160h-155l-40 53l-40 -53h-155z" />
    <glyph glyph-name="Idieresis" unicode="&#xcf;" horiz-adv-x="317" 
d="M66 700h185v-700h-185v700zM354 831c0 -47 -38 -85 -85 -85s-85 38 -85 85s38 85 85 85s85 -38 85 -85zM134 831c0 -47 -38 -85 -85 -85s-85 38 -85 85s38 85 85 85s85 -38 85 -85z" />
    <glyph glyph-name="Idotaccent" unicode="&#x130;" horiz-adv-x="317" 
d="M66 700h185v-700h-185v700zM67 837c0 62 43 90 93 90s93 -28 93 -90c0 -63 -43 -90 -93 -90s-93 27 -93 90z" />
    <glyph glyph-name="Igrave" unicode="&#xcc;" horiz-adv-x="317" 
d="M66 700h185v-700h-185v700zM259 760h-160l-110 150h180z" />
    <glyph glyph-name="Imacron" unicode="&#x12a;" horiz-adv-x="317" 
d="M66 700h185v-700h-185v700zM-11 888h340v-130h-340v130z" />
    <glyph glyph-name="Iogonek" unicode="&#x12e;" horiz-adv-x="317" 
d="M251 700v-700c-46 -30 -62 -61 -62 -82s14 -28 31 -28c11 0 22 3 31 8v-110c-27 -16 -60 -23 -91 -23c-80 0 -122 48 -121 106c1 43 25 92 75 129h-48v700h185z" />
    <glyph glyph-name="J" unicode="J" horiz-adv-x="518" 
d="M97 700h360v-482c0 -174 -123 -233 -261 -233c-69 0 -137 17 -181 33v170c37 -20 88 -33 134 -33c66 0 123 20 123 88v292h-175v165z" />
    <glyph glyph-name="K" unicode="K" horiz-adv-x="706" 
d="M251 0h-185v700h185v-265h88l159 265h205l-220 -341l230 -359h-205l-170 270h-87v-270z" />
    <glyph glyph-name="Kcommaaccent" unicode="&#x136;" horiz-adv-x="706" 
d="M251 0h-185v700h185v-265h88l159 265h205l-220 -341l230 -359h-205l-170 270h-87v-270zM394 -280h-135l35 220h155z" />
    <glyph glyph-name="L" unicode="L" horiz-adv-x="584" 
d="M66 700h185v-535h320v-165h-505v700z" />
    <glyph glyph-name="Lacute" unicode="&#x139;" horiz-adv-x="584" 
d="M66 700h185v-535h320v-165h-505v700zM214 760h-160l90 150h180z" />
    <glyph glyph-name="Lcaron" unicode="&#x13d;" horiz-adv-x="585" 
d="M379 700h140l-35 -211h-120zM66 700h185v-535h320v-165h-505v700z" />
    <glyph glyph-name="Lcommaaccent" unicode="&#x13b;" horiz-adv-x="584" 
d="M66 700h185v-535h320v-165h-505v700zM346 -280h-135l35 220h155z" />
    <glyph glyph-name="Ldot" unicode="&#x13f;" horiz-adv-x="593" 
d="M505 408c0 -63 -43 -90 -93 -90c-49 0 -93 27 -93 90c0 62 44 90 93 90c50 0 93 -28 93 -90zM66 700h185v-535h320v-165h-505v700z" />
    <glyph glyph-name="Lslash" unicode="&#x141;" horiz-adv-x="620" 
d="M607 0h-505v235l-80 -30v150l80 30v315h185v-247l155 57v-150l-155 -57v-138h320v-165z" />
    <glyph glyph-name="M" unicode="M" horiz-adv-x="908" 
d="M667 700h175v-700h-185v372l-150 -230h-106l-150 231v-373h-185v700h175l213 -328z" />
    <glyph glyph-name="N" unicode="N" horiz-adv-x="762" 
d="M251 0h-185v700h175l274 -402c-3 33 -4 77 -4 116v286h185v-700h-175l-274 401c3 -33 4 -77 4 -115v-286z" />
    <glyph glyph-name="Nacute" unicode="&#x143;" horiz-adv-x="762" 
d="M251 0h-185v700h175l274 -402c-3 33 -4 77 -4 116v286h185v-700h-175l-274 401c3 -33 4 -77 4 -115v-286zM441 760h-160l90 150h180z" />
    <glyph glyph-name="Ncaron" unicode="&#x147;" horiz-adv-x="762" 
d="M251 0h-185v700h175l274 -402c-3 33 -4 77 -4 116v286h185v-700h-175l-274 401c3 -33 4 -77 4 -115v-286zM586 920l-130 -160h-150l-130 160h155l50 -63l50 63h155z" />
    <glyph glyph-name="Ncommaaccent" unicode="&#x145;" horiz-adv-x="762" 
d="M251 0h-185v700h175l274 -402c-3 33 -4 77 -4 116v286h185v-700h-175l-274 401c3 -33 4 -77 4 -115v-286zM426 -280h-135l35 220h155z" />
    <glyph glyph-name="Eng" unicode="&#x14a;" horiz-adv-x="762" 
d="M696 -25c0 -133 -73 -206 -187 -206c-24 0 -50 4 -78 11v150c7 -2 15 -3 23 -3c43 0 57 29 57 63v25l-264 386c3 -33 4 -77 4 -115v-286h-185v700h175l274 -402c-3 33 -4 77 -4 116v286h185v-725z" />
    <glyph glyph-name="Ntilde" unicode="&#xd1;" horiz-adv-x="762" 
d="M251 0h-185v700h175l274 -402c-3 33 -4 77 -4 116v286h185v-700h-175l-274 401c3 -33 4 -77 4 -115v-286zM566 894c24 -88 -22 -157 -100 -157c-67 0 -107 42 -139 42c-25 0 -24 -26 -20 -36h-115c-24 88 22 157 100 157c67 0 107 -42 139 -42c25 0 24 26 20 36h115z" />
    <glyph glyph-name="O" unicode="O" horiz-adv-x="812" 
d="M31 350c0 195 125 365 375 365s375 -170 375 -365s-125 -365 -375 -365s-375 170 -375 365zM591 350c0 112 -64 195 -185 195s-185 -83 -185 -195s64 -195 185 -195s185 83 185 195z" />
    <glyph glyph-name="Oacute" unicode="&#xd3;" horiz-adv-x="812" 
d="M31 350c0 195 125 365 375 365s375 -170 375 -365s-125 -365 -375 -365s-375 170 -375 365zM591 350c0 112 -64 195 -185 195s-185 -83 -185 -195s64 -195 185 -195s185 83 185 195zM466 760h-160l90 150h180z" />
    <glyph glyph-name="Ocircumflex" unicode="&#xd4;" horiz-adv-x="812" 
d="M31 350c0 195 125 365 375 365s375 -170 375 -365s-125 -365 -375 -365s-375 170 -375 365zM591 350c0 112 -64 195 -185 195s-185 -83 -185 -195s64 -195 185 -195s185 83 185 195zM331 910h150l120 -160h-155l-40 53l-40 -53h-155z" />
    <glyph glyph-name="Odieresis" unicode="&#xd6;" horiz-adv-x="812" 
d="M31 350c0 195 125 365 375 365s375 -170 375 -365s-125 -365 -375 -365s-375 170 -375 365zM591 350c0 112 -64 195 -185 195s-185 -83 -185 -195s64 -195 185 -195s185 83 185 195zM601 831c0 -47 -38 -85 -85 -85s-85 38 -85 85s38 85 85 85s85 -38 85 -85zM381 831
c0 -47 -38 -85 -85 -85s-85 38 -85 85s38 85 85 85s85 -38 85 -85z" />
    <glyph glyph-name="Ograve" unicode="&#xd2;" horiz-adv-x="812" 
d="M31 350c0 195 125 365 375 365s375 -170 375 -365s-125 -365 -375 -365s-375 170 -375 365zM591 350c0 112 -64 195 -185 195s-185 -83 -185 -195s64 -195 185 -195s185 83 185 195zM506 760h-160l-110 150h180z" />
    <glyph glyph-name="Ohungarumlaut" unicode="&#x150;" horiz-adv-x="812" 
d="M31 350c0 195 125 365 375 365s375 -170 375 -365s-125 -365 -375 -365s-375 170 -375 365zM591 350c0 112 -64 195 -185 195s-185 -83 -185 -195s64 -195 185 -195s185 83 185 195zM566 770h-150l74 157h160zM371 770h-150l74 157h160z" />
    <glyph glyph-name="Omacron" unicode="&#x14c;" horiz-adv-x="812" 
d="M31 350c0 195 125 365 375 365s375 -170 375 -365s-125 -365 -375 -365s-375 170 -375 365zM591 350c0 112 -64 195 -185 195s-185 -83 -185 -195s64 -195 185 -195s185 83 185 195zM236 888h340v-130h-340v130z" />
    <glyph glyph-name="Oslash" unicode="&#xd8;" horiz-adv-x="812" 
d="M739 748l-82 -114c83 -68 124 -172 124 -284c0 -195 -125 -365 -375 -365c-72 0 -133 14 -185 39l-51 -72h-110l87 121c-77 68 -116 169 -116 277c0 195 125 365 375 365c67 0 126 -12 175 -34l48 67h110zM406 545c-121 0 -185 -83 -185 -195c0 -48 12 -91 35 -124
l220 308c-21 7 -44 11 -70 11zM326 170c23 -10 50 -15 80 -15c121 0 185 83 185 195c0 53 -14 99 -42 133z" />
    <glyph glyph-name="Otilde" unicode="&#xd5;" horiz-adv-x="812" 
d="M31 350c0 195 125 365 375 365s375 -170 375 -365s-125 -365 -375 -365s-375 170 -375 365zM591 350c0 112 -64 195 -185 195s-185 -83 -185 -195s64 -195 185 -195s185 83 185 195zM591 894c24 -88 -22 -157 -100 -157c-67 0 -107 42 -139 42c-25 0 -24 -26 -20 -36
h-115c-24 88 22 157 100 157c67 0 107 -42 139 -42c25 0 24 26 20 36h115z" />
    <glyph glyph-name="OE" unicode="&#x152;" horiz-adv-x="1053" 
d="M527 0c-36 -10 -77 -15 -121 -15c-250 0 -375 170 -375 365s125 365 375 365c44 0 85 -5 121 -15h479v-160h-299v-107h269v-159h-269v-114h305v-160h-485zM221 350c0 -127 88 -200 196 -200c35 0 73 8 110 23v354c-37 15 -75 23 -110 23c-108 0 -196 -73 -196 -200z" />
    <glyph glyph-name="P" unicode="P" horiz-adv-x="668" 
d="M66 700h277c173 0 305 -56 305 -240s-132 -239 -305 -240h-92v-220h-185v700zM458 460c0 63 -50 80 -106 80h-101v-160h101c56 0 106 17 106 80z" />
    <glyph glyph-name="Thorn" unicode="&#xde;" horiz-adv-x="668" 
d="M251 590h92c173 0 305 -56 305 -240s-132 -239 -305 -240h-92v-110h-185v700h185v-110zM251 270h101c56 0 106 17 106 80s-50 80 -106 80h-101v-160z" />
    <glyph glyph-name="Q" unicode="Q" horiz-adv-x="812" 
d="M781 54l-126 -111l-76 76c-48 -22 -106 -34 -173 -34c-250 0 -375 170 -375 365s125 365 375 365s375 -170 375 -365c0 -84 -23 -163 -70 -226zM221 350c0 -112 64 -195 185 -195c12 0 24 1 35 2l-63 63l119 118l78 -78c10 27 16 57 16 90c0 112 -64 197 -185 197
s-185 -85 -185 -197z" />
    <glyph glyph-name="R" unicode="R" horiz-adv-x="711" 
d="M251 0h-185v700h295c142 0 287 -51 287 -236c0 -116 -57 -179 -134 -210l193 -254h-209l-167 228h-80v-228zM251 540v-162h118c53 0 89 27 89 81s-36 81 -89 81h-118z" />
    <glyph glyph-name="Racute" unicode="&#x154;" horiz-adv-x="711" 
d="M251 0h-185v700h295c142 0 287 -51 287 -236c0 -116 -57 -179 -134 -210l193 -254h-209l-167 228h-80v-228zM251 540v-162h118c53 0 89 27 89 81s-36 81 -89 81h-118zM401 760h-160l90 150h180z" />
    <glyph glyph-name="Rcaron" unicode="&#x158;" horiz-adv-x="711" 
d="M251 0h-185v700h295c142 0 287 -51 287 -236c0 -116 -57 -179 -134 -210l193 -254h-209l-167 228h-80v-228zM251 540v-162h118c53 0 89 27 89 81s-36 81 -89 81h-118zM546 920l-130 -160h-150l-130 160h155l50 -63l50 63h155z" />
    <glyph glyph-name="Rcommaaccent" unicode="&#x156;" horiz-adv-x="711" 
d="M251 0h-185v700h295c142 0 287 -51 287 -236c0 -116 -57 -179 -134 -210l193 -254h-209l-167 228h-80v-228zM251 540v-162h118c53 0 89 27 89 81s-36 81 -89 81h-118zM392 -280h-135l35 220h155z" />
    <glyph glyph-name="S" unicode="S" horiz-adv-x="621" 
d="M41 509c0 140 120 206 264 206c87 0 174 -21 235 -56v-170c-60 45 -139 67 -220 66c-68 -1 -89 -19 -89 -45c0 -91 364 -63 364 -311c0 -166 -127 -214 -280 -214c-101 0 -195 23 -269 64v175c83 -57 175 -79 255 -79c73 0 104 12 104 47c0 101 -364 67 -364 317z" />
    <glyph glyph-name="Sacute" unicode="&#x15a;" horiz-adv-x="621" 
d="M41 509c0 140 120 206 264 206c87 0 174 -21 235 -56v-170c-60 45 -139 67 -220 66c-68 -1 -89 -19 -89 -45c0 -91 364 -63 364 -311c0 -166 -127 -214 -280 -214c-101 0 -195 23 -269 64v175c83 -57 175 -79 255 -79c73 0 104 12 104 47c0 101 -364 67 -364 317z
M361 760h-160l90 150h180z" />
    <glyph glyph-name="Scaron" unicode="&#x160;" horiz-adv-x="621" 
d="M41 509c0 140 120 206 264 206c87 0 174 -21 235 -56v-170c-60 45 -139 67 -220 66c-68 -1 -89 -19 -89 -45c0 -91 364 -63 364 -311c0 -166 -127 -214 -280 -214c-101 0 -195 23 -269 64v175c83 -57 175 -79 255 -79c73 0 104 12 104 47c0 101 -364 67 -364 317z
M506 920l-130 -160h-150l-130 160h155l50 -63l50 63h155z" />
    <glyph glyph-name="Scedilla" unicode="&#x15e;" horiz-adv-x="621" 
d="M231 510c0 -91 364 -63 364 -311c0 -145 -96 -200 -222 -211l-9 -31c64 -10 88 -42 88 -92c0 -74 -85 -100 -150 -100c-35 0 -70 4 -105 19v95c22 -13 51 -18 76 -18c31 0 56 8 56 28c0 23 -37 30 -86 26l18 72c-80 7 -154 28 -215 62v175c83 -57 175 -79 255 -79
c73 0 104 12 104 47c0 101 -364 67 -364 317c0 140 120 206 264 206c87 0 174 -21 235 -56v-170c-60 45 -139 67 -220 66c-68 -1 -89 -19 -89 -45z" />
    <glyph glyph-name="Scommaaccent" unicode="&#x218;" horiz-adv-x="621" 
d="M41 509c0 140 120 206 264 206c87 0 174 -21 235 -56v-170c-60 45 -139 67 -220 66c-68 -1 -89 -19 -89 -45c0 -91 364 -63 364 -311c0 -166 -127 -214 -280 -214c-101 0 -195 23 -269 64v175c83 -57 175 -79 255 -79c73 0 104 12 104 47c0 101 -364 67 -364 317z
M346 -280h-135l35 220h155z" />
    <glyph glyph-name="T" unicode="T" horiz-adv-x="606" 
d="M13 700h580v-165h-197v-535h-185v535h-198v165z" />
    <glyph glyph-name="Tbar" unicode="&#x166;" horiz-adv-x="620" 
d="M403 0h-185v265h-118v120h118v150h-198v165h580v-165h-197v-150h117v-120h-117v-265z" />
    <glyph glyph-name="Tcaron" unicode="&#x164;" horiz-adv-x="606" 
d="M13 700h580v-165h-197v-535h-185v535h-198v165zM508 920l-130 -160h-150l-130 160h155l50 -63l50 63h155z" />
    <glyph glyph-name="Tcommaaccent" unicode="&#x162;" horiz-adv-x="606" 
d="M13 700h580v-165h-197v-535h-185v535h-198v165zM335 -280h-135l35 220h155z" />
    <glyph glyph-name="uni021A" unicode="&#x21a;" horiz-adv-x="606" 
d="M13 700h580v-165h-197v-535h-185v535h-198v165zM335 -280h-135l35 220h155z" />
    <glyph glyph-name="U" unicode="U" horiz-adv-x="748" 
d="M504 700h185v-433c0 -211 -160 -282 -315 -282s-315 71 -315 282v433h185v-423c0 -94 51 -127 130 -127s130 33 130 127v423z" />
    <glyph glyph-name="Uacute" unicode="&#xda;" horiz-adv-x="748" 
d="M504 700h185v-433c0 -211 -160 -282 -315 -282s-315 71 -315 282v433h185v-423c0 -94 51 -127 130 -127s130 33 130 127v423zM434 760h-160l90 150h180z" />
    <glyph glyph-name="Ucircumflex" unicode="&#xdb;" horiz-adv-x="748" 
d="M504 700h185v-433c0 -211 -160 -282 -315 -282s-315 71 -315 282v433h185v-423c0 -94 51 -127 130 -127s130 33 130 127v423zM299 910h150l120 -160h-155l-40 53l-40 -53h-155z" />
    <glyph glyph-name="Udieresis" unicode="&#xdc;" horiz-adv-x="748" 
d="M504 700h185v-433c0 -211 -160 -282 -315 -282s-315 71 -315 282v433h185v-423c0 -94 51 -127 130 -127s130 33 130 127v423zM569 831c0 -47 -38 -85 -85 -85s-85 38 -85 85s38 85 85 85s85 -38 85 -85zM349 831c0 -47 -38 -85 -85 -85s-85 38 -85 85s38 85 85 85
s85 -38 85 -85z" />
    <glyph glyph-name="Ugrave" unicode="&#xd9;" horiz-adv-x="748" 
d="M504 700h185v-433c0 -211 -160 -282 -315 -282s-315 71 -315 282v433h185v-423c0 -94 51 -127 130 -127s130 33 130 127v423zM474 760h-160l-110 150h180z" />
    <glyph glyph-name="Uhungarumlaut" unicode="&#x170;" horiz-adv-x="748" 
d="M504 700h185v-433c0 -211 -160 -282 -315 -282s-315 71 -315 282v433h185v-423c0 -94 51 -127 130 -127s130 33 130 127v423zM534 770h-150l74 157h160zM339 770h-150l74 157h160z" />
    <glyph glyph-name="Umacron" unicode="&#x16a;" horiz-adv-x="748" 
d="M504 700h185v-433c0 -211 -160 -282 -315 -282s-315 71 -315 282v433h185v-423c0 -94 51 -127 130 -127s130 33 130 127v423zM204 888h340v-130h-340v130z" />
    <glyph glyph-name="Uogonek" unicode="&#x172;" horiz-adv-x="748" 
d="M570 -212c-27 -16 -60 -23 -91 -23c-80 0 -122 48 -121 106c1 38 20 80 51 115c-11 -1 -23 -1 -35 -1c-155 0 -315 71 -315 282v433h185v-423c0 -94 51 -127 130 -127s130 33 130 127v423h185v-433c0 -99 -35 -168 -89 -212c-79 -65 -92 -117 -92 -137
c0 -21 14 -28 31 -28c11 0 22 3 31 8v-110z" />
    <glyph glyph-name="Uring" unicode="&#x16e;" horiz-adv-x="748" 
d="M504 700h185v-433c0 -211 -160 -282 -315 -282s-315 71 -315 282v433h185v-423c0 -94 51 -127 130 -127s130 33 130 127v423zM504 856c0 -81 -60 -126 -130 -126c-69 0 -130 45 -130 126c0 78 61 124 130 124c70 0 130 -46 130 -124zM339 856c0 -21 13 -37 35 -37
s35 16 35 37c0 20 -13 35 -35 35s-35 -15 -35 -35z" />
    <glyph glyph-name="V" unicode="V" horiz-adv-x="722" 
d="M456 0h-190l-263 700h200l158 -480l158 480h200z" />
    <glyph glyph-name="W" unicode="W" horiz-adv-x="1078" 
d="M872 700h200l-214 -700h-200l-119 433l-119 -433h-200l-214 700h200l119 -492l133 492h162l133 -492z" />
    <glyph glyph-name="Wacute" unicode="&#x1e82;" horiz-adv-x="1078" 
d="M872 700h200l-214 -700h-200l-119 433l-119 -433h-200l-214 700h200l119 -492l133 492h162l133 -492zM599 760h-160l90 150h180z" />
    <glyph glyph-name="Wcircumflex" unicode="&#x174;" horiz-adv-x="1078" 
d="M872 700h200l-214 -700h-200l-119 433l-119 -433h-200l-214 700h200l119 -492l133 492h162l133 -492zM464 910h150l120 -160h-155l-40 53l-40 -53h-155z" />
    <glyph glyph-name="Wdieresis" unicode="&#x1e84;" horiz-adv-x="1078" 
d="M872 700h200l-214 -700h-200l-119 433l-119 -433h-200l-214 700h200l119 -492l133 492h162l133 -492zM734 831c0 -47 -38 -85 -85 -85s-85 38 -85 85s38 85 85 85s85 -38 85 -85zM514 831c0 -47 -38 -85 -85 -85s-85 38 -85 85s38 85 85 85s85 -38 85 -85z" />
    <glyph glyph-name="Wgrave" unicode="&#x1e80;" horiz-adv-x="1078" 
d="M872 700h200l-214 -700h-200l-119 433l-119 -433h-200l-214 700h200l119 -492l133 492h162l133 -492zM639 760h-160l-110 150h180z" />
    <glyph glyph-name="X" unicode="X" horiz-adv-x="694" 
d="M205 0h-216l240 364l-225 336h216l127 -206l127 206h216l-225 -336l240 -364h-216l-142 235z" />
    <glyph glyph-name="Y" unicode="Y" horiz-adv-x="728" 
d="M456 0h-184v239l-273 461h210l155 -289l155 289h210l-273 -461v-239z" />
    <glyph glyph-name="Yacute" unicode="&#xdd;" horiz-adv-x="728" 
d="M456 0h-184v239l-273 461h210l155 -289l155 289h210l-273 -461v-239zM422 760h-160l90 150h180z" />
    <glyph glyph-name="Ycircumflex" unicode="&#x176;" horiz-adv-x="728" 
d="M456 0h-184v239l-273 461h210l155 -289l155 289h210l-273 -461v-239zM287 910h150l120 -160h-155l-40 53l-40 -53h-155z" />
    <glyph glyph-name="Ydieresis" unicode="&#x178;" horiz-adv-x="728" 
d="M456 0h-184v239l-273 461h210l155 -289l155 289h210l-273 -461v-239zM557 831c0 -47 -38 -85 -85 -85s-85 38 -85 85s38 85 85 85s85 -38 85 -85zM337 831c0 -47 -38 -85 -85 -85s-85 38 -85 85s38 85 85 85s85 -38 85 -85z" />
    <glyph glyph-name="Ygrave" unicode="&#x1ef2;" horiz-adv-x="728" 
d="M456 0h-184v239l-273 461h210l155 -289l155 289h210l-273 -461v-239zM462 760h-160l-110 150h180z" />
    <glyph glyph-name="Z" unicode="Z" horiz-adv-x="627" 
d="M593 0h-563v125l304 410h-286v165h536v-125l-305 -410h314v-165z" />
    <glyph glyph-name="Zacute" unicode="&#x179;" horiz-adv-x="627" 
d="M593 0h-563v125l304 410h-286v165h536v-125l-305 -410h314v-165zM378 760h-160l90 150h180z" />
    <glyph glyph-name="Zcaron" unicode="&#x17d;" horiz-adv-x="627" 
d="M593 0h-563v125l304 410h-286v165h536v-125l-305 -410h314v-165zM523 920l-130 -160h-150l-130 160h155l50 -63l50 63h155z" />
    <glyph glyph-name="Zdotaccent" unicode="&#x17b;" horiz-adv-x="627" 
d="M593 0h-563v125l304 410h-286v165h536v-125l-305 -410h314v-165zM226 837c0 62 43 90 93 90s93 -28 93 -90c0 -63 -43 -90 -93 -90s-93 27 -93 90z" />
    <glyph glyph-name="a" unicode="a" horiz-adv-x="567" 
d="M505 137c0 -23 16 -30 33 -30c6 0 13 1 19 3v-105c-23 -9 -54 -15 -86 -15c-53 0 -92 19 -114 53c-46 -36 -99 -58 -167 -58c-92 0 -167 55 -167 148c0 121 115 158 208 158c36 0 72 -4 104 -11v17c0 34 -32 60 -100 60c-63 0 -121 -18 -168 -37v143c40 13 116 32 187 32
c153 0 251 -53 251 -224v-134zM198 147c0 -25 22 -47 58 -47c28 0 53 6 79 25v65c-15 5 -38 9 -61 9c-40 0 -76 -14 -76 -52z" />
    <glyph glyph-name="aacute" unicode="&#xe1;" horiz-adv-x="567" 
d="M505 137c0 -23 16 -30 33 -30c6 0 13 1 19 3v-105c-23 -9 -54 -15 -86 -15c-53 0 -92 19 -114 53c-46 -36 -99 -58 -167 -58c-92 0 -167 55 -167 148c0 121 115 158 208 158c36 0 72 -4 104 -11v17c0 34 -32 60 -100 60c-63 0 -121 -18 -168 -37v143c40 13 116 32 187 32
c153 0 251 -53 251 -224v-134zM198 147c0 -25 22 -47 58 -47c28 0 53 6 79 25v65c-15 5 -38 9 -61 9c-40 0 -76 -14 -76 -52zM322 550h-160l90 150h180z" />
    <glyph glyph-name="abreve" unicode="&#x103;" horiz-adv-x="567" 
d="M505 137c0 -23 16 -30 33 -30c6 0 13 1 19 3v-105c-23 -9 -54 -15 -86 -15c-53 0 -92 19 -114 53c-46 -36 -99 -58 -167 -58c-92 0 -167 55 -167 148c0 121 115 158 208 158c36 0 72 -4 104 -11v17c0 34 -32 60 -100 60c-63 0 -121 -18 -168 -37v143c40 13 116 32 187 32
c153 0 251 -53 251 -224v-134zM198 147c0 -25 22 -47 58 -47c28 0 53 6 79 25v65c-15 5 -38 9 -61 9c-40 0 -76 -14 -76 -52zM427 575c-43 -29 -91 -46 -165 -46s-122 17 -165 46v126c54 -33 108 -42 165 -42s111 9 165 42v-126z" />
    <glyph glyph-name="acircumflex" unicode="&#xe2;" horiz-adv-x="567" 
d="M505 137c0 -23 16 -30 33 -30c6 0 13 1 19 3v-105c-23 -9 -54 -15 -86 -15c-53 0 -92 19 -114 53c-46 -36 -99 -58 -167 -58c-92 0 -167 55 -167 148c0 121 115 158 208 158c36 0 72 -4 104 -11v17c0 34 -32 60 -100 60c-63 0 -121 -18 -168 -37v143c40 13 116 32 187 32
c153 0 251 -53 251 -224v-134zM198 147c0 -25 22 -47 58 -47c28 0 53 6 79 25v65c-15 5 -38 9 -61 9c-40 0 -76 -14 -76 -52zM187 700h150l120 -160h-155l-40 53l-40 -53h-155z" />
    <glyph glyph-name="adieresis" unicode="&#xe4;" horiz-adv-x="567" 
d="M505 137c0 -23 16 -30 33 -30c6 0 13 1 19 3v-105c-23 -9 -54 -15 -86 -15c-53 0 -92 19 -114 53c-46 -36 -99 -58 -167 -58c-92 0 -167 55 -167 148c0 121 115 158 208 158c36 0 72 -4 104 -11v17c0 34 -32 60 -100 60c-63 0 -121 -18 -168 -37v143c40 13 116 32 187 32
c153 0 251 -53 251 -224v-134zM198 147c0 -25 22 -47 58 -47c28 0 53 6 79 25v65c-15 5 -38 9 -61 9c-40 0 -76 -14 -76 -52zM457 621c0 -47 -38 -85 -85 -85s-85 38 -85 85s38 85 85 85s85 -38 85 -85zM237 621c0 -47 -38 -85 -85 -85s-85 38 -85 85s38 85 85 85
s85 -38 85 -85z" />
    <glyph glyph-name="agrave" unicode="&#xe0;" horiz-adv-x="567" 
d="M505 137c0 -23 16 -30 33 -30c6 0 13 1 19 3v-105c-23 -9 -54 -15 -86 -15c-53 0 -92 19 -114 53c-46 -36 -99 -58 -167 -58c-92 0 -167 55 -167 148c0 121 115 158 208 158c36 0 72 -4 104 -11v17c0 34 -32 60 -100 60c-63 0 -121 -18 -168 -37v143c40 13 116 32 187 32
c153 0 251 -53 251 -224v-134zM198 147c0 -25 22 -47 58 -47c28 0 53 6 79 25v65c-15 5 -38 9 -61 9c-40 0 -76 -14 -76 -52zM362 550h-160l-110 150h180z" />
    <glyph glyph-name="amacron" unicode="&#x101;" horiz-adv-x="567" 
d="M505 137c0 -23 16 -30 33 -30c6 0 13 1 19 3v-105c-23 -9 -54 -15 -86 -15c-53 0 -92 19 -114 53c-46 -36 -99 -58 -167 -58c-92 0 -167 55 -167 148c0 121 115 158 208 158c36 0 72 -4 104 -11v17c0 34 -32 60 -100 60c-63 0 -121 -18 -168 -37v143c40 13 116 32 187 32
c153 0 251 -53 251 -224v-134zM198 147c0 -25 22 -47 58 -47c28 0 53 6 79 25v65c-15 5 -38 9 -61 9c-40 0 -76 -14 -76 -52zM92 678h340v-130h-340v130z" />
    <glyph glyph-name="aogonek" unicode="&#x105;" horiz-adv-x="568" 
d="M557 110v-105c-46 -30 -62 -61 -62 -82s14 -28 31 -28c11 0 22 3 31 8v-110c-27 -16 -60 -23 -91 -23c-80 0 -122 48 -121 106c1 41 23 87 68 123c-24 9 -43 24 -56 44c-46 -36 -99 -58 -167 -58c-92 0 -167 55 -167 148c0 121 115 158 208 158c36 0 72 -4 104 -11v17
c0 34 -32 60 -100 60c-63 0 -121 -18 -168 -37v143c40 13 116 32 187 32c153 0 251 -53 251 -224v-134c0 -23 16 -30 33 -30c6 0 13 1 19 3zM256 100c28 0 53 6 79 25v65c-15 5 -38 9 -61 9c-40 0 -76 -14 -76 -52c0 -25 22 -47 58 -47z" />
    <glyph glyph-name="aring" unicode="&#xe5;" horiz-adv-x="567" 
d="M505 137c0 -23 16 -30 33 -30c6 0 13 1 19 3v-105c-23 -9 -54 -15 -86 -15c-53 0 -92 19 -114 53c-46 -36 -99 -58 -167 -58c-92 0 -167 55 -167 148c0 121 115 158 208 158c36 0 72 -4 104 -11v17c0 34 -32 60 -100 60c-63 0 -121 -18 -168 -37v143c40 13 116 32 187 32
c153 0 251 -53 251 -224v-134zM198 147c0 -25 22 -47 58 -47c28 0 53 6 79 25v65c-15 5 -38 9 -61 9c-40 0 -76 -14 -76 -52zM392 646c0 -81 -60 -126 -130 -126c-69 0 -130 45 -130 126c0 78 61 124 130 124c70 0 130 -46 130 -124zM227 646c0 -21 13 -37 35 -37
s35 16 35 37c0 20 -13 35 -35 35s-35 -15 -35 -35z" />
    <glyph glyph-name="atilde" unicode="&#xe3;" horiz-adv-x="567" 
d="M505 137c0 -23 16 -30 33 -30c6 0 13 1 19 3v-105c-23 -9 -54 -15 -86 -15c-53 0 -92 19 -114 53c-46 -36 -99 -58 -167 -58c-92 0 -167 55 -167 148c0 121 115 158 208 158c36 0 72 -4 104 -11v17c0 34 -32 60 -100 60c-63 0 -121 -18 -168 -37v143c40 13 116 32 187 32
c153 0 251 -53 251 -224v-134zM198 147c0 -25 22 -47 58 -47c28 0 53 6 79 25v65c-15 5 -38 9 -61 9c-40 0 -76 -14 -76 -52zM447 684c24 -88 -22 -157 -100 -157c-67 0 -107 42 -139 42c-25 0 -24 -26 -20 -36h-115c-24 88 22 157 100 157c67 0 107 -42 139 -42
c25 0 24 26 20 36h115z" />
    <glyph glyph-name="ae" unicode="&#xe6;" horiz-adv-x="851" 
d="M421 57c-61 -43 -132 -72 -223 -72c-96 0 -175 55 -175 148c0 126 111 159 220 159c36 0 72 -4 104 -12v15c0 34 -32 60 -110 60c-65 0 -123 -18 -170 -37v145c40 13 116 32 189 32c79 0 138 -17 175 -59c48 42 109 59 161 59c196 0 258 -165 224 -306h-314
c19 -53 84 -74 154 -74c54 0 98 8 138 23v-126c-45 -16 -102 -27 -178 -27c-84 0 -154 26 -195 72zM198 147c0 -31 26 -45 57 -45c40 0 67 7 113 40c-6 17 -9 33 -11 53c-30 4 -50 6 -70 6c-43 0 -89 -13 -89 -54zM586 370c-47 0 -86 -31 -86 -81h161c5 23 -7 81 -75 81z
" />
    <glyph glyph-name="b" unicode="b" horiz-adv-x="624" 
d="M51 700h170v-259c29 30 76 54 143 54c161 0 232 -131 232 -255s-71 -255 -232 -255c-86 0 -139 40 -163 80v-65h-150v700zM421 240c0 56 -31 115 -103 115c-47 0 -82 -29 -97 -60v-110c15 -31 50 -60 97 -60c72 0 103 59 103 115z" />
    <glyph glyph-name="c" unicode="c" horiz-adv-x="490" 
d="M27 230c0 189 140 266 277 266c52 0 104 -12 148 -33v-145c-33 19 -79 33 -122 33c-67 0 -128 -29 -128 -111c0 -76 60 -110 125 -110c50 0 97 13 130 32v-145c-48 -20 -104 -32 -165 -32c-134 0 -265 75 -265 245z" />
    <glyph glyph-name="cacute" unicode="&#x107;" horiz-adv-x="490" 
d="M27 230c0 189 140 266 277 266c52 0 104 -12 148 -33v-145c-33 19 -79 33 -122 33c-67 0 -128 -29 -128 -111c0 -76 60 -110 125 -110c50 0 97 13 130 32v-145c-48 -20 -104 -32 -165 -32c-134 0 -265 75 -265 245zM348 540h-160l90 150h180z" />
    <glyph glyph-name="ccaron" unicode="&#x10d;" horiz-adv-x="490" 
d="M27 230c0 189 140 266 277 266c52 0 104 -12 148 -33v-145c-33 19 -79 33 -122 33c-67 0 -128 -29 -128 -111c0 -76 60 -110 125 -110c50 0 97 13 130 32v-145c-48 -20 -104 -32 -165 -32c-134 0 -265 75 -265 245zM493 700l-130 -160h-150l-130 160h155l50 -63l50 63
h155z" />
    <glyph glyph-name="ccedilla" unicode="&#xe7;" horiz-adv-x="490" 
d="M457 162v-145c-30 -12 -63 -22 -98 -27l-9 -33c64 -10 88 -42 88 -92c0 -74 -85 -100 -150 -100c-35 0 -70 4 -105 19v95c22 -13 51 -18 76 -18c31 0 56 8 56 28c0 23 -37 30 -86 26l18 73c-117 15 -220 91 -220 242c0 189 140 266 277 266c52 0 104 -12 148 -33v-145
c-33 19 -79 33 -122 33c-67 0 -128 -29 -128 -111c0 -76 60 -110 125 -110c50 0 97 13 130 32z" />
    <glyph glyph-name="cdotaccent" unicode="&#x10b;" horiz-adv-x="490" 
d="M27 230c0 189 140 266 277 266c52 0 104 -12 148 -33v-145c-33 19 -79 33 -122 33c-67 0 -128 -29 -128 -111c0 -76 60 -110 125 -110c50 0 97 13 130 32v-145c-48 -20 -104 -32 -165 -32c-134 0 -265 75 -265 245zM196 617c0 62 43 90 93 90s93 -28 93 -90
c0 -63 -43 -90 -93 -90s-93 27 -93 90z" />
    <glyph glyph-name="d" unicode="d" horiz-adv-x="623" 
d="M402 700h170v-700h-150v65c-24 -40 -77 -80 -163 -80c-161 0 -232 131 -232 255s71 255 232 255c67 0 114 -24 143 -54v259zM402 295c-15 31 -50 60 -97 60c-72 0 -103 -59 -103 -115s31 -115 103 -115c47 0 82 29 97 60v110z" />
    <glyph glyph-name="eth" unicode="&#xf0;" horiz-adv-x="582" 
d="M549 280c0 -220 -116 -295 -260 -295s-260 75 -260 230c0 140 86 220 200 220c62 0 117 -22 145 -57c0 9 -1 18 -2 27c-7 52 -36 100 -83 134l-74 -74l-73 74l46 46c-27 7 -56 10 -87 10v120c65 0 129 -10 186 -31l69 69l73 -74l-45 -45c99 -71 165 -187 165 -354z
M204 215c0 -34 15 -90 85 -90s85 56 85 90s-15 90 -85 90s-85 -56 -85 -90z" />
    <glyph glyph-name="dcaron" unicode="&#x10f;" horiz-adv-x="623" 
d="M628 700h140l-35 -211h-120zM402 700h170v-700h-150v65c-24 -40 -77 -80 -163 -80c-161 0 -232 131 -232 255s71 255 232 255c67 0 114 -24 143 -54v259zM402 295c-15 31 -50 60 -97 60c-72 0 -103 -59 -103 -115s31 -115 103 -115c47 0 82 29 97 60v110z" />
    <glyph glyph-name="dcroat" unicode="&#x111;" horiz-adv-x="623" 
d="M572 638h59v-100h-59v-538h-150v65c-24 -40 -77 -80 -163 -80c-161 0 -232 131 -232 255s71 255 232 255c67 0 114 -24 143 -54v97h-121v100h121v62h170v-62zM305 125c47 0 82 29 97 60v110c-15 31 -50 60 -97 60c-72 0 -103 -59 -103 -115s31 -115 103 -115z" />
    <glyph glyph-name="e" unicode="e" horiz-adv-x="548" 
d="M27 240c0 188 147 255 252 255c206 0 268 -160 234 -306h-314c19 -53 84 -74 153 -74c54 0 98 8 138 23v-126c-45 -16 -102 -27 -178 -27c-158 0 -285 90 -285 255zM358 291c5 23 -7 81 -75 81c-47 0 -86 -31 -86 -81h161z" />
    <glyph glyph-name="eacute" unicode="&#xe9;" horiz-adv-x="548" 
d="M27 240c0 188 147 255 252 255c206 0 268 -160 234 -306h-314c19 -53 84 -74 153 -74c54 0 98 8 138 23v-126c-45 -16 -102 -27 -178 -27c-158 0 -285 90 -285 255zM358 291c5 23 -7 81 -75 81c-47 0 -86 -31 -86 -81h161zM338 540h-160l90 150h180z" />
    <glyph glyph-name="ecaron" unicode="&#x11b;" horiz-adv-x="548" 
d="M27 240c0 188 147 255 252 255c206 0 268 -160 234 -306h-314c19 -53 84 -74 153 -74c54 0 98 8 138 23v-126c-45 -16 -102 -27 -178 -27c-158 0 -285 90 -285 255zM358 291c5 23 -7 81 -75 81c-47 0 -86 -31 -86 -81h161zM483 700l-130 -160h-150l-130 160h155l50 -63
l50 63h155z" />
    <glyph glyph-name="ecircumflex" unicode="&#xea;" horiz-adv-x="548" 
d="M27 240c0 188 147 255 252 255c206 0 268 -160 234 -306h-314c19 -53 84 -74 153 -74c54 0 98 8 138 23v-126c-45 -16 -102 -27 -178 -27c-158 0 -285 90 -285 255zM358 291c5 23 -7 81 -75 81c-47 0 -86 -31 -86 -81h161zM203 690h150l120 -160h-155l-40 53l-40 -53
h-155z" />
    <glyph glyph-name="edieresis" unicode="&#xeb;" horiz-adv-x="548" 
d="M27 240c0 188 147 255 252 255c206 0 268 -160 234 -306h-314c19 -53 84 -74 153 -74c54 0 98 8 138 23v-126c-45 -16 -102 -27 -178 -27c-158 0 -285 90 -285 255zM358 291c5 23 -7 81 -75 81c-47 0 -86 -31 -86 -81h161zM473 611c0 -47 -38 -85 -85 -85s-85 38 -85 85
s38 85 85 85s85 -38 85 -85zM253 611c0 -47 -38 -85 -85 -85s-85 38 -85 85s38 85 85 85s85 -38 85 -85z" />
    <glyph glyph-name="edotaccent" unicode="&#x117;" horiz-adv-x="548" 
d="M27 240c0 188 147 255 252 255c206 0 268 -160 234 -306h-314c19 -53 84 -74 153 -74c54 0 98 8 138 23v-126c-45 -16 -102 -27 -178 -27c-158 0 -285 90 -285 255zM358 291c5 23 -7 81 -75 81c-47 0 -86 -31 -86 -81h161zM186 617c0 62 43 90 93 90s93 -28 93 -90
c0 -63 -43 -90 -93 -90s-93 27 -93 90z" />
    <glyph glyph-name="egrave" unicode="&#xe8;" horiz-adv-x="548" 
d="M27 240c0 188 147 255 252 255c206 0 268 -160 234 -306h-314c19 -53 84 -74 153 -74c54 0 98 8 138 23v-126c-45 -16 -102 -27 -178 -27c-158 0 -285 90 -285 255zM358 291c5 23 -7 81 -75 81c-47 0 -86 -31 -86 -81h161zM378 540h-160l-110 150h180z" />
    <glyph glyph-name="emacron" unicode="&#x113;" horiz-adv-x="548" 
d="M27 240c0 188 147 255 252 255c206 0 268 -160 234 -306h-314c19 -53 84 -74 153 -74c54 0 98 8 138 23v-126c-45 -16 -102 -27 -178 -27c-158 0 -285 90 -285 255zM358 291c5 23 -7 81 -75 81c-47 0 -86 -31 -86 -81h161zM108 668h340v-130h-340v130z" />
    <glyph glyph-name="eogonek" unicode="&#x119;" horiz-adv-x="548" 
d="M477 -212c-27 -16 -60 -23 -91 -23c-80 0 -122 48 -121 106c1 37 19 80 64 114h-17c-158 0 -285 90 -285 255c0 188 147 255 252 255c206 0 268 -160 234 -306h-314c19 -53 84 -74 153 -74c54 0 98 8 138 23v-126c-59 -42 -75 -73 -75 -94s14 -28 31 -28c11 0 22 3 31 8
v-110zM283 372c-47 0 -86 -31 -86 -81h161c5 23 -7 81 -75 81z" />
    <glyph glyph-name="f" unicode="f" horiz-adv-x="412" 
d="M273 0h-170v340h-79v140h79v41c0 151 104 194 200 194c44 0 86 -8 117 -19v-140c-18 11 -46 19 -74 19c-38 0 -73 -16 -73 -61v-34h128v-140h-128v-340z" />
    <glyph glyph-name="g" unicode="g" horiz-adv-x="623" 
d="M27 240c0 124 71 255 232 255c86 0 139 -40 163 -80v65h150v-460c0 -192 -139 -255 -284 -255c-77 0 -149 17 -207 45v145c52 -32 119 -50 184 -50c77 0 137 23 137 105v29c-29 -30 -76 -54 -143 -54c-161 0 -232 131 -232 255zM402 295c-15 31 -50 60 -97 60
c-72 0 -103 -59 -103 -115s31 -115 103 -115c47 0 82 29 97 60v110z" />
    <glyph glyph-name="gbreve" unicode="&#x11f;" horiz-adv-x="623" 
d="M27 240c0 124 71 255 232 255c86 0 139 -40 163 -80v65h150v-460c0 -192 -139 -255 -284 -255c-77 0 -149 17 -207 45v145c52 -32 119 -50 184 -50c77 0 137 23 137 105v29c-29 -30 -76 -54 -143 -54c-161 0 -232 131 -232 255zM402 295c-15 31 -50 60 -97 60
c-72 0 -103 -59 -103 -115s31 -115 103 -115c47 0 82 29 97 60v110zM443 565c-43 -29 -91 -46 -165 -46s-122 17 -165 46v126c54 -33 108 -42 165 -42s111 9 165 42v-126z" />
    <glyph glyph-name="gcommaaccent" unicode="&#x123;" horiz-adv-x="623" 
d="M366 536h-140l55 211h120zM27 240c0 124 71 255 232 255c86 0 139 -40 163 -80v65h150v-460c0 -192 -139 -255 -284 -255c-77 0 -149 17 -207 45v145c52 -32 119 -50 184 -50c77 0 137 23 137 105v29c-29 -30 -76 -54 -143 -54c-161 0 -232 131 -232 255zM402 295
c-15 31 -50 60 -97 60c-72 0 -103 -59 -103 -115s31 -115 103 -115c47 0 82 29 97 60v110z" />
    <glyph glyph-name="gdotaccent" unicode="&#x121;" horiz-adv-x="623" 
d="M27 240c0 124 71 255 232 255c86 0 139 -40 163 -80v65h150v-460c0 -192 -139 -255 -284 -255c-77 0 -149 17 -207 45v145c52 -32 119 -50 184 -50c77 0 137 23 137 105v29c-29 -30 -76 -54 -143 -54c-161 0 -232 131 -232 255zM402 295c-15 31 -50 60 -97 60
c-72 0 -103 -59 -103 -115s31 -115 103 -115c47 0 82 29 97 60v110zM186 617c0 62 43 90 93 90s93 -28 93 -90c0 -63 -43 -90 -93 -90s-93 27 -93 90z" />
    <glyph glyph-name="h" unicode="h" 
d="M51 700h170v-256c36 32 79 51 133 51c132 0 192 -89 192 -197v-298h-170v275c0 51 -31 75 -73 75c-38 0 -67 -23 -82 -42v-308h-170v700z" />
    <glyph glyph-name="hbar" unicode="&#x127;" 
d="M221 444c36 32 79 51 133 51c132 0 192 -89 192 -197v-298h-170v275c0 51 -31 75 -73 75c-38 0 -67 -23 -82 -42v-308h-170v538h-49v100h49v62h170v-62h121v-100h-121v-94z" />
    <glyph glyph-name="i" unicode="i" horiz-adv-x="274" 
d="M222 0h-170v480h170v-480zM234 642c0 -66 -45 -94 -97 -94c-51 0 -97 28 -97 94c0 65 46 93 97 93c52 0 97 -28 97 -93z" />
    <glyph glyph-name="dotlessi" unicode="&#x131;" horiz-adv-x="274" 
d="M52 480h170v-480h-170v480z" />
    <glyph glyph-name="iacute" unicode="&#xed;" horiz-adv-x="274" 
d="M52 480h170v-480h-170v480zM197 540h-160l90 150h180z" />
    <glyph glyph-name="icircumflex" unicode="&#xee;" horiz-adv-x="274" 
d="M62 690h150l100 -160h-145l-30 53l-30 -53h-145zM52 480h170v-480h-170v480z" />
    <glyph glyph-name="idieresis" unicode="&#xef;" horiz-adv-x="274" 
d="M317 611c0 -44 -36 -80 -80 -80s-80 36 -80 80s36 80 80 80s80 -36 80 -80zM117 611c0 -44 -36 -80 -80 -80s-80 36 -80 80s36 80 80 80s80 -36 80 -80zM52 480h170v-480h-170v480z" />
    <glyph glyph-name="i.loclTRK" horiz-adv-x="274" 
d="M52 480h170v-480h-170v480zM45 617c0 62 43 90 93 90s93 -28 93 -90c0 -63 -43 -90 -93 -90s-93 27 -93 90z" />
    <glyph glyph-name="igrave" unicode="&#xec;" horiz-adv-x="274" 
d="M222 0h-170v480h170v-480zM227 540h-160l-80 150h180z" />
    <glyph glyph-name="ij" unicode="&#x133;" horiz-adv-x="548" 
d="M222 0h-170v480h170v-480zM234 642c0 -66 -45 -94 -97 -94c-51 0 -97 28 -97 94c0 65 46 93 97 93c52 0 97 -28 97 -93zM496 -57c0 -131 -86 -178 -185 -178c-37 0 -69 5 -92 15v142c15 -5 32 -8 49 -8c32 0 58 19 58 61v505h170v-537zM508 642c0 -66 -45 -94 -97 -94
c-51 0 -97 28 -97 94c0 65 46 93 97 93c52 0 97 -28 97 -93z" />
    <glyph glyph-name="imacron" unicode="&#x12b;" horiz-adv-x="274" 
d="M7 668h260v-110h-260v110zM52 480h170v-480h-170v480z" />
    <glyph glyph-name="iogonek" unicode="&#x12f;" horiz-adv-x="274" 
d="M234 642c0 -66 -45 -94 -97 -94c-51 0 -97 28 -97 94c0 65 46 93 97 93c52 0 97 -28 97 -93zM85 0h-33v480h170v-480c-46 -30 -62 -61 -62 -82s14 -28 31 -28c11 0 22 3 31 8v-110c-27 -16 -60 -23 -91 -23c-80 0 -121 48 -121 106c0 43 25 92 75 129z" />
    <glyph glyph-name="j" unicode="j" horiz-adv-x="274" 
d="M222 -57c0 -131 -86 -178 -185 -178c-37 0 -69 5 -92 15v142c15 -5 32 -8 49 -8c32 0 58 19 58 61v505h170v-537zM234 642c0 -66 -45 -94 -97 -94c-51 0 -97 28 -97 94c0 65 46 93 97 93c52 0 97 -28 97 -93z" />
    <glyph glyph-name="k" unicode="k" horiz-adv-x="561" 
d="M564 0h-189l-118 182h-36v-182h-170v700h170v-388h38l105 168h190l-156 -236z" />
    <glyph glyph-name="kcommaaccent" unicode="&#x137;" horiz-adv-x="561" 
d="M564 0h-189l-118 182h-36v-182h-170v700h170v-388h38l105 168h190l-156 -236zM324 -280h-135l35 220h155z" />
    <glyph glyph-name="l" unicode="l" horiz-adv-x="274" 
d="M52 730h170v-730h-170v730z" />
    <glyph glyph-name="lacute" unicode="&#x13a;" horiz-adv-x="274" 
d="M52 730h170v-730h-170v730zM199 780h-160l90 150h180z" />
    <glyph glyph-name="lcaron" unicode="&#x13e;" horiz-adv-x="274" 
d="M278 730h140l-35 -211h-120zM52 730h170v-730h-170v730z" />
    <glyph glyph-name="lcommaaccent" unicode="&#x13c;" horiz-adv-x="274" 
d="M52 730h170v-730h-170v730zM167 -280h-135l35 220h155z" />
    <glyph glyph-name="ldot" unicode="&#x140;" horiz-adv-x="454" 
d="M52 730h170v-730h-170v730zM466 350c0 -69 -47 -99 -102 -99c-54 0 -102 30 -102 99c0 68 48 98 102 98c55 0 102 -30 102 -98z" />
    <glyph glyph-name="lslash" unicode="&#x142;" horiz-adv-x="378" 
d="M102 730h170v-279l75 29v-130l-75 -29v-321h-170v254l-75 -29v130l75 29v346z" />
    <glyph glyph-name="m" unicode="m" horiz-adv-x="867" 
d="M221 0h-170v480h150v-51c25 30 79 66 148 66c72 0 116 -29 142 -66c39 36 90 66 153 66c144 0 177 -116 177 -187v-308h-170v293c0 38 -25 57 -55 57c-23 0 -49 -10 -70 -31v-11v-308h-170v293c0 38 -25 57 -55 57c-27 0 -58 -14 -80 -42v-308z" />
    <glyph glyph-name="n" unicode="n" 
d="M201 425c40 43 89 70 153 70c132 0 192 -89 192 -197v-298h-170v275c0 51 -31 75 -73 75c-38 0 -67 -23 -82 -42v-308h-170v480h150v-55z" />
    <glyph glyph-name="nacute" unicode="&#x144;" 
d="M201 425c40 43 89 70 153 70c132 0 192 -89 192 -197v-298h-170v275c0 51 -31 75 -73 75c-38 0 -67 -23 -82 -42v-308h-170v480h150v-55zM346 540h-160l90 150h180z" />
    <glyph glyph-name="ncaron" unicode="&#x148;" 
d="M201 425c40 43 89 70 153 70c132 0 192 -89 192 -197v-298h-170v275c0 51 -31 75 -73 75c-38 0 -67 -23 -82 -42v-308h-170v480h150v-55zM491 700l-130 -160h-150l-130 160h155l50 -63l50 63h155z" />
    <glyph glyph-name="ncommaaccent" unicode="&#x146;" 
d="M201 425c40 43 89 70 153 70c132 0 192 -89 192 -197v-298h-170v275c0 51 -31 75 -73 75c-38 0 -67 -23 -82 -42v-308h-170v480h150v-55zM329 -280h-135l35 220h155z" />
    <glyph glyph-name="eng" unicode="&#x14b;" 
d="M546 -67c0 -131 -95 -168 -174 -168c-33 0 -63 6 -83 15v130c10 -3 20 -4 32 -4c29 0 55 12 55 59v310c0 51 -31 75 -73 75c-38 0 -67 -23 -82 -42v-308h-170v480h150v-55c40 43 89 70 153 70c132 0 192 -89 192 -197v-365z" />
    <glyph glyph-name="ntilde" unicode="&#xf1;" 
d="M201 425c40 43 89 70 153 70c132 0 192 -89 192 -197v-298h-170v275c0 51 -31 75 -73 75c-38 0 -67 -23 -82 -42v-308h-170v480h150v-55zM471 674c24 -88 -22 -157 -100 -157c-67 0 -107 42 -139 42c-25 0 -24 -26 -20 -36h-115c-24 88 22 157 100 157
c67 0 107 -42 139 -42c25 0 24 26 20 36h115z" />
    <glyph glyph-name="o" unicode="o" horiz-adv-x="594" 
d="M27 240c0 170 126 255 270 255s270 -85 270 -255s-126 -255 -270 -255s-270 85 -270 255zM392 240c0 54 -25 105 -95 105s-95 -51 -95 -105s25 -105 95 -105s95 51 95 105z" />
    <glyph glyph-name="oacute" unicode="&#xf3;" horiz-adv-x="594" 
d="M27 240c0 170 126 255 270 255s270 -85 270 -255s-126 -255 -270 -255s-270 85 -270 255zM392 240c0 54 -25 105 -95 105s-95 -51 -95 -105s25 -105 95 -105s95 51 95 105zM358 530h-160l90 150h180z" />
    <glyph glyph-name="ocircumflex" unicode="&#xf4;" horiz-adv-x="594" 
d="M27 240c0 170 126 255 270 255s270 -85 270 -255s-126 -255 -270 -255s-270 85 -270 255zM392 240c0 54 -25 105 -95 105s-95 -51 -95 -105s25 -105 95 -105s95 51 95 105zM223 680h150l120 -160h-155l-40 53l-40 -53h-155z" />
    <glyph glyph-name="odieresis" unicode="&#xf6;" horiz-adv-x="594" 
d="M27 240c0 170 126 255 270 255s270 -85 270 -255s-126 -255 -270 -255s-270 85 -270 255zM392 240c0 54 -25 105 -95 105s-95 -51 -95 -105s25 -105 95 -105s95 51 95 105zM493 601c0 -47 -38 -85 -85 -85s-85 38 -85 85s38 85 85 85s85 -38 85 -85zM273 601
c0 -47 -38 -85 -85 -85s-85 38 -85 85s38 85 85 85s85 -38 85 -85z" />
    <glyph glyph-name="ograve" unicode="&#xf2;" horiz-adv-x="594" 
d="M27 240c0 170 126 255 270 255s270 -85 270 -255s-126 -255 -270 -255s-270 85 -270 255zM392 240c0 54 -25 105 -95 105s-95 -51 -95 -105s25 -105 95 -105s95 51 95 105zM398 530h-160l-110 150h180z" />
    <glyph glyph-name="ohungarumlaut" unicode="&#x151;" horiz-adv-x="594" 
d="M27 240c0 170 126 255 270 255s270 -85 270 -255s-126 -255 -270 -255s-270 85 -270 255zM392 240c0 54 -25 105 -95 105s-95 -51 -95 -105s25 -105 95 -105s95 51 95 105zM458 540h-150l74 157h160zM263 540h-150l74 157h160z" />
    <glyph glyph-name="omacron" unicode="&#x14d;" horiz-adv-x="594" 
d="M27 240c0 170 126 255 270 255s270 -85 270 -255s-126 -255 -270 -255s-270 85 -270 255zM392 240c0 54 -25 105 -95 105s-95 -51 -95 -105s25 -105 95 -105s95 51 95 105zM128 658h340v-130h-340v130z" />
    <glyph glyph-name="oslash" unicode="&#xf8;" horiz-adv-x="594" 
d="M513 543l-56 -90c66 -41 110 -112 110 -213c0 -170 -126 -255 -270 -255c-42 0 -83 7 -119 22l-44 -70h-55l57 91c-65 41 -109 112 -109 212c0 170 126 255 270 255c42 0 82 -7 118 -21l43 69h55zM297 345c-70 0 -95 -51 -95 -105c0 -27 6 -53 21 -73l108 173
c-10 3 -21 5 -34 5zM261 140c11 -3 22 -5 36 -5c70 0 95 51 95 105c0 28 -7 54 -22 74z" />
    <glyph glyph-name="otilde" unicode="&#xf5;" horiz-adv-x="594" 
d="M27 240c0 170 126 255 270 255s270 -85 270 -255s-126 -255 -270 -255s-270 85 -270 255zM392 240c0 54 -25 105 -95 105s-95 -51 -95 -105s25 -105 95 -105s95 51 95 105zM483 664c24 -88 -22 -157 -100 -157c-67 0 -107 42 -139 42c-25 0 -24 -26 -20 -36h-115
c-24 88 22 157 100 157c67 0 107 -42 139 -42c25 0 24 26 20 36h115z" />
    <glyph glyph-name="oe" unicode="&#x153;" horiz-adv-x="913" 
d="M472 73c-41 -60 -108 -88 -194 -88c-130 0 -251 85 -251 255s121 255 250 255c86 0 155 -30 194 -87c50 66 122 87 183 87c196 0 258 -165 224 -306h-314c19 -53 84 -74 154 -74c54 0 98 8 138 23v-126c-45 -16 -102 -27 -178 -27c-86 0 -159 26 -206 88zM202 240
c0 -54 25 -105 95 -105s95 51 95 105s-25 105 -95 105s-95 -51 -95 -105zM648 370c-47 0 -86 -31 -86 -81h161c5 23 -7 81 -75 81z" />
    <glyph glyph-name="p" unicode="p" horiz-adv-x="624" 
d="M201 415c24 40 77 80 163 80c161 0 232 -131 232 -255s-71 -255 -232 -255c-67 0 -114 24 -143 54v-259h-170v700h150v-65zM421 240c0 56 -31 115 -103 115c-47 0 -82 -29 -97 -60v-110c15 -31 50 -60 97 -60c72 0 103 59 103 115z" />
    <glyph glyph-name="thorn" unicode="&#xfe;" horiz-adv-x="623" 
d="M51 700h170v-270c35 38 85 65 148 65c161 0 227 -136 227 -255c0 -129 -76 -255 -227 -255c-66 0 -118 29 -148 60v-265h-170v920zM421 240c0 56 -30 115 -102 115c-47 0 -83 -29 -98 -65v-100c20 -33 56 -59 98 -60c67 -2 102 54 102 110z" />
    <glyph glyph-name="q" unicode="q" horiz-adv-x="623" 
d="M27 240c0 124 71 255 232 255c86 0 139 -40 163 -80v65h150v-700h-170v259c-29 -30 -76 -54 -143 -54c-161 0 -232 131 -232 255zM402 295c-15 31 -50 60 -97 60c-72 0 -103 -59 -103 -115s31 -115 103 -115c47 0 82 29 97 60v110z" />
    <glyph glyph-name="r" unicode="r" horiz-adv-x="404" 
d="M201 415c33 48 94 85 188 75v-165c-67 15 -138 -6 -168 -52v-273h-170v480h150v-65z" />
    <glyph glyph-name="racute" unicode="&#x155;" horiz-adv-x="404" 
d="M201 415c33 48 94 85 188 75v-165c-67 15 -138 -6 -168 -52v-273h-170v480h150v-65zM276 540h-160l90 150h180z" />
    <glyph glyph-name="rcaron" unicode="&#x159;" horiz-adv-x="404" 
d="M201 415c33 48 94 85 188 75v-165c-67 15 -138 -6 -168 -52v-273h-170v480h150v-65zM421 700l-130 -160h-150l-130 160h155l50 -63l50 63h155z" />
    <glyph glyph-name="rcommaaccent" unicode="&#x157;" horiz-adv-x="404" 
d="M201 415c33 48 94 85 188 75v-165c-67 15 -138 -6 -168 -52v-273h-170v480h150v-65zM164 -280h-135l35 220h155z" />
    <glyph glyph-name="s" unicode="s" horiz-adv-x="486" 
d="M34 342c0 117 102 153 209 153c70 0 130 -17 181 -41v-135c-42 29 -113 51 -169 51c-21 0 -46 -4 -46 -24c0 -67 252 -28 252 -206c0 -120 -108 -155 -229 -155c-75 0 -142 15 -193 44v135c53 -35 127 -51 184 -51c42 0 63 7 63 24c0 63 -252 32 -252 205z" />
    <glyph glyph-name="sacute" unicode="&#x15b;" horiz-adv-x="486" 
d="M34 342c0 117 102 153 209 153c70 0 130 -17 181 -41v-135c-42 29 -113 51 -169 51c-21 0 -46 -4 -46 -24c0 -67 252 -28 252 -206c0 -120 -108 -155 -229 -155c-75 0 -142 15 -193 44v135c53 -35 127 -51 184 -51c42 0 63 7 63 24c0 63 -252 32 -252 205zM303 540h-160
l90 150h180z" />
    <glyph glyph-name="scaron" unicode="&#x161;" horiz-adv-x="486" 
d="M34 342c0 117 102 153 209 153c70 0 130 -17 181 -41v-135c-42 29 -113 51 -169 51c-21 0 -46 -4 -46 -24c0 -67 252 -28 252 -206c0 -120 -108 -155 -229 -155c-75 0 -142 15 -193 44v135c53 -35 127 -51 184 -51c42 0 63 7 63 24c0 63 -252 32 -252 205zM448 700
l-130 -160h-150l-130 160h155l50 -63l50 63h155z" />
    <glyph glyph-name="scedilla" unicode="&#x15f;" horiz-adv-x="486" 
d="M209 346c0 -67 252 -28 252 -206c0 -92 -63 -134 -146 -148l-10 -35c64 -10 88 -42 88 -92c0 -74 -85 -100 -150 -100c-35 0 -70 4 -105 19v95c22 -13 51 -18 76 -18c31 0 56 8 56 28c0 23 -37 30 -86 26l18 71c-63 3 -119 18 -163 43v135c53 -35 127 -51 184 -51
c42 0 63 7 63 24c0 63 -252 32 -252 205c0 117 102 153 209 153c70 0 130 -17 181 -41v-135c-42 29 -113 51 -169 51c-21 0 -46 -4 -46 -24z" />
    <glyph glyph-name="scommaaccent" unicode="&#x219;" horiz-adv-x="486" 
d="M34 342c0 117 102 153 209 153c70 0 130 -17 181 -41v-135c-42 29 -113 51 -169 51c-21 0 -46 -4 -46 -24c0 -67 252 -28 252 -206c0 -120 -108 -155 -229 -155c-75 0 -142 15 -193 44v135c53 -35 127 -51 184 -51c42 0 63 7 63 24c0 63 -252 32 -252 205zM282 -280h-135
l35 220h155z" />
    <glyph glyph-name="germandbls" unicode="&#xdf;" horiz-adv-x="588" 
d="M573 141c0 -109 -100 -156 -198 -156c-41 0 -81 9 -114 24v130c29 -16 57 -23 80 -23c34 0 57 15 57 40c0 51 -136 114 -136 201c0 76 72 95 72 171c0 44 -28 57 -56 57c-35 0 -57 -22 -57 -56v-529h-170v486c0 147 80 228 227 229c157 1 216 -90 216 -156
c0 -85 -82 -132 -82 -178c0 -63 161 -116 161 -240z" />
    <glyph glyph-name="t" unicode="t" horiz-adv-x="422" 
d="M89 615l170 40v-175h130v-140h-130v-156c0 -38 20 -59 63 -59c28 0 51 3 77 12v-132c-38 -13 -81 -20 -130 -20c-93 0 -180 38 -180 165v190h-76v140h76v135z" />
    <glyph glyph-name="tbar" unicode="&#x167;" horiz-adv-x="423" 
d="M260 182c0 -38 20 -59 63 -59c28 0 51 3 77 12v-130c-39 -11 -85 -20 -130 -20c-93 0 -180 38 -180 165v52h-56v90h56v58h-76v130h76v135l170 40v-175h130v-130h-130v-58h104v-90h-104v-20z" />
    <glyph glyph-name="tcaron" unicode="&#x165;" horiz-adv-x="422" 
d="M335 750h140l-35 -211h-120zM89 615l170 40v-175h130v-140h-130v-156c0 -38 20 -59 63 -59c28 0 51 3 77 12v-132c-38 -13 -81 -20 -130 -20c-93 0 -180 38 -180 165v190h-76v140h76v135z" />
    <glyph glyph-name="tcommaaccent" unicode="&#x163;" horiz-adv-x="422" 
d="M89 615l170 40v-175h130v-140h-130v-156c0 -38 20 -59 63 -59c28 0 51 3 77 12v-132c-38 -13 -81 -20 -130 -20c-93 0 -180 38 -180 165v190h-76v140h76v135zM281 -280h-135l35 220h155z" />
    <glyph glyph-name="uni021B" unicode="&#x21b;" horiz-adv-x="422" 
d="M89 615l170 40v-175h130v-140h-130v-156c0 -38 20 -59 63 -59c28 0 51 3 77 12v-132c-38 -13 -81 -20 -130 -20c-93 0 -180 38 -180 165v190h-76v140h76v135zM281 -280h-135l35 220h155z" />
    <glyph glyph-name="u" unicode="u" 
d="M371 480h170v-480h-150v55c-40 -43 -89 -70 -153 -70c-132 0 -192 89 -192 197v298h170v-275c0 -51 31 -75 73 -75c38 0 67 23 82 42v308z" />
    <glyph glyph-name="uacute" unicode="&#xfa;" 
d="M371 480h170v-480h-150v55c-40 -43 -89 -70 -153 -70c-132 0 -192 89 -192 197v298h170v-275c0 -51 31 -75 73 -75c38 0 67 23 82 42v308zM356 540h-160l90 150h180z" />
    <glyph glyph-name="ucircumflex" unicode="&#xfb;" 
d="M371 480h170v-480h-150v55c-40 -43 -89 -70 -153 -70c-132 0 -192 89 -192 197v298h170v-275c0 -51 31 -75 73 -75c38 0 67 23 82 42v308zM221 690h150l120 -160h-155l-40 53l-40 -53h-155z" />
    <glyph glyph-name="udieresis" unicode="&#xfc;" 
d="M371 480h170v-480h-150v55c-40 -43 -89 -70 -153 -70c-132 0 -192 89 -192 197v298h170v-275c0 -51 31 -75 73 -75c38 0 67 23 82 42v308zM491 611c0 -47 -38 -85 -85 -85s-85 38 -85 85s38 85 85 85s85 -38 85 -85zM271 611c0 -47 -38 -85 -85 -85s-85 38 -85 85
s38 85 85 85s85 -38 85 -85z" />
    <glyph glyph-name="ugrave" unicode="&#xf9;" 
d="M371 480h170v-480h-150v55c-40 -43 -89 -70 -153 -70c-132 0 -192 89 -192 197v298h170v-275c0 -51 31 -75 73 -75c38 0 67 23 82 42v308zM396 540h-160l-110 150h180z" />
    <glyph glyph-name="uhungarumlaut" unicode="&#x171;" 
d="M371 480h170v-480h-150v55c-40 -43 -89 -70 -153 -70c-132 0 -192 89 -192 197v298h170v-275c0 -51 31 -75 73 -75c38 0 67 23 82 42v308zM456 550h-150l74 157h160zM261 550h-150l74 157h160z" />
    <glyph glyph-name="umacron" unicode="&#x16b;" 
d="M371 480h170v-480h-150v55c-40 -43 -89 -70 -153 -70c-132 0 -192 89 -192 197v298h170v-275c0 -51 31 -75 73 -75c38 0 67 23 82 42v308zM126 668h340v-130h-340v130z" />
    <glyph glyph-name="uogonek" unicode="&#x173;" 
d="M541 480v-480c-46 -30 -62 -61 -62 -82s14 -28 31 -28c11 0 22 2 31 6v-114c-27 -12 -53 -17 -91 -17c-80 0 -122 48 -121 106c1 43 25 92 75 129h-13v55c-40 -43 -89 -70 -153 -70c-132 0 -192 89 -192 197v298h170v-275c0 -51 31 -75 73 -75c38 0 67 23 82 42v308h170z
" />
    <glyph glyph-name="uring" unicode="&#x16f;" 
d="M371 480h170v-480h-150v55c-40 -43 -89 -70 -153 -70c-132 0 -192 89 -192 197v298h170v-275c0 -51 31 -75 73 -75c38 0 67 23 82 42v308zM426 636c0 -81 -60 -126 -130 -126c-69 0 -130 45 -130 126c0 78 61 124 130 124c70 0 130 -46 130 -124zM261 636
c0 -21 13 -37 35 -37s35 16 35 37c0 20 -13 35 -35 35s-35 -15 -35 -35z" />
    <glyph glyph-name="v" unicode="v" horiz-adv-x="572" 
d="M386 480h180l-190 -480h-180l-190 480h180l100 -303z" />
    <glyph glyph-name="w" unicode="w" horiz-adv-x="828" 
d="M637 480h182l-149 -480h-180l-76 281l-76 -281h-180l-149 480h182l68 -295l73 295h164l73 -295z" />
    <glyph glyph-name="wacute" unicode="&#x1e83;" horiz-adv-x="828" 
d="M637 480h182l-149 -480h-180l-76 281l-76 -281h-180l-149 480h182l68 -295l73 295h164l73 -295zM472 540h-160l90 150h180z" />
    <glyph glyph-name="wcircumflex" unicode="&#x175;" horiz-adv-x="828" 
d="M637 480h182l-149 -480h-180l-76 281l-76 -281h-180l-149 480h182l68 -295l73 295h164l73 -295zM337 690h150l120 -160h-155l-40 53l-40 -53h-155z" />
    <glyph glyph-name="wdieresis" unicode="&#x1e85;" horiz-adv-x="828" 
d="M637 480h182l-149 -480h-180l-76 281l-76 -281h-180l-149 480h182l68 -295l73 295h164l73 -295zM607 611c0 -47 -38 -85 -85 -85s-85 38 -85 85s38 85 85 85s85 -38 85 -85zM387 611c0 -47 -38 -85 -85 -85s-85 38 -85 85s38 85 85 85s85 -38 85 -85z" />
    <glyph glyph-name="wgrave" unicode="&#x1e81;" horiz-adv-x="828" 
d="M637 480h182l-149 -480h-180l-76 281l-76 -281h-180l-149 480h182l68 -295l73 295h164l73 -295zM512 540h-160l-110 150h180z" />
    <glyph glyph-name="x" unicode="x" horiz-adv-x="552" 
d="M355 480h192l-172 -241l181 -239h-192l-88 124l-88 -124h-192l181 239l-172 241h192l79 -126z" />
    <glyph glyph-name="y" unicode="y" horiz-adv-x="577" 
d="M297 194l98 286h175l-201 -530c-55 -144 -138 -183 -220 -183c-30 0 -60 6 -88 13v140c21 -5 43 -8 65 -8c42 0 77 24 100 76l-226 492h180z" />
    <glyph glyph-name="yacute" unicode="&#xfd;" horiz-adv-x="577" 
d="M297 194l98 286h175l-201 -530c-55 -144 -138 -183 -220 -183c-30 0 -60 6 -88 13v140c21 -5 43 -8 65 -8c42 0 77 24 100 76l-226 492h180zM341 540h-160l90 150h180z" />
    <glyph glyph-name="ycircumflex" unicode="&#x177;" horiz-adv-x="577" 
d="M297 194l98 286h175l-201 -530c-55 -144 -138 -183 -220 -183c-30 0 -60 6 -88 13v140c21 -5 43 -8 65 -8c42 0 77 24 100 76l-226 492h180zM206 690h150l120 -160h-155l-40 53l-40 -53h-155z" />
    <glyph glyph-name="ydieresis" unicode="&#xff;" horiz-adv-x="577" 
d="M297 194l98 286h175l-201 -530c-55 -144 -138 -183 -220 -183c-30 0 -60 6 -88 13v140c21 -5 43 -8 65 -8c42 0 77 24 100 76l-226 492h180zM476 611c0 -47 -38 -85 -85 -85s-85 38 -85 85s38 85 85 85s85 -38 85 -85zM256 611c0 -47 -38 -85 -85 -85s-85 38 -85 85
s38 85 85 85s85 -38 85 -85z" />
    <glyph glyph-name="ygrave" unicode="&#x1ef3;" horiz-adv-x="577" 
d="M297 194l98 286h175l-201 -530c-55 -144 -138 -183 -220 -183c-30 0 -60 6 -88 13v140c21 -5 43 -8 65 -8c42 0 77 24 100 76l-226 492h180zM381 540h-160l-110 150h180z" />
    <glyph glyph-name="z" unicode="z" horiz-adv-x="492" 
d="M43 480h405v-100l-194 -240h208v-140h-433v100l195 240h-181v140z" />
    <glyph glyph-name="zacute" unicode="&#x17a;" horiz-adv-x="492" 
d="M43 480h405v-100l-194 -240h208v-140h-433v100l195 240h-181v140zM314 540h-160l90 150h180z" />
    <glyph glyph-name="zcaron" unicode="&#x17e;" horiz-adv-x="492" 
d="M43 480h405v-100l-194 -240h208v-140h-433v100l195 240h-181v140zM459 700l-130 -160h-150l-130 160h155l50 -63l50 63h155z" />
    <glyph glyph-name="zdotaccent" unicode="&#x17c;" horiz-adv-x="492" 
d="M43 480h405v-100l-194 -240h208v-140h-433v100l195 240h-181v140zM162 617c0 62 43 90 93 90s93 -28 93 -90c0 -63 -43 -90 -93 -90s-93 27 -93 90z" />
    <glyph glyph-name="a.ss01" horiz-adv-x="623" 
d="M422 65c-24 -40 -77 -80 -163 -80c-161 0 -232 131 -232 255s71 255 232 255c86 0 139 -40 163 -80v65h150v-480h-150v65zM202 240c0 -56 31 -115 103 -115c47 0 82 29 97 60v110c-15 31 -50 60 -97 60c-72 0 -103 -59 -103 -115z" />
    <glyph glyph-name="aacute.ss01" horiz-adv-x="623" 
d="M422 65c-24 -40 -77 -80 -163 -80c-161 0 -232 131 -232 255s71 255 232 255c86 0 139 -40 163 -80v65h150v-480h-150v65zM202 240c0 -56 31 -115 103 -115c47 0 82 29 97 60v110c-15 31 -50 60 -97 60c-72 0 -103 -59 -103 -115zM368 540h-160l90 150h180z" />
    <glyph glyph-name="abreve.ss01" horiz-adv-x="623" 
d="M422 65c-24 -40 -77 -80 -163 -80c-161 0 -232 131 -232 255s71 255 232 255c86 0 139 -40 163 -80v65h150v-480h-150v65zM202 240c0 -56 31 -115 103 -115c47 0 82 29 97 60v110c-15 31 -50 60 -97 60c-72 0 -103 -59 -103 -115zM473 565c-43 -29 -91 -46 -165 -46
s-122 17 -165 46v126c54 -33 108 -42 165 -42s111 9 165 42v-126z" />
    <glyph glyph-name="acircumflex.ss01" horiz-adv-x="623" 
d="M422 65c-24 -40 -77 -80 -163 -80c-161 0 -232 131 -232 255s71 255 232 255c86 0 139 -40 163 -80v65h150v-480h-150v65zM202 240c0 -56 31 -115 103 -115c47 0 82 29 97 60v110c-15 31 -50 60 -97 60c-72 0 -103 -59 -103 -115zM233 690h150l120 -160h-155l-40 53
l-40 -53h-155z" />
    <glyph glyph-name="adieresis.ss01" horiz-adv-x="623" 
d="M422 65c-24 -40 -77 -80 -163 -80c-161 0 -232 131 -232 255s71 255 232 255c86 0 139 -40 163 -80v65h150v-480h-150v65zM202 240c0 -56 31 -115 103 -115c47 0 82 29 97 60v110c-15 31 -50 60 -97 60c-72 0 -103 -59 -103 -115zM503 611c0 -47 -38 -85 -85 -85
s-85 38 -85 85s38 85 85 85s85 -38 85 -85zM283 611c0 -47 -38 -85 -85 -85s-85 38 -85 85s38 85 85 85s85 -38 85 -85z" />
    <glyph glyph-name="agrave.ss01" horiz-adv-x="623" 
d="M422 65c-24 -40 -77 -80 -163 -80c-161 0 -232 131 -232 255s71 255 232 255c86 0 139 -40 163 -80v65h150v-480h-150v65zM202 240c0 -56 31 -115 103 -115c47 0 82 29 97 60v110c-15 31 -50 60 -97 60c-72 0 -103 -59 -103 -115zM408 540h-160l-110 150h180z" />
    <glyph glyph-name="amacron.ss01" horiz-adv-x="623" 
d="M422 65c-24 -40 -77 -80 -163 -80c-161 0 -232 131 -232 255s71 255 232 255c86 0 139 -40 163 -80v65h150v-480h-150v65zM202 240c0 -56 31 -115 103 -115c47 0 82 29 97 60v110c-15 31 -50 60 -97 60c-72 0 -103 -59 -103 -115zM138 668h340v-130h-340v130z" />
    <glyph glyph-name="aogonek.ss01" horiz-adv-x="623" 
d="M572 0h-2c-46 -30 -62 -61 -62 -82s14 -28 31 -28c11 0 22 3 33 8v-114c-29 -13 -56 -19 -93 -19c-80 0 -122 48 -121 106c1 43 25 92 75 129h-11v65c-24 -40 -77 -80 -163 -80c-161 0 -232 131 -232 255s71 255 232 255c86 0 139 -40 163 -80v65h150v-480zM305 125
c47 0 82 29 97 60v110c-15 31 -50 60 -97 60c-72 0 -103 -59 -103 -115s31 -115 103 -115z" />
    <glyph glyph-name="aring.ss01" horiz-adv-x="623" 
d="M422 65c-24 -40 -77 -80 -163 -80c-161 0 -232 131 -232 255s71 255 232 255c86 0 139 -40 163 -80v65h150v-480h-150v65zM202 240c0 -56 31 -115 103 -115c47 0 82 29 97 60v110c-15 31 -50 60 -97 60c-72 0 -103 -59 -103 -115zM438 636c0 -81 -60 -126 -130 -126
c-69 0 -130 45 -130 126c0 78 61 124 130 124c70 0 130 -46 130 -124zM273 636c0 -21 13 -37 35 -37s35 16 35 37c0 20 -13 35 -35 35s-35 -15 -35 -35z" />
    <glyph glyph-name="atilde.ss01" horiz-adv-x="623" 
d="M422 65c-24 -40 -77 -80 -163 -80c-161 0 -232 131 -232 255s71 255 232 255c86 0 139 -40 163 -80v65h150v-480h-150v65zM202 240c0 -56 31 -115 103 -115c47 0 82 29 97 60v110c-15 31 -50 60 -97 60c-72 0 -103 -59 -103 -115zM493 674c24 -88 -22 -157 -100 -157
c-67 0 -107 42 -139 42c-25 0 -24 -26 -20 -36h-115c-24 88 22 157 100 157c67 0 107 -42 139 -42c25 0 24 26 20 36h115z" />
    <glyph glyph-name="ae.ss01" horiz-adv-x="934" 
d="M422 65c-24 -40 -77 -80 -163 -80c-161 0 -232 131 -232 255s71 255 232 255c86 0 139 -40 163 -80v65h140v-64c28 49 73 79 142 79c176 0 228 -165 194 -311h-314c19 -48 84 -69 153 -69c55 0 95 10 123 23v-126c-36 -18 -74 -27 -131 -27c-61 0 -122 19 -167 80v-65
h-140v65zM202 240c0 -56 31 -115 103 -115c47 0 82 29 97 60v110c-15 31 -50 60 -97 60c-72 0 -103 -59 -103 -115zM668 370c-47 0 -86 -31 -86 -81h161c5 23 -7 81 -75 81z" />
    <glyph glyph-name="y.ss01" 
d="M541 0c0 -154 -116 -235 -279 -235c-72 0 -144 17 -197 45v145c47 -32 114 -50 174 -50c72 0 132 23 132 105v26c-36 -32 -79 -51 -133 -51c-132 0 -192 89 -192 197v298h170v-275c0 -51 31 -75 73 -75c38 0 67 23 82 42v308h170v-480z" />
    <glyph glyph-name="yacute.ss01" 
d="M541 0c0 -154 -116 -235 -279 -235c-72 0 -144 17 -197 45v145c47 -32 114 -50 174 -50c72 0 132 23 132 105v26c-36 -32 -79 -51 -133 -51c-132 0 -192 89 -192 197v298h170v-275c0 -51 31 -75 73 -75c38 0 67 23 82 42v308h170v-480zM356 540h-160l90 150h180z" />
    <glyph glyph-name="ycircumflex.ss01" 
d="M541 0c0 -154 -116 -235 -279 -235c-72 0 -144 17 -197 45v145c47 -32 114 -50 174 -50c72 0 132 23 132 105v26c-36 -32 -79 -51 -133 -51c-132 0 -192 89 -192 197v298h170v-275c0 -51 31 -75 73 -75c38 0 67 23 82 42v308h170v-480zM221 690h150l120 -160h-155l-40 53
l-40 -53h-155z" />
    <glyph glyph-name="ydieresis.ss01" 
d="M541 0c0 -154 -116 -235 -279 -235c-72 0 -144 17 -197 45v145c47 -32 114 -50 174 -50c72 0 132 23 132 105v26c-36 -32 -79 -51 -133 -51c-132 0 -192 89 -192 197v298h170v-275c0 -51 31 -75 73 -75c38 0 67 23 82 42v308h170v-480zM491 611c0 -47 -38 -85 -85 -85
s-85 38 -85 85s38 85 85 85s85 -38 85 -85zM271 611c0 -47 -38 -85 -85 -85s-85 38 -85 85s38 85 85 85s85 -38 85 -85z" />
    <glyph glyph-name="ygrave.ss01" 
d="M541 0c0 -154 -116 -235 -279 -235c-72 0 -144 17 -197 45v145c47 -32 114 -50 174 -50c72 0 132 23 132 105v26c-36 -32 -79 -51 -133 -51c-132 0 -192 89 -192 197v298h170v-275c0 -51 31 -75 73 -75c38 0 67 23 82 42v308h170v-480zM396 540h-160l-110 150h180z" />
    <glyph glyph-name="f_b" horiz-adv-x="1017" 
d="M614 441c29 30 76 54 143 54c161 0 232 -131 232 -255s-71 -255 -232 -255c-86 0 -139 40 -163 80v-65h-150v557c-27 11 -57 18 -84 18c-48 0 -87 -21 -87 -74v-21h118v-140h-118v-340h-170v340h-79v140h79v25c0 144 95 210 206 210c66 0 114 -12 160 -31l145 22v-265z
M614 185c15 -31 50 -60 97 -60c72 0 103 59 103 115s-31 115 -103 115c-47 0 -82 -29 -97 -60v-110z" />
    <glyph glyph-name="f_f_b" horiz-adv-x="1351" 
d="M949 441c29 30 76 54 143 54c161 0 232 -131 232 -255s-71 -255 -232 -255c-86 0 -139 40 -163 80v-65h-150v567c-27 11 -57 18 -84 18c-48 0 -87 -21 -87 -74v-31h118v-140h-118v-340h-170v340h-165v-340h-170v340h-79v140h79v16c0 151 104 209 220 209
c51 0 110 -9 173 -34c38 37 91 54 148 54c66 0 114 -12 160 -31l145 22v-275zM438 480v35c0 13 1 26 2 38c-25 11 -52 17 -82 17c-52 0 -85 -26 -85 -75v-15h165zM949 185c15 -31 50 -60 97 -60c72 0 103 59 103 115s-31 115 -103 115c-47 0 -82 -29 -97 -60v-110z" />
    <glyph glyph-name="f_f_h" horiz-adv-x="1320" 
d="M949 444c36 32 79 51 133 51c132 0 192 -89 192 -197v-298h-170v275c0 51 -31 75 -73 75c-38 0 -67 -23 -82 -42v-308h-170v567c-27 11 -57 18 -84 18c-48 0 -87 -21 -87 -74v-31h118v-140h-118v-340h-170v340h-165v-340h-170v340h-79v140h79v16c0 151 104 209 220 209
c51 0 110 -9 173 -34c38 37 91 54 148 54c66 0 114 -12 160 -31l145 22v-272zM438 480v35c0 13 1 26 2 38c-25 11 -52 17 -82 17c-52 0 -85 -26 -85 -75v-15h165z" />
    <glyph glyph-name="f_f_j" horiz-adv-x="991" 
d="M939 -67c0 -131 -96 -168 -175 -168c-33 0 -63 6 -82 15v130c7 -2 21 -4 32 -4c29 0 55 12 55 59v375h-161v-340h-170v340h-165v-340h-170v340h-79v140h79v16c0 151 104 209 220 209c51 0 109 -9 173 -33c44 43 111 63 188 63c55 0 116 -10 178 -29v-139
c-45 18 -96 28 -141 28c-63 0 -113 -23 -113 -81v-34h331v-547zM273 495v-15h165v35c0 13 1 26 2 38c-25 11 -52 17 -82 17c-52 0 -85 -26 -85 -75z" />
    <glyph glyph-name="f_f_k" horiz-adv-x="1289" 
d="M1282 480l-158 -239l168 -241h-185l-122 182h-36v-182h-170v567c-27 11 -57 18 -84 18c-48 0 -87 -21 -87 -74v-31h118v-140h-118v-340h-170v340h-165v-340h-170v340h-79v140h79v16c0 151 104 209 220 209c51 0 110 -9 173 -34c38 37 91 54 148 54c66 0 114 -12 160 -31
l145 22v-404h43l105 168h185zM438 480v35c0 13 1 26 2 38c-25 11 -52 17 -82 17c-52 0 -85 -26 -85 -75v-15h165z" />
    <glyph glyph-name="f_h" horiz-adv-x="985" 
d="M614 444c36 32 79 51 133 51c132 0 192 -89 192 -197v-298h-170v275c0 51 -31 75 -73 75c-38 0 -67 -23 -82 -42v-308h-170v557c-27 11 -57 18 -84 18c-48 0 -87 -21 -87 -74v-21h118v-140h-118v-340h-170v340h-79v140h79v25c0 144 95 210 206 210c66 0 114 -12 160 -31
l145 22v-262z" />
    <glyph glyph-name="f_i" horiz-adv-x="636" 
d="M273 480h311v-480h-170v340h-141v-340h-170v340h-79v140h79v15c0 154 105 220 246 220c55 0 116 -10 178 -29v-139c-45 18 -96 28 -141 28c-63 0 -113 -23 -113 -81v-14z" />
    <glyph glyph-name="f_j" horiz-adv-x="636" 
d="M273 480h311v-547c0 -131 -96 -168 -175 -168c-33 0 -63 6 -82 15v130c7 -2 21 -4 32 -4c29 0 55 12 55 59v375h-141v-340h-170v340h-79v140h79v15c0 154 105 220 246 220c55 0 116 -10 178 -29v-139c-45 18 -96 28 -141 28c-63 0 -113 -23 -113 -81v-14z" />
    <glyph glyph-name="f_k" horiz-adv-x="954" 
d="M947 480l-158 -239l168 -241h-185l-122 182h-36v-182h-170v557c-27 11 -57 18 -84 18c-48 0 -87 -21 -87 -74v-21h118v-140h-118v-340h-170v340h-79v140h79v25c0 144 95 210 206 210c66 0 114 -12 160 -31l145 22v-394h43l105 168h185z" />
    <glyph glyph-name="f_l" horiz-adv-x="666" 
d="M309 715c66 0 114 -12 160 -31l145 22v-706h-170v557c-27 11 -57 18 -84 18c-48 0 -87 -21 -87 -74v-21h118v-140h-118v-340h-170v340h-79v140h79v25c0 144 95 210 206 210z" />
    <glyph glyph-name="uni0410" unicode="&#x410;" horiz-adv-x="752" 
d="M191 0h-190l275 700h200l275 -700h-190l-40 110h-290zM358 462l-72 -202h180l-72 202c-6 17 -12 34 -18 71c-6 -37 -12 -54 -18 -71z" />
    <glyph glyph-name="uni0411" unicode="&#x411;" horiz-adv-x="680" 
d="M251 452h138c142 0 267 -51 267 -226s-125 -226 -267 -226h-323v700h531v-165h-346v-83zM251 160h136c43 0 79 12 79 66s-36 66 -79 66h-136v-132z" />
    <glyph glyph-name="uni0412" unicode="&#x412;" horiz-adv-x="684" 
d="M66 700h316c153 0 245 -56 245 -177c0 -77 -37 -128 -104 -152c75 -22 132 -76 132 -173c0 -159 -152 -198 -285 -198h-304v700zM469 218c0 55 -37 73 -93 73h-126v-146h126c56 0 93 18 93 73zM442 490c0 40 -28 65 -77 65h-114v-129l114 -1c49 0 77 25 77 65z" />
    <glyph glyph-name="uni0413" unicode="&#x413;" horiz-adv-x="582" 
d="M251 0h-185v700h505v-165h-320v-535z" />
    <glyph glyph-name="uni0414" unicode="&#x414;" horiz-adv-x="829" 
d="M181 -145h-160v305h80c90 160 110 355 110 540h500v-540h90v-305h-160v145h-460v-145zM381 535c-10 -137 -30 -273 -85 -375h230v375h-145z" />
    <glyph glyph-name="uni0415" unicode="&#x415;" horiz-adv-x="617" 
d="M66 700h504v-160h-319v-107h289v-159h-289v-114h325v-160h-510v700z" />
    <glyph glyph-name="uni0401" unicode="&#x401;" horiz-adv-x="617" 
d="M523 831c0 -47 -38 -85 -85 -85s-85 38 -85 85s38 85 85 85s85 -38 85 -85zM303 831c0 -47 -38 -85 -85 -85s-85 38 -85 85s38 85 85 85s85 -38 85 -85zM66 700h504v-160h-319v-107h289v-159h-289v-114h325v-160h-510v700z" />
    <glyph glyph-name="uni0416" unicode="&#x416;" horiz-adv-x="1013" 
d="M207 0h-205l200 359l-190 341h205l136 -265h61v265h185v-265h61l136 265h205l-190 -341l200 -359h-205l-147 270h-60v-270h-185v270h-60z" />
    <glyph glyph-name="uni0417" unicode="&#x417;" horiz-adv-x="629" 
d="M597 191c0 -159 -152 -206 -295 -206c-77 0 -164 11 -265 46v175c100 -49 184 -57 250 -56c66 0 124 16 124 70c0 46 -37 59 -93 59h-166l1 160l154 -1c49 0 77 16 77 51c0 40 -36 61 -115 61c-56 1 -130 -12 -220 -56v175c86 35 168 46 235 46c173 0 285 -63 285 -194
c0 -73 -40 -125 -110 -149c78 -24 138 -81 138 -181z" />
    <glyph glyph-name="uni0418" unicode="&#x418;" horiz-adv-x="762" 
d="M696 0h-185v286c0 38 1 82 4 115l-274 -401h-175v700h185v-286c0 -39 -1 -83 -4 -116l274 402h175v-700z" />
    <glyph glyph-name="uni0419" unicode="&#x419;" horiz-adv-x="762" 
d="M511 0h185v700h-175l-274 -402c3 33 4 77 4 116v286h-185v-700h175l274 401c-3 -33 -4 -77 -4 -115v-286zM546 785c-43 -29 -91 -46 -165 -46s-122 17 -165 46v126c54 -33 108 -42 165 -42s111 9 165 42v-126z" />
    <glyph glyph-name="uni041A" unicode="&#x41a;" horiz-adv-x="706" 
d="M251 0h-185v700h185v-265h88l159 265h205l-220 -341l230 -359h-205l-170 270h-87v-270z" />
    <glyph glyph-name="uni041B" unicode="&#x41b;" horiz-adv-x="754" 
d="M183 700h505v-700h-185v535h-151c-22 -287 -57 -543 -258 -544c-26 0 -55 4 -86 14v161c13 -4 29 -6 48 -4c113 12 111 326 127 538z" />
    <glyph glyph-name="uni041C" unicode="&#x41c;" horiz-adv-x="908" 
d="M667 700h175v-700h-185v372l-150 -230h-106l-150 231v-373h-185v700h175l213 -328z" />
    <glyph glyph-name="uni041D" unicode="&#x41d;" horiz-adv-x="762" 
d="M511 700h185v-700h-185v267h-260v-267h-185v700h185v-268h260v268z" />
    <glyph glyph-name="uni041E" unicode="&#x41e;" horiz-adv-x="812" 
d="M31 350c0 195 125 365 375 365s375 -170 375 -365s-125 -365 -375 -365s-375 170 -375 365zM591 350c0 112 -64 195 -185 195s-185 -83 -185 -195s64 -195 185 -195s185 83 185 195z" />
    <glyph glyph-name="uni041F" unicode="&#x41f;" horiz-adv-x="762" 
d="M251 0h-185v700h630v-700h-185v535h-260v-535z" />
    <glyph glyph-name="uni0420" unicode="&#x420;" horiz-adv-x="670" 
d="M66 700h277c173 0 305 -56 305 -240s-132 -239 -305 -240h-92v-220h-185v700zM458 460c0 63 -50 80 -106 80h-101v-160h101c56 0 106 17 106 80z" />
    <glyph glyph-name="uni0421" unicode="&#x421;" horiz-adv-x="655" 
d="M32 340c0 264 190 375 379 375c71 0 142 -15 203 -44v-175c-43 36 -107 57 -171 57c-111 0 -221 -61 -221 -213c0 -136 110 -192 219 -192c72 0 138 22 178 61v-180c-61 -29 -130 -44 -204 -44c-192 0 -383 105 -383 355z" />
    <glyph glyph-name="uni0422" unicode="&#x422;" horiz-adv-x="606" 
d="M13 700h580v-165h-197v-535h-185v535h-198v165z" />
    <glyph glyph-name="uni0423" unicode="&#x423;" horiz-adv-x="685" 
d="M435 160c-63 -135 -140 -175 -235 -175c-36 0 -74 8 -112 19v153c24 -9 54 -14 81 -14c44 0 75 12 91 48l11 24l-273 485h205l154 -319l126 319h205z" />
    <glyph glyph-name="uni0424" unicode="&#x424;" horiz-adv-x="884" 
d="M532 -40h-175v86c-207 11 -340 121 -340 304s133 293 340 304v86h175v-86c204 -13 335 -122 335 -304s-131 -291 -335 -304v-86zM202 350c0 -66 30 -141 155 -153v306c-125 -12 -155 -87 -155 -153zM532 503v-306c120 14 150 88 150 153s-30 139 -150 153z" />
    <glyph glyph-name="uni0425" unicode="&#x425;" horiz-adv-x="694" 
d="M205 0h-216l240 364l-225 336h216l127 -206l127 206h216l-225 -336l240 -364h-216l-142 235z" />
    <glyph glyph-name="uni0427" unicode="&#x427;" horiz-adv-x="703" 
d="M637 0h-185v238c-57 -17 -112 -26 -162 -26c-152 0 -255 78 -255 242v246h185v-236c0 -57 51 -85 117 -85c36 0 76 8 115 24v297h185v-700z" />
    <glyph glyph-name="uni0426" unicode="&#x426;" horiz-adv-x="814" 
d="M786 -145h-160v145h-560v700h185v-535h260v535h185v-535h90v-310z" />
    <glyph glyph-name="uni0428" unicode="&#x428;" horiz-adv-x="1047" 
d="M981 0h-915v700h185v-535h180v535h185v-535h180v535h185v-700z" />
    <glyph glyph-name="uni0429" unicode="&#x429;" horiz-adv-x="1099" 
d="M1071 -145h-160v145h-845v700h185v-535h180v535h185v-535h180v535h185v-535h90v-310z" />
    <glyph glyph-name="uni042F" unicode="&#x42f;" horiz-adv-x="701" 
d="M220 0h-211l189 253c-84 31 -145 96 -145 206c0 175 135 241 287 241h295v-700h-185v228h-65zM243 459c0 -54 36 -81 99 -81h108v162h-108c-63 0 -99 -27 -99 -81z" />
    <glyph glyph-name="uni042C" unicode="&#x42c;" horiz-adv-x="669" 
d="M343 0h-277v700h185v-220h92c173 -1 305 -56 305 -240s-132 -240 -305 -240zM251 320v-160h101c56 0 106 17 106 80s-50 80 -106 80h-101z" />
    <glyph glyph-name="uni042A" unicode="&#x42a;" horiz-adv-x="778" 
d="M452 0h-277v535h-160v165h345v-220h92c173 -1 305 -56 305 -240s-132 -240 -305 -240zM360 320v-160h101c56 0 106 17 106 80s-50 80 -106 80h-101z" />
    <glyph glyph-name="uni042B" unicode="&#x42b;" horiz-adv-x="944" 
d="M343 0h-277v700h185v-220h92c173 -1 305 -56 305 -240s-132 -240 -305 -240zM251 320v-160h101c56 0 106 17 106 80s-50 80 -106 80h-101zM878 0h-185v700h185v-700z" />
    <glyph glyph-name="uni042D" unicode="&#x42d;" horiz-adv-x="657" 
d="M43 671c61 29 132 44 203 44c189 0 379 -111 379 -375c0 -250 -191 -355 -383 -355c-69 0 -138 15 -199 44v180c44 -42 108 -59 171 -59c103 0 198 22 224 123h-290v155h287c-29 100 -116 121 -217 122c-59 0 -129 -16 -175 -54v175z" />
    <glyph glyph-name="uni042E" unicode="&#x42e;" horiz-adv-x="1112" 
d="M1081 350c0 -195 -125 -365 -375 -365c-212 0 -332 130 -359 283h-96v-268h-185v700h185v-267h96c27 153 147 282 359 282c250 0 375 -170 375 -365zM521 350c0 -112 64 -195 185 -195s185 83 185 195s-64 195 -185 195s-185 -83 -185 -195z" />
    <glyph glyph-name="uni0414.loclBGR" horiz-adv-x="852" 
d="M186 -145h-160v305h82l218 540h200l218 -540h82v-305h-160v145h-480v-145zM426 518l-124 -358h248z" />
    <glyph glyph-name="uni041B.loclBGR" horiz-adv-x="720" 
d="M265 700h190l263 -700h-200l-158 480l-158 -480h-200z" />
    <glyph glyph-name="uni0424.loclBGR" horiz-adv-x="888" 
d="M534 -90h-175v92c-216 17 -340 165 -340 348s124 331 340 348v92h175v-92c213 -19 335 -166 335 -348s-122 -329 -335 -348v-92zM204 350c0 -66 20 -182 155 -192v384c-135 -10 -155 -126 -155 -192zM534 541v-382c131 12 150 126 150 191s-19 179 -150 191z" />
    <glyph glyph-name="uni0430" unicode="&#x430;" horiz-adv-x="576" 
d="M505 137c0 -23 16 -30 33 -30c6 0 13 1 19 3v-105c-23 -9 -54 -15 -86 -15c-53 0 -92 19 -114 53c-46 -36 -99 -58 -167 -58c-92 0 -167 55 -167 148c0 121 115 158 208 158c36 0 72 -4 104 -11v17c0 34 -32 60 -100 60c-63 0 -121 -18 -168 -37v143c40 13 116 32 187 32
c153 0 251 -53 251 -224v-134zM198 147c0 -25 22 -47 58 -47c28 0 53 6 79 25v65c-15 5 -38 9 -61 9c-40 0 -76 -14 -76 -52z" />
    <glyph glyph-name="uni0431" unicode="&#x431;" horiz-adv-x="583" 
d="M554 215c0 -155 -116 -230 -260 -230c-139 0 -260 75 -260 295c0 177 61 270 147 324c138 86 266 48 331 111v-150c-62 -56 -146 -27 -229 -68c-49 -24 -74 -80 -74 -119c28 35 73 67 145 67c114 0 200 -80 200 -230zM209 215c0 -34 10 -100 85 -100s85 66 85 100
s-10 100 -85 100s-85 -66 -85 -100z" />
    <glyph glyph-name="uni0432" unicode="&#x432;" horiz-adv-x="551" 
d="M357 0h-306v480h298c130 0 163 -71 163 -125c0 -58 -26 -93 -78 -113c59 -19 88 -57 88 -114c0 -62 -35 -128 -165 -128zM222 194v-86h78c28 0 52 12 52 42c0 32 -23 44 -53 44h-77zM221 372v-86h69c28 0 52 12 52 42c0 32 -23 44 -53 44h-68z" />
    <glyph glyph-name="uni0433" unicode="&#x433;" horiz-adv-x="439" 
d="M221 0h-170v480h374v-140h-204v-340z" />
    <glyph glyph-name="uni0434" unicode="&#x434;" horiz-adv-x="661" 
d="M173 -125h-155v250h69c56 97 67 217 63 355h415v-355h73v-250h-155v125h-310v-125zM305 355c-3 -95 -13 -161 -44 -230h134v230h-90z" />
    <glyph glyph-name="uni0435" unicode="&#x435;" horiz-adv-x="547" 
d="M27 240c0 188 147 255 252 255c206 0 268 -160 234 -306h-314c19 -53 84 -74 153 -74c54 0 98 8 138 23v-126c-45 -16 -102 -27 -178 -27c-158 0 -285 90 -285 255zM358 291c5 23 -7 81 -75 81c-47 0 -86 -31 -86 -81h161z" />
    <glyph glyph-name="uni0451" unicode="&#x451;" horiz-adv-x="547" 
d="M473 611c0 -47 -38 -85 -85 -85s-85 38 -85 85s38 85 85 85s85 -38 85 -85zM253 611c0 -47 -38 -85 -85 -85s-85 38 -85 85s38 85 85 85s85 -38 85 -85zM27 240c0 188 147 255 252 255c206 0 268 -160 234 -306h-314c19 -53 84 -74 153 -74c54 0 98 8 138 23v-126
c-45 -16 -102 -27 -178 -27c-158 0 -285 90 -285 255zM358 291c5 23 -7 81 -75 81c-47 0 -86 -31 -86 -81h161z" />
    <glyph glyph-name="uni0436" unicode="&#x436;" horiz-adv-x="806" 
d="M806 0h-180l-96 167h-42v-167h-170v167h-42l-96 -167h-180l152 241l-142 239h180l97 -183h31v183h170v-183h31l97 183h180l-142 -239z" />
    <glyph glyph-name="uni0437" unicode="&#x437;" horiz-adv-x="493" 
d="M464 135c0 -67 -64 -149 -247 -149c-79 0 -143 17 -186 41v130c34 -20 105 -42 164 -42s94 12 94 42c0 32 -38 35 -85 35h-80v102h80c45 0 75 9 75 35c0 21 -19 38 -74 38s-130 -22 -164 -42v130c43 24 117 41 186 41c182 0 227 -83 227 -145c0 -56 -36 -91 -77 -104
c58 -18 87 -57 87 -112z" />
    <glyph glyph-name="uni0438" unicode="&#x438;" 
d="M200 0h-149v480h170v-227l171 227h149v-480h-170v227z" />
    <glyph glyph-name="uni0439" unicode="&#x439;" 
d="M456 568c-43 -24 -91 -39 -160 -39s-117 15 -160 39v122c54 -28 108 -35 160 -35s106 7 160 35v-122zM200 0h-149v480h170v-227l171 227h149v-480h-170v227z" />
    <glyph glyph-name="uni043A" unicode="&#x43a;" horiz-adv-x="562" 
d="M221 0h-170v480h170v-168h38l105 168h190l-156 -236l166 -244h-189l-118 182h-36v-182z" />
    <glyph glyph-name="uni043B" unicode="&#x43b;" horiz-adv-x="590" 
d="M284 350c-12 -200 -51 -361 -187 -361c-25 0 -54 5 -86 16v135c10 -4 19 -6 27 -6c72 0 82 154 91 346h410v-480h-170v350h-85z" />
    <glyph glyph-name="uni043C" unicode="&#x43c;" horiz-adv-x="688" 
d="M217 0h-166v480h157l136 -223l136 223h157v-480h-166v240l-90 -147h-74l-90 147v-240z" />
    <glyph glyph-name="uni043D" unicode="&#x43d;" 
d="M221 0h-170v480h170v-170h150v170h170v-480h-170v170h-150v-170z" />
    <glyph glyph-name="uni043E" unicode="&#x43e;" horiz-adv-x="594" 
d="M27 240c0 170 126 255 270 255s270 -85 270 -255s-126 -255 -270 -255s-270 85 -270 255zM392 240c0 54 -25 105 -95 105s-95 -51 -95 -105s25 -105 95 -105s95 51 95 105z" />
    <glyph glyph-name="uni043F" unicode="&#x43f;" 
d="M221 0h-170v480h490v-480h-170v340h-150v-340z" />
    <glyph glyph-name="uni0440" unicode="&#x440;" horiz-adv-x="624" 
d="M201 415c24 40 77 80 163 80c161 0 232 -131 232 -255s-71 -255 -232 -255c-67 0 -114 24 -143 54v-259h-170v700h150v-65zM421 240c0 56 -31 115 -103 115c-47 0 -82 -29 -97 -60v-110c15 -31 50 -60 97 -60c72 0 103 59 103 115z" />
    <glyph glyph-name="uni0441" unicode="&#x441;" horiz-adv-x="492" 
d="M27 230c0 189 140 266 277 266c52 0 104 -12 148 -33v-145c-33 19 -79 33 -122 33c-67 0 -128 -29 -128 -111c0 -76 60 -110 125 -110c50 0 97 13 130 32v-145c-48 -20 -104 -32 -165 -32c-134 0 -265 75 -265 245z" />
    <glyph glyph-name="uni0442" unicode="&#x442;" horiz-adv-x="480" 
d="M325 0h-170v340h-140v140h450v-140h-140v-340z" />
    <glyph glyph-name="uni0443" unicode="&#x443;" horiz-adv-x="577" 
d="M297 194l98 286h175l-201 -530c-55 -144 -138 -183 -220 -183c-30 0 -60 6 -88 13v140c21 -5 43 -8 65 -8c42 0 77 24 100 76l-226 492h180z" />
    <glyph glyph-name="uni0444" unicode="&#x444;" horiz-adv-x="762" 
d="M461 -220h-160v205c-159 7 -275 102 -275 255s116 248 275 255v205h160v-205c159 -7 275 -102 275 -255s-116 -248 -275 -255v-205zM196 240c0 -52 27 -109 105 -115v230c-78 -6 -105 -63 -105 -115zM461 355v-230c78 6 105 63 105 115s-27 109 -105 115z" />
    <glyph glyph-name="uni0445" unicode="&#x445;" horiz-adv-x="552" 
d="M355 480h192l-172 -241l181 -239h-192l-88 124l-88 -124h-192l181 239l-172 241h192l79 -126z" />
    <glyph glyph-name="uni0447" unicode="&#x447;" horiz-adv-x="550" 
d="M499 0h-170v141c-34 -12 -71 -18 -112 -18c-99 0 -188 56 -188 184v173h170v-157c0 -44 28 -60 64 -60c23 0 46 4 66 12v205h170v-480z" />
    <glyph glyph-name="uni0446" unicode="&#x446;" horiz-adv-x="639" 
d="M614 -125h-155v125h-408v480h170v-340h150v340h170v-345h73v-260z" />
    <glyph glyph-name="uni0448" unicode="&#x448;" horiz-adv-x="812" 
d="M761 0h-710v480h170v-340h100v340h170v-340h100v340h170v-480z" />
    <glyph glyph-name="uni0449" unicode="&#x449;" horiz-adv-x="859" 
d="M834 -125h-155v125h-628v480h170v-340h100v340h170v-340h100v340h170v-345h73v-260z" />
    <glyph glyph-name="uni044F" unicode="&#x44f;" horiz-adv-x="563" 
d="M201 0h-189l119 154c-59 31 -90 88 -90 151c0 94 68 175 198 175h273v-480h-170v130h-47zM216 300c0 -32 23 -50 64 -50h62v100h-62c-41 0 -64 -18 -64 -50z" />
    <glyph glyph-name="uni044C" unicode="&#x44c;" horiz-adv-x="529" 
d="M313 0h-262v480h170v-140h92c130 0 198 -76 198 -170s-68 -170 -198 -170zM221 225v-110h46c46 0 69 23 69 55s-23 55 -69 55h-46z" />
    <glyph glyph-name="uni044A" unicode="&#x44a;" horiz-adv-x="613" 
d="M305 340h92c130 0 198 -76 198 -170s-68 -170 -198 -170h-262v350h-120v130h290v-140zM305 115h46c46 0 69 23 69 55s-23 55 -69 55h-46v-110z" />
    <glyph glyph-name="uni044B" unicode="&#x44b;" horiz-adv-x="802" 
d="M313 0h-262v480h170v-140h92c130 0 198 -76 198 -170s-68 -170 -198 -170zM221 225v-110h46c46 0 69 23 69 55s-23 55 -69 55h-46zM751 0h-170v480h170v-480z" />
    <glyph glyph-name="uni044D" unicode="&#x44d;" horiz-adv-x="506" 
d="M479 230c0 -173 -142 -245 -263 -245c-81 0 -124 12 -182 42v135c40 -27 95 -42 145 -42c68 0 114 20 130 60h-185v120h185c-17 38 -63 60 -130 60c-45 0 -100 -15 -140 -42v135c49 29 102 42 162 42c141 0 278 -77 278 -265z" />
    <glyph glyph-name="uni044E" unicode="&#x44e;" horiz-adv-x="843" 
d="M816 240c0 -170 -126 -255 -270 -255c-116 0 -225 63 -253 190h-72v-175h-170v480h170v-175h72c28 127 137 190 253 190c144 0 270 -85 270 -255zM451 240c0 -54 20 -115 95 -115s95 61 95 115s-20 115 -95 115s-95 -61 -95 -115z" />
    <glyph glyph-name="uni0432.loclBGR" horiz-adv-x="597" 
d="M520 533c0 -49 -15 -97 -72 -137c73 -29 123 -94 123 -181c0 -142 -109 -230 -260 -230c-155 0 -271 77 -272 309v96c0 205 99 325 269 325c118 0 212 -78 212 -182zM355 511c0 34 -20 60 -56 60c-45 0 -85 -36 -90 -153l76 13c45 9 70 46 70 80zM209 284
c0 -111 34 -149 97 -149c59 0 94 38 94 89c0 40 -35 91 -109 78l-82 -14v-4z" />
    <glyph glyph-name="uni0433.loclBGR" horiz-adv-x="497" 
d="M458 29c-51 -29 -118 -44 -193 -44c-131 0 -239 35 -239 155c0 188 261 140 261 202c0 22 -25 28 -50 28c-66 0 -137 -22 -179 -50v134c51 24 111 41 191 41c111 0 213 -36 213 -153c0 -183 -261 -144 -261 -202c0 -19 21 -27 73 -27c59 0 131 15 184 53v-137z" />
    <glyph glyph-name="uni0434.loclBGR" horiz-adv-x="623" 
d="M27 240c0 124 71 255 232 255c86 0 139 -40 163 -80v65h150v-460c0 -192 -139 -255 -284 -255c-77 0 -149 17 -207 45v145c52 -32 119 -50 184 -50c77 0 137 23 137 105v29c-29 -30 -76 -54 -143 -54c-161 0 -232 131 -232 255zM402 295c-15 31 -50 60 -97 60
c-72 0 -103 -59 -103 -115s31 -115 103 -115c47 0 82 29 97 60v110z" />
    <glyph glyph-name="uni0436.loclBGR" horiz-adv-x="806" 
d="M180 0h-180l152 239l-142 241h180l89 -168h39v388h170v-388h39l89 168h180l-142 -241l152 -239h-180l-105 182h-33v-182h-170v182h-33z" />
    <glyph glyph-name="uni0438.loclBGR" 
d="M371 480h170v-480h-150v55c-40 -43 -89 -70 -153 -70c-132 0 -192 89 -192 197v298h170v-275c0 -51 31 -75 73 -75c38 0 67 23 82 42v308z" />
    <glyph glyph-name="uni0439.loclBGR" 
d="M454 568c-43 -24 -91 -39 -160 -39s-117 15 -160 39v122c54 -28 108 -35 160 -35s106 7 160 35v-122zM371 480h170v-480h-150v55c-40 -43 -89 -70 -153 -70c-132 0 -192 89 -192 197v298h170v-275c0 -51 31 -75 73 -75c38 0 67 23 82 42v308z" />
    <glyph glyph-name="uni043A.loclBGR" horiz-adv-x="562" 
d="M564 0h-189l-118 182h-36v-182h-170v700h170v-388h38l105 168h190l-156 -236z" />
    <glyph glyph-name="uni043B.loclBGR" horiz-adv-x="572" 
d="M566 0h-180l-100 303l-100 -303h-180l190 480h180z" />
    <glyph glyph-name="uni043F.loclBGR" 
d="M201 425c40 43 89 70 153 70c132 0 192 -89 192 -197v-298h-170v275c0 51 -31 75 -73 75c-38 0 -67 -23 -82 -42v-308h-170v480h150v-55z" />
    <glyph glyph-name="uni0442.loclBGR" horiz-adv-x="867" 
d="M221 0h-170v480h150v-51c25 30 79 66 148 66c72 0 116 -29 142 -66c39 36 90 66 153 66c144 0 177 -116 177 -187v-308h-170v293c0 38 -25 57 -55 57c-23 0 -49 -10 -70 -31v-11v-308h-170v293c0 38 -25 57 -55 57c-27 0 -58 -14 -80 -42v-308z" />
    <glyph glyph-name="uni0446.loclBGR" horiz-adv-x="636" 
d="M541 138c0 -17 13 -30 30 -30h43v-233h-155v122c-33 3 -60 24 -72 54c-39 -41 -87 -66 -149 -66c-132 0 -192 89 -192 197v298h170v-275c0 -51 31 -75 73 -75c38 0 67 23 82 42v308h170v-342z" />
    <glyph glyph-name="uni0448.loclBGR" horiz-adv-x="867" 
d="M646 480h170v-480h-150v51c-25 -30 -79 -66 -148 -66c-72 0 -116 29 -142 66c-39 -36 -90 -66 -153 -66c-144 0 -177 116 -177 187v308h170v-293c0 -38 25 -57 55 -57c23 0 49 10 70 31v11v308h170v-293c0 -38 25 -57 55 -57c27 0 58 14 80 42v308z" />
    <glyph glyph-name="uni0449.loclBGR" horiz-adv-x="911" 
d="M816 138c0 -17 13 -30 30 -30h43v-233h-155v122c-32 3 -59 23 -71 51c-26 -30 -78 -63 -145 -63c-72 0 -116 29 -142 66c-39 -36 -90 -66 -153 -66c-144 0 -177 116 -177 187v308h170v-293c0 -38 25 -57 55 -57c23 0 49 10 70 31v11v308h170v-293c0 -38 25 -57 55 -57
c27 0 58 14 80 42v308h170v-342z" />
    <glyph glyph-name="uni044E.loclBGR" horiz-adv-x="843" 
d="M816 240c0 -170 -126 -255 -270 -255c-116 0 -225 63 -253 190h-72v-175h-170v700h170v-395h72c28 127 137 190 253 190c144 0 270 -85 270 -255zM451 240c0 -54 20 -115 95 -115s95 61 95 115s-20 115 -95 115s-95 -61 -95 -115z" />
    <glyph glyph-name="uni0430.ss01" horiz-adv-x="623" 
d="M422 65c-24 -40 -77 -80 -163 -80c-161 0 -232 131 -232 255s71 255 232 255c86 0 139 -40 163 -80v65h150v-480h-150v65zM202 240c0 -56 31 -115 103 -115c47 0 82 29 97 60v110c-15 31 -50 60 -97 60c-72 0 -103 -59 -103 -115z" />
    <glyph glyph-name="uni0437.ss01" horiz-adv-x="481" 
d="M417 313c0 -49 -15 -97 -72 -137c73 -29 123 -94 123 -181c0 -150 -126 -229 -271 -229c-70 0 -131 13 -185 40v142c46 -29 106 -46 159 -46c69 0 126 28 126 97c0 51 -38 99 -121 80l-58 -13v130l64 15c57 13 70 50 70 80c0 52 -43 72 -97 72c-48 0 -94 -16 -136 -41
v136c52 24 110 37 175 37c113 0 223 -59 223 -182z" />
    <glyph glyph-name="uni0443.ss01" 
d="M541 0c0 -154 -116 -235 -279 -235c-72 0 -144 17 -197 45v145c47 -32 114 -50 174 -50c72 0 132 23 132 105v26c-36 -32 -79 -51 -133 -51c-132 0 -192 89 -192 197v298h170v-275c0 -51 31 -75 73 -75c38 0 67 23 82 42v308h170v-480z" />
    <glyph glyph-name="zero" unicode="0" horiz-adv-x="708" 
d="M39 340c0 194 93 355 315 355s315 -161 315 -355s-93 -355 -315 -355s-315 161 -315 355zM484 340c0 131 -41 195 -130 195s-130 -64 -130 -195s41 -195 130 -195s130 64 130 195z" />
    <glyph glyph-name="one" unicode="1" horiz-adv-x="478" 
d="M215 680h135v-525h106v-155h-406v155h120v342l-120 -45v165z" />
    <glyph glyph-name="two" unicode="2" horiz-adv-x="608" 
d="M60 620c72 51 156 75 243 75c136 0 257 -60 257 -211c0 -115 -94 -183 -180 -235c-73 -44 -130 -76 -130 -94h315v-155h-527v81c0 164 125 228 222 285c63 37 115 56 115 108c0 41 -37 61 -89 61c-68 0 -152 -27 -226 -85v170z" />
    <glyph glyph-name="three" unicode="3" horiz-adv-x="604" 
d="M538 506c0 -71 -38 -121 -105 -144c75 -23 133 -78 133 -176c0 -149 -142 -201 -285 -201c-82 0 -152 13 -235 46v170c82 -47 149 -57 220 -56c66 1 124 21 124 71c0 40 -37 56 -93 56h-116l1 155l94 -1c49 -1 87 12 87 51c0 38 -36 58 -105 58c-56 0 -133 -21 -200 -66
v170c61 35 143 56 225 56c143 0 255 -58 255 -189z" />
    <glyph glyph-name="four" unicode="4" horiz-adv-x="666" 
d="M362 680h180v-420h90v-150h-90v-110h-175v110h-345v150zM367 260v199l-161 -199h161z" />
    <glyph glyph-name="five" unicode="5" horiz-adv-x="598" 
d="M88 681h445v-155l-279 1l-7 -100c25 4 50 6 73 6c139 0 243 -63 243 -216c0 -168 -149 -232 -301 -232c-79 0 -158 17 -219 46v170c53 -37 133 -56 199 -56c77 0 136 23 136 76c0 43 -35 76 -146 77c-43 0 -105 -6 -168 -28z" />
    <glyph glyph-name="six" unicode="6" horiz-adv-x="661" 
d="M226 412c52 25 102 37 162 37c127 0 240 -76 240 -224c0 -161 -126 -240 -269 -240c-231 0 -319 135 -319 361c0 248 158 349 330 349c67 0 137 -15 200 -43v-160c-46 32 -109 53 -170 53c-80 0 -153 -26 -174 -133zM224 270c13 -115 59 -140 120 -140c52 0 99 26 99 86
c0 62 -54 83 -114 83c-34 0 -70 -10 -105 -29z" />
    <glyph glyph-name="seven" unicode="7" horiz-adv-x="582" 
d="M25 681h540v-125l-276 -556h-200l261 526h-325v155z" />
    <glyph glyph-name="eight" unicode="8" horiz-adv-x="664" 
d="M62 500c0 94 78 195 270 195c182 0 270 -101 270 -195c0 -68 -33 -110 -83 -148c61 -31 108 -79 108 -162c0 -104 -83 -205 -295 -205s-295 101 -295 205c0 72 46 132 101 165c-45 32 -76 76 -76 145zM352 266c-31 12 -68 23 -104 36c-20 -29 -28 -63 -27 -89
c2 -46 37 -88 125 -88c55 0 96 24 96 61c0 42 -38 60 -90 80zM426 491c-1 36 -34 64 -103 64c-55 0 -86 -27 -86 -56c0 -46 45 -64 105 -84c17 -5 34 -11 52 -16c22 31 33 66 32 92z" />
    <glyph glyph-name="nine" unicode="9" horiz-adv-x="661" 
d="M33 455c0 161 126 240 269 240c231 0 319 -135 319 -361c0 -248 -158 -349 -330 -349c-67 0 -137 15 -200 43v160c46 -32 109 -53 170 -53c80 0 153 26 174 133c-52 -25 -102 -37 -162 -37c-127 0 -240 76 -240 224zM317 550c-52 0 -99 -26 -99 -86c0 -62 54 -83 114 -83
c34 0 70 10 105 29c-13 115 -59 140 -120 140z" />
    <glyph glyph-name="zero.osf" horiz-adv-x="678" 
d="M644 260c0 -134 -98 -275 -305 -275s-305 141 -305 275s98 275 305 275s305 -141 305 -275zM219 260c0 -61 41 -115 120 -115s120 54 120 115s-41 115 -120 115s-120 -54 -120 -115z" />
    <glyph glyph-name="one.osf" horiz-adv-x="480" 
d="M214 520h135v-365h106v-155h-406v155h120v182l-120 -45v165z" />
    <glyph glyph-name="two.osf" horiz-adv-x="569" 
d="M524 0h-487v71c0 112 98 138 185 178c70 32 112 51 112 86c0 28 -27 40 -69 40c-48 0 -130 -19 -206 -65v170c72 37 146 55 233 55c116 0 227 -55 227 -181c0 -81 -44 -120 -101 -150c-44 -23 -85 -39 -119 -49h225v-155z" />
    <glyph glyph-name="three.osf" horiz-adv-x="563" 
d="M502 346c0 -71 -38 -121 -105 -144c75 -23 133 -78 133 -176c0 -149 -142 -201 -275 -201c-72 0 -132 11 -215 42v165c82 -40 139 -48 200 -47c56 1 114 21 114 71c0 40 -37 56 -83 56h-106l1 155l84 -1c39 0 77 12 77 51c0 38 -36 58 -95 58c-52 0 -113 -14 -180 -47
v164c61 29 127 43 205 43c133 0 245 -58 245 -189z" />
    <glyph glyph-name="four.osf" horiz-adv-x="626" 
d="M329 520h180v-420h90v-150h-90v-110h-175v110h-315v150zM334 100v184l-136 -184h136z" />
    <glyph glyph-name="five.osf" horiz-adv-x="556" 
d="M82 521h415v-155l-249 1l-7 -100c20 4 40 6 63 6c119 0 223 -63 223 -216c0 -168 -149 -232 -281 -232c-79 0 -148 12 -209 41v165c53 -32 123 -46 189 -46c57 0 116 23 116 76c0 43 -35 77 -126 77c-33 0 -95 -6 -158 -28z" />
    <glyph glyph-name="six.osf" horiz-adv-x="634" 
d="M234 422c42 18 86 27 138 27c117 0 230 -81 230 -229c0 -161 -126 -235 -264 -235c-206 0 -299 135 -299 351c0 258 173 359 325 359c69 0 129 -14 180 -42v-151c-41 27 -93 43 -150 43c-60 0 -133 -24 -160 -123zM227 275c10 -112 52 -145 105 -145c42 0 85 26 85 86
c0 62 -54 83 -94 83c-37 0 -68 -8 -96 -24z" />
    <glyph glyph-name="seven.osf" horiz-adv-x="534" 
d="M21 521h500v-125l-256 -556h-200l242 526h-286v155z" />
    <glyph glyph-name="eight.osf" horiz-adv-x="634" 
d="M62 500c0 94 78 195 255 195c167 0 255 -101 255 -195c0 -68 -33 -110 -83 -148c61 -31 108 -79 108 -162c0 -104 -83 -205 -280 -205s-280 101 -280 205c0 72 46 132 101 165c-45 32 -76 76 -76 145zM326 274c-24 8 -51 17 -78 28c-20 -29 -29 -63 -28 -89
c2 -46 31 -84 101 -84c61 0 91 27 91 63c0 47 -30 63 -86 82zM396 491c-1 36 -34 64 -81 64c-56 0 -78 -30 -78 -61c0 -33 18 -57 73 -78c15 -6 33 -11 54 -17c22 31 33 66 32 92z" />
    <glyph glyph-name="nine.osf" horiz-adv-x="623" 
d="M25 300c0 161 126 235 264 235c206 0 299 -135 299 -351c0 -258 -173 -359 -325 -359c-69 0 -129 14 -180 42v151c41 -27 93 -43 150 -43c60 0 133 24 160 123c-42 -18 -86 -27 -138 -27c-117 0 -230 81 -230 229zM295 390c-42 0 -85 -26 -85 -86c0 -62 54 -83 94 -83
c37 0 68 8 96 24c-10 112 -52 145 -105 145z" />
    <glyph glyph-name="zero.sinf" horiz-adv-x="430" 
d="M404 104c0 -116 -56 -213 -189 -213s-189 97 -189 213s56 213 189 213s189 -97 189 -213zM137 104c0 -79 25 -117 78 -117s78 38 78 117s-25 117 -78 117s-78 -38 -78 -117z" />
    <glyph glyph-name="one.sinf" horiz-adv-x="321" 
d="M149 308h80v-315h78v-93h-276v93h90v205l-88 -27v99z" />
    <glyph glyph-name="two.sinf" horiz-adv-x="368" 
d="M38 272c43 31 94 45 146 45c82 0 154 -36 154 -127c0 -69 -56 -110 -108 -141c-44 -26 -78 -45 -78 -56h186v-93h-313v49c0 98 75 137 133 171c38 22 69 33 69 64c0 25 -22 37 -53 37c-41 0 -91 -16 -136 -51v102z" />
    <glyph glyph-name="three.sinf" horiz-adv-x="366" 
d="M324 204c0 -43 -23 -73 -63 -87c45 -14 80 -47 80 -105c0 -90 -85 -121 -171 -121c-49 0 -91 8 -141 28v102c49 -29 89 -35 132 -34c40 1 74 13 74 43c0 24 -22 33 -55 33h-70l1 93h56c29 -1 52 7 52 30s-21 35 -63 35c-33 0 -80 -13 -120 -40v102c37 21 86 34 135 34
c86 0 153 -35 153 -113z" />
    <glyph glyph-name="four.sinf" horiz-adv-x="403" 
d="M219 308h108v-252h54v-90h-54v-66h-105v66h-207v90zM222 56v119l-97 -119h97z" />
    <glyph glyph-name="five.sinf" horiz-adv-x="363" 
d="M55 309h267v-93h-167l-5 -60c15 3 30 4 44 4c84 0 146 -38 146 -130c0 -101 -89 -139 -181 -139c-47 0 -94 10 -131 28v102c32 -23 80 -34 119 -34c47 0 82 14 82 46c0 25 -21 46 -88 46c-26 0 -63 -4 -100 -17z" />
    <glyph glyph-name="six.sinf" horiz-adv-x="401" 
d="M137 147c32 15 62 22 98 22c76 0 144 -45 144 -134c0 -97 -76 -144 -162 -144c-138 0 -191 81 -191 217c0 148 95 209 198 209c40 0 82 -9 120 -26v-96c-28 19 -65 32 -102 32c-47 0 -92 -16 -105 -80zM136 62c8 -69 36 -84 72 -84c32 0 60 16 60 52c0 37 -33 49 -69 49
c-20 0 -41 -6 -63 -17z" />
    <glyph glyph-name="seven.sinf" horiz-adv-x="345" 
d="M174 -100h-120l152 316h-190v93h318v-75z" />
    <glyph glyph-name="eight.sinf" horiz-adv-x="404" 
d="M40 200c0 56 47 117 162 117c109 0 162 -61 162 -117c0 -41 -20 -66 -50 -89c37 -19 65 -47 65 -97c0 -62 -50 -123 -177 -123s-177 61 -177 123c0 43 27 79 60 99c-26 19 -45 46 -45 87zM214 60c-19 7 -41 13 -62 21c-13 -17 -18 -37 -17 -53c1 -28 23 -53 75 -53
c33 0 58 14 58 37c0 25 -23 36 -54 48zM258 195c-1 22 -20 38 -61 38c-33 0 -52 -16 -52 -34c0 -27 27 -38 63 -50c10 -3 20 -7 31 -10c13 19 20 40 19 56z" />
    <glyph glyph-name="nine.sinf" horiz-adv-x="401" 
d="M22 173c0 97 76 144 161 144c139 0 192 -81 192 -217c0 -148 -95 -209 -198 -209c-40 0 -82 9 -120 26v96c27 -19 65 -32 102 -32c47 0 92 16 105 80c-32 -15 -62 -22 -98 -22c-76 0 -144 45 -144 134zM192 230c-31 0 -59 -16 -59 -52c0 -37 32 -49 68 -49
c21 0 42 6 64 17c-8 69 -36 84 -73 84z" />
    <glyph glyph-name="zero.sups" horiz-adv-x="430" 
d="M404 582c0 -116 -56 -213 -189 -213s-189 97 -189 213s56 213 189 213s189 -97 189 -213zM137 582c0 -79 25 -117 78 -117s78 38 78 117s-25 117 -78 117s-78 -38 -78 -117z" />
    <glyph glyph-name="one.sups" horiz-adv-x="321" 
d="M149 780h80v-315h78v-93h-276v93h90v205l-88 -27v99z" />
    <glyph glyph-name="two.sups" horiz-adv-x="368" 
d="M38 750c43 31 94 45 146 45c82 0 154 -36 154 -127c0 -69 -56 -110 -108 -141c-44 -26 -78 -45 -78 -56h186v-93h-313v49c0 98 75 137 133 171c38 22 69 33 69 64c0 25 -22 37 -53 37c-41 0 -91 -16 -136 -51v102z" />
    <glyph glyph-name="three.sups" horiz-adv-x="366" 
d="M324 682c0 -43 -23 -73 -63 -87c45 -14 80 -47 80 -105c0 -90 -85 -121 -171 -121c-49 0 -91 8 -141 28v102c49 -29 89 -35 132 -34c40 1 74 13 74 43c0 24 -22 33 -55 33h-70l1 93h56c29 -1 52 7 52 30s-21 35 -63 35c-33 0 -80 -13 -120 -40v102c37 21 86 34 135 34
c86 0 153 -35 153 -113z" />
    <glyph glyph-name="four.sups" horiz-adv-x="403" 
d="M219 780h108v-252h54v-90h-54v-66h-105v66h-207v90zM222 528v119l-97 -119h97z" />
    <glyph glyph-name="five.sups" horiz-adv-x="363" 
d="M55 780h267v-93h-167l-5 -60c15 3 30 4 44 4c84 0 146 -38 146 -130c0 -101 -89 -139 -181 -139c-47 0 -94 10 -131 28v102c32 -23 80 -34 119 -34c47 0 82 14 82 46c0 25 -21 46 -88 46c-26 0 -63 -4 -100 -17z" />
    <glyph glyph-name="six.sups" horiz-adv-x="400" 
d="M137 625c32 15 62 22 98 22c76 0 144 -45 144 -134c0 -97 -76 -144 -162 -144c-138 0 -191 81 -191 217c0 148 95 209 198 209c40 0 82 -9 120 -26v-96c-28 19 -65 32 -102 32c-47 0 -92 -16 -105 -80zM136 540c8 -69 36 -84 72 -84c32 0 60 16 60 52c0 37 -33 49 -69 49
c-20 0 -41 -6 -63 -17z" />
    <glyph glyph-name="seven.sups" horiz-adv-x="345" 
d="M174 371h-120l152 316h-190v93h318v-75z" />
    <glyph glyph-name="eight.sups" horiz-adv-x="404" 
d="M40 678c0 56 47 117 162 117c109 0 162 -61 162 -117c0 -41 -20 -66 -50 -89c37 -19 65 -47 65 -97c0 -62 -50 -123 -177 -123s-177 61 -177 123c0 43 27 79 60 99c-26 19 -45 46 -45 87zM214 538c-19 7 -41 13 -62 21c-13 -17 -18 -37 -17 -53c1 -28 23 -53 75 -53
c33 0 58 14 58 37c0 25 -23 36 -54 48zM258 673c-1 22 -20 38 -61 38c-33 0 -52 -16 -52 -34c0 -27 27 -38 63 -50c10 -3 20 -7 31 -10c13 19 20 40 19 56z" />
    <glyph glyph-name="nine.sups" horiz-adv-x="400" 
d="M21 651c0 97 76 144 161 144c139 0 192 -81 192 -217c0 -148 -95 -209 -198 -209c-40 0 -82 9 -120 26v96c27 -19 65 -32 102 -32c47 0 92 16 105 80c-32 -15 -62 -22 -98 -22c-76 0 -144 45 -144 134zM191 708c-31 0 -59 -16 -59 -52c0 -37 32 -49 68 -49
c21 0 42 6 64 17c-8 69 -36 84 -73 84z" />
    <glyph glyph-name="zero.tf" horiz-adv-x="650" 
d="M630 340c0 -194 -93 -355 -305 -355s-305 161 -305 355s93 355 305 355s305 -161 305 -355zM205 340c0 -131 41 -195 120 -195s120 64 120 195s-41 195 -120 195s-120 -64 -120 -195z" />
    <glyph glyph-name="one.tf" horiz-adv-x="650" 
d="M295 680h135v-525h190v-155h-570v155h200v342l-166 -64v165z" />
    <glyph glyph-name="two.tf" horiz-adv-x="650" 
d="M74 620c82 51 154 75 251 75c136 0 257 -60 257 -211c0 -115 -94 -183 -180 -235c-73 -44 -138 -76 -138 -94h333v-155h-545v81c0 164 133 228 230 285c63 37 115 56 115 108c0 41 -37 61 -89 61c-78 0 -150 -27 -234 -85v170z" />
    <glyph glyph-name="three.tf" horiz-adv-x="650" 
d="M571 506c0 -71 -38 -121 -105 -144c75 -23 133 -78 133 -176c0 -149 -142 -201 -295 -201c-92 0 -162 13 -245 46v170c82 -47 149 -57 230 -56c76 1 134 21 134 71c0 40 -37 56 -93 56h-116l1 155l94 -1c49 -1 87 12 87 51c0 38 -36 58 -115 58c-66 0 -143 -21 -210 -66
v170c61 35 143 56 235 56c153 0 265 -58 265 -189z" />
    <glyph glyph-name="four.tf" horiz-adv-x="650" 
d="M354 680h180v-420h90v-150h-90v-110h-175v110h-345v150zM359 260v199l-161 -199h161z" />
    <glyph glyph-name="five.tf" horiz-adv-x="650" 
d="M104 681h465v-155l-299 1l-7 -102c35 6 70 8 93 8c139 0 243 -63 243 -216c0 -168 -149 -232 -311 -232c-89 0 -168 17 -229 46v170c53 -37 133 -56 209 -56c87 0 146 23 146 76c0 43 -35 77 -156 77c-53 0 -115 -6 -178 -28z" />
    <glyph glyph-name="six.tf" horiz-adv-x="650" 
d="M220 412c52 25 102 37 162 37c127 0 240 -76 240 -224c0 -161 -126 -240 -269 -240c-231 0 -319 135 -319 351c0 258 158 359 330 359c67 0 137 -15 200 -43v-160c-46 32 -109 53 -170 53c-80 0 -153 -26 -174 -133zM218 270c13 -115 59 -140 120 -140c52 0 99 26 99 86
c0 62 -54 83 -114 83c-34 0 -70 -10 -105 -29z" />
    <glyph glyph-name="seven.tf" horiz-adv-x="650" 
d="M43 681h570v-125l-286 -556h-200l271 526h-355v155z" />
    <glyph glyph-name="eight.tf" horiz-adv-x="650" 
d="M55 500c0 94 78 195 270 195c182 0 270 -101 270 -195c0 -68 -33 -110 -83 -148c61 -31 108 -79 108 -162c0 -104 -83 -205 -295 -205s-295 101 -295 205c0 72 46 132 101 165c-45 32 -76 76 -76 145zM345 266c-31 12 -68 23 -104 36c-20 -29 -28 -63 -27 -89
c2 -46 37 -88 125 -88c55 0 96 24 96 61c0 42 -38 60 -90 80zM419 491c-1 36 -34 64 -103 64c-55 0 -86 -27 -86 -56c0 -46 45 -64 105 -84c17 -5 34 -11 52 -16c22 31 33 66 32 92z" />
    <glyph glyph-name="nine.tf" horiz-adv-x="650" 
d="M28 455c0 161 126 240 269 240c231 0 319 -135 319 -361c0 -248 -158 -349 -330 -349c-67 0 -137 15 -200 43v160c46 -32 109 -53 170 -53c80 0 153 26 174 133c-52 -25 -102 -37 -162 -37c-127 0 -240 76 -240 224zM312 550c-52 0 -99 -26 -99 -86c0 -62 54 -83 114 -83
c34 0 70 10 105 29c-13 115 -59 140 -120 140z" />
    <glyph glyph-name="zero.tosf" horiz-adv-x="650" 
d="M630 260c0 -134 -98 -275 -305 -275s-305 141 -305 275s98 275 305 275s305 -141 305 -275zM205 260c0 -61 41 -115 120 -115s120 54 120 115s-41 115 -120 115s-120 -54 -120 -115z" />
    <glyph glyph-name="one.tosf" horiz-adv-x="650" 
d="M292 520h135v-365h190v-155h-570v155h200v182l-166 -64v165z" />
    <glyph glyph-name="two.tosf" horiz-adv-x="650" 
d="M594 0h-545v71c0 112 127 163 225 192c77 23 130 43 130 76c0 30 -45 36 -97 36c-68 0 -160 -29 -236 -80v170c74 44 156 70 253 70c154 0 265 -55 265 -191c0 -73 -44 -116 -101 -144c-44 -22 -95 -35 -167 -45h273v-155z" />
    <glyph glyph-name="three.tosf" horiz-adv-x="650" 
d="M571 346c0 -71 -38 -121 -105 -144c75 -23 133 -78 133 -176c0 -149 -142 -201 -295 -201c-92 0 -162 13 -245 46v170c82 -47 149 -57 230 -56c76 1 134 21 134 71c0 40 -37 56 -93 56h-116l1 155l94 -1c49 -1 87 12 87 51c0 38 -36 58 -115 58c-66 0 -143 -21 -210 -66
v170c61 35 143 56 235 56c153 0 265 -58 265 -189z" />
    <glyph glyph-name="four.tosf" horiz-adv-x="650" 
d="M356 520h180v-420h90v-150h-90v-110h-175v110h-345v150zM361 100v199l-161 -199h161z" />
    <glyph glyph-name="five.tosf" horiz-adv-x="650" 
d="M104 521h465v-155l-299 1l-7 -102c35 6 70 8 93 8c139 0 243 -63 243 -216c0 -168 -149 -232 -311 -232c-89 0 -168 17 -229 46v170c53 -37 133 -56 209 -56c87 0 146 23 146 76c0 43 -35 77 -156 77c-53 0 -115 -6 -178 -28z" />
    <glyph glyph-name="six.tosf" horiz-adv-x="650" 
d="M220 412c52 25 102 37 162 37c127 0 240 -76 240 -224c0 -161 -126 -240 -269 -240c-231 0 -319 135 -319 361c0 248 158 349 330 349c67 0 137 -15 200 -43v-160c-46 32 -109 53 -170 53c-80 0 -153 -26 -174 -133zM218 270c13 -115 59 -140 120 -140c52 0 99 26 99 86
c0 62 -54 83 -114 83c-34 0 -70 -10 -105 -29z" />
    <glyph glyph-name="seven.tosf" horiz-adv-x="650" 
d="M43 521h570v-125l-286 -556h-200l271 526h-355v155z" />
    <glyph glyph-name="eight.tosf" horiz-adv-x="650" 
d="M55 500c0 94 78 195 270 195c182 0 270 -101 270 -195c0 -68 -33 -110 -83 -148c61 -31 108 -79 108 -162c0 -104 -83 -205 -295 -205s-295 101 -295 205c0 72 46 132 101 165c-45 32 -76 76 -76 145zM345 266c-31 12 -68 23 -104 36c-20 -29 -28 -63 -27 -89
c2 -46 37 -88 125 -88c55 0 96 24 96 61c0 42 -38 60 -90 80zM419 491c-1 36 -34 64 -103 64c-55 0 -86 -27 -86 -56c0 -46 45 -64 105 -84c17 -5 34 -11 52 -16c22 31 33 66 32 92z" />
    <glyph glyph-name="nine.tosf" horiz-adv-x="650" 
d="M26 295c0 161 126 240 269 240c231 0 319 -135 319 -361c0 -248 -158 -349 -330 -349c-67 0 -137 15 -200 43v160c46 -32 109 -53 170 -53c80 0 153 26 174 133c-52 -25 -102 -37 -162 -37c-127 0 -240 76 -240 224zM310 390c-52 0 -99 -26 -99 -86c0 -62 54 -83 114 -83
c34 0 70 10 105 29c-13 115 -59 140 -120 140z" />
    <glyph glyph-name="fraction" unicode="&#x2044;" horiz-adv-x="187" 
d="M-109 -15h-50l458 730h50z" />
    <glyph glyph-name="onehalf" unicode="&#xbd;" horiz-adv-x="880" 
d="M237 -15h-50l458 730h50zM548 372c43 31 94 45 146 45c82 0 154 -36 154 -127c0 -69 -56 -110 -108 -141c-44 -26 -78 -45 -78 -56h186v-93h-313v49c0 98 75 137 133 171c38 22 69 33 69 64c0 25 -22 37 -53 37c-41 0 -91 -16 -136 -51v102zM157 680h80v-315h78v-93h-276
v93h90v205l-88 -27v99z" />
    <glyph glyph-name="onequarter" unicode="&#xbc;" horiz-adv-x="915" 
d="M724 408h108v-252h54v-90h-54v-66h-105v66h-207v90zM727 156v119l-97 -119h97zM242 -15h-50l458 730h50zM162 680h80v-315h78v-93h-276v93h90v205l-88 -27v99z" />
    <glyph glyph-name="threequarters" unicode="&#xbe;" horiz-adv-x="969" 
d="M296 -15h-50l458 730h50zM778 408h108v-252h54v-90h-54v-66h-105v66h-207v90zM781 156v119l-97 -119h97zM334 582c0 -43 -23 -73 -63 -87c45 -14 80 -47 80 -105c0 -90 -85 -121 -171 -121c-49 0 -91 8 -141 28v102c49 -29 89 -35 132 -34c40 1 74 13 74 43
c0 24 -22 33 -55 33h-70l1 93h56c29 -1 52 7 52 30s-21 35 -63 35c-33 0 -80 -13 -120 -40v102c37 21 86 34 135 34c86 0 153 -35 153 -113z" />
    <glyph glyph-name="oneeighth" unicode="&#x215b;" horiz-adv-x="912" 
d="M544 300c0 56 47 117 162 117c109 0 162 -61 162 -117c0 -41 -20 -66 -50 -89c37 -19 65 -47 65 -97c0 -62 -50 -123 -177 -123s-177 61 -177 123c0 43 27 79 60 99c-26 19 -45 46 -45 87zM718 160c-19 7 -41 13 -62 21c-13 -17 -18 -37 -17 -53c1 -28 23 -53 75 -53
c33 0 58 14 58 37c0 25 -23 36 -54 48zM762 295c-1 22 -20 38 -61 38c-33 0 -52 -16 -52 -34c0 -27 27 -38 63 -50c10 -3 20 -7 31 -10c13 19 20 40 19 56zM241 -15h-50l458 730h50zM161 680h80v-315h78v-93h-276v93h90v205l-88 -27v99z" />
    <glyph glyph-name="threeeighths" unicode="&#x215c;" horiz-adv-x="909" 
d="M540 300c0 56 47 117 162 117c109 0 162 -61 162 -117c0 -41 -20 -66 -50 -89c37 -19 65 -47 65 -97c0 -62 -50 -123 -177 -123s-177 61 -177 123c0 43 27 79 60 99c-26 19 -45 46 -45 87zM714 160c-19 7 -41 13 -62 21c-13 -17 -18 -37 -17 -53c1 -28 23 -53 75 -53
c33 0 58 14 58 37c0 25 -23 36 -54 48zM758 295c-1 22 -20 38 -61 38c-33 0 -52 -16 -52 -34c0 -27 27 -38 63 -50c10 -3 20 -7 31 -10c13 19 20 40 19 56zM247 -15h-50l458 730h50zM334 582c0 -43 -23 -73 -63 -87c45 -14 80 -47 80 -105c0 -90 -85 -121 -171 -121
c-49 0 -91 8 -141 28v102c49 -29 89 -35 132 -34c40 1 74 13 74 43c0 24 -22 33 -55 33h-70l1 93h56c29 -1 52 7 52 30s-21 35 -63 35c-33 0 -80 -13 -120 -40v102c37 21 86 34 135 34c86 0 153 -35 153 -113z" />
    <glyph glyph-name="fiveeighths" unicode="&#x215d;" horiz-adv-x="913" 
d="M544 300c0 56 47 117 162 117c109 0 162 -61 162 -117c0 -41 -20 -66 -50 -89c37 -19 65 -47 65 -97c0 -62 -50 -123 -177 -123s-177 61 -177 123c0 43 27 79 60 99c-26 19 -45 46 -45 87zM718 160c-19 7 -41 13 -62 21c-13 -17 -18 -37 -17 -53c1 -28 23 -53 75 -53
c33 0 58 14 58 37c0 25 -23 36 -54 48zM762 295c-1 22 -20 38 -61 38c-33 0 -52 -16 -52 -34c0 -27 27 -38 63 -50c10 -3 20 -7 31 -10c13 19 20 40 19 56zM251 -15h-50l458 730h50zM63 680h267v-93h-167l-5 -60c15 3 30 4 44 4c84 0 146 -38 146 -130
c0 -101 -89 -139 -181 -139c-47 0 -94 10 -131 28v102c32 -23 80 -34 119 -34c47 0 82 14 82 46c0 25 -21 46 -88 46c-26 0 -63 -4 -100 -17z" />
    <glyph glyph-name="seveneighths" unicode="&#x215e;" horiz-adv-x="845" 
d="M169 -15h-50l458 730h50zM477 300c0 56 47 117 162 117c109 0 162 -61 162 -117c0 -41 -20 -66 -50 -89c37 -19 65 -47 65 -97c0 -62 -50 -123 -177 -123s-177 61 -177 123c0 43 27 79 60 99c-26 19 -45 46 -45 87zM651 160c-19 7 -41 13 -62 21c-13 -17 -18 -37 -17 -53
c1 -28 23 -53 75 -53c33 0 58 14 58 37c0 25 -23 36 -54 48zM695 295c-1 22 -20 38 -61 38c-33 0 -52 -16 -52 -34c0 -27 27 -38 63 -50c10 -3 20 -7 31 -10c13 19 20 40 19 56zM190 271h-120l152 316h-190v93h318v-75z" />
    <glyph glyph-name="zero.dnom" horiz-adv-x="430" 
d="M404 204c0 -116 -56 -213 -189 -213s-189 97 -189 213s56 213 189 213s189 -97 189 -213zM137 204c0 -79 25 -117 78 -117s78 38 78 117s-25 117 -78 117s-78 -38 -78 -117z" />
    <glyph glyph-name="one.dnom" horiz-adv-x="321" 
d="M149 408h80v-315h78v-93h-276v93h90v205l-88 -27v99z" />
    <glyph glyph-name="two.dnom" horiz-adv-x="368" 
d="M38 372c43 31 94 45 146 45c82 0 154 -36 154 -127c0 -69 -56 -110 -108 -141c-44 -26 -78 -45 -78 -56h186v-93h-313v49c0 98 75 137 133 171c38 22 69 33 69 64c0 25 -22 37 -53 37c-41 0 -91 -16 -136 -51v102z" />
    <glyph glyph-name="three.dnom" horiz-adv-x="366" 
d="M324 304c0 -43 -23 -73 -63 -87c45 -14 80 -47 80 -105c0 -90 -85 -121 -171 -121c-49 0 -91 8 -141 28v102c49 -29 89 -35 132 -34c40 1 74 13 74 43c0 24 -22 33 -55 33h-70l1 93h56c29 -1 52 7 52 30s-21 35 -63 35c-33 0 -80 -13 -120 -40v102c37 21 86 34 135 34
c86 0 153 -35 153 -113z" />
    <glyph glyph-name="four.dnom" horiz-adv-x="403" 
d="M219 408h108v-252h54v-90h-54v-66h-105v66h-207v90zM222 156v119l-97 -119h97z" />
    <glyph glyph-name="five.dnom" horiz-adv-x="363" 
d="M55 409h267v-93h-167l-5 -60c15 3 30 4 44 4c84 0 146 -38 146 -130c0 -101 -89 -139 -181 -139c-47 0 -94 10 -131 28v102c32 -23 80 -34 119 -34c47 0 82 14 82 46c0 25 -21 46 -88 46c-26 0 -63 -4 -100 -17z" />
    <glyph glyph-name="six.dnom" horiz-adv-x="401" 
d="M137 247c32 15 62 22 98 22c76 0 144 -45 144 -134c0 -97 -76 -144 -162 -144c-138 0 -191 81 -191 217c0 148 95 209 198 209c40 0 82 -9 120 -26v-96c-28 19 -65 32 -102 32c-47 0 -92 -16 -105 -80zM136 162c8 -69 36 -84 72 -84c32 0 60 16 60 52c0 37 -33 49 -69 49
c-20 0 -41 -6 -63 -17z" />
    <glyph glyph-name="seven.dnom" horiz-adv-x="345" 
d="M174 0h-120l152 316h-190v93h318v-75z" />
    <glyph glyph-name="eight.dnom" horiz-adv-x="403" 
d="M39 300c0 56 47 117 162 117c109 0 162 -61 162 -117c0 -41 -20 -66 -50 -89c37 -19 65 -47 65 -97c0 -62 -50 -123 -177 -123s-177 61 -177 123c0 43 27 79 60 99c-26 19 -45 46 -45 87zM213 160c-19 7 -41 13 -62 21c-13 -17 -18 -37 -17 -53c1 -28 23 -53 75 -53
c33 0 58 14 58 37c0 25 -23 36 -54 48zM257 295c-1 22 -20 38 -61 38c-33 0 -52 -16 -52 -34c0 -27 27 -38 63 -50c10 -3 20 -7 31 -10c13 19 20 40 19 56z" />
    <glyph glyph-name="nine.dnom" horiz-adv-x="401" 
d="M22 273c0 97 76 144 161 144c139 0 192 -81 192 -217c0 -148 -95 -209 -198 -209c-40 0 -82 9 -120 26v96c27 -19 65 -32 102 -32c47 0 92 16 105 80c-32 -15 -62 -22 -98 -22c-76 0 -144 45 -144 134zM192 330c-31 0 -59 -16 -59 -52c0 -37 32 -49 68 -49
c21 0 42 6 64 17c-8 69 -36 84 -73 84z" />
    <glyph glyph-name="zero.numr" horiz-adv-x="430" 
d="M404 482c0 -116 -56 -213 -189 -213s-189 97 -189 213s56 213 189 213s189 -97 189 -213zM137 482c0 -79 25 -117 78 -117s78 38 78 117s-25 117 -78 117s-78 -38 -78 -117z" />
    <glyph glyph-name="one.numr" horiz-adv-x="321" 
d="M149 680h80v-315h78v-93h-276v93h90v205l-88 -27v99z" />
    <glyph glyph-name="two.numr" horiz-adv-x="368" 
d="M38 650c43 31 94 45 146 45c82 0 154 -36 154 -127c0 -69 -56 -110 -108 -141c-44 -26 -78 -45 -78 -56h186v-93h-313v49c0 98 75 137 133 171c38 22 69 33 69 64c0 25 -22 37 -53 37c-41 0 -91 -16 -136 -51v102z" />
    <glyph glyph-name="three.numr" horiz-adv-x="366" 
d="M324 582c0 -43 -23 -73 -63 -87c45 -14 80 -47 80 -105c0 -90 -85 -121 -171 -121c-49 0 -91 8 -141 28v102c49 -29 89 -35 132 -34c40 1 74 13 74 43c0 24 -22 33 -55 33h-70l1 93h56c29 -1 52 7 52 30s-21 35 -63 35c-33 0 -80 -13 -120 -40v102c37 21 86 34 135 34
c86 0 153 -35 153 -113z" />
    <glyph glyph-name="four.numr" horiz-adv-x="403" 
d="M219 680h108v-252h54v-90h-54v-66h-105v66h-207v90zM222 428v119l-97 -119h97z" />
    <glyph glyph-name="five.numr" horiz-adv-x="363" 
d="M55 680h267v-93h-167l-5 -60c15 3 30 4 44 4c84 0 146 -38 146 -130c0 -101 -89 -139 -181 -139c-47 0 -94 10 -131 28v102c32 -23 80 -34 119 -34c47 0 82 14 82 46c0 25 -21 46 -88 46c-26 0 -63 -4 -100 -17z" />
    <glyph glyph-name="six.numr" horiz-adv-x="400" 
d="M137 525c32 15 62 22 98 22c76 0 144 -45 144 -134c0 -97 -76 -144 -162 -144c-138 0 -191 81 -191 217c0 148 95 209 198 209c40 0 82 -9 120 -26v-96c-28 19 -65 32 -102 32c-47 0 -92 -16 -105 -80zM136 440c8 -69 36 -84 72 -84c32 0 60 16 60 52c0 37 -33 49 -69 49
c-20 0 -41 -6 -63 -17z" />
    <glyph glyph-name="seven.numr" horiz-adv-x="345" 
d="M174 271h-120l152 316h-190v93h318v-75z" />
    <glyph glyph-name="eight.numr" horiz-adv-x="404" 
d="M40 578c0 56 47 117 162 117c109 0 162 -61 162 -117c0 -41 -20 -66 -50 -89c37 -19 65 -47 65 -97c0 -62 -50 -123 -177 -123s-177 61 -177 123c0 43 27 79 60 99c-26 19 -45 46 -45 87zM214 438c-19 7 -41 13 -62 21c-13 -17 -18 -37 -17 -53c1 -28 23 -53 75 -53
c33 0 58 14 58 37c0 25 -23 36 -54 48zM258 573c-1 22 -20 38 -61 38c-33 0 -52 -16 -52 -34c0 -27 27 -38 63 -50c10 -3 20 -7 31 -10c13 19 20 40 19 56z" />
    <glyph glyph-name="nine.numr" horiz-adv-x="400" 
d="M21 551c0 97 76 144 161 144c139 0 192 -81 192 -217c0 -148 -95 -209 -198 -209c-40 0 -82 9 -120 26v96c27 -19 65 -32 102 -32c47 0 92 16 105 80c-32 -15 -62 -22 -98 -22c-76 0 -144 45 -144 134zM191 608c-31 0 -59 -16 -59 -52c0 -37 32 -49 68 -49
c21 0 42 6 64 17c-8 69 -36 84 -73 84z" />
    <glyph glyph-name="asterisk" unicode="*" horiz-adv-x="502" 
d="M251 419l-59 -124l-131 92l88 81l-120 21l54 150l108 -61l-20 122h160l-20 -122l108 61l54 -150l-120 -21l88 -81l-131 -92z" />
    <glyph glyph-name="backslash" unicode="\" horiz-adv-x="473" 
d="M451 -60h-120l-310 820h120z" />
    <glyph glyph-name="periodcentered" unicode="&#xb7;" horiz-adv-x="282" 
d="M243 239c0 -69 -47 -99 -102 -99c-54 0 -102 30 -102 99c0 68 48 98 102 98c55 0 102 -30 102 -98z" />
    <glyph glyph-name="bullet" unicode="&#x2022;" horiz-adv-x="418" 
d="M59 350c0 100 71 144 150 144c81 0 150 -44 150 -144c0 -101 -69 -145 -150 -145c-79 0 -150 44 -150 145z" />
    <glyph glyph-name="colon" unicode=":" horiz-adv-x="296" 
d="M250 364c0 -69 -47 -99 -102 -99c-54 0 -102 30 -102 99c0 68 48 98 102 98c55 0 102 -30 102 -98zM250 84c0 -69 -47 -99 -102 -99c-54 0 -102 30 -102 99c0 68 48 98 102 98c55 0 102 -30 102 -98z" />
    <glyph glyph-name="comma" unicode="," horiz-adv-x="281" 
d="M137 -143h-138l68 290h180z" />
    <glyph glyph-name="ellipsis" unicode="&#x2026;" horiz-adv-x="825" 
d="M790 84c0 -69 -47 -99 -102 -99c-54 0 -102 30 -102 99c0 68 48 98 102 98c55 0 102 -30 102 -98zM238 84c0 -69 -47 -99 -102 -99c-54 0 -102 30 -102 99c0 68 48 98 102 98c55 0 102 -30 102 -98zM514 84c0 -69 -47 -99 -102 -99c-54 0 -102 30 -102 99
c0 68 48 98 102 98c55 0 102 -30 102 -98z" />
    <glyph glyph-name="exclam" unicode="!" horiz-adv-x="294" 
d="M227 260h-160l-10 440h180zM249 84c0 -69 -47 -99 -102 -99c-54 0 -102 30 -102 99c0 68 48 98 102 98c55 0 102 -30 102 -98z" />
    <glyph glyph-name="exclamdown" unicode="&#xa1;" horiz-adv-x="286" 
d="M233 -220h-180l10 440h160zM245 396c0 -68 -47 -98 -102 -98c-54 0 -102 30 -102 98c0 69 48 99 102 99c55 0 102 -30 102 -99z" />
    <glyph glyph-name="numbersign" unicode="#" horiz-adv-x="705" 
d="M222 0h-160l33 140h-63v120h91l39 161h-80v120h108l33 140h160l-33 -140h100l33 140h160l-33 -140h62v-120h-90l-39 -161h79v-120h-107l-33 -140h-160l33 140h-100zM322 421l-39 -161h100l39 161h-100z" />
    <glyph glyph-name="period" unicode="." horiz-adv-x="273" 
d="M238 84c0 -69 -47 -99 -102 -99c-54 0 -102 30 -102 99c0 68 48 98 102 98c55 0 102 -30 102 -98z" />
    <glyph glyph-name="question" unicode="?" horiz-adv-x="503" 
d="M305 242h-160c0 124 145 193 145 250c0 48 -40 63 -92 63c-58 0 -120 -22 -163 -47v160c53 27 120 47 194 47c126 0 246 -44 246 -178c0 -137 -170 -212 -170 -295zM328 84c0 -69 -47 -99 -102 -99c-54 0 -102 30 -102 99c0 68 48 98 102 98c55 0 102 -30 102 -98z" />
    <glyph glyph-name="questiondown" unicode="&#xbf;" horiz-adv-x="497" 
d="M465 -188c-53 -27 -120 -47 -194 -47c-126 0 -246 44 -246 178c0 137 170 212 170 295h160c0 -124 -145 -193 -145 -250c0 -48 40 -63 92 -63c58 0 120 22 163 47v-160zM376 396c0 -68 -48 -98 -102 -98c-55 0 -102 30 -102 98c0 69 47 99 102 99c54 0 102 -30 102 -99z
" />
    <glyph glyph-name="quotedbl" unicode="&#x22;" horiz-adv-x="454" 
d="M390 460h-120v240h150zM170 460h-120v240h150z" />
    <glyph glyph-name="quotesingle" unicode="'" horiz-adv-x="234" 
d="M170 460h-120v240h150z" />
    <glyph glyph-name="semicolon" unicode=";" horiz-adv-x="304" 
d="M146 -143h-138l68 290h180zM257 387c0 -69 -47 -99 -102 -99c-54 0 -102 30 -102 99c0 68 48 98 102 98c55 0 102 -30 102 -98z" />
    <glyph glyph-name="slash" unicode="/" horiz-adv-x="473" 
d="M142 -60h-120l310 820h120z" />
    <glyph glyph-name="underscore" unicode="_" horiz-adv-x="500" 
d="M500 -186h-500v140h500v-140z" />
    <glyph glyph-name="braceleft" unicode="{" horiz-adv-x="384" 
d="M348 40v-150c-157 -36 -250 30 -250 155v170c0 54 -34 60 -71 60v150c34 0 71 4 71 60v170c0 125 93 191 250 155v-150c-61 11 -80 -20 -80 -80v-120c0 -74 -54 -110 -100 -110c46 0 100 -36 100 -110v-120c0 -60 19 -91 80 -80z" />
    <glyph glyph-name="braceright" unicode="}" horiz-adv-x="384" 
d="M286 45c0 -125 -93 -191 -250 -155v150c61 -11 80 20 80 80v120c0 74 54 110 100 110c-46 0 -100 36 -100 110v120c0 60 -19 91 -80 80v150c157 36 250 -30 250 -155v-170c0 -56 37 -60 71 -60v-150c-37 0 -71 -6 -71 -60v-170z" />
    <glyph glyph-name="bracketleft" unicode="[" horiz-adv-x="357" 
d="M328 -110h-270v920h270v-150h-100v-620h100v-150z" />
    <glyph glyph-name="bracketright" unicode="]" horiz-adv-x="357" 
d="M299 -110h-270v150h100v620h-100v150h270v-920z" />
    <glyph glyph-name="parenleft" unicode="(" horiz-adv-x="333" 
d="M186 811h130c-66 -128 -113 -295 -113 -461s47 -333 113 -461h-130c-92 127 -153 299 -153 461s61 334 153 461z" />
    <glyph glyph-name="parenright" unicode=")" horiz-adv-x="332" 
d="M16 811h130c92 -127 153 -299 153 -461s-61 -334 -153 -461h-130c66 128 113 295 113 461s-47 333 -113 461z" />
    <glyph glyph-name="emdash" unicode="&#x2014;" horiz-adv-x="784" 
d="M732 171h-680v140h680v-140z" />
    <glyph glyph-name="endash" unicode="&#x2013;" horiz-adv-x="584" 
d="M532 171h-480v140h480v-140z" />
    <glyph glyph-name="hyphen" unicode="-" horiz-adv-x="484" 
d="M52 311h380v-140h-380v140z" />
    <glyph glyph-name="emdash.case" horiz-adv-x="790" 
d="M735 280h-680v140h680v-140z" />
    <glyph glyph-name="endash.case" horiz-adv-x="590" 
d="M535 280h-480v140h480v-140z" />
    <glyph glyph-name="hyphen.case" horiz-adv-x="490" 
d="M55 420h380v-140h-380v140z" />
    <glyph glyph-name="guillemotleft" unicode="&#xab;" horiz-adv-x="607" 
d="M579 40h-170l-132 185v30l132 185h170l-141 -200zM329 40h-170l-132 185v30l132 185h170l-141 -200z" />
    <glyph glyph-name="guillemotright" unicode="&#xbb;" horiz-adv-x="607" 
d="M448 40h-170l141 200l-141 200h170l132 -185v-30zM198 40h-170l141 200l-141 200h170l132 -185v-30z" />
    <glyph glyph-name="guilsinglleft" unicode="&#x2039;" horiz-adv-x="357" 
d="M329 40h-170l-132 185v30l132 185h170l-141 -200z" />
    <glyph glyph-name="guilsinglright" unicode="&#x203a;" horiz-adv-x="357" 
d="M198 40h-170l141 200l-141 200h170l132 -185v-30z" />
    <glyph glyph-name="quotedblbase" unicode="&#x201e;" horiz-adv-x="501" 
d="M357 -143h-138l68 290h180zM137 -143h-138l68 290h180z" />
    <glyph glyph-name="quotedblleft" unicode="&#x201c;" horiz-adv-x="511" 
d="M422 410h-180l110 290h138zM202 410h-180l110 290h138z" />
    <glyph glyph-name="quotedblright" unicode="&#x201d;" horiz-adv-x="506" 
d="M389 410h-138l68 290h180zM169 410h-138l68 290h180z" />
    <glyph glyph-name="quoteleft" unicode="&#x2018;" horiz-adv-x="291" 
d="M202 410h-180l110 290h138z" />
    <glyph glyph-name="quoteright" unicode="&#x2019;" horiz-adv-x="286" 
d="M169 410h-138l68 290h180z" />
    <glyph glyph-name="quotesinglbase" unicode="&#x201a;" horiz-adv-x="281" 
d="M137 -143h-138l68 290h180z" />
    <glyph glyph-name="guillemotleft.case" horiz-adv-x="639" 
d="M590 150h-170l-132 185v30l132 185h170l-141 -200zM340 150h-170l-132 185v30l132 185h170l-141 -200z" />
    <glyph glyph-name="guillemotright.case" horiz-adv-x="639" 
d="M469 150h-170l141 200l-141 200h170l132 -185v-30zM219 150h-170l141 200l-141 200h170l132 -185v-30z" />
    <glyph glyph-name="guilsinglleft.case" horiz-adv-x="389" 
d="M340 150h-170l-132 185v30l132 185h170l-141 -200z" />
    <glyph glyph-name="guilsinglright.case" horiz-adv-x="389" 
d="M219 150h-170l141 200l-141 200h170l132 -185v-30z" />
    <glyph glyph-name="space" unicode=" " horiz-adv-x="208" 
 />
    <glyph glyph-name="cent" unicode="&#xa2;" horiz-adv-x="510" 
d="M383 135c29 5 56 15 77 27v-145c-24 -10 -50 -18 -77 -23v-114h-110v106c-126 8 -243 83 -243 244c0 173 118 252 243 264v106h110v-112c25 -6 50 -14 72 -25v-145c-20 12 -46 21 -72 27v-210zM273 342c-39 -15 -68 -46 -68 -102c0 -53 29 -85 68 -100v202z" />
    <glyph glyph-name="currency" unicode="&#xa4;" horiz-adv-x="567" 
d="M181 172l-61 -61l-76 76l56 56c-18 29 -29 65 -29 107s11 78 29 108l-56 56l75 76l62 -62c31 15 66 22 102 22c37 0 72 -8 103 -22l62 63l75 -77l-57 -57c18 -29 29 -65 29 -107s-10 -77 -28 -107l56 -56l-76 -76l-61 61c-31 -14 -66 -22 -103 -22c-36 0 -71 7 -102 22z
M211 350c0 -35 21 -72 72 -72s72 37 72 72s-21 72 -72 72s-72 -37 -72 -72z" />
    <glyph glyph-name="dollar" unicode="$" horiz-adv-x="618" 
d="M372 -130h-130v118c-75 8 -145 29 -202 61v175c83 -57 175 -79 255 -79c73 0 104 12 104 47c0 101 -354 47 -354 297c0 121 82 187 197 202v119h130v-120c65 -8 128 -26 172 -51v-170c-60 45 -139 67 -220 66c-68 -1 -89 -19 -89 -45c0 -91 354 -43 354 -291
c0 -143 -94 -198 -217 -211v-118z" />
    <glyph glyph-name="Euro" unicode="&#x20ac;" horiz-adv-x="728" 
d="M676 29c-61 -29 -130 -44 -199 -44c-158 0 -308 71 -357 235h-88v100h72v20v20h-72v100h89c49 161 197 235 352 235c71 0 142 -15 203 -44v-175c-43 36 -107 57 -171 57c-69 0 -134 -24 -173 -73h210v-100h-247c-1 -6 -1 -13 -1 -20s0 -14 1 -20h247v-100h-211
c39 -50 104 -72 172 -72c67 0 133 22 173 61v-180z" />
    <glyph glyph-name="sterling" unicode="&#xa3;" horiz-adv-x="606" 
d="M568 0h-530v145h20c43 0 70 36 70 86v39h-77v130h77v49c0 174 120 246 252 246c56 0 115 -12 167 -36v-145c-36 32 -84 46 -128 46c-65 0 -121 -33 -121 -114v-46h178v-130h-178v-39c0 -44 -14 -70 -38 -86h308v-145z" />
    <glyph glyph-name="yen" unicode="&#xa5;" horiz-adv-x="736" 
d="M513 680h198l-189 -320h96v-110h-158v-50h158v-110h-158v-90h-184v90h-158v110h158v50h-158v110h96l-189 320h198l145 -279z" />
    <glyph glyph-name="cent.tf" horiz-adv-x="650" 
d="M453 135c29 5 56 15 77 27v-145c-24 -10 -50 -18 -77 -23v-114h-110v106c-126 8 -243 83 -243 244c0 173 118 252 243 264v106h110v-112c25 -6 50 -14 72 -25v-145c-20 12 -46 21 -72 27v-210zM343 342c-39 -15 -68 -46 -68 -102c0 -53 29 -85 68 -100v202z" />
    <glyph glyph-name="currency.tf" horiz-adv-x="650" 
d="M223 172l-81 -81l-76 76l76 76c-18 29 -29 65 -29 107s11 78 29 108l-76 76l75 76l82 -82c31 15 66 22 102 22s71 -7 102 -22l82 82l75 -76l-76 -76c18 -30 29 -66 29 -108s-11 -78 -29 -107l76 -76l-76 -76l-81 81c-31 -15 -66 -22 -102 -22s-71 7 -102 22zM253 350
c0 -35 21 -72 72 -72s72 37 72 72s-21 72 -72 72s-72 -37 -72 -72z" />
    <glyph glyph-name="dollar.tf" horiz-adv-x="650" 
d="M382 -130h-110v117c-79 7 -152 29 -212 62v175c83 -57 175 -79 255 -79c73 0 104 12 104 47c0 101 -369 47 -369 297c0 126 97 192 222 204v117h110v-119c63 -8 122 -26 167 -52v-170c-60 45 -139 67 -220 66c-68 -1 -89 -19 -89 -45c0 -91 369 -43 369 -291
c0 -146 -99 -201 -227 -212v-117z" />
    <glyph glyph-name="Euro.tf" horiz-adv-x="650" 
d="M322 220c42 -50 111 -72 179 -72c40 0 80 8 114 23v-165c-45 -14 -92 -21 -140 -21c-158 0 -315 71 -366 235h-89v100h72v20v20h-72v100h90c51 161 205 235 356 235c49 0 98 -7 144 -21v-163c-34 14 -73 22 -112 22c-66 0 -133 -24 -175 -73h197v-100h-237
c-1 -6 -1 -13 -1 -20s0 -14 1 -20h237v-100h-198z" />
    <glyph glyph-name="sterling.tf" horiz-adv-x="650" 
d="M608 0h-560v145h20c43 0 70 36 70 86v39h-77v130h77v49c0 174 110 246 262 246c56 0 115 -12 167 -36v-145c-36 28 -84 46 -138 46c-75 0 -121 -38 -121 -114v-46h178v-130h-178v-39c0 -44 -14 -70 -38 -86h338v-145z" />
    <glyph glyph-name="yen.tf" horiz-adv-x="650" 
d="M441 680h198l-171 -320h107v-110h-158v-50h158v-110h-158v-90h-184v90h-158v110h158v50h-158v110h107l-171 320h198l116 -269z" />
    <glyph glyph-name="approxequal" unicode="&#x2248;" horiz-adv-x="619" 
d="M560 555c17 -122 -47 -183 -138 -183c-75 0 -160 55 -198 52c-19 0 -29 -13 -24 -44h-140c-17 126 52 183 134 183c83 0 155 -52 201 -52c19 0 30 11 25 44h140zM560 339c17 -122 -47 -183 -138 -183c-75 0 -160 55 -198 52c-19 0 -29 -13 -24 -44h-140
c-17 126 52 183 134 183c83 0 155 -52 201 -52c19 0 30 11 25 44h140z" />
    <glyph glyph-name="asciitilde" unicode="~" horiz-adv-x="604" 
d="M555 420c17 -122 -47 -183 -138 -183c-75 0 -160 55 -198 52c-19 0 -29 -13 -24 -44h-140c-17 126 52 183 134 183c83 0 155 -52 201 -52c19 0 30 11 25 44h140z" />
    <glyph glyph-name="divide" unicode="&#xf7;" horiz-adv-x="544" 
d="M512 280h-480v140h480v-140zM374 127c0 -69 -47 -99 -102 -99c-54 0 -102 30 -102 99c0 68 48 98 102 98c55 0 102 -30 102 -98zM374 574c0 -69 -47 -99 -102 -99c-54 0 -102 30 -102 99c0 68 48 98 102 98c55 0 102 -30 102 -98z" />
    <glyph glyph-name="emptyset" unicode="&#x2205;" horiz-adv-x="808" 
d="M754 700l-85 -99c62 -65 100 -154 100 -251c0 -202 -164 -365 -365 -365c-77 0 -149 24 -208 64l-42 -49h-100l85 99c-62 65 -100 154 -100 251c0 202 163 365 365 365c77 0 148 -24 207 -65l43 50h100zM404 630c-155 0 -280 -125 -280 -280c0 -72 27 -137 71 -186
l361 421c-44 29 -96 45 -152 45zM252 115c44 -29 96 -45 152 -45c154 0 280 125 280 280c0 71 -27 136 -71 186z" />
    <glyph glyph-name="equal" unicode="=" horiz-adv-x="590" 
d="M535 384h-480v140h480v-140zM535 176h-480v140h480v-140z" />
    <glyph glyph-name="greater" unicode="&#x3e;" horiz-adv-x="512" 
d="M474 265l-410 -140v150l267 75l-267 75v150l410 -140v-170z" />
    <glyph glyph-name="greaterequal" unicode="&#x2265;" horiz-adv-x="524" 
d="M472 320l-410 -140v150l267 75l-267 75v150l410 -140v-170zM472 0h-410v140h410v-140z" />
    <glyph glyph-name="infinity" unicode="&#x221e;" horiz-adv-x="886" 
d="M443 461c49 58 109 107 197 107c111 0 202 -77 202 -210s-91 -210 -202 -210c-88 0 -148 49 -197 107c-49 -58 -109 -107 -197 -107c-111 0 -202 77 -202 210s91 210 202 210c88 0 148 -49 197 -107zM367 358c-33 45 -64 70 -101 70c-31 0 -62 -22 -62 -70s31 -70 62 -70
c37 0 68 25 101 70zM682 358c0 48 -31 70 -62 70c-37 0 -68 -25 -101 -70c33 -45 64 -70 101 -70c31 0 62 22 62 70z" />
    <glyph glyph-name="integral" unicode="&#x222b;" horiz-adv-x="480" 
d="M155 601c0 152 105 194 202 194c43 0 85 -8 115 -19v-145c-16 6 -44 14 -72 14c-38 0 -75 -15 -75 -71v-615c0 -152 -105 -194 -203 -194c-43 0 -84 8 -114 19v145c16 -6 44 -14 72 -14c38 0 75 16 75 71v615z" />
    <glyph glyph-name="less" unicode="&#x3c;" horiz-adv-x="512" 
d="M448 275v-150l-410 140v170l410 140v-150l-267 -75z" />
    <glyph glyph-name="lessequal" unicode="&#x2264;" horiz-adv-x="522" 
d="M461 320v-150l-410 140v170l410 140v-150l-267 -75zM461 0h-410v140h410v-140z" />
    <glyph glyph-name="logicalnot" unicode="&#xac;" horiz-adv-x="579" 
d="M522 220h-140v120h-340v140h480v-260z" />
    <glyph glyph-name="minus" unicode="&#x2212;" horiz-adv-x="520" 
d="M465 280h-410v140h410v-140z" />
    <glyph glyph-name="multiply" unicode="&#xd7;" horiz-adv-x="518" 
d="M259 258l-124 -124l-92 92l124 124l-124 124l92 92l124 -124l124 124l92 -92l-124 -124l124 -124l-92 -92z" />
    <glyph glyph-name="notequal" unicode="&#x2260;" horiz-adv-x="590" 
d="M205 76h-120l55 100h-85v140h161l38 68h-199v140h275l55 100h120l-55 -100h85v-140h-161l-38 -68h199v-140h-275z" />
    <glyph glyph-name="partialdiff" unicode="&#x2202;" horiz-adv-x="583" 
d="M548 300c0 -204 -100 -315 -270 -315c-148 0 -250 95 -250 235s86 225 200 225c62 0 119 -25 145 -67c-1 12 -3 23 -5 34c-25 99 -116 163 -268 153v150c260 0 448 -132 448 -415zM203 215c0 -34 10 -100 85 -100s85 66 85 100s-10 100 -85 100s-85 -66 -85 -100z" />
    <glyph glyph-name="percent" unicode="%" horiz-adv-x="935" 
d="M320 -60h-110l409 820h110zM408 535c0 -120 -88 -180 -190 -180c-103 0 -191 60 -191 180s88 180 191 180c102 0 190 -60 190 -180zM159 535c0 -30 16 -60 59 -60c42 0 58 30 58 60s-16 60 -58 60c-43 0 -59 -30 -59 -60zM908 165c0 -120 -88 -180 -190 -180
c-103 0 -191 60 -191 180s88 180 191 180c102 0 190 -60 190 -180zM659 165c0 -30 16 -60 59 -60c42 0 58 30 58 60s-16 60 -58 60c-43 0 -59 -30 -59 -60z" />
    <glyph glyph-name="perthousand" unicode="&#x2030;" horiz-adv-x="1355" 
d="M320 -60h-110l409 820h110zM408 535c0 -120 -88 -180 -190 -180c-103 0 -191 60 -191 180s88 180 191 180c102 0 190 -60 190 -180zM159 535c0 -30 16 -60 59 -60c42 0 58 30 58 60s-16 60 -58 60c-43 0 -59 -30 -59 -60zM908 165c0 -120 -88 -180 -190 -180
c-103 0 -191 60 -191 180s88 180 191 180c102 0 190 -60 190 -180zM659 165c0 -30 16 -60 59 -60c42 0 58 30 58 60s-16 60 -58 60c-43 0 -59 -30 -59 -60zM1328 165c0 -115 -88 -180 -190 -180c-103 0 -191 65 -191 180s88 180 191 180c102 0 190 -65 190 -180zM1079 165
c0 -30 16 -60 59 -60c42 0 58 30 58 60s-16 60 -58 60c-43 0 -59 -30 -59 -60z" />
    <glyph glyph-name="plus" unicode="+" horiz-adv-x="546" 
d="M343 420h170v-140h-170v-170h-140v170h-170v140h170v170h140v-170z" />
    <glyph glyph-name="plusminus" unicode="&#xb1;" horiz-adv-x="580" 
d="M360 670v-170h170v-140h-170v-170h-140v170h-170v140h170v170h140zM530 0h-480v140h480v-140z" />
    <glyph glyph-name="product" unicode="&#x220f;" horiz-adv-x="804" 
d="M302 -220h-185v775h-85v145h740v-145h-85v-775h-185v775h-200v-775z" />
    <glyph glyph-name="radical" unicode="&#x221a;" horiz-adv-x="787" 
d="M424 0h-151l-144 315h-108v165h218l109 -271l259 571h193z" />
    <glyph glyph-name="summation" unicode="&#x2211;" horiz-adv-x="591" 
d="M547 0h-510v100l220 250l-220 250v100h504v-165h-232l148 -168v-34l-148 -168h238v-165z" />
    <glyph glyph-name="lozenge" unicode="&#x25ca;" horiz-adv-x="610" 
d="M400 0h-190l-180 350l180 350h190l180 -350zM200 350l105 -204l105 204l-105 204z" />
    <glyph glyph-name="bar" unicode="|" horiz-adv-x="286" 
d="M228 -100h-170v910h170v-910z" />
    <glyph glyph-name="brokenbar" unicode="&#xa6;" horiz-adv-x="296" 
d="M233 430h-170v380h170v-380zM233 -100h-170v380h170v-380z" />
    <glyph glyph-name="at" unicode="@" horiz-adv-x="1046" 
d="M32 240c0 244 173 475 498 475s478 -241 478 -435c0 -187 -92 -275 -231 -275c-81 0 -146 40 -170 100c-23 -40 -64 -73 -136 -73c-126 0 -184 110 -184 206c0 97 53 207 188 207c67 0 105 -27 132 -63v51h122v-240c0 -40 14 -68 59 -68c60 0 70 74 70 155
c0 137 -105 300 -328 300s-348 -163 -348 -340c0 -237 181 -338 392 -338c70 0 144 12 215 35v-135c-73 -26 -148 -36 -220 -36c-286 0 -537 159 -537 474zM591 279c-12 29 -41 53 -79 53c-59 0 -83 -48 -83 -94c0 -45 24 -93 83 -93c38 0 67 24 79 53v81z" />
    <glyph glyph-name="ampersand" unicode="&#x26;" horiz-adv-x="738" 
d="M608 134l136 -134h-190l-47 45c-60 -37 -134 -60 -220 -60c-147 0 -249 78 -249 190c0 93 61 149 134 189c-38 42 -74 95 -74 154c0 115 100 197 244 197c124 0 224 -76 224 -186c0 -98 -80 -152 -164 -194l95 -94c18 34 28 72 28 109h165c0 -70 -28 -150 -82 -216z
M406 523c0 35 -23 61 -67 61c-52 0 -81 -36 -81 -68c0 -36 22 -62 50 -89c56 26 98 53 98 96zM213 194c0 -45 37 -70 100 -70c32 0 62 8 88 21l-132 125c-33 -20 -56 -42 -56 -76z" />
    <glyph glyph-name="paragraph" unicode="&#xb6;" horiz-adv-x="780" 
d="M435 -220h-175v480c-146 0 -234 82 -234 220s88 220 234 220h450v-920h-175v755h-100v-755z" />
    <glyph glyph-name="copyright" unicode="&#xa9;" horiz-adv-x="846" 
d="M809 350c0 -243 -190 -365 -386 -365s-386 122 -386 365s190 365 386 365s386 -122 386 -365zM582 179c-46 -24 -81 -34 -146 -34c-97 0 -211 58 -211 197c0 151 110 213 223 213c52 0 95 -10 134 -34v-104c-32 17 -68 29 -108 29c-51 0 -109 -24 -109 -96
c0 -76 58 -96 109 -96c40 0 76 12 108 29v-104zM97 350c0 -206 162 -310 326 -310s326 104 326 310s-162 310 -326 310s-326 -104 -326 -310z" />
    <glyph glyph-name="registered" unicode="&#xae;" horiz-adv-x="834" 
d="M798 350c0 -235 -185 -365 -381 -365s-381 130 -381 365s185 365 381 365s381 -130 381 -365zM96 350c0 -206 152 -307 321 -307s321 101 321 307s-152 307 -321 307s-321 -101 -321 -307zM369 162h-115v390h199c79 0 160 -43 160 -141c0 -64 -35 -106 -82 -121l105 -128
h-131l-93 118h-6h-37v-118zM369 444v-76h69c24 0 49 8 49 38s-25 38 -49 38h-69z" />
    <glyph glyph-name="section" unicode="&#xa7;" horiz-adv-x="533" 
d="M483 120c0 -120 -108 -155 -229 -155c-75 0 -132 15 -183 44v130c53 -33 115 -48 174 -48c42 0 63 4 63 24c0 24 -51 37 -109 54c-77 23 -157 61 -157 153c0 65 29 103 66 129c-33 24 -56 58 -56 111c0 117 102 153 213 153c70 0 130 -17 181 -41v-130
c-42 24 -113 46 -169 46c-25 0 -50 -4 -50 -24c0 -26 56 -41 118 -59c75 -22 148 -59 148 -147c0 -50 -24 -95 -65 -123c32 -26 55 -63 55 -117zM251 310c16 -6 36 -11 56 -18c15 15 21 28 21 43c0 21 -17 34 -42 45c-17 7 -38 14 -61 21c-21 -13 -28 -27 -28 -45
c0 -21 22 -34 54 -46z" />
    <glyph glyph-name="trademark" unicode="&#x2122;" horiz-adv-x="689" 
d="M397 440h-94v260h79l84 -111l84 111h79v-260h-94v116l-44 -58h-50l-44 58v-116zM201 440h-94v176h-72v84h238v-84h-72v-176z" />
    <glyph glyph-name="degree" unicode="&#xb0;" horiz-adv-x="430" 
d="M403 539c0 -118 -86 -180 -188 -180c-100 0 -188 62 -188 180c0 112 88 176 188 176c102 0 188 -64 188 -176zM152 539c0 -40 24 -65 63 -65s62 25 62 65c0 37 -23 61 -62 61s-63 -24 -63 -61z" />
    <glyph glyph-name="asciicircum" unicode="^" horiz-adv-x="630" 
d="M210 340h-180l210 360h150l210 -360h-180l-105 195z" />
    <glyph glyph-name="dagger" unicode="&#x2020;" horiz-adv-x="556" 
d="M371 -220h-185v535h-158v165h158v220h185v-220h157v-165h-157v-535z" />
    <glyph glyph-name="daggerdbl" unicode="&#x2021;" horiz-adv-x="609" 
d="M397 -220h-185v220h-165v160h165v160h-165v160h165v220h185v-220h165v-160h-165v-160h165v-160h-165v-220z" />
    <glyph glyph-name="acute" unicode="&#xb4;" horiz-adv-x="270" 
d="M160 760h-160l90 150h180z" />
    <glyph glyph-name="breve" unicode="&#x2d8;" horiz-adv-x="370" 
d="M350 780c-43 -29 -91 -46 -165 -46s-122 17 -165 46v126c54 -33 108 -42 165 -42s111 9 165 42v-126z" />
    <glyph glyph-name="caron" unicode="&#x2c7;" horiz-adv-x="390" 
d="M400 920l-130 -160h-150l-130 160h155l50 -63l50 63h155z" />
    <glyph glyph-name="cedilla" unicode="&#xb8;" horiz-adv-x="225" 
d="M57 0h112l-12 -43c64 -10 88 -42 88 -92c0 -74 -85 -100 -150 -100c-35 0 -70 4 -105 19v95c22 -13 51 -18 76 -18c31 0 56 8 56 28c0 23 -37 30 -86 26z" />
    <glyph glyph-name="circumflex" unicode="&#x2c6;" horiz-adv-x="390" 
d="M120 910h150l120 -160h-155l-40 53l-40 -53h-155z" />
    <glyph glyph-name="dieresis" unicode="&#xa8;" horiz-adv-x="370" 
d="M380 831c0 -47 -38 -85 -85 -85s-85 38 -85 85s38 85 85 85s85 -38 85 -85zM160 831c0 -47 -38 -85 -85 -85s-85 38 -85 85s38 85 85 85s85 -38 85 -85z" />
    <glyph glyph-name="dotaccent" unicode="&#x2d9;" horiz-adv-x="180" 
d="M-2 842c0 62 43 90 93 90s93 -28 93 -90c0 -63 -43 -90 -93 -90s-93 27 -93 90z" />
    <glyph glyph-name="grave" unicode="`" horiz-adv-x="290" 
d="M280 760h-160l-110 150h180z" />
    <glyph glyph-name="hungarumlaut" unicode="&#x2dd;" horiz-adv-x="460" 
d="M385 770h-150l74 157h160zM190 770h-150l74 157h160z" />
    <glyph glyph-name="macron" unicode="&#xaf;" horiz-adv-x="360" 
d="M10 888h340v-130h-340v130z" />
    <glyph glyph-name="ogonek" unicode="&#x2db;" horiz-adv-x="230" 
d="M78 0h137c-46 -30 -62 -61 -62 -82s14 -28 31 -28c11 0 22 3 31 8v-110c-27 -16 -60 -23 -91 -23c-80 0 -122 48 -121 106c1 43 25 92 75 129z" />
    <glyph glyph-name="ring" unicode="&#x2da;" horiz-adv-x="260" 
d="M260 856c0 -81 -60 -126 -130 -126c-69 0 -130 45 -130 126c0 78 61 124 130 124c70 0 130 -46 130 -124zM95 856c0 -21 13 -37 35 -37s35 16 35 37c0 20 -13 35 -35 35s-35 -15 -35 -35z" />
    <glyph glyph-name="tilde" unicode="&#x2dc;" horiz-adv-x="427" 
d="M401 894c24 -88 -22 -157 -100 -157c-67 0 -107 42 -139 42c-25 0 -24 -26 -20 -36h-115c-24 88 22 157 100 157c67 0 107 -42 139 -42c25 0 24 26 20 36h115z" />
    <glyph glyph-name="uni0326" unicode="&#x326;" horiz-adv-x="168" 
d="M157 -280h-135l35 220h155z" />
    <glyph glyph-name="A" unicode="A" horiz-adv-x="752" 
d="M191 0h-190l275 700h200l275 -700h-190l-40 110h-290zM358 462l-72 -202h180l-72 202c-6 17 -12 34 -18 71c-6 -37 -12 -54 -18 -71z" />
    </font>
</defs>
</svg>
